<svg width="40" height="40" viewBox="0 0 40 40" fill="none" xmlns="http://www.w3.org/2000/svg">
<rect width="40" height="40" rx="20" fill="#FF8A15"/>
<path d="M23.62 17.74C23.62 18.22 23.52 18.6933 23.32 19.16C23.12 19.6133 22.86 20.06 22.54 20.5C22.2333 20.9267 21.88 21.3467 21.48 21.76C21.08 22.16 20.68 22.5533 20.28 22.94C20.0667 23.14 19.8267 23.38 19.56 23.66C19.2933 23.94 19.04 24.22 18.8 24.5C18.56 24.78 18.3533 25.0533 18.18 25.32C18.0067 25.5733 17.9133 25.7867 17.9 25.96H24.06V28H15.24C15.2267 27.8933 15.22 27.7667 15.22 27.62C15.22 27.46 15.22 27.34 15.22 27.26C15.22 26.62 15.32 26.0333 15.52 25.5C15.7333 24.9533 16.0067 24.4467 16.34 23.98C16.6733 23.5133 17.0467 23.0733 17.46 22.66C17.8733 22.2467 18.2867 21.84 18.7 21.44C19.02 21.1333 19.3267 20.8333 19.62 20.54C19.9133 20.2467 20.1667 19.96 20.38 19.68C20.6067 19.3867 20.7867 19.0933 20.92 18.8C21.0533 18.4933 21.12 18.18 21.12 17.86C21.12 17.1667 20.92 16.6733 20.52 16.38C20.12 16.0867 19.6333 15.94 19.06 15.94C18.6867 15.94 18.34 15.9933 18.02 16.1C17.7 16.2067 17.4133 16.3333 17.16 16.48C16.92 16.6267 16.7067 16.78 16.52 16.94C16.3333 17.0867 16.1933 17.2067 16.1 17.3L14.9 15.6C15.46 15.0667 16.1133 14.64 16.86 14.32C17.62 13.9867 18.4333 13.82 19.3 13.82C20.78 13.82 21.8667 14.1733 22.56 14.88C23.2667 15.5733 23.62 16.5267 23.62 17.74Z" fill="white"/>
</svg>
