<svg width="40" height="40" viewBox="0 0 40 40" fill="none" xmlns="http://www.w3.org/2000/svg">
<rect width="40" height="40" rx="20" fill="#FF8A15"/>
<path d="M18.72 28.3C18.36 28.3 17.9867 28.2733 17.6 28.22C17.2267 28.18 16.8667 28.12 16.52 28.04C16.1867 27.9733 15.88 27.9 15.6 27.82C15.32 27.7267 15.1067 27.64 14.96 27.56L15.44 25.5C15.72 25.6333 16.1267 25.7867 16.66 25.96C17.1933 26.12 17.8533 26.2 18.64 26.2C19.6933 26.2 20.4533 26 20.92 25.6C21.3867 25.1867 21.62 24.64 21.62 23.96C21.62 23.52 21.5267 23.1533 21.34 22.86C21.1667 22.5667 20.92 22.3333 20.6 22.16C20.2933 21.9733 19.9333 21.8467 19.52 21.78C19.12 21.7 18.6933 21.66 18.24 21.66H17.42V19.7H18.42C18.7267 19.7 19.0333 19.6733 19.34 19.62C19.66 19.5533 19.9467 19.4467 20.2 19.3C20.4533 19.14 20.66 18.9333 20.82 18.68C20.98 18.4267 21.06 18.1 21.06 17.7C21.06 17.38 21 17.1067 20.88 16.88C20.76 16.6533 20.6 16.4667 20.4 16.32C20.2133 16.1733 19.9933 16.0667 19.74 16C19.4867 15.9333 19.22 15.9 18.94 15.9C18.34 15.9 17.8067 15.9933 17.34 16.18C16.8733 16.3533 16.46 16.5533 16.1 16.78L15.22 14.98C15.4067 14.86 15.6333 14.7333 15.9 14.6C16.1667 14.4667 16.46 14.34 16.78 14.22C17.1133 14.1 17.4667 14.0067 17.84 13.94C18.2133 13.86 18.6067 13.82 19.02 13.82C19.7933 13.82 20.46 13.9133 21.02 14.1C21.58 14.2867 22.04 14.5533 22.4 14.9C22.7733 15.2333 23.0467 15.6333 23.22 16.1C23.4067 16.5533 23.5 17.0533 23.5 17.6C23.5 18.24 23.32 18.8133 22.96 19.32C22.6133 19.8267 22.16 20.2133 21.6 20.48C22.32 20.7333 22.9133 21.1533 23.38 21.74C23.86 22.3267 24.1 23.08 24.1 24C24.1 24.6133 23.9933 25.1867 23.78 25.72C23.5667 26.24 23.24 26.6933 22.8 27.08C22.36 27.4533 21.8 27.7533 21.12 27.98C20.4533 28.1933 19.6533 28.3 18.72 28.3Z" fill="white"/>
</svg>
