<svg width="218" height="46" viewBox="0 0 218 46" fill="none" xmlns="http://www.w3.org/2000/svg">
<rect width="218" height="46" rx="5" fill="#4F0DA3"/>
<path d="M80.186 28C80.0273 27.58 79.878 27.1693 79.738 26.768C79.598 26.3573 79.4533 25.942 79.304 25.522H74.908L74.026 28H72.612C72.9853 26.9733 73.3353 26.026 73.662 25.158C73.9887 24.2807 74.306 23.45 74.614 22.666C74.9313 21.882 75.244 21.1353 75.552 20.426C75.86 19.7073 76.182 18.998 76.518 18.298H77.764C78.1 18.998 78.422 19.7073 78.73 20.426C79.038 21.1353 79.346 21.882 79.654 22.666C79.9713 23.45 80.2933 24.2807 80.62 25.158C80.9467 26.026 81.2967 26.9733 81.67 28H80.186ZM78.912 24.402C78.6133 23.59 78.3147 22.806 78.016 22.05C77.7267 21.2847 77.4233 20.552 77.106 19.852C76.7793 20.552 76.4667 21.2847 76.168 22.05C75.8787 22.806 75.5893 23.59 75.3 24.402H78.912ZM87.4295 22.26C87.2708 22.1293 87.0421 22.0033 86.7435 21.882C86.4448 21.7607 86.1181 21.7 85.7635 21.7C85.3901 21.7 85.0681 21.77 84.7975 21.91C84.5361 22.0407 84.3215 22.2273 84.1535 22.47C83.9855 22.7033 83.8641 22.9833 83.7895 23.31C83.7148 23.6367 83.6775 23.9867 83.6775 24.36C83.6775 25.2093 83.8875 25.8673 84.3075 26.334C84.7275 26.7913 85.2875 27.02 85.9875 27.02C86.3421 27.02 86.6361 27.006 86.8695 26.978C87.1121 26.9407 87.2988 26.9033 87.4295 26.866V22.26ZM87.4295 17.36L88.7315 17.136V27.79C88.4328 27.874 88.0501 27.958 87.5835 28.042C87.1168 28.126 86.5801 28.168 85.9735 28.168C85.4135 28.168 84.9095 28.0793 84.4615 27.902C84.0135 27.7247 83.6308 27.4727 83.3135 27.146C82.9961 26.8193 82.7488 26.4227 82.5715 25.956C82.4035 25.48 82.3195 24.948 82.3195 24.36C82.3195 23.8 82.3895 23.2867 82.5295 22.82C82.6788 22.3533 82.8935 21.952 83.1735 21.616C83.4535 21.28 83.7941 21.0187 84.1955 20.832C84.6061 20.6453 85.0728 20.552 85.5955 20.552C86.0155 20.552 86.3841 20.608 86.7015 20.72C87.0281 20.832 87.2708 20.9393 87.4295 21.042V17.36ZM95.6736 22.26C95.5149 22.1293 95.2863 22.0033 94.9876 21.882C94.6889 21.7607 94.3623 21.7 94.0076 21.7C93.6343 21.7 93.3123 21.77 93.0416 21.91C92.7803 22.0407 92.5656 22.2273 92.3976 22.47C92.2296 22.7033 92.1083 22.9833 92.0336 23.31C91.9589 23.6367 91.9216 23.9867 91.9216 24.36C91.9216 25.2093 92.1316 25.8673 92.5516 26.334C92.9716 26.7913 93.5316 27.02 94.2316 27.02C94.5863 27.02 94.8803 27.006 95.1136 26.978C95.3563 26.9407 95.5429 26.9033 95.6736 26.866V22.26ZM95.6736 17.36L96.9756 17.136V27.79C96.6769 27.874 96.2943 27.958 95.8276 28.042C95.3609 28.126 94.8243 28.168 94.2176 28.168C93.6576 28.168 93.1536 28.0793 92.7056 27.902C92.2576 27.7247 91.8749 27.4727 91.5576 27.146C91.2403 26.8193 90.9929 26.4227 90.8156 25.956C90.6476 25.48 90.5636 24.948 90.5636 24.36C90.5636 23.8 90.6336 23.2867 90.7736 22.82C90.9229 22.3533 91.1376 21.952 91.4176 21.616C91.6976 21.28 92.0383 21.0187 92.4396 20.832C92.8503 20.6453 93.3169 20.552 93.8396 20.552C94.2596 20.552 94.6283 20.608 94.9456 20.72C95.2723 20.832 95.5149 20.9393 95.6736 21.042V17.36ZM102.636 20.3C103.168 20.0947 103.686 19.8333 104.19 19.516C104.694 19.1893 105.156 18.7833 105.576 18.298H106.5V28H105.198V20.104C105.086 20.2067 104.946 20.314 104.778 20.426C104.619 20.538 104.442 20.6453 104.246 20.748C104.059 20.8507 103.859 20.9487 103.644 21.042C103.439 21.1353 103.238 21.2147 103.042 21.28L102.636 20.3ZM114.815 20.72H117.573V21.812H114.815V25.172C114.815 25.536 114.843 25.8393 114.899 26.082C114.955 26.3153 115.039 26.502 115.151 26.642C115.263 26.7727 115.403 26.866 115.571 26.922C115.739 26.978 115.935 27.006 116.159 27.006C116.551 27.006 116.863 26.964 117.097 26.88C117.339 26.7867 117.507 26.7213 117.601 26.684L117.853 27.762C117.722 27.8273 117.493 27.9067 117.167 28C116.84 28.1027 116.467 28.154 116.047 28.154C115.552 28.154 115.141 28.0933 114.815 27.972C114.497 27.8413 114.241 27.65 114.045 27.398C113.849 27.146 113.709 26.838 113.625 26.474C113.55 26.1007 113.513 25.6713 113.513 25.186V18.69L114.815 18.466V20.72ZM121.917 20.566C122.029 20.566 122.155 20.5753 122.295 20.594C122.445 20.6033 122.589 20.622 122.729 20.65C122.869 20.6687 122.995 20.692 123.107 20.72C123.229 20.7387 123.317 20.7573 123.373 20.776L123.149 21.91C123.047 21.8727 122.874 21.8307 122.631 21.784C122.398 21.728 122.095 21.7 121.721 21.7C121.479 21.7 121.236 21.728 120.993 21.784C120.76 21.8307 120.606 21.8633 120.531 21.882V28H119.229V21.028C119.537 20.916 119.92 20.8133 120.377 20.72C120.835 20.6173 121.348 20.566 121.917 20.566ZM127.094 27.062C127.402 27.062 127.672 27.0573 127.906 27.048C128.148 27.0293 128.349 27.0013 128.508 26.964V24.794C128.414 24.7473 128.26 24.71 128.046 24.682C127.84 24.6447 127.588 24.626 127.29 24.626C127.094 24.626 126.884 24.64 126.66 24.668C126.445 24.696 126.244 24.7567 126.058 24.85C125.88 24.934 125.731 25.0553 125.61 25.214C125.488 25.3633 125.428 25.564 125.428 25.816C125.428 26.2827 125.577 26.6093 125.876 26.796C126.174 26.9733 126.58 27.062 127.094 27.062ZM126.982 20.538C127.504 20.538 127.943 20.608 128.298 20.748C128.662 20.8787 128.951 21.07 129.166 21.322C129.39 21.5647 129.548 21.8587 129.642 22.204C129.735 22.54 129.782 22.9133 129.782 23.324V27.874C129.67 27.8927 129.511 27.9207 129.306 27.958C129.11 27.986 128.886 28.014 128.634 28.042C128.382 28.07 128.106 28.0933 127.808 28.112C127.518 28.14 127.229 28.154 126.94 28.154C126.529 28.154 126.151 28.112 125.806 28.028C125.46 27.944 125.162 27.8133 124.91 27.636C124.658 27.4493 124.462 27.2067 124.322 26.908C124.182 26.6093 124.112 26.25 124.112 25.83C124.112 25.4287 124.191 25.0833 124.35 24.794C124.518 24.5047 124.742 24.2713 125.022 24.094C125.302 23.9167 125.628 23.786 126.002 23.702C126.375 23.618 126.767 23.576 127.178 23.576C127.308 23.576 127.444 23.5853 127.584 23.604C127.724 23.6133 127.854 23.632 127.976 23.66C128.106 23.6787 128.218 23.6973 128.312 23.716C128.405 23.7347 128.47 23.7487 128.508 23.758V23.394C128.508 23.1793 128.484 22.9693 128.438 22.764C128.391 22.5493 128.307 22.3627 128.186 22.204C128.064 22.036 127.896 21.9053 127.682 21.812C127.476 21.7093 127.206 21.658 126.87 21.658C126.44 21.658 126.062 21.6907 125.736 21.756C125.418 21.812 125.18 21.8727 125.022 21.938L124.868 20.86C125.036 20.7853 125.316 20.7153 125.708 20.65C126.1 20.5753 126.524 20.538 126.982 20.538ZM135.108 28.168C134.52 28.168 134.002 28.0747 133.554 27.888C133.116 27.7013 132.742 27.44 132.434 27.104C132.136 26.768 131.912 26.3713 131.762 25.914C131.613 25.4473 131.538 24.934 131.538 24.374C131.538 23.814 131.618 23.3007 131.776 22.834C131.944 22.3673 132.178 21.966 132.476 21.63C132.775 21.2847 133.139 21.0187 133.568 20.832C134.007 20.636 134.492 20.538 135.024 20.538C135.351 20.538 135.678 20.566 136.004 20.622C136.331 20.678 136.644 20.7667 136.942 20.888L136.648 21.994C136.452 21.9007 136.224 21.826 135.962 21.77C135.71 21.714 135.44 21.686 135.15 21.686C134.422 21.686 133.862 21.9147 133.47 22.372C133.088 22.8293 132.896 23.4967 132.896 24.374C132.896 24.766 132.938 25.1253 133.022 25.452C133.116 25.7787 133.256 26.0587 133.442 26.292C133.638 26.5253 133.886 26.7073 134.184 26.838C134.483 26.9593 134.847 27.02 135.276 27.02C135.622 27.02 135.934 26.9873 136.214 26.922C136.494 26.8567 136.714 26.7867 136.872 26.712L137.054 27.804C136.98 27.8507 136.872 27.8973 136.732 27.944C136.592 27.9813 136.434 28.014 136.256 28.042C136.079 28.0793 135.888 28.1073 135.682 28.126C135.486 28.154 135.295 28.168 135.108 28.168ZM141.084 23.996C141.364 24.2107 141.658 24.4767 141.966 24.794C142.283 25.1113 142.591 25.4567 142.89 25.83C143.198 26.194 143.487 26.5673 143.758 26.95C144.029 27.3233 144.257 27.6733 144.444 28H142.918C142.722 27.6733 142.493 27.342 142.232 27.006C141.98 26.6607 141.714 26.334 141.434 26.026C141.154 25.7087 140.869 25.4193 140.58 25.158C140.291 24.8967 140.015 24.6773 139.754 24.5V28H138.452V17.36L139.754 17.136V23.772C139.978 23.548 140.225 23.3007 140.496 23.03C140.767 22.7593 141.033 22.484 141.294 22.204C141.555 21.924 141.803 21.658 142.036 21.406C142.269 21.1447 142.47 20.916 142.638 20.72H144.164C143.949 20.9533 143.716 21.21 143.464 21.49C143.212 21.77 142.951 22.0547 142.68 22.344C142.409 22.624 142.134 22.9087 141.854 23.198C141.583 23.478 141.327 23.744 141.084 23.996Z" fill="#F5F5F5"/>
</svg>
