<svg width="343" height="40" viewBox="0 0 343 40" fill="none" xmlns="http://www.w3.org/2000/svg">
<rect x="0.5" y="0.5" width="342" height="39" rx="19.5" stroke="#4F0DA3"/>
<path d="M137.032 15.684H138.196V24H137.032V15.684ZM145.072 23.196C145.336 23.196 145.568 23.192 145.768 23.184C145.976 23.168 146.148 23.144 146.284 23.112V21.252C146.204 21.212 146.072 21.18 145.888 21.156C145.712 21.124 145.496 21.108 145.24 21.108C145.072 21.108 144.892 21.12 144.7 21.144C144.516 21.168 144.344 21.22 144.184 21.3C144.032 21.372 143.904 21.476 143.8 21.612C143.696 21.74 143.644 21.912 143.644 22.128C143.644 22.528 143.772 22.808 144.028 22.968C144.284 23.12 144.632 23.196 145.072 23.196ZM144.976 17.604C145.424 17.604 145.8 17.664 146.104 17.784C146.416 17.896 146.664 18.06 146.848 18.276C147.04 18.484 147.176 18.736 147.256 19.032C147.336 19.32 147.376 19.64 147.376 19.992V23.892C147.28 23.908 147.144 23.932 146.968 23.964C146.8 23.988 146.608 24.012 146.392 24.036C146.176 24.06 145.94 24.08 145.684 24.096C145.436 24.12 145.188 24.132 144.94 24.132C144.588 24.132 144.264 24.096 143.968 24.024C143.672 23.952 143.416 23.84 143.2 23.688C142.984 23.528 142.816 23.32 142.696 23.064C142.576 22.808 142.516 22.5 142.516 22.14C142.516 21.796 142.584 21.5 142.72 21.252C142.864 21.004 143.056 20.804 143.296 20.652C143.536 20.5 143.816 20.388 144.136 20.316C144.456 20.244 144.792 20.208 145.144 20.208C145.256 20.208 145.372 20.216 145.492 20.232C145.612 20.24 145.724 20.256 145.828 20.28C145.94 20.296 146.036 20.312 146.116 20.328C146.196 20.344 146.252 20.356 146.284 20.364V20.052C146.284 19.868 146.264 19.688 146.224 19.512C146.184 19.328 146.112 19.168 146.008 19.032C145.904 18.888 145.76 18.776 145.576 18.696C145.4 18.608 145.168 18.564 144.88 18.564C144.512 18.564 144.188 18.592 143.908 18.648C143.636 18.696 143.432 18.748 143.296 18.804L143.164 17.88C143.308 17.816 143.548 17.756 143.884 17.7C144.22 17.636 144.584 17.604 144.976 17.604ZM149.23 17.94C149.486 17.876 149.822 17.808 150.238 17.736C150.662 17.664 151.15 17.628 151.702 17.628C152.102 17.628 152.438 17.684 152.71 17.796C152.982 17.9 153.21 18.056 153.394 18.264C153.45 18.224 153.538 18.168 153.658 18.096C153.778 18.024 153.926 17.956 154.102 17.892C154.278 17.82 154.474 17.76 154.69 17.712C154.906 17.656 155.138 17.628 155.386 17.628C155.866 17.628 156.258 17.7 156.562 17.844C156.866 17.98 157.102 18.176 157.27 18.432C157.446 18.688 157.562 18.992 157.618 19.344C157.682 19.696 157.714 20.08 157.714 20.496V24H156.598V20.736C156.598 20.368 156.578 20.052 156.538 19.788C156.506 19.524 156.438 19.304 156.334 19.128C156.238 18.952 156.102 18.824 155.926 18.744C155.758 18.656 155.538 18.612 155.266 18.612C154.89 18.612 154.578 18.664 154.33 18.768C154.09 18.864 153.926 18.952 153.838 19.032C153.902 19.24 153.95 19.468 153.982 19.716C154.014 19.964 154.03 20.224 154.03 20.496V24H152.914V20.736C152.914 20.368 152.894 20.052 152.854 19.788C152.814 19.524 152.742 19.304 152.638 19.128C152.542 18.952 152.406 18.824 152.23 18.744C152.062 18.656 151.846 18.612 151.582 18.612C151.47 18.612 151.35 18.616 151.222 18.624C151.094 18.632 150.97 18.644 150.85 18.66C150.738 18.668 150.634 18.68 150.538 18.696C150.442 18.712 150.378 18.724 150.346 18.732V24H149.23V17.94ZM164.455 23.196C164.719 23.196 164.951 23.192 165.151 23.184C165.359 23.168 165.531 23.144 165.667 23.112V21.252C165.587 21.212 165.455 21.18 165.271 21.156C165.095 21.124 164.879 21.108 164.623 21.108C164.455 21.108 164.275 21.12 164.083 21.144C163.899 21.168 163.727 21.22 163.567 21.3C163.415 21.372 163.287 21.476 163.183 21.612C163.079 21.74 163.027 21.912 163.027 22.128C163.027 22.528 163.155 22.808 163.411 22.968C163.667 23.12 164.015 23.196 164.455 23.196ZM164.359 17.604C164.807 17.604 165.183 17.664 165.487 17.784C165.799 17.896 166.047 18.06 166.231 18.276C166.423 18.484 166.559 18.736 166.639 19.032C166.719 19.32 166.759 19.64 166.759 19.992V23.892C166.663 23.908 166.527 23.932 166.351 23.964C166.183 23.988 165.991 24.012 165.775 24.036C165.559 24.06 165.323 24.08 165.067 24.096C164.819 24.12 164.571 24.132 164.323 24.132C163.971 24.132 163.647 24.096 163.351 24.024C163.055 23.952 162.799 23.84 162.583 23.688C162.367 23.528 162.199 23.32 162.079 23.064C161.959 22.808 161.899 22.5 161.899 22.14C161.899 21.796 161.967 21.5 162.103 21.252C162.247 21.004 162.439 20.804 162.679 20.652C162.919 20.5 163.199 20.388 163.519 20.316C163.839 20.244 164.175 20.208 164.527 20.208C164.639 20.208 164.755 20.216 164.875 20.232C164.995 20.24 165.107 20.256 165.211 20.28C165.323 20.296 165.419 20.312 165.499 20.328C165.579 20.344 165.635 20.356 165.667 20.364V20.052C165.667 19.868 165.647 19.688 165.607 19.512C165.567 19.328 165.495 19.168 165.391 19.032C165.287 18.888 165.143 18.776 164.959 18.696C164.783 18.608 164.551 18.564 164.263 18.564C163.895 18.564 163.571 18.592 163.291 18.648C163.019 18.696 162.815 18.748 162.679 18.804L162.547 17.88C162.691 17.816 162.931 17.756 163.267 17.7C163.603 17.636 163.967 17.604 164.359 17.604ZM168.612 17.94C168.868 17.876 169.208 17.808 169.632 17.736C170.056 17.664 170.544 17.628 171.096 17.628C171.592 17.628 172.004 17.7 172.332 17.844C172.66 17.98 172.92 18.176 173.112 18.432C173.312 18.68 173.452 18.98 173.532 19.332C173.612 19.684 173.652 20.072 173.652 20.496V24H172.536V20.736C172.536 20.352 172.508 20.024 172.452 19.752C172.404 19.48 172.32 19.26 172.2 19.092C172.08 18.924 171.92 18.804 171.72 18.732C171.52 18.652 171.272 18.612 170.976 18.612C170.856 18.612 170.732 18.616 170.604 18.624C170.476 18.632 170.352 18.644 170.232 18.66C170.12 18.668 170.016 18.68 169.92 18.696C169.832 18.712 169.768 18.724 169.728 18.732V24H168.612V17.94ZM180.392 23.196C180.656 23.196 180.888 23.192 181.088 23.184C181.296 23.168 181.468 23.144 181.604 23.112V21.252C181.524 21.212 181.392 21.18 181.208 21.156C181.032 21.124 180.816 21.108 180.56 21.108C180.392 21.108 180.212 21.12 180.02 21.144C179.836 21.168 179.664 21.22 179.504 21.3C179.352 21.372 179.224 21.476 179.12 21.612C179.016 21.74 178.964 21.912 178.964 22.128C178.964 22.528 179.092 22.808 179.348 22.968C179.604 23.12 179.952 23.196 180.392 23.196ZM180.296 17.604C180.744 17.604 181.12 17.664 181.424 17.784C181.736 17.896 181.984 18.06 182.168 18.276C182.36 18.484 182.496 18.736 182.576 19.032C182.656 19.32 182.696 19.64 182.696 19.992V23.892C182.6 23.908 182.464 23.932 182.288 23.964C182.12 23.988 181.928 24.012 181.712 24.036C181.496 24.06 181.26 24.08 181.004 24.096C180.756 24.12 180.508 24.132 180.26 24.132C179.908 24.132 179.584 24.096 179.288 24.024C178.992 23.952 178.736 23.84 178.52 23.688C178.304 23.528 178.136 23.32 178.016 23.064C177.896 22.808 177.836 22.5 177.836 22.14C177.836 21.796 177.904 21.5 178.04 21.252C178.184 21.004 178.376 20.804 178.616 20.652C178.856 20.5 179.136 20.388 179.456 20.316C179.776 20.244 180.112 20.208 180.464 20.208C180.576 20.208 180.692 20.216 180.812 20.232C180.932 20.24 181.044 20.256 181.148 20.28C181.26 20.296 181.356 20.312 181.436 20.328C181.516 20.344 181.572 20.356 181.604 20.364V20.052C181.604 19.868 181.584 19.688 181.544 19.512C181.504 19.328 181.432 19.168 181.328 19.032C181.224 18.888 181.08 18.776 180.896 18.696C180.72 18.608 180.488 18.564 180.2 18.564C179.832 18.564 179.508 18.592 179.228 18.648C178.956 18.696 178.752 18.748 178.616 18.804L178.484 17.88C178.628 17.816 178.868 17.756 179.204 17.7C179.54 17.636 179.904 17.604 180.296 17.604ZM186.854 17.628C186.95 17.628 187.058 17.636 187.178 17.652C187.306 17.66 187.43 17.676 187.55 17.7C187.67 17.716 187.778 17.736 187.874 17.76C187.978 17.776 188.054 17.792 188.102 17.808L187.91 18.78C187.822 18.748 187.674 18.712 187.466 18.672C187.266 18.624 187.006 18.6 186.686 18.6C186.478 18.6 186.27 18.624 186.062 18.672C185.862 18.712 185.73 18.74 185.666 18.756V24H184.55V18.024C184.814 17.928 185.142 17.84 185.534 17.76C185.926 17.672 186.366 17.628 186.854 17.628ZM190.223 17.76H192.587V18.696H190.223V21.576C190.223 21.888 190.247 22.148 190.295 22.356C190.343 22.556 190.415 22.716 190.511 22.836C190.607 22.948 190.727 23.028 190.871 23.076C191.015 23.124 191.183 23.148 191.375 23.148C191.711 23.148 191.979 23.112 192.179 23.04C192.387 22.96 192.531 22.904 192.611 22.872L192.827 23.796C192.715 23.852 192.519 23.92 192.239 24C191.959 24.088 191.639 24.132 191.279 24.132C190.855 24.132 190.503 24.08 190.223 23.976C189.951 23.864 189.731 23.7 189.563 23.484C189.395 23.268 189.275 23.004 189.203 22.692C189.139 22.372 189.107 22.004 189.107 21.588V16.02L190.223 15.828V17.76ZM195.123 24H194.007V17.76H195.123V24ZM194.559 16.632C194.359 16.632 194.187 16.568 194.043 16.44C193.907 16.304 193.839 16.124 193.839 15.9C193.839 15.676 193.907 15.5 194.043 15.372C194.187 15.236 194.359 15.168 194.559 15.168C194.759 15.168 194.927 15.236 195.063 15.372C195.207 15.5 195.279 15.676 195.279 15.9C195.279 16.124 195.207 16.304 195.063 16.44C194.927 16.568 194.759 16.632 194.559 16.632ZM198.494 23.196C198.95 23.196 199.286 23.136 199.502 23.016C199.726 22.896 199.838 22.704 199.838 22.44C199.838 22.168 199.73 21.952 199.514 21.792C199.298 21.632 198.942 21.452 198.446 21.252C198.206 21.156 197.974 21.06 197.75 20.964C197.534 20.86 197.346 20.74 197.186 20.604C197.026 20.468 196.898 20.304 196.802 20.112C196.706 19.92 196.658 19.684 196.658 19.404C196.658 18.852 196.862 18.416 197.27 18.096C197.678 17.768 198.234 17.604 198.938 17.604C199.114 17.604 199.29 17.616 199.466 17.64C199.642 17.656 199.806 17.68 199.958 17.712C200.11 17.736 200.242 17.764 200.354 17.796C200.474 17.828 200.566 17.856 200.63 17.88L200.426 18.84C200.306 18.776 200.118 18.712 199.862 18.648C199.606 18.576 199.298 18.54 198.938 18.54C198.626 18.54 198.354 18.604 198.122 18.732C197.89 18.852 197.774 19.044 197.774 19.308C197.774 19.444 197.798 19.564 197.846 19.668C197.902 19.772 197.982 19.868 198.086 19.956C198.198 20.036 198.334 20.112 198.494 20.184C198.654 20.256 198.846 20.332 199.07 20.412C199.366 20.524 199.63 20.636 199.862 20.748C200.094 20.852 200.29 20.976 200.45 21.12C200.618 21.264 200.746 21.44 200.834 21.648C200.922 21.848 200.966 22.096 200.966 22.392C200.966 22.968 200.75 23.404 200.318 23.7C199.894 23.996 199.286 24.144 198.494 24.144C197.942 24.144 197.51 24.096 197.198 24C196.886 23.912 196.674 23.844 196.562 23.796L196.766 22.836C196.894 22.884 197.098 22.956 197.378 23.052C197.658 23.148 198.03 23.196 198.494 23.196ZM203.442 17.76H205.806V18.696H203.442V21.576C203.442 21.888 203.466 22.148 203.514 22.356C203.562 22.556 203.634 22.716 203.73 22.836C203.826 22.948 203.946 23.028 204.09 23.076C204.234 23.124 204.402 23.148 204.594 23.148C204.93 23.148 205.198 23.112 205.398 23.04C205.606 22.96 205.75 22.904 205.83 22.872L206.046 23.796C205.934 23.852 205.738 23.92 205.458 24C205.178 24.088 204.858 24.132 204.498 24.132C204.074 24.132 203.722 24.08 203.442 23.976C203.17 23.864 202.95 23.7 202.782 23.484C202.614 23.268 202.494 23.004 202.422 22.692C202.358 22.372 202.326 22.004 202.326 21.588V16.02L203.442 15.828V17.76Z" fill="#4F0DA3"/>
</svg>
