<svg width="44" height="13" viewBox="0 0 44 13" fill="none" xmlns="http://www.w3.org/2000/svg">
<path d="M4.608 10.18C4.024 10.18 3.492 10.084 3.012 9.892C2.532 9.7 2.12 9.42 1.776 9.052C1.432 8.684 1.164 8.232 0.972 7.696C0.788 7.152 0.696 6.532 0.696 5.836C0.696 5.14 0.8 4.524 1.008 3.988C1.224 3.444 1.512 2.988 1.872 2.62C2.232 2.252 2.652 1.972 3.132 1.78C3.612 1.588 4.124 1.492 4.668 1.492C5.012 1.492 5.32 1.516 5.592 1.564C5.872 1.612 6.112 1.668 6.312 1.732C6.52 1.796 6.688 1.86 6.816 1.924C6.944 1.988 7.032 2.036 7.08 2.068L6.744 3.028C6.672 2.98 6.568 2.928 6.432 2.872C6.296 2.816 6.14 2.76 5.964 2.704C5.796 2.648 5.608 2.604 5.4 2.572C5.2 2.532 4.996 2.512 4.788 2.512C4.348 2.512 3.952 2.588 3.6 2.74C3.248 2.892 2.948 3.112 2.7 3.4C2.452 3.688 2.26 4.04 2.124 4.456C1.996 4.864 1.932 5.324 1.932 5.836C1.932 6.332 1.988 6.784 2.1 7.192C2.22 7.6 2.396 7.952 2.628 8.248C2.86 8.536 3.148 8.76 3.492 8.92C3.844 9.08 4.252 9.16 4.716 9.16C5.252 9.16 5.696 9.104 6.048 8.992C6.4 8.88 6.664 8.78 6.84 8.692L7.14 9.652C7.084 9.692 6.984 9.744 6.84 9.808C6.696 9.864 6.516 9.92 6.3 9.976C6.084 10.032 5.832 10.08 5.544 10.12C5.256 10.16 4.944 10.18 4.608 10.18ZM10.2734 10.12C9.58541 10.104 9.09741 9.956 8.80941 9.676C8.52141 9.396 8.37741 8.96 8.37741 8.368V0.879999L9.49341 0.688V8.188C9.49341 8.372 9.50941 8.524 9.54141 8.644C9.57341 8.764 9.62541 8.86 9.69741 8.932C9.76941 9.004 9.86541 9.06 9.98541 9.1C10.1054 9.132 10.2534 9.16 10.4294 9.184L10.2734 10.12ZM11.3347 6.892C11.3347 6.34 11.4147 5.86 11.5747 5.452C11.7347 5.036 11.9467 4.692 12.2107 4.42C12.4747 4.148 12.7787 3.944 13.1227 3.808C13.4667 3.672 13.8187 3.604 14.1787 3.604C15.0187 3.604 15.6627 3.868 16.1107 4.396C16.5587 4.916 16.7827 5.712 16.7827 6.784C16.7827 6.832 16.7827 6.896 16.7827 6.976C16.7827 7.048 16.7787 7.116 16.7707 7.18H12.4987C12.5467 7.828 12.7347 8.32 13.0627 8.656C13.3907 8.992 13.9027 9.16 14.5987 9.16C14.9907 9.16 15.3187 9.128 15.5827 9.064C15.8547 8.992 16.0587 8.924 16.1947 8.86L16.3507 9.796C16.2147 9.868 15.9747 9.944 15.6307 10.024C15.2947 10.104 14.9107 10.144 14.4787 10.144C13.9347 10.144 13.4627 10.064 13.0627 9.904C12.6707 9.736 12.3467 9.508 12.0907 9.22C11.8347 8.932 11.6427 8.592 11.5147 8.2C11.3947 7.8 11.3347 7.364 11.3347 6.892ZM15.6187 6.28C15.6267 5.776 15.4987 5.364 15.2347 5.044C14.9787 4.716 14.6227 4.552 14.1667 4.552C13.9107 4.552 13.6827 4.604 13.4827 4.708C13.2907 4.804 13.1267 4.932 12.9907 5.092C12.8547 5.252 12.7467 5.436 12.6667 5.644C12.5947 5.852 12.5467 6.064 12.5227 6.28H15.6187ZM20.4978 9.196C20.7618 9.196 20.9938 9.192 21.1938 9.184C21.4018 9.168 21.5738 9.144 21.7098 9.112V7.252C21.6298 7.212 21.4978 7.18 21.3138 7.156C21.1378 7.124 20.9218 7.108 20.6658 7.108C20.4978 7.108 20.3178 7.12 20.1258 7.144C19.9418 7.168 19.7698 7.22 19.6098 7.3C19.4578 7.372 19.3298 7.476 19.2258 7.612C19.1218 7.74 19.0698 7.912 19.0698 8.128C19.0698 8.528 19.1978 8.808 19.4538 8.968C19.7098 9.12 20.0578 9.196 20.4978 9.196ZM20.4018 3.604C20.8498 3.604 21.2258 3.664 21.5298 3.784C21.8418 3.896 22.0898 4.06 22.2738 4.276C22.4658 4.484 22.6018 4.736 22.6818 5.032C22.7618 5.32 22.8018 5.64 22.8018 5.992V9.892C22.7058 9.908 22.5698 9.932 22.3938 9.964C22.2258 9.988 22.0338 10.012 21.8178 10.036C21.6018 10.06 21.3658 10.08 21.1098 10.096C20.8618 10.12 20.6138 10.132 20.3658 10.132C20.0138 10.132 19.6898 10.096 19.3938 10.024C19.0978 9.952 18.8418 9.84 18.6258 9.688C18.4098 9.528 18.2418 9.32 18.1218 9.064C18.0018 8.808 17.9418 8.5 17.9418 8.14C17.9418 7.796 18.0098 7.5 18.1458 7.252C18.2898 7.004 18.4818 6.804 18.7218 6.652C18.9618 6.5 19.2418 6.388 19.5618 6.316C19.8818 6.244 20.2178 6.208 20.5698 6.208C20.6818 6.208 20.7978 6.216 20.9178 6.232C21.0378 6.24 21.1498 6.256 21.2538 6.28C21.3658 6.296 21.4618 6.312 21.5418 6.328C21.6218 6.344 21.6778 6.356 21.7098 6.364V6.052C21.7098 5.868 21.6898 5.688 21.6498 5.512C21.6098 5.328 21.5378 5.168 21.4338 5.032C21.3298 4.888 21.1858 4.776 21.0018 4.696C20.8258 4.608 20.5938 4.564 20.3058 4.564C19.9378 4.564 19.6138 4.592 19.3338 4.648C19.0618 4.696 18.8578 4.748 18.7218 4.804L18.5898 3.88C18.7338 3.816 18.9738 3.756 19.3098 3.7C19.6458 3.636 20.0098 3.604 20.4018 3.604ZM26.9593 3.628C27.0553 3.628 27.1633 3.636 27.2833 3.652C27.4113 3.66 27.5353 3.676 27.6553 3.7C27.7753 3.716 27.8833 3.736 27.9793 3.76C28.0833 3.776 28.1593 3.792 28.2073 3.808L28.0153 4.78C27.9273 4.748 27.7793 4.712 27.5713 4.672C27.3713 4.624 27.1113 4.6 26.7913 4.6C26.5833 4.6 26.3753 4.624 26.1673 4.672C25.9673 4.712 25.8353 4.74 25.7713 4.756V10H24.6553V4.024C24.9193 3.928 25.2473 3.84 25.6393 3.76C26.0313 3.672 26.4713 3.628 26.9593 3.628ZM34.1736 9.196C34.4376 9.196 34.6696 9.192 34.8696 9.184C35.0776 9.168 35.2496 9.144 35.3856 9.112V7.252C35.3056 7.212 35.1736 7.18 34.9896 7.156C34.8136 7.124 34.5976 7.108 34.3416 7.108C34.1736 7.108 33.9936 7.12 33.8016 7.144C33.6176 7.168 33.4456 7.22 33.2856 7.3C33.1336 7.372 33.0056 7.476 32.9016 7.612C32.7976 7.74 32.7456 7.912 32.7456 8.128C32.7456 8.528 32.8736 8.808 33.1296 8.968C33.3856 9.12 33.7336 9.196 34.1736 9.196ZM34.0776 3.604C34.5256 3.604 34.9016 3.664 35.2056 3.784C35.5176 3.896 35.7656 4.06 35.9496 4.276C36.1416 4.484 36.2776 4.736 36.3576 5.032C36.4376 5.32 36.4776 5.64 36.4776 5.992V9.892C36.3816 9.908 36.2456 9.932 36.0696 9.964C35.9016 9.988 35.7096 10.012 35.4936 10.036C35.2776 10.06 35.0416 10.08 34.7856 10.096C34.5376 10.12 34.2896 10.132 34.0416 10.132C33.6896 10.132 33.3656 10.096 33.0696 10.024C32.7736 9.952 32.5176 9.84 32.3016 9.688C32.0856 9.528 31.9176 9.32 31.7976 9.064C31.6776 8.808 31.6176 8.5 31.6176 8.14C31.6176 7.796 31.6856 7.5 31.8216 7.252C31.9656 7.004 32.1576 6.804 32.3976 6.652C32.6376 6.5 32.9176 6.388 33.2376 6.316C33.5576 6.244 33.8936 6.208 34.2456 6.208C34.3576 6.208 34.4736 6.216 34.5936 6.232C34.7136 6.24 34.8256 6.256 34.9296 6.28C35.0416 6.296 35.1376 6.312 35.2176 6.328C35.2976 6.344 35.3536 6.356 35.3856 6.364V6.052C35.3856 5.868 35.3656 5.688 35.3256 5.512C35.2856 5.328 35.2136 5.168 35.1096 5.032C35.0056 4.888 34.8616 4.776 34.6776 4.696C34.5016 4.608 34.2696 4.564 33.9816 4.564C33.6136 4.564 33.2896 4.592 33.0096 4.648C32.7376 4.696 32.5336 4.748 32.3976 4.804L32.2656 3.88C32.4096 3.816 32.6496 3.756 32.9856 3.7C33.3216 3.636 33.6856 3.604 34.0776 3.604ZM40.2031 10.12C39.5151 10.104 39.0271 9.956 38.7391 9.676C38.4511 9.396 38.3071 8.96 38.3071 8.368V0.879999L39.4231 0.688V8.188C39.4231 8.372 39.4391 8.524 39.4711 8.644C39.5031 8.764 39.5551 8.86 39.6271 8.932C39.6991 9.004 39.7951 9.06 39.9151 9.1C40.0351 9.132 40.1831 9.16 40.3591 9.184L40.2031 10.12ZM43.4843 10.12C42.7963 10.104 42.3083 9.956 42.0203 9.676C41.7323 9.396 41.5883 8.96 41.5883 8.368V0.879999L42.7043 0.688V8.188C42.7043 8.372 42.7203 8.524 42.7523 8.644C42.7843 8.764 42.8363 8.86 42.9083 8.932C42.9803 9.004 43.0763 9.06 43.1963 9.1C43.3163 9.132 43.4643 9.16 43.6403 9.184L43.4843 10.12Z" fill="#FF0000"/>
<path d="M0 11.944H43.9283V12.892H0V11.944Z" fill="#FF0000"/>
</svg>
