<svg width="218" height="46" viewBox="0 0 218 46" fill="none" xmlns="http://www.w3.org/2000/svg">
<rect width="218" height="46" rx="5" fill="#4F0DA3"/>
<path d="M85.376 28.21C84.6947 28.21 84.074 28.098 83.514 27.874C82.954 27.65 82.4733 27.3233 82.072 26.894C81.6707 26.4647 81.358 25.9373 81.134 25.312C80.9193 24.6773 80.812 23.954 80.812 23.142C80.812 22.33 80.9333 21.6113 81.176 20.986C81.428 20.3513 81.764 19.8193 82.184 19.39C82.604 18.9607 83.094 18.634 83.654 18.41C84.214 18.186 84.8113 18.074 85.446 18.074C85.8473 18.074 86.2067 18.102 86.524 18.158C86.8507 18.214 87.1307 18.2793 87.364 18.354C87.6067 18.4287 87.8027 18.5033 87.952 18.578C88.1013 18.6527 88.204 18.7087 88.26 18.746L87.868 19.866C87.784 19.81 87.6627 19.7493 87.504 19.684C87.3453 19.6187 87.1633 19.5533 86.958 19.488C86.762 19.4227 86.5427 19.3713 86.3 19.334C86.0667 19.2873 85.8287 19.264 85.586 19.264C85.0727 19.264 84.6107 19.3527 84.2 19.53C83.7893 19.7073 83.4393 19.964 83.15 20.3C82.8607 20.636 82.6367 21.0467 82.478 21.532C82.3287 22.008 82.254 22.5447 82.254 23.142C82.254 23.7207 82.3193 24.248 82.45 24.724C82.59 25.2 82.7953 25.6107 83.066 25.956C83.3367 26.292 83.6727 26.5533 84.074 26.74C84.4847 26.9267 84.9607 27.02 85.502 27.02C86.1273 27.02 86.6453 26.9547 87.056 26.824C87.4667 26.6933 87.7747 26.5767 87.98 26.474L88.33 27.594C88.2647 27.6407 88.148 27.7013 87.98 27.776C87.812 27.8413 87.602 27.9067 87.35 27.972C87.098 28.0373 86.804 28.0933 86.468 28.14C86.132 28.1867 85.768 28.21 85.376 28.21ZM96.0226 24.36C96.0226 24.9387 95.9386 25.4613 95.7706 25.928C95.6026 26.3947 95.3646 26.796 95.0566 27.132C94.7579 27.468 94.3986 27.7293 93.9786 27.916C93.5586 28.0933 93.1012 28.182 92.6066 28.182C92.1119 28.182 91.6546 28.0933 91.2346 27.916C90.8146 27.7293 90.4506 27.468 90.1426 27.132C89.8439 26.796 89.6106 26.3947 89.4426 25.928C89.2746 25.4613 89.1906 24.9387 89.1906 24.36C89.1906 23.7907 89.2746 23.2727 89.4426 22.806C89.6106 22.33 89.8439 21.924 90.1426 21.588C90.4506 21.252 90.8146 20.9953 91.2346 20.818C91.6546 20.6313 92.1119 20.538 92.6066 20.538C93.1012 20.538 93.5586 20.6313 93.9786 20.818C94.3986 20.9953 94.7579 21.252 95.0566 21.588C95.3646 21.924 95.6026 22.33 95.7706 22.806C95.9386 23.2727 96.0226 23.7907 96.0226 24.36ZM94.6646 24.36C94.6646 23.5387 94.4779 22.89 94.1046 22.414C93.7406 21.9287 93.2412 21.686 92.6066 21.686C91.9719 21.686 91.4679 21.9287 91.0946 22.414C90.7306 22.89 90.5486 23.5387 90.5486 24.36C90.5486 25.1813 90.7306 25.8347 91.0946 26.32C91.4679 26.796 91.9719 27.034 92.6066 27.034C93.2412 27.034 93.7406 26.796 94.1046 26.32C94.4779 25.8347 94.6646 25.1813 94.6646 24.36ZM97.8544 20.93C98.153 20.8553 98.5497 20.776 99.0444 20.692C99.539 20.608 100.108 20.566 100.752 20.566C101.331 20.566 101.812 20.65 102.194 20.818C102.577 20.9767 102.88 21.2053 103.104 21.504C103.338 21.7933 103.501 22.1433 103.594 22.554C103.688 22.9647 103.734 23.4173 103.734 23.912V28H102.432V24.192C102.432 23.744 102.4 23.3613 102.334 23.044C102.278 22.7267 102.18 22.47 102.04 22.274C101.9 22.078 101.714 21.938 101.48 21.854C101.247 21.7607 100.958 21.714 100.612 21.714C100.472 21.714 100.328 21.7187 100.178 21.728C100.029 21.7373 99.8844 21.7513 99.7444 21.77C99.6137 21.7793 99.4924 21.7933 99.3804 21.812C99.2777 21.8307 99.203 21.8447 99.1564 21.854V28H97.8544V20.93ZM107.111 20.72H109.869V21.812H107.111V25.172C107.111 25.536 107.139 25.8393 107.195 26.082C107.251 26.3153 107.335 26.502 107.447 26.642C107.559 26.7727 107.699 26.866 107.867 26.922C108.035 26.978 108.231 27.006 108.455 27.006C108.847 27.006 109.16 26.964 109.393 26.88C109.636 26.7867 109.804 26.7213 109.897 26.684L110.149 27.762C110.019 27.8273 109.79 27.9067 109.463 28C109.137 28.1027 108.763 28.154 108.343 28.154C107.849 28.154 107.438 28.0933 107.111 27.972C106.794 27.8413 106.537 27.65 106.341 27.398C106.145 27.146 106.005 26.838 105.921 26.474C105.847 26.1007 105.809 25.6713 105.809 25.186V18.69L107.111 18.466V20.72ZM112.828 28H111.526V20.72H112.828V28ZM112.17 19.404C111.937 19.404 111.736 19.3293 111.568 19.18C111.41 19.0213 111.33 18.8113 111.33 18.55C111.33 18.2887 111.41 18.0833 111.568 17.934C111.736 17.7753 111.937 17.696 112.17 17.696C112.404 17.696 112.6 17.7753 112.758 17.934C112.926 18.0833 113.01 18.2887 113.01 18.55C113.01 18.8113 112.926 19.0213 112.758 19.18C112.6 19.3293 112.404 19.404 112.17 19.404ZM115.067 20.93C115.366 20.8553 115.763 20.776 116.257 20.692C116.752 20.608 117.321 20.566 117.965 20.566C118.544 20.566 119.025 20.65 119.407 20.818C119.79 20.9767 120.093 21.2053 120.317 21.504C120.551 21.7933 120.714 22.1433 120.807 22.554C120.901 22.9647 120.947 23.4173 120.947 23.912V28H119.645V24.192C119.645 23.744 119.613 23.3613 119.547 23.044C119.491 22.7267 119.393 22.47 119.253 22.274C119.113 22.078 118.927 21.938 118.693 21.854C118.46 21.7607 118.171 21.714 117.825 21.714C117.685 21.714 117.541 21.7187 117.391 21.728C117.242 21.7373 117.097 21.7513 116.957 21.77C116.827 21.7793 116.705 21.7933 116.593 21.812C116.491 21.8307 116.416 21.8447 116.369 21.854V28H115.067V20.93ZM128.902 27.79C128.604 27.8647 128.207 27.944 127.712 28.028C127.227 28.112 126.662 28.154 126.018 28.154C125.458 28.154 124.987 28.0747 124.604 27.916C124.222 27.748 123.914 27.5147 123.68 27.216C123.447 26.9173 123.279 26.5673 123.176 26.166C123.074 25.7553 123.022 25.3027 123.022 24.808V20.72H124.324V24.528C124.324 25.4147 124.464 26.0493 124.744 26.432C125.024 26.8147 125.496 27.006 126.158 27.006C126.298 27.006 126.443 27.0013 126.592 26.992C126.742 26.9827 126.882 26.9733 127.012 26.964C127.143 26.9453 127.26 26.9313 127.362 26.922C127.474 26.9033 127.554 26.8847 127.6 26.866V20.72H128.902V27.79ZM130.739 24.374C130.739 23.73 130.833 23.17 131.019 22.694C131.206 22.2087 131.453 21.8073 131.761 21.49C132.069 21.1727 132.424 20.9347 132.825 20.776C133.227 20.6173 133.637 20.538 134.057 20.538C135.037 20.538 135.789 20.846 136.311 21.462C136.834 22.0687 137.095 22.9973 137.095 24.248C137.095 24.304 137.095 24.3787 137.095 24.472C137.095 24.556 137.091 24.6353 137.081 24.71H132.097C132.153 25.466 132.373 26.04 132.755 26.432C133.138 26.824 133.735 27.02 134.547 27.02C135.005 27.02 135.387 26.9827 135.695 26.908C136.013 26.824 136.251 26.7447 136.409 26.67L136.591 27.762C136.433 27.846 136.153 27.9347 135.751 28.028C135.359 28.1213 134.911 28.168 134.407 28.168C133.773 28.168 133.222 28.0747 132.755 27.888C132.298 27.692 131.92 27.426 131.621 27.09C131.323 26.754 131.099 26.3573 130.949 25.9C130.809 25.4333 130.739 24.9247 130.739 24.374ZM135.737 23.66C135.747 23.072 135.597 22.5913 135.289 22.218C134.991 21.8353 134.575 21.644 134.043 21.644C133.745 21.644 133.479 21.7047 133.245 21.826C133.021 21.938 132.83 22.0873 132.671 22.274C132.513 22.4607 132.387 22.6753 132.293 22.918C132.209 23.1607 132.153 23.408 132.125 23.66H135.737Z" fill="#F5F5F5"/>
</svg>
