<svg width="87" height="22" viewBox="0 0 87 22" fill="none" xmlns="http://www.w3.org/2000/svg">
<rect x="0.25" y="0.25" width="86.5" height="21.5" rx="4.75" stroke="white" stroke-width="0.5"/>
<path d="M7 13.5V14.5C7 14.7652 7.10536 15.0196 7.29289 15.2071C7.48043 15.3946 7.73478 15.5 8 15.5H14C14.2652 15.5 14.5196 15.3946 14.7071 15.2071C14.8946 15.0196 15 14.7652 15 14.5V13.5M8.5 10.5L11 13M11 13L13.5 10.5M11 13V7" stroke="#F5F5F5" stroke-width="1.33333" stroke-linecap="round" stroke-linejoin="round"/>
<path d="M28.55 11.03C28.55 11.63 28.4567 12.1533 28.27 12.6C28.0833 13.04 27.82 13.4067 27.48 13.7C27.14 13.9867 26.7333 14.2033 26.26 14.35C25.7867 14.49 25.2667 14.56 24.7 14.56C24.42 14.56 24.11 14.5467 23.77 14.52C23.4367 14.5 23.1333 14.4567 22.86 14.39V7.67C23.1333 7.60333 23.4367 7.56 23.77 7.54C24.11 7.51333 24.42 7.5 24.7 7.5C25.2667 7.5 25.7867 7.57333 26.26 7.72C26.7333 7.86 27.14 8.07667 27.48 8.37C27.82 8.65667 28.0833 9.02333 28.27 9.47C28.4567 9.91 28.55 10.43 28.55 11.03ZM24.78 13.71C25.7 13.71 26.3867 13.4767 26.84 13.01C27.2933 12.5367 27.52 11.8767 27.52 11.03C27.52 10.1833 27.2933 9.52667 26.84 9.06C26.3867 8.58667 25.7 8.35 24.78 8.35C24.5067 8.35 24.2933 8.35333 24.14 8.36C23.9933 8.36667 23.89 8.37333 23.83 8.38V13.68C23.89 13.6867 23.9933 13.6933 24.14 13.7C24.2933 13.7067 24.5067 13.71 24.78 13.71ZM34.5189 11.9C34.5189 12.3133 34.4589 12.6867 34.3389 13.02C34.2189 13.3533 34.0489 13.64 33.8289 13.88C33.6156 14.12 33.3589 14.3067 33.0589 14.44C32.7589 14.5667 32.4322 14.63 32.0789 14.63C31.7256 14.63 31.3989 14.5667 31.0989 14.44C30.7989 14.3067 30.5389 14.12 30.3189 13.88C30.1056 13.64 29.9389 13.3533 29.8189 13.02C29.6989 12.6867 29.6389 12.3133 29.6389 11.9C29.6389 11.4933 29.6989 11.1233 29.8189 10.79C29.9389 10.45 30.1056 10.16 30.3189 9.92C30.5389 9.68 30.7989 9.49667 31.0989 9.37C31.3989 9.23667 31.7256 9.17 32.0789 9.17C32.4322 9.17 32.7589 9.23667 33.0589 9.37C33.3589 9.49667 33.6156 9.68 33.8289 9.92C34.0489 10.16 34.2189 10.45 34.3389 10.79C34.4589 11.1233 34.5189 11.4933 34.5189 11.9ZM33.5489 11.9C33.5489 11.3133 33.4156 10.85 33.1489 10.51C32.8889 10.1633 32.5322 9.99 32.0789 9.99C31.6256 9.99 31.2656 10.1633 30.9989 10.51C30.7389 10.85 30.6089 11.3133 30.6089 11.9C30.6089 12.4867 30.7389 12.9533 30.9989 13.3C31.2656 13.64 31.6256 13.81 32.0789 13.81C32.5322 13.81 32.8889 13.64 33.1489 13.3C33.4156 12.9533 33.5489 12.4867 33.5489 11.9ZM39.9504 14.5C39.7637 14.02 39.5637 13.4733 39.3504 12.86C39.1437 12.24 38.9537 11.5967 38.7804 10.93C38.6071 11.5967 38.4171 12.24 38.2104 12.86C38.0037 13.4733 37.8071 14.02 37.6204 14.5H36.8104C36.5037 13.8133 36.2037 13.03 35.9104 12.15C35.6171 11.27 35.3404 10.32 35.0804 9.3H36.0804C36.1471 9.61333 36.2271 9.95333 36.3204 10.32C36.4137 10.6867 36.5104 11.0533 36.6104 11.42C36.7171 11.7867 36.8271 12.14 36.9404 12.48C37.0537 12.82 37.1604 13.1167 37.2604 13.37C37.3737 13.0567 37.4837 12.7267 37.5904 12.38C37.7037 12.0267 37.8104 11.6733 37.9104 11.32C38.0104 10.96 38.1037 10.61 38.1904 10.27C38.2837 9.92333 38.3637 9.6 38.4304 9.3H39.2004C39.2604 9.6 39.3337 9.92333 39.4204 10.27C39.5071 10.61 39.6004 10.96 39.7004 11.32C39.8004 11.6733 39.9037 12.0267 40.0104 12.38C40.1237 12.7267 40.2371 13.0567 40.3504 13.37C40.4504 13.1167 40.5537 12.82 40.6604 12.48C40.7737 12.14 40.8837 11.7867 40.9904 11.42C41.0971 11.0533 41.1971 10.6867 41.2904 10.32C41.3837 9.95333 41.4637 9.61333 41.5304 9.3H42.4904C42.2304 10.32 41.9537 11.27 41.6604 12.15C41.3671 13.03 41.0671 13.8133 40.7604 14.5H39.9504ZM43.4738 9.45C43.6872 9.39667 43.9705 9.34 44.3238 9.28C44.6772 9.22 45.0838 9.19 45.5438 9.19C45.9572 9.19 46.3005 9.25 46.5738 9.37C46.8472 9.48333 47.0638 9.64667 47.2238 9.86C47.3905 10.0667 47.5072 10.3167 47.5738 10.61C47.6405 10.9033 47.6738 11.2267 47.6738 11.58V14.5H46.7438V11.78C46.7438 11.46 46.7205 11.1867 46.6738 10.96C46.6338 10.7333 46.5638 10.55 46.4638 10.41C46.3638 10.27 46.2305 10.17 46.0638 10.11C45.8972 10.0433 45.6905 10.01 45.4438 10.01C45.3438 10.01 45.2405 10.0133 45.1338 10.02C45.0272 10.0267 44.9238 10.0367 44.8238 10.05C44.7305 10.0567 44.6438 10.0667 44.5638 10.08C44.4905 10.0933 44.4372 10.1033 44.4038 10.11V14.5H43.4738V9.45ZM50.776 14.6C50.2027 14.5867 49.796 14.4633 49.556 14.23C49.316 13.9967 49.196 13.6333 49.196 13.14V6.9L50.126 6.74V12.99C50.126 13.1433 50.1393 13.27 50.166 13.37C50.1927 13.47 50.236 13.55 50.296 13.61C50.356 13.67 50.436 13.7167 50.536 13.75C50.636 13.7767 50.7593 13.8 50.906 13.82L50.776 14.6ZM56.5404 11.9C56.5404 12.3133 56.4804 12.6867 56.3604 13.02C56.2404 13.3533 56.0704 13.64 55.8504 13.88C55.6371 14.12 55.3804 14.3067 55.0804 14.44C54.7804 14.5667 54.4537 14.63 54.1004 14.63C53.7471 14.63 53.4204 14.5667 53.1204 14.44C52.8204 14.3067 52.5604 14.12 52.3404 13.88C52.1271 13.64 51.9604 13.3533 51.8404 13.02C51.7204 12.6867 51.6604 12.3133 51.6604 11.9C51.6604 11.4933 51.7204 11.1233 51.8404 10.79C51.9604 10.45 52.1271 10.16 52.3404 9.92C52.5604 9.68 52.8204 9.49667 53.1204 9.37C53.4204 9.23667 53.7471 9.17 54.1004 9.17C54.4537 9.17 54.7804 9.23667 55.0804 9.37C55.3804 9.49667 55.6371 9.68 55.8504 9.92C56.0704 10.16 56.2404 10.45 56.3604 10.79C56.4804 11.1233 56.5404 11.4933 56.5404 11.9ZM55.5704 11.9C55.5704 11.3133 55.4371 10.85 55.1704 10.51C54.9104 10.1633 54.5537 9.99 54.1004 9.99C53.6471 9.99 53.2871 10.1633 53.0204 10.51C52.7604 10.85 52.6304 11.3133 52.6304 11.9C52.6304 12.4867 52.7604 12.9533 53.0204 13.3C53.2871 13.64 53.6471 13.81 54.1004 13.81C54.5537 13.81 54.9104 13.64 55.1704 13.3C55.4371 12.9533 55.5704 12.4867 55.5704 11.9ZM59.6088 13.83C59.8288 13.83 60.0222 13.8267 60.1888 13.82C60.3622 13.8067 60.5055 13.7867 60.6188 13.76V12.21C60.5522 12.1767 60.4422 12.15 60.2888 12.13C60.1422 12.1033 59.9622 12.09 59.7488 12.09C59.6088 12.09 59.4588 12.1 59.2988 12.12C59.1455 12.14 59.0022 12.1833 58.8688 12.25C58.7422 12.31 58.6355 12.3967 58.5488 12.51C58.4622 12.6167 58.4188 12.76 58.4188 12.94C58.4188 13.2733 58.5255 13.5067 58.7388 13.64C58.9522 13.7667 59.2422 13.83 59.6088 13.83ZM59.5288 9.17C59.9022 9.17 60.2155 9.22 60.4688 9.32C60.7288 9.41333 60.9355 9.55 61.0888 9.73C61.2488 9.90333 61.3622 10.1133 61.4288 10.36C61.4955 10.6 61.5288 10.8667 61.5288 11.16V14.41C61.4488 14.4233 61.3355 14.4433 61.1888 14.47C61.0488 14.49 60.8888 14.51 60.7088 14.53C60.5288 14.55 60.3322 14.5667 60.1188 14.58C59.9122 14.6 59.7055 14.61 59.4988 14.61C59.2055 14.61 58.9355 14.58 58.6888 14.52C58.4422 14.46 58.2288 14.3667 58.0488 14.24C57.8688 14.1067 57.7288 13.9333 57.6288 13.72C57.5288 13.5067 57.4788 13.25 57.4788 12.95C57.4788 12.6633 57.5355 12.4167 57.6488 12.21C57.7688 12.0033 57.9288 11.8367 58.1288 11.71C58.3288 11.5833 58.5622 11.49 58.8288 11.43C59.0955 11.37 59.3755 11.34 59.6688 11.34C59.7622 11.34 59.8588 11.3467 59.9588 11.36C60.0588 11.3667 60.1522 11.38 60.2388 11.4C60.3322 11.4133 60.4122 11.4267 60.4788 11.44C60.5455 11.4533 60.5922 11.4633 60.6188 11.47V11.21C60.6188 11.0567 60.6022 10.9067 60.5688 10.76C60.5355 10.6067 60.4755 10.4733 60.3888 10.36C60.3022 10.24 60.1822 10.1467 60.0288 10.08C59.8822 10.0067 59.6888 9.97 59.4488 9.97C59.1422 9.97 58.8722 9.99333 58.6388 10.04C58.4122 10.08 58.2422 10.1233 58.1288 10.17L58.0188 9.4C58.1388 9.34667 58.3388 9.29667 58.6188 9.25C58.8988 9.19667 59.2022 9.17 59.5288 9.17ZM66.4334 10.4C66.3201 10.3067 66.1568 10.2167 65.9434 10.13C65.7301 10.0433 65.4968 10 65.2434 10C64.9768 10 64.7468 10.05 64.5534 10.15C64.3668 10.2433 64.2134 10.3767 64.0934 10.55C63.9734 10.7167 63.8868 10.9167 63.8334 11.15C63.7801 11.3833 63.7534 11.6333 63.7534 11.9C63.7534 12.5067 63.9034 12.9767 64.2034 13.31C64.5034 13.6367 64.9034 13.8 65.4034 13.8C65.6568 13.8 65.8668 13.79 66.0334 13.77C66.2068 13.7433 66.3401 13.7167 66.4334 13.69V10.4ZM66.4334 6.9L67.3634 6.74V14.35C67.1501 14.41 66.8768 14.47 66.5434 14.53C66.2101 14.59 65.8268 14.62 65.3934 14.62C64.9934 14.62 64.6334 14.5567 64.3134 14.43C63.9934 14.3033 63.7201 14.1233 63.4934 13.89C63.2668 13.6567 63.0901 13.3733 62.9634 13.04C62.8434 12.7 62.7834 12.32 62.7834 11.9C62.7834 11.5 62.8334 11.1333 62.9334 10.8C63.0401 10.4667 63.1934 10.18 63.3934 9.94C63.5934 9.7 63.8368 9.51333 64.1234 9.38C64.4168 9.24667 64.7501 9.18 65.1234 9.18C65.4234 9.18 65.6868 9.22 65.9134 9.3C66.1468 9.38 66.3201 9.45667 66.4334 9.53V6.9ZM73.0366 13.83C73.2566 13.83 73.4499 13.8267 73.6166 13.82C73.7899 13.8067 73.9332 13.7867 74.0466 13.76V12.21C73.9799 12.1767 73.8699 12.15 73.7166 12.13C73.5699 12.1033 73.3899 12.09 73.1766 12.09C73.0366 12.09 72.8866 12.1 72.7266 12.12C72.5732 12.14 72.4299 12.1833 72.2966 12.25C72.1699 12.31 72.0632 12.3967 71.9766 12.51C71.8899 12.6167 71.8466 12.76 71.8466 12.94C71.8466 13.2733 71.9532 13.5067 72.1666 13.64C72.3799 13.7667 72.6699 13.83 73.0366 13.83ZM72.9566 9.17C73.3299 9.17 73.6432 9.22 73.8966 9.32C74.1566 9.41333 74.3632 9.55 74.5166 9.73C74.6766 9.90333 74.7899 10.1133 74.8566 10.36C74.9232 10.6 74.9566 10.8667 74.9566 11.16V14.41C74.8766 14.4233 74.7632 14.4433 74.6166 14.47C74.4766 14.49 74.3166 14.51 74.1366 14.53C73.9566 14.55 73.7599 14.5667 73.5466 14.58C73.3399 14.6 73.1332 14.61 72.9266 14.61C72.6332 14.61 72.3632 14.58 72.1166 14.52C71.8699 14.46 71.6566 14.3667 71.4766 14.24C71.2966 14.1067 71.1566 13.9333 71.0566 13.72C70.9566 13.5067 70.9066 13.25 70.9066 12.95C70.9066 12.6633 70.9632 12.4167 71.0766 12.21C71.1966 12.0033 71.3566 11.8367 71.5566 11.71C71.7566 11.5833 71.9899 11.49 72.2566 11.43C72.5232 11.37 72.8032 11.34 73.0966 11.34C73.1899 11.34 73.2866 11.3467 73.3866 11.36C73.4866 11.3667 73.5799 11.38 73.6666 11.4C73.7599 11.4133 73.8399 11.4267 73.9066 11.44C73.9732 11.4533 74.0199 11.4633 74.0466 11.47V11.21C74.0466 11.0567 74.0299 10.9067 73.9966 10.76C73.9632 10.6067 73.9032 10.4733 73.8166 10.36C73.7299 10.24 73.6099 10.1467 73.4566 10.08C73.3099 10.0067 73.1166 9.97 72.8766 9.97C72.5699 9.97 72.2999 9.99333 72.0666 10.04C71.8399 10.08 71.6699 10.1233 71.5566 10.17L71.4466 9.4C71.5666 9.34667 71.7666 9.29667 72.0466 9.25C72.3266 9.19667 72.6299 9.17 72.9566 9.17ZM78.0612 14.6C77.4878 14.5867 77.0812 14.4633 76.8412 14.23C76.6012 13.9967 76.4812 13.6333 76.4812 13.14V6.9L77.4112 6.74V12.99C77.4112 13.1433 77.4245 13.27 77.4512 13.37C77.4778 13.47 77.5212 13.55 77.5812 13.61C77.6412 13.67 77.7212 13.7167 77.8212 13.75C77.9212 13.7767 78.0445 13.8 78.1912 13.82L78.0612 14.6ZM80.7955 14.6C80.2222 14.5867 79.8155 14.4633 79.5755 14.23C79.3355 13.9967 79.2155 13.6333 79.2155 13.14V6.9L80.1455 6.74V12.99C80.1455 13.1433 80.1589 13.27 80.1855 13.37C80.2122 13.47 80.2555 13.55 80.3155 13.61C80.3755 13.67 80.4555 13.7167 80.5555 13.75C80.6555 13.7767 80.7789 13.8 80.9255 13.82L80.7955 14.6Z" fill="white"/>
</svg>
