<svg width="343" height="40" viewBox="0 0 343 40" fill="none" xmlns="http://www.w3.org/2000/svg">
<rect x="0.5" y="0.5" width="342" height="39" rx="19.5" stroke="#4F0DA3"/>
<path d="M107.532 15.684H108.696V24H107.532V15.684ZM118.56 24C118.336 23.424 118.096 22.768 117.84 22.032C117.592 21.288 117.364 20.516 117.156 19.716C116.948 20.516 116.72 21.288 116.472 22.032C116.224 22.768 115.988 23.424 115.764 24H114.792C114.424 23.176 114.064 22.236 113.712 21.18C113.36 20.124 113.028 18.984 112.716 17.76H113.916C113.996 18.136 114.092 18.544 114.204 18.984C114.316 19.424 114.432 19.864 114.552 20.304C114.68 20.744 114.812 21.168 114.948 21.576C115.084 21.984 115.212 22.34 115.332 22.644C115.468 22.268 115.6 21.872 115.728 21.456C115.864 21.032 115.992 20.608 116.112 20.184C116.232 19.752 116.344 19.332 116.448 18.924C116.56 18.508 116.656 18.12 116.736 17.76H117.66C117.732 18.12 117.82 18.508 117.924 18.924C118.028 19.332 118.14 19.752 118.26 20.184C118.38 20.608 118.504 21.032 118.632 21.456C118.768 21.872 118.904 22.268 119.04 22.644C119.16 22.34 119.284 21.984 119.412 21.576C119.548 21.168 119.68 20.744 119.808 20.304C119.936 19.864 120.056 19.424 120.168 18.984C120.28 18.544 120.376 18.136 120.456 17.76H121.608C121.296 18.984 120.964 20.124 120.612 21.18C120.26 22.236 119.9 23.176 119.532 24H118.56ZM124.9 23.196C125.164 23.196 125.396 23.192 125.596 23.184C125.804 23.168 125.976 23.144 126.112 23.112V21.252C126.032 21.212 125.9 21.18 125.716 21.156C125.54 21.124 125.324 21.108 125.068 21.108C124.9 21.108 124.72 21.12 124.528 21.144C124.344 21.168 124.172 21.22 124.012 21.3C123.86 21.372 123.732 21.476 123.628 21.612C123.524 21.74 123.472 21.912 123.472 22.128C123.472 22.528 123.6 22.808 123.856 22.968C124.112 23.12 124.46 23.196 124.9 23.196ZM124.804 17.604C125.252 17.604 125.628 17.664 125.932 17.784C126.244 17.896 126.492 18.06 126.676 18.276C126.868 18.484 127.004 18.736 127.084 19.032C127.164 19.32 127.204 19.64 127.204 19.992V23.892C127.108 23.908 126.972 23.932 126.796 23.964C126.628 23.988 126.436 24.012 126.22 24.036C126.004 24.06 125.768 24.08 125.512 24.096C125.264 24.12 125.016 24.132 124.768 24.132C124.416 24.132 124.092 24.096 123.796 24.024C123.5 23.952 123.244 23.84 123.028 23.688C122.812 23.528 122.644 23.32 122.524 23.064C122.404 22.808 122.344 22.5 122.344 22.14C122.344 21.796 122.412 21.5 122.548 21.252C122.692 21.004 122.884 20.804 123.124 20.652C123.364 20.5 123.644 20.388 123.964 20.316C124.284 20.244 124.62 20.208 124.972 20.208C125.084 20.208 125.2 20.216 125.32 20.232C125.44 20.24 125.552 20.256 125.656 20.28C125.768 20.296 125.864 20.312 125.944 20.328C126.024 20.344 126.08 20.356 126.112 20.364V20.052C126.112 19.868 126.092 19.688 126.052 19.512C126.012 19.328 125.94 19.168 125.836 19.032C125.732 18.888 125.588 18.776 125.404 18.696C125.228 18.608 124.996 18.564 124.708 18.564C124.34 18.564 124.016 18.592 123.736 18.648C123.464 18.696 123.26 18.748 123.124 18.804L122.992 17.88C123.136 17.816 123.376 17.756 123.712 17.7C124.048 17.636 124.412 17.604 124.804 17.604ZM129.058 17.94C129.314 17.876 129.654 17.808 130.078 17.736C130.502 17.664 130.99 17.628 131.542 17.628C132.038 17.628 132.45 17.7 132.778 17.844C133.106 17.98 133.366 18.176 133.558 18.432C133.758 18.68 133.898 18.98 133.978 19.332C134.058 19.684 134.098 20.072 134.098 20.496V24H132.982V20.736C132.982 20.352 132.954 20.024 132.898 19.752C132.85 19.48 132.766 19.26 132.646 19.092C132.526 18.924 132.366 18.804 132.166 18.732C131.966 18.652 131.718 18.612 131.422 18.612C131.302 18.612 131.178 18.616 131.05 18.624C130.922 18.632 130.798 18.644 130.678 18.66C130.566 18.668 130.462 18.68 130.366 18.696C130.278 18.712 130.214 18.724 130.174 18.732V24H129.058V17.94ZM136.992 17.76H139.356V18.696H136.992V21.576C136.992 21.888 137.016 22.148 137.064 22.356C137.112 22.556 137.184 22.716 137.28 22.836C137.376 22.948 137.496 23.028 137.64 23.076C137.784 23.124 137.952 23.148 138.144 23.148C138.48 23.148 138.748 23.112 138.948 23.04C139.156 22.96 139.3 22.904 139.38 22.872L139.596 23.796C139.484 23.852 139.288 23.92 139.008 24C138.728 24.088 138.408 24.132 138.048 24.132C137.624 24.132 137.272 24.08 136.992 23.976C136.72 23.864 136.5 23.7 136.332 23.484C136.164 23.268 136.044 23.004 135.972 22.692C135.908 22.372 135.876 22.004 135.876 21.588V16.02L136.992 15.828V17.76ZM144.598 17.76H146.962V18.696H144.598V21.576C144.598 21.888 144.622 22.148 144.67 22.356C144.718 22.556 144.79 22.716 144.886 22.836C144.982 22.948 145.102 23.028 145.246 23.076C145.39 23.124 145.558 23.148 145.75 23.148C146.086 23.148 146.354 23.112 146.554 23.04C146.762 22.96 146.906 22.904 146.986 22.872L147.202 23.796C147.09 23.852 146.894 23.92 146.614 24C146.334 24.088 146.014 24.132 145.654 24.132C145.23 24.132 144.878 24.08 144.598 23.976C144.326 23.864 144.106 23.7 143.938 23.484C143.77 23.268 143.65 23.004 143.578 22.692C143.514 22.372 143.482 22.004 143.482 21.588V16.02L144.598 15.828V17.76ZM153.726 20.88C153.726 21.376 153.654 21.824 153.51 22.224C153.366 22.624 153.162 22.968 152.898 23.256C152.642 23.544 152.334 23.768 151.974 23.928C151.614 24.08 151.222 24.156 150.798 24.156C150.374 24.156 149.982 24.08 149.622 23.928C149.262 23.768 148.95 23.544 148.686 23.256C148.43 22.968 148.23 22.624 148.086 22.224C147.942 21.824 147.87 21.376 147.87 20.88C147.87 20.392 147.942 19.948 148.086 19.548C148.23 19.14 148.43 18.792 148.686 18.504C148.95 18.216 149.262 17.996 149.622 17.844C149.982 17.684 150.374 17.604 150.798 17.604C151.222 17.604 151.614 17.684 151.974 17.844C152.334 17.996 152.642 18.216 152.898 18.504C153.162 18.792 153.366 19.14 153.51 19.548C153.654 19.948 153.726 20.392 153.726 20.88ZM152.562 20.88C152.562 20.176 152.402 19.62 152.082 19.212C151.77 18.796 151.342 18.588 150.798 18.588C150.254 18.588 149.822 18.796 149.502 19.212C149.19 19.62 149.034 20.176 149.034 20.88C149.034 21.584 149.19 22.144 149.502 22.56C149.822 22.968 150.254 23.172 150.798 23.172C151.342 23.172 151.77 22.968 152.082 22.56C152.402 22.144 152.562 21.584 152.562 20.88ZM159.945 24.12C159.257 24.104 158.769 23.956 158.481 23.676C158.193 23.396 158.049 22.96 158.049 22.368V14.88L159.165 14.688V22.188C159.165 22.372 159.181 22.524 159.213 22.644C159.245 22.764 159.297 22.86 159.369 22.932C159.441 23.004 159.537 23.06 159.657 23.1C159.777 23.132 159.925 23.16 160.101 23.184L159.945 24.12ZM162.471 24H161.355V17.76H162.471V24ZM161.907 16.632C161.707 16.632 161.535 16.568 161.391 16.44C161.255 16.304 161.187 16.124 161.187 15.9C161.187 15.676 161.255 15.5 161.391 15.372C161.535 15.236 161.707 15.168 161.907 15.168C162.107 15.168 162.275 15.236 162.411 15.372C162.555 15.5 162.627 15.676 162.627 15.9C162.627 16.124 162.555 16.304 162.411 16.44C162.275 16.568 162.107 16.632 161.907 16.632ZM165.842 23.196C166.298 23.196 166.634 23.136 166.85 23.016C167.074 22.896 167.186 22.704 167.186 22.44C167.186 22.168 167.078 21.952 166.862 21.792C166.646 21.632 166.29 21.452 165.794 21.252C165.554 21.156 165.322 21.06 165.098 20.964C164.882 20.86 164.694 20.74 164.534 20.604C164.374 20.468 164.246 20.304 164.15 20.112C164.054 19.92 164.006 19.684 164.006 19.404C164.006 18.852 164.21 18.416 164.618 18.096C165.026 17.768 165.582 17.604 166.286 17.604C166.462 17.604 166.638 17.616 166.814 17.64C166.99 17.656 167.154 17.68 167.306 17.712C167.458 17.736 167.59 17.764 167.702 17.796C167.822 17.828 167.914 17.856 167.978 17.88L167.774 18.84C167.654 18.776 167.466 18.712 167.21 18.648C166.954 18.576 166.646 18.54 166.286 18.54C165.974 18.54 165.702 18.604 165.47 18.732C165.238 18.852 165.122 19.044 165.122 19.308C165.122 19.444 165.146 19.564 165.194 19.668C165.25 19.772 165.33 19.868 165.434 19.956C165.546 20.036 165.682 20.112 165.842 20.184C166.002 20.256 166.194 20.332 166.418 20.412C166.714 20.524 166.978 20.636 167.21 20.748C167.442 20.852 167.638 20.976 167.798 21.12C167.966 21.264 168.094 21.44 168.182 21.648C168.27 21.848 168.314 22.096 168.314 22.392C168.314 22.968 168.098 23.404 167.666 23.7C167.242 23.996 166.634 24.144 165.842 24.144C165.29 24.144 164.858 24.096 164.546 24C164.234 23.912 164.022 23.844 163.91 23.796L164.114 22.836C164.242 22.884 164.446 22.956 164.726 23.052C165.006 23.148 165.378 23.196 165.842 23.196ZM170.789 17.76H173.153V18.696H170.789V21.576C170.789 21.888 170.813 22.148 170.861 22.356C170.909 22.556 170.981 22.716 171.077 22.836C171.173 22.948 171.293 23.028 171.437 23.076C171.581 23.124 171.749 23.148 171.941 23.148C172.277 23.148 172.545 23.112 172.745 23.04C172.953 22.96 173.097 22.904 173.177 22.872L173.393 23.796C173.281 23.852 173.085 23.92 172.805 24C172.525 24.088 172.205 24.132 171.845 24.132C171.421 24.132 171.069 24.08 170.789 23.976C170.517 23.864 170.297 23.7 170.129 23.484C169.961 23.268 169.841 23.004 169.769 22.692C169.705 22.372 169.673 22.004 169.673 21.588V16.02L170.789 15.828V17.76ZM174.108 20.892C174.108 20.34 174.188 19.86 174.348 19.452C174.508 19.036 174.72 18.692 174.984 18.42C175.248 18.148 175.552 17.944 175.896 17.808C176.24 17.672 176.592 17.604 176.952 17.604C177.792 17.604 178.436 17.868 178.884 18.396C179.332 18.916 179.556 19.712 179.556 20.784C179.556 20.832 179.556 20.896 179.556 20.976C179.556 21.048 179.552 21.116 179.544 21.18H175.272C175.32 21.828 175.508 22.32 175.836 22.656C176.164 22.992 176.676 23.16 177.372 23.16C177.764 23.16 178.092 23.128 178.356 23.064C178.628 22.992 178.832 22.924 178.968 22.86L179.124 23.796C178.988 23.868 178.748 23.944 178.404 24.024C178.068 24.104 177.684 24.144 177.252 24.144C176.708 24.144 176.236 24.064 175.836 23.904C175.444 23.736 175.12 23.508 174.864 23.22C174.608 22.932 174.416 22.592 174.288 22.2C174.168 21.8 174.108 21.364 174.108 20.892ZM178.392 20.28C178.4 19.776 178.272 19.364 178.008 19.044C177.752 18.716 177.396 18.552 176.94 18.552C176.684 18.552 176.456 18.604 176.256 18.708C176.064 18.804 175.9 18.932 175.764 19.092C175.628 19.252 175.52 19.436 175.44 19.644C175.368 19.852 175.32 20.064 175.296 20.28H178.392ZM181.159 17.94C181.415 17.876 181.755 17.808 182.179 17.736C182.603 17.664 183.091 17.628 183.643 17.628C184.139 17.628 184.551 17.7 184.879 17.844C185.207 17.98 185.467 18.176 185.659 18.432C185.859 18.68 185.999 18.98 186.079 19.332C186.159 19.684 186.199 20.072 186.199 20.496V24H185.083V20.736C185.083 20.352 185.055 20.024 184.999 19.752C184.951 19.48 184.867 19.26 184.747 19.092C184.627 18.924 184.467 18.804 184.267 18.732C184.067 18.652 183.819 18.612 183.523 18.612C183.403 18.612 183.279 18.616 183.151 18.624C183.023 18.632 182.899 18.644 182.779 18.66C182.667 18.668 182.563 18.68 182.467 18.696C182.379 18.712 182.315 18.724 182.275 18.732V24H181.159V17.94ZM191.871 17.76H194.235V18.696H191.871V21.576C191.871 21.888 191.895 22.148 191.943 22.356C191.991 22.556 192.063 22.716 192.159 22.836C192.255 22.948 192.375 23.028 192.519 23.076C192.663 23.124 192.831 23.148 193.023 23.148C193.359 23.148 193.627 23.112 193.827 23.04C194.035 22.96 194.179 22.904 194.259 22.872L194.475 23.796C194.363 23.852 194.167 23.92 193.887 24C193.607 24.088 193.287 24.132 192.927 24.132C192.503 24.132 192.151 24.08 191.871 23.976C191.599 23.864 191.379 23.7 191.211 23.484C191.043 23.268 190.923 23.004 190.851 22.692C190.787 22.372 190.755 22.004 190.755 21.588V16.02L191.871 15.828V17.76ZM200.999 20.88C200.999 21.376 200.927 21.824 200.783 22.224C200.639 22.624 200.435 22.968 200.171 23.256C199.915 23.544 199.607 23.768 199.247 23.928C198.887 24.08 198.495 24.156 198.071 24.156C197.647 24.156 197.255 24.08 196.895 23.928C196.535 23.768 196.223 23.544 195.959 23.256C195.703 22.968 195.503 22.624 195.359 22.224C195.215 21.824 195.143 21.376 195.143 20.88C195.143 20.392 195.215 19.948 195.359 19.548C195.503 19.14 195.703 18.792 195.959 18.504C196.223 18.216 196.535 17.996 196.895 17.844C197.255 17.684 197.647 17.604 198.071 17.604C198.495 17.604 198.887 17.684 199.247 17.844C199.607 17.996 199.915 18.216 200.171 18.504C200.435 18.792 200.639 19.14 200.783 19.548C200.927 19.948 200.999 20.392 200.999 20.88ZM199.835 20.88C199.835 20.176 199.675 19.62 199.355 19.212C199.043 18.796 198.615 18.588 198.071 18.588C197.527 18.588 197.095 18.796 196.775 19.212C196.463 19.62 196.307 20.176 196.307 20.88C196.307 21.584 196.463 22.144 196.775 22.56C197.095 22.968 197.527 23.172 198.071 23.172C198.615 23.172 199.043 22.968 199.355 22.56C199.675 22.144 199.835 21.584 199.835 20.88ZM206.799 23.196C207.255 23.196 207.591 23.136 207.807 23.016C208.031 22.896 208.143 22.704 208.143 22.44C208.143 22.168 208.035 21.952 207.819 21.792C207.603 21.632 207.247 21.452 206.751 21.252C206.511 21.156 206.279 21.06 206.055 20.964C205.839 20.86 205.651 20.74 205.491 20.604C205.331 20.468 205.203 20.304 205.107 20.112C205.011 19.92 204.963 19.684 204.963 19.404C204.963 18.852 205.167 18.416 205.575 18.096C205.983 17.768 206.539 17.604 207.243 17.604C207.419 17.604 207.595 17.616 207.771 17.64C207.947 17.656 208.111 17.68 208.263 17.712C208.415 17.736 208.547 17.764 208.659 17.796C208.779 17.828 208.871 17.856 208.935 17.88L208.731 18.84C208.611 18.776 208.423 18.712 208.167 18.648C207.911 18.576 207.603 18.54 207.243 18.54C206.931 18.54 206.659 18.604 206.427 18.732C206.195 18.852 206.079 19.044 206.079 19.308C206.079 19.444 206.103 19.564 206.151 19.668C206.207 19.772 206.287 19.868 206.391 19.956C206.503 20.036 206.639 20.112 206.799 20.184C206.959 20.256 207.151 20.332 207.375 20.412C207.671 20.524 207.935 20.636 208.167 20.748C208.399 20.852 208.595 20.976 208.755 21.12C208.923 21.264 209.051 21.44 209.139 21.648C209.227 21.848 209.271 22.096 209.271 22.392C209.271 22.968 209.055 23.404 208.623 23.7C208.199 23.996 207.591 24.144 206.799 24.144C206.247 24.144 205.815 24.096 205.503 24C205.191 23.912 204.979 23.844 204.867 23.796L205.071 22.836C205.199 22.884 205.403 22.956 205.683 23.052C205.963 23.148 206.335 23.196 206.799 23.196ZM216.21 20.88C216.21 21.376 216.138 21.824 215.994 22.224C215.85 22.624 215.646 22.968 215.382 23.256C215.126 23.544 214.818 23.768 214.458 23.928C214.098 24.08 213.706 24.156 213.282 24.156C212.858 24.156 212.466 24.08 212.106 23.928C211.746 23.768 211.434 23.544 211.17 23.256C210.914 22.968 210.714 22.624 210.57 22.224C210.426 21.824 210.354 21.376 210.354 20.88C210.354 20.392 210.426 19.948 210.57 19.548C210.714 19.14 210.914 18.792 211.17 18.504C211.434 18.216 211.746 17.996 212.106 17.844C212.466 17.684 212.858 17.604 213.282 17.604C213.706 17.604 214.098 17.684 214.458 17.844C214.818 17.996 215.126 18.216 215.382 18.504C215.646 18.792 215.85 19.14 215.994 19.548C216.138 19.948 216.21 20.392 216.21 20.88ZM215.046 20.88C215.046 20.176 214.886 19.62 214.566 19.212C214.254 18.796 213.826 18.588 213.282 18.588C212.738 18.588 212.306 18.796 211.986 19.212C211.674 19.62 211.518 20.176 211.518 20.88C211.518 21.584 211.674 22.144 211.986 22.56C212.306 22.968 212.738 23.172 213.282 23.172C213.826 23.172 214.254 22.968 214.566 22.56C214.886 22.144 215.046 21.584 215.046 20.88ZM217.78 17.94C218.036 17.876 218.376 17.808 218.8 17.736C219.224 17.664 219.712 17.628 220.264 17.628C220.76 17.628 221.172 17.7 221.5 17.844C221.828 17.98 222.088 18.176 222.28 18.432C222.48 18.68 222.62 18.98 222.7 19.332C222.78 19.684 222.82 20.072 222.82 20.496V24H221.704V20.736C221.704 20.352 221.676 20.024 221.62 19.752C221.572 19.48 221.488 19.26 221.368 19.092C221.248 18.924 221.088 18.804 220.888 18.732C220.688 18.652 220.44 18.612 220.144 18.612C220.024 18.612 219.9 18.616 219.772 18.624C219.644 18.632 219.52 18.644 219.4 18.66C219.288 18.668 219.184 18.68 219.088 18.696C219 18.712 218.936 18.724 218.896 18.732V24H217.78V17.94ZM228.583 23.376C228.487 23.44 228.299 23.524 228.019 23.628C227.747 23.724 227.427 23.772 227.059 23.772C226.683 23.772 226.327 23.712 225.991 23.592C225.663 23.472 225.375 23.288 225.127 23.04C224.879 22.784 224.683 22.468 224.539 22.092C224.395 21.716 224.323 21.268 224.323 20.748C224.323 20.292 224.391 19.876 224.527 19.5C224.663 19.116 224.859 18.788 225.115 18.516C225.379 18.236 225.699 18.02 226.075 17.868C226.451 17.708 226.875 17.628 227.347 17.628C227.867 17.628 228.319 17.668 228.703 17.748C229.095 17.82 229.423 17.888 229.687 17.952V23.52C229.687 24.48 229.439 25.176 228.943 25.608C228.447 26.04 227.695 26.256 226.687 26.256C226.295 26.256 225.923 26.224 225.571 26.16C225.227 26.096 224.927 26.02 224.671 25.932L224.875 24.96C225.099 25.048 225.371 25.124 225.691 25.188C226.019 25.26 226.359 25.296 226.711 25.296C227.375 25.296 227.851 25.164 228.139 24.9C228.435 24.636 228.583 24.216 228.583 23.64V23.376ZM228.571 18.744C228.459 18.712 228.307 18.684 228.115 18.66C227.931 18.628 227.679 18.612 227.359 18.612C226.759 18.612 226.295 18.808 225.967 19.2C225.647 19.592 225.487 20.112 225.487 20.76C225.487 21.12 225.531 21.428 225.619 21.684C225.715 21.94 225.839 22.152 225.991 22.32C226.151 22.488 226.331 22.612 226.531 22.692C226.739 22.772 226.951 22.812 227.167 22.812C227.463 22.812 227.735 22.772 227.983 22.692C228.231 22.604 228.427 22.504 228.571 22.392V18.744ZM233.06 23.196C233.516 23.196 233.852 23.136 234.068 23.016C234.292 22.896 234.404 22.704 234.404 22.44C234.404 22.168 234.296 21.952 234.08 21.792C233.864 21.632 233.508 21.452 233.012 21.252C232.772 21.156 232.54 21.06 232.316 20.964C232.1 20.86 231.912 20.74 231.752 20.604C231.592 20.468 231.464 20.304 231.368 20.112C231.272 19.92 231.224 19.684 231.224 19.404C231.224 18.852 231.428 18.416 231.836 18.096C232.244 17.768 232.8 17.604 233.504 17.604C233.68 17.604 233.856 17.616 234.032 17.64C234.208 17.656 234.372 17.68 234.524 17.712C234.676 17.736 234.808 17.764 234.92 17.796C235.04 17.828 235.132 17.856 235.196 17.88L234.992 18.84C234.872 18.776 234.684 18.712 234.428 18.648C234.172 18.576 233.864 18.54 233.504 18.54C233.192 18.54 232.92 18.604 232.688 18.732C232.456 18.852 232.34 19.044 232.34 19.308C232.34 19.444 232.364 19.564 232.412 19.668C232.468 19.772 232.548 19.868 232.652 19.956C232.764 20.036 232.9 20.112 233.06 20.184C233.22 20.256 233.412 20.332 233.636 20.412C233.932 20.524 234.196 20.636 234.428 20.748C234.66 20.852 234.856 20.976 235.016 21.12C235.184 21.264 235.312 21.44 235.4 21.648C235.488 21.848 235.532 22.096 235.532 22.392C235.532 22.968 235.316 23.404 234.884 23.7C234.46 23.996 233.852 24.144 233.06 24.144C232.508 24.144 232.076 24.096 231.764 24C231.452 23.912 231.24 23.844 231.128 23.796L231.332 22.836C231.46 22.884 231.664 22.956 231.944 23.052C232.224 23.148 232.596 23.196 233.06 23.196Z" fill="#4F0DA3"/>
</svg>
