<svg width="300" height="45" viewBox="0 0 300 45" fill="none" xmlns="http://www.w3.org/2000/svg">
<rect width="300" height="45" rx="5" fill="#4F0DA3"/>
<path d="M140.536 25.492V26.5H135.532V18.184H136.696V25.492H140.536ZM147.05 23.38C147.05 23.876 146.978 24.324 146.834 24.724C146.69 25.124 146.486 25.468 146.222 25.756C145.966 26.044 145.658 26.268 145.298 26.428C144.938 26.58 144.546 26.656 144.122 26.656C143.698 26.656 143.306 26.58 142.946 26.428C142.586 26.268 142.274 26.044 142.01 25.756C141.754 25.468 141.554 25.124 141.41 24.724C141.266 24.324 141.194 23.876 141.194 23.38C141.194 22.892 141.266 22.448 141.41 22.048C141.554 21.64 141.754 21.292 142.01 21.004C142.274 20.716 142.586 20.496 142.946 20.344C143.306 20.184 143.698 20.104 144.122 20.104C144.546 20.104 144.938 20.184 145.298 20.344C145.658 20.496 145.966 20.716 146.222 21.004C146.486 21.292 146.69 21.64 146.834 22.048C146.978 22.448 147.05 22.892 147.05 23.38ZM145.886 23.38C145.886 22.676 145.726 22.12 145.406 21.712C145.094 21.296 144.666 21.088 144.122 21.088C143.578 21.088 143.146 21.296 142.826 21.712C142.514 22.12 142.358 22.676 142.358 23.38C142.358 24.084 142.514 24.644 142.826 25.06C143.146 25.468 143.578 25.672 144.122 25.672C144.666 25.672 145.094 25.468 145.406 25.06C145.726 24.644 145.886 24.084 145.886 23.38ZM152.532 25.876C152.436 25.94 152.248 26.024 151.968 26.128C151.696 26.224 151.376 26.272 151.008 26.272C150.632 26.272 150.276 26.212 149.94 26.092C149.612 25.972 149.324 25.788 149.076 25.54C148.828 25.284 148.632 24.968 148.488 24.592C148.344 24.216 148.272 23.768 148.272 23.248C148.272 22.792 148.34 22.376 148.476 22C148.612 21.616 148.808 21.288 149.064 21.016C149.328 20.736 149.648 20.52 150.024 20.368C150.4 20.208 150.824 20.128 151.296 20.128C151.816 20.128 152.268 20.168 152.652 20.248C153.044 20.32 153.372 20.388 153.636 20.452V26.02C153.636 26.98 153.388 27.676 152.892 28.108C152.396 28.54 151.644 28.756 150.636 28.756C150.244 28.756 149.872 28.724 149.52 28.66C149.176 28.596 148.876 28.52 148.62 28.432L148.824 27.46C149.048 27.548 149.32 27.624 149.64 27.688C149.968 27.76 150.308 27.796 150.66 27.796C151.324 27.796 151.8 27.664 152.088 27.4C152.384 27.136 152.532 26.716 152.532 26.14V25.876ZM152.52 21.244C152.408 21.212 152.256 21.184 152.064 21.16C151.88 21.128 151.628 21.112 151.308 21.112C150.708 21.112 150.244 21.308 149.916 21.7C149.596 22.092 149.436 22.612 149.436 23.26C149.436 23.62 149.48 23.928 149.568 24.184C149.664 24.44 149.788 24.652 149.94 24.82C150.1 24.988 150.28 25.112 150.48 25.192C150.688 25.272 150.9 25.312 151.116 25.312C151.412 25.312 151.684 25.272 151.932 25.192C152.18 25.104 152.376 25.004 152.52 24.892V21.244ZM156.674 26.5H155.558V20.26H156.674V26.5ZM156.11 19.132C155.91 19.132 155.738 19.068 155.594 18.94C155.458 18.804 155.39 18.624 155.39 18.4C155.39 18.176 155.458 18 155.594 17.872C155.738 17.736 155.91 17.668 156.11 17.668C156.31 17.668 156.478 17.736 156.614 17.872C156.758 18 156.83 18.176 156.83 18.4C156.83 18.624 156.758 18.804 156.614 18.94C156.478 19.068 156.31 19.132 156.11 19.132ZM158.593 20.44C158.849 20.376 159.189 20.308 159.613 20.236C160.037 20.164 160.525 20.128 161.077 20.128C161.573 20.128 161.985 20.2 162.313 20.344C162.641 20.48 162.901 20.676 163.093 20.932C163.293 21.18 163.433 21.48 163.513 21.832C163.593 22.184 163.633 22.572 163.633 22.996V26.5H162.517V23.236C162.517 22.852 162.489 22.524 162.433 22.252C162.385 21.98 162.301 21.76 162.181 21.592C162.061 21.424 161.901 21.304 161.701 21.232C161.501 21.152 161.253 21.112 160.957 21.112C160.837 21.112 160.713 21.116 160.585 21.124C160.457 21.132 160.333 21.144 160.213 21.16C160.101 21.168 159.997 21.18 159.901 21.196C159.813 21.212 159.749 21.224 159.709 21.232V26.5H158.593V20.44Z" fill="#F5F5F5"/>
</svg>
