<svg width="20" height="20" viewBox="0 0 20 20" fill="none" xmlns="http://www.w3.org/2000/svg">
<rect width="20" height="20" rx="10" fill="white" fill-opacity="0.2"/>
<path d="M10 7.03125C10.2589 7.03125 10.4688 6.82138 10.4688 6.5625C10.4688 6.30362 10.2589 6.09375 10 6.09375C9.74112 6.09375 9.53125 6.30362 9.53125 6.5625C9.53125 6.82138 9.74112 7.03125 10 7.03125Z" stroke="#F5F5F5" stroke-width="1.5" stroke-linecap="round" stroke-linejoin="round"/>
<path d="M10 10.4688C10.2589 10.4688 10.4688 10.2589 10.4688 10C10.4688 9.74112 10.2589 9.53125 10 9.53125C9.74112 9.53125 9.53125 9.74112 9.53125 10C9.53125 10.2589 9.74112 10.4688 10 10.4688Z" stroke="#F5F5F5" stroke-width="1.5" stroke-linecap="round" stroke-linejoin="round"/>
<path d="M10 13.9062C10.2589 13.9062 10.4688 13.6964 10.4688 13.4375C10.4688 13.1786 10.2589 12.9688 10 12.9688C9.74112 12.9688 9.53125 13.1786 9.53125 13.4375C9.53125 13.6964 9.74112 13.9062 10 13.9062Z" stroke="#F5F5F5" stroke-width="1.5" stroke-linecap="round" stroke-linejoin="round"/>
</svg>
