<svg width="218" height="46" viewBox="0 0 218 46" fill="none" xmlns="http://www.w3.org/2000/svg">
<rect width="218" height="46" rx="5" fill="#4F0DA3"/>
<path d="M101.354 28C101.149 27.6547 100.911 27.2673 100.64 26.838C100.379 26.4087 100.094 25.9653 99.786 25.508C99.478 25.0413 99.156 24.57 98.82 24.094C98.4933 23.618 98.1667 23.1607 97.84 22.722C97.5133 22.274 97.196 21.854 96.888 21.462C96.58 21.07 96.2953 20.7247 96.034 20.426V28H94.704V18.298H95.782C96.2207 18.7647 96.6873 19.3107 97.182 19.936C97.686 20.552 98.1807 21.1913 98.666 21.854C99.1607 22.5073 99.6227 23.1513 100.052 23.786C100.491 24.4207 100.859 24.9853 101.158 25.48V18.298H102.488V28H101.354ZM104.4 24.374C104.4 23.73 104.493 23.17 104.68 22.694C104.866 22.2087 105.114 21.8073 105.422 21.49C105.73 21.1727 106.084 20.9347 106.486 20.776C106.887 20.6173 107.298 20.538 107.718 20.538C108.698 20.538 109.449 20.846 109.972 21.462C110.494 22.0687 110.756 22.9973 110.756 24.248C110.756 24.304 110.756 24.3787 110.756 24.472C110.756 24.556 110.751 24.6353 110.742 24.71H105.758C105.814 25.466 106.033 26.04 106.416 26.432C106.798 26.824 107.396 27.02 108.208 27.02C108.665 27.02 109.048 26.9827 109.356 26.908C109.673 26.824 109.911 26.7447 110.07 26.67L110.252 27.762C110.093 27.846 109.813 27.9347 109.412 28.028C109.02 28.1213 108.572 28.168 108.068 28.168C107.433 28.168 106.882 28.0747 106.416 27.888C105.958 27.692 105.58 27.426 105.282 27.09C104.983 26.754 104.759 26.3573 104.61 25.9C104.47 25.4333 104.4 24.9247 104.4 24.374ZM109.398 23.66C109.407 23.072 109.258 22.5913 108.95 22.218C108.651 21.8353 108.236 21.644 107.704 21.644C107.405 21.644 107.139 21.7047 106.906 21.826C106.682 21.938 106.49 22.0873 106.332 22.274C106.173 22.4607 106.047 22.6753 105.954 22.918C105.87 23.1607 105.814 23.408 105.786 23.66H109.398ZM116.98 28C116.877 27.7947 116.751 27.566 116.602 27.314C116.453 27.062 116.289 26.8053 116.112 26.544C115.935 26.2733 115.753 26.0073 115.566 25.746C115.379 25.4847 115.197 25.2373 115.02 25.004C114.843 25.2373 114.661 25.4893 114.474 25.76C114.287 26.0213 114.105 26.2873 113.928 26.558C113.76 26.8193 113.601 27.076 113.452 27.328C113.303 27.58 113.177 27.804 113.074 28H111.73C112.057 27.3653 112.444 26.7213 112.892 26.068C113.349 25.4053 113.802 24.7753 114.25 24.178L111.842 20.72H113.312L115.048 23.268L116.798 20.72H118.184L115.832 24.094C116.28 24.7007 116.737 25.3447 117.204 26.026C117.68 26.698 118.081 27.356 118.408 28H116.98ZM120.994 20.72H123.752V21.812H120.994V25.172C120.994 25.536 121.022 25.8393 121.078 26.082C121.134 26.3153 121.218 26.502 121.33 26.642C121.442 26.7727 121.582 26.866 121.75 26.922C121.918 26.978 122.114 27.006 122.338 27.006C122.73 27.006 123.043 26.964 123.276 26.88C123.519 26.7867 123.687 26.7213 123.78 26.684L124.032 27.762C123.902 27.8273 123.673 27.9067 123.346 28C123.02 28.1027 122.646 28.154 122.226 28.154C121.732 28.154 121.321 28.0933 120.994 27.972C120.677 27.8413 120.42 27.65 120.224 27.398C120.028 27.146 119.888 26.838 119.804 26.474C119.73 26.1007 119.692 25.6713 119.692 25.186V18.69L120.994 18.466V20.72Z" fill="#F5F5F5"/>
</svg>
