<svg width="30" height="31" viewBox="0 0 30 31" fill="none" xmlns="http://www.w3.org/2000/svg">
<rect y="0.5" width="30" height="30" rx="15" fill="#4F0DA3" fill-opacity="0.25"/>
<path d="M22 15.5003C22.0004 15.6701 21.9569 15.8371 21.8736 15.985C21.7904 16.133 21.6703 16.2569 21.525 16.3447L12.52 21.8534C12.3682 21.9464 12.1943 21.9972 12.0163 22.0005C11.8383 22.0037 11.6627 21.9595 11.5075 21.8722C11.3538 21.7863 11.2258 21.6609 11.1366 21.5091C11.0474 21.3573 11.0003 21.1845 11 21.0084V9.99219C11.0003 9.81612 11.0474 9.64329 11.1366 9.49148C11.2258 9.33967 11.3538 9.21436 11.5075 9.12844C11.6627 9.04115 11.8383 8.99688 12.0163 9.00017C12.1943 9.00347 12.3682 9.05422 12.52 9.14719L21.525 14.6559C21.6703 14.7437 21.7904 14.8676 21.8736 15.0156C21.9569 15.1636 22.0004 15.3305 22 15.5003Z" fill="black"/>
</svg>
