<svg width="300" height="45" viewBox="0 0 300 45" fill="none" xmlns="http://www.w3.org/2000/svg">
<rect width="300" height="45" rx="5" fill="#4F0DA3"/>
<path d="M132.964 25.672C134.18 25.672 134.788 25.256 134.788 24.424C134.788 24.168 134.732 23.952 134.62 23.776C134.516 23.592 134.372 23.436 134.188 23.308C134.004 23.172 133.792 23.056 133.552 22.96C133.32 22.864 133.072 22.768 132.808 22.672C132.504 22.568 132.216 22.452 131.944 22.324C131.672 22.188 131.436 22.032 131.236 21.856C131.036 21.672 130.876 21.456 130.756 21.208C130.644 20.96 130.588 20.66 130.588 20.308C130.588 19.58 130.836 19.012 131.332 18.604C131.828 18.196 132.512 17.992 133.384 17.992C133.888 17.992 134.344 18.048 134.752 18.16C135.168 18.264 135.472 18.38 135.664 18.508L135.292 19.456C135.124 19.352 134.872 19.252 134.536 19.156C134.208 19.052 133.824 19 133.384 19C133.16 19 132.952 19.024 132.76 19.072C132.568 19.12 132.4 19.192 132.256 19.288C132.112 19.384 131.996 19.508 131.908 19.66C131.828 19.804 131.788 19.976 131.788 20.176C131.788 20.4 131.832 20.588 131.92 20.74C132.008 20.892 132.132 21.028 132.292 21.148C132.452 21.26 132.636 21.364 132.844 21.46C133.06 21.556 133.296 21.652 133.552 21.748C133.912 21.892 134.24 22.036 134.536 22.18C134.84 22.324 135.1 22.496 135.316 22.696C135.54 22.896 135.712 23.136 135.832 23.416C135.952 23.688 136.012 24.02 136.012 24.412C136.012 25.14 135.744 25.7 135.208 26.092C134.68 26.484 133.932 26.68 132.964 26.68C132.636 26.68 132.332 26.656 132.052 26.608C131.78 26.568 131.536 26.52 131.32 26.464C131.104 26.4 130.916 26.336 130.756 26.272C130.604 26.2 130.484 26.14 130.396 26.092L130.744 25.132C130.928 25.236 131.208 25.352 131.584 25.48C131.96 25.608 132.42 25.672 132.964 25.672ZM138.463 26.5H137.347V20.26H138.463V26.5ZM137.899 19.132C137.699 19.132 137.527 19.068 137.383 18.94C137.247 18.804 137.179 18.624 137.179 18.4C137.179 18.176 137.247 18 137.383 17.872C137.527 17.736 137.699 17.668 137.899 17.668C138.099 17.668 138.267 17.736 138.403 17.872C138.547 18 138.619 18.176 138.619 18.4C138.619 18.624 138.547 18.804 138.403 18.94C138.267 19.068 138.099 19.132 137.899 19.132ZM144.294 25.876C144.198 25.94 144.01 26.024 143.73 26.128C143.458 26.224 143.138 26.272 142.77 26.272C142.394 26.272 142.038 26.212 141.702 26.092C141.374 25.972 141.086 25.788 140.838 25.54C140.59 25.284 140.394 24.968 140.25 24.592C140.106 24.216 140.034 23.768 140.034 23.248C140.034 22.792 140.102 22.376 140.238 22C140.374 21.616 140.57 21.288 140.826 21.016C141.09 20.736 141.41 20.52 141.786 20.368C142.162 20.208 142.586 20.128 143.058 20.128C143.578 20.128 144.03 20.168 144.414 20.248C144.806 20.32 145.134 20.388 145.398 20.452V26.02C145.398 26.98 145.15 27.676 144.654 28.108C144.158 28.54 143.406 28.756 142.398 28.756C142.006 28.756 141.634 28.724 141.282 28.66C140.938 28.596 140.638 28.52 140.382 28.432L140.586 27.46C140.81 27.548 141.082 27.624 141.402 27.688C141.73 27.76 142.07 27.796 142.422 27.796C143.086 27.796 143.562 27.664 143.85 27.4C144.146 27.136 144.294 26.716 144.294 26.14V25.876ZM144.282 21.244C144.17 21.212 144.018 21.184 143.826 21.16C143.642 21.128 143.39 21.112 143.07 21.112C142.47 21.112 142.006 21.308 141.678 21.7C141.358 22.092 141.198 22.612 141.198 23.26C141.198 23.62 141.242 23.928 141.33 24.184C141.426 24.44 141.55 24.652 141.702 24.82C141.862 24.988 142.042 25.112 142.242 25.192C142.45 25.272 142.662 25.312 142.878 25.312C143.174 25.312 143.446 25.272 143.694 25.192C143.942 25.104 144.138 25.004 144.282 24.892V21.244ZM147.319 20.44C147.575 20.376 147.915 20.308 148.339 20.236C148.763 20.164 149.251 20.128 149.803 20.128C150.299 20.128 150.711 20.2 151.039 20.344C151.367 20.48 151.627 20.676 151.819 20.932C152.019 21.18 152.159 21.48 152.239 21.832C152.319 22.184 152.359 22.572 152.359 22.996V26.5H151.243V23.236C151.243 22.852 151.215 22.524 151.159 22.252C151.111 21.98 151.027 21.76 150.907 21.592C150.787 21.424 150.627 21.304 150.427 21.232C150.227 21.152 149.979 21.112 149.683 21.112C149.563 21.112 149.439 21.116 149.311 21.124C149.183 21.132 149.059 21.144 148.939 21.16C148.827 21.168 148.723 21.18 148.627 21.196C148.539 21.212 148.475 21.224 148.435 21.232V26.5H147.319V20.44ZM161.955 26.32C161.699 26.384 161.359 26.452 160.935 26.524C160.519 26.596 160.035 26.632 159.483 26.632C159.003 26.632 158.599 26.564 158.271 26.428C157.943 26.284 157.679 26.084 157.479 25.828C157.279 25.572 157.135 25.272 157.047 24.928C156.959 24.576 156.915 24.188 156.915 23.764V20.26H158.031V23.524C158.031 24.284 158.151 24.828 158.391 25.156C158.631 25.484 159.035 25.648 159.603 25.648C159.723 25.648 159.847 25.644 159.975 25.636C160.103 25.628 160.223 25.62 160.335 25.612C160.447 25.596 160.547 25.584 160.635 25.576C160.731 25.56 160.799 25.544 160.839 25.528V20.26H161.955V26.32ZM168.21 23.392C168.21 22.664 168.03 22.104 167.67 21.712C167.31 21.32 166.83 21.124 166.23 21.124C165.894 21.124 165.63 21.136 165.438 21.16C165.254 21.184 165.106 21.212 164.994 21.244V25.18C165.13 25.292 165.326 25.4 165.582 25.504C165.838 25.608 166.118 25.66 166.422 25.66C166.742 25.66 167.014 25.604 167.238 25.492C167.47 25.372 167.658 25.212 167.802 25.012C167.946 24.804 168.05 24.564 168.114 24.292C168.178 24.012 168.21 23.712 168.21 23.392ZM169.374 23.392C169.374 23.864 169.31 24.3 169.182 24.7C169.062 25.1 168.882 25.444 168.642 25.732C168.402 26.02 168.106 26.244 167.754 26.404C167.41 26.564 167.014 26.644 166.566 26.644C166.206 26.644 165.886 26.596 165.606 26.5C165.334 26.404 165.13 26.312 164.994 26.224V28.72H163.878V20.452C164.142 20.388 164.47 20.32 164.862 20.248C165.262 20.168 165.722 20.128 166.242 20.128C166.722 20.128 167.154 20.204 167.538 20.356C167.922 20.508 168.25 20.724 168.522 21.004C168.794 21.284 169.002 21.628 169.146 22.036C169.298 22.436 169.374 22.888 169.374 23.392Z" fill="#F5F5F5"/>
</svg>
