<svg width="32" height="32" viewBox="0 0 32 32" fill="none" xmlns="http://www.w3.org/2000/svg">
<path d="M21.3333 12H17.3333V19.3333C17.3333 20.2174 16.9821 21.0652 16.357 21.6904C15.7319 22.3155 14.8841 22.6667 14 22.6667C13.1159 22.6667 12.2681 22.3155 11.643 21.6904C11.0179 21.0652 10.6667 20.2174 10.6667 19.3333C10.6667 18.4493 11.0179 17.6014 11.643 16.9763C12.2681 16.3512 13.1159 16 14 16C14.76 16 15.44 16.2533 16 16.6667V9.33333H21.3333M25.3333 4H6.66667C5.95942 4 5.28115 4.28095 4.78105 4.78105C4.28095 5.28115 4 5.95942 4 6.66667V25.3333C4 26.0406 4.28095 26.7189 4.78105 27.219C5.28115 27.719 5.95942 28 6.66667 28H25.3333C26.0406 28 26.7189 27.719 27.219 27.219C27.719 26.7189 28 26.0406 28 25.3333V6.66667C28 5.95942 27.719 5.28115 27.219 4.78105C26.7189 4.28095 26.0406 4 25.3333 4Z" fill="#403F3F"/>
</svg>
