<svg width="241" height="46" viewBox="0 0 241 46" fill="none" xmlns="http://www.w3.org/2000/svg">
<rect x="0.5" y="0.5" width="240" height="45" rx="9.5" stroke="#4F0DA3"/>
<path d="M70.476 29C70.2413 28.6053 69.9693 28.1627 69.66 27.672C69.3613 27.1813 69.036 26.6747 68.684 26.152C68.332 25.6187 67.964 25.08 67.58 24.536C67.2067 23.992 66.8333 23.4693 66.46 22.968C66.0867 22.456 65.724 21.976 65.372 21.528C65.02 21.08 64.6947 20.6853 64.396 20.344V29H62.876V17.912H64.108C64.6093 18.4453 65.1427 19.0693 65.708 19.784C66.284 20.488 66.8493 21.2187 67.404 21.976C67.9693 22.7227 68.4973 23.4587 68.988 24.184C69.4893 24.9093 69.9107 25.5547 70.252 26.12V17.912H71.772V29H70.476ZM81.7646 24.84C81.7646 25.5013 81.6686 26.0987 81.4766 26.632C81.2846 27.1653 81.0126 27.624 80.6606 28.008C80.3193 28.392 79.9086 28.6907 79.4286 28.904C78.9486 29.1067 78.426 29.208 77.8606 29.208C77.2953 29.208 76.7726 29.1067 76.2926 28.904C75.8126 28.6907 75.3966 28.392 75.0446 28.008C74.7033 27.624 74.4366 27.1653 74.2446 26.632C74.0526 26.0987 73.9566 25.5013 73.9566 24.84C73.9566 24.1893 74.0526 23.5973 74.2446 23.064C74.4366 22.52 74.7033 22.056 75.0446 21.672C75.3966 21.288 75.8126 20.9947 76.2926 20.792C76.7726 20.5787 77.2953 20.472 77.8606 20.472C78.426 20.472 78.9486 20.5787 79.4286 20.792C79.9086 20.9947 80.3193 21.288 80.6606 21.672C81.0126 22.056 81.2846 22.52 81.4766 23.064C81.6686 23.5973 81.7646 24.1893 81.7646 24.84ZM80.2126 24.84C80.2126 23.9013 79.9993 23.16 79.5726 22.616C79.1566 22.0613 78.586 21.784 77.8606 21.784C77.1353 21.784 76.5593 22.0613 76.1326 22.616C75.7166 23.16 75.5086 23.9013 75.5086 24.84C75.5086 25.7787 75.7166 26.5253 76.1326 27.08C76.5593 27.624 77.1353 27.896 77.8606 27.896C78.586 27.896 79.1566 27.624 79.5726 27.08C79.9993 26.5253 80.2126 25.7787 80.2126 24.84ZM85.4261 27.176C85.4368 27.2613 85.4421 27.3467 85.4421 27.432C85.4421 27.5067 85.4421 27.5867 85.4421 27.672C85.4421 28.344 85.3408 29.0053 85.1381 29.656C84.9461 30.3173 84.6795 30.9467 84.3381 31.544L83.1861 31.176C83.4528 30.632 83.6288 30.0773 83.7141 29.512C83.7995 28.9573 83.8421 28.4347 83.8421 27.944C83.8421 27.8053 83.8368 27.672 83.8261 27.544C83.8261 27.416 83.8208 27.2933 83.8101 27.176H85.4261ZM93.4348 27.928C94.0428 27.928 94.4908 27.848 94.7788 27.688C95.0774 27.528 95.2268 27.272 95.2268 26.92C95.2268 26.5573 95.0828 26.2693 94.7948 26.056C94.5068 25.8427 94.0321 25.6027 93.3708 25.336C93.0508 25.208 92.7414 25.08 92.4428 24.952C92.1548 24.8133 91.9041 24.6533 91.6908 24.472C91.4774 24.2907 91.3068 24.072 91.1788 23.816C91.0508 23.56 90.9868 23.2453 90.9868 22.872C90.9868 22.136 91.2588 21.5547 91.8028 21.128C92.3468 20.6907 93.0881 20.472 94.0268 20.472C94.2614 20.472 94.4961 20.488 94.7308 20.52C94.9654 20.5413 95.1841 20.5733 95.3868 20.616C95.5894 20.648 95.7654 20.6853 95.9148 20.728C96.0748 20.7707 96.1974 20.808 96.2828 20.84L96.0108 22.12C95.8508 22.0347 95.6001 21.9493 95.2588 21.864C94.9174 21.768 94.5068 21.72 94.0268 21.72C93.6108 21.72 93.2481 21.8053 92.9388 21.976C92.6294 22.136 92.4748 22.392 92.4748 22.744C92.4748 22.9253 92.5068 23.0853 92.5707 23.224C92.6454 23.3627 92.7521 23.4907 92.8908 23.608C93.0401 23.7147 93.2214 23.816 93.4348 23.912C93.6481 24.008 93.9041 24.1093 94.2028 24.216C94.5974 24.3653 94.9494 24.5147 95.2588 24.664C95.5681 24.8027 95.8294 24.968 96.0428 25.16C96.2668 25.352 96.4374 25.5867 96.5548 25.864C96.6721 26.1307 96.7308 26.4613 96.7308 26.856C96.7308 27.624 96.4428 28.2053 95.8668 28.6C95.3014 28.9947 94.4908 29.192 93.4348 29.192C92.6988 29.192 92.1228 29.128 91.7068 29C91.2908 28.8827 91.0081 28.792 90.8588 28.728L91.1308 27.448C91.3014 27.512 91.5734 27.608 91.9468 27.736C92.3201 27.864 92.8161 27.928 93.4348 27.928ZM100.031 20.68H103.183V21.928H100.031V25.768C100.031 26.184 100.063 26.5307 100.127 26.808C100.191 27.0747 100.287 27.288 100.415 27.448C100.543 27.5973 100.703 27.704 100.895 27.768C101.087 27.832 101.311 27.864 101.567 27.864C102.015 27.864 102.373 27.816 102.639 27.72C102.917 27.6133 103.109 27.5387 103.215 27.496L103.503 28.728C103.354 28.8027 103.093 28.8933 102.719 29C102.346 29.1173 101.919 29.176 101.439 29.176C100.874 29.176 100.405 29.1067 100.031 28.968C99.6687 28.8187 99.3754 28.6 99.1514 28.312C98.9274 28.024 98.7674 27.672 98.6714 27.256C98.586 26.8293 98.5434 26.3387 98.5434 25.784V18.36L100.031 18.104V20.68ZM107.893 27.928C108.245 27.928 108.554 27.9227 108.821 27.912C109.098 27.8907 109.328 27.8587 109.509 27.816V25.336C109.402 25.2827 109.226 25.24 108.981 25.208C108.746 25.1653 108.458 25.144 108.117 25.144C107.893 25.144 107.653 25.16 107.397 25.192C107.152 25.224 106.922 25.2933 106.709 25.4C106.506 25.496 106.336 25.6347 106.197 25.816C106.058 25.9867 105.989 26.216 105.989 26.504C105.989 27.0373 106.16 27.4107 106.501 27.624C106.842 27.8267 107.306 27.928 107.893 27.928ZM107.765 20.472C108.362 20.472 108.864 20.552 109.269 20.712C109.685 20.8613 110.016 21.08 110.261 21.368C110.517 21.6453 110.698 21.9813 110.805 22.376C110.912 22.76 110.965 23.1867 110.965 23.656V28.856C110.837 28.8773 110.656 28.9093 110.421 28.952C110.197 28.984 109.941 29.016 109.653 29.048C109.365 29.08 109.05 29.1067 108.709 29.128C108.378 29.16 108.048 29.176 107.717 29.176C107.248 29.176 106.816 29.128 106.421 29.032C106.026 28.936 105.685 28.7867 105.397 28.584C105.109 28.3707 104.885 28.0933 104.725 27.752C104.565 27.4107 104.485 27 104.485 26.52C104.485 26.0613 104.576 25.6667 104.757 25.336C104.949 25.0053 105.205 24.7387 105.525 24.536C105.845 24.3333 106.218 24.184 106.645 24.088C107.072 23.992 107.52 23.944 107.989 23.944C108.138 23.944 108.293 23.9547 108.453 23.976C108.613 23.9867 108.762 24.008 108.901 24.04C109.05 24.0613 109.178 24.0827 109.285 24.104C109.392 24.1253 109.466 24.1413 109.509 24.152V23.736C109.509 23.4907 109.482 23.2507 109.429 23.016C109.376 22.7707 109.28 22.5573 109.141 22.376C109.002 22.184 108.81 22.0347 108.565 21.928C108.33 21.8107 108.021 21.752 107.637 21.752C107.146 21.752 106.714 21.7893 106.341 21.864C105.978 21.928 105.706 21.9973 105.525 22.072L105.349 20.84C105.541 20.7547 105.861 20.6747 106.309 20.6C106.757 20.5147 107.242 20.472 107.765 20.472ZM116.508 20.504C116.636 20.504 116.78 20.5147 116.94 20.536C117.111 20.5467 117.276 20.568 117.436 20.6C117.596 20.6213 117.74 20.648 117.868 20.68C118.007 20.7013 118.108 20.7227 118.172 20.744L117.916 22.04C117.799 21.9973 117.602 21.9493 117.324 21.896C117.058 21.832 116.711 21.8 116.284 21.8C116.007 21.8 115.73 21.832 115.452 21.896C115.186 21.9493 115.01 21.9867 114.924 22.008V29H113.436V21.032C113.788 20.904 114.226 20.7867 114.748 20.68C115.271 20.5627 115.858 20.504 116.508 20.504ZM121 20.68H124.152V21.928H121V25.768C121 26.184 121.032 26.5307 121.096 26.808C121.16 27.0747 121.256 27.288 121.384 27.448C121.512 27.5973 121.672 27.704 121.864 27.768C122.056 27.832 122.28 27.864 122.536 27.864C122.984 27.864 123.341 27.816 123.608 27.72C123.885 27.6133 124.077 27.5387 124.184 27.496L124.472 28.728C124.323 28.8027 124.061 28.8933 123.688 29C123.315 29.1173 122.888 29.176 122.408 29.176C121.843 29.176 121.373 29.1067 121 28.968C120.637 28.8187 120.344 28.6 120.12 28.312C119.896 28.024 119.736 27.672 119.64 27.256C119.555 26.8293 119.512 26.3387 119.512 25.784V18.36L121 18.104V20.68ZM136.373 28.76C136.031 28.8453 135.578 28.936 135.013 29.032C134.458 29.128 133.813 29.176 133.077 29.176C132.437 29.176 131.898 29.0853 131.461 28.904C131.023 28.712 130.671 28.4453 130.405 28.104C130.138 27.7627 129.946 27.3627 129.829 26.904C129.711 26.4347 129.653 25.9173 129.653 25.352V20.68H131.141V25.032C131.141 26.0453 131.301 26.7707 131.621 27.208C131.941 27.6453 132.479 27.864 133.237 27.864C133.397 27.864 133.562 27.8587 133.733 27.848C133.903 27.8373 134.063 27.8267 134.213 27.816C134.362 27.7947 134.495 27.7787 134.613 27.768C134.741 27.7467 134.831 27.7253 134.885 27.704V20.68H136.373V28.76ZM144.712 24.856C144.712 23.8853 144.472 23.1387 143.992 22.616C143.512 22.0933 142.872 21.832 142.072 21.832C141.624 21.832 141.272 21.848 141.016 21.88C140.771 21.912 140.574 21.9493 140.424 21.992V27.24C140.606 27.3893 140.867 27.5333 141.208 27.672C141.55 27.8107 141.923 27.88 142.328 27.88C142.755 27.88 143.118 27.8053 143.416 27.656C143.726 27.496 143.976 27.2827 144.168 27.016C144.36 26.7387 144.499 26.4187 144.584 26.056C144.67 25.6827 144.712 25.2827 144.712 24.856ZM146.264 24.856C146.264 25.4853 146.179 26.0667 146.008 26.6C145.848 27.1333 145.608 27.592 145.288 27.976C144.968 28.36 144.574 28.6587 144.104 28.872C143.646 29.0853 143.118 29.192 142.52 29.192C142.04 29.192 141.614 29.128 141.24 29C140.878 28.872 140.606 28.7493 140.424 28.632V31.96H138.936V20.936C139.288 20.8507 139.726 20.76 140.248 20.664C140.782 20.5573 141.395 20.504 142.088 20.504C142.728 20.504 143.304 20.6053 143.816 20.808C144.328 21.0107 144.766 21.2987 145.128 21.672C145.491 22.0453 145.768 22.504 145.96 23.048C146.163 23.5813 146.264 24.184 146.264 24.856ZM150.854 29.16C149.937 29.1387 149.286 28.9413 148.902 28.568C148.518 28.1947 148.326 27.6133 148.326 26.824V16.84L149.814 16.584V26.584C149.814 26.8293 149.835 27.032 149.878 27.192C149.921 27.352 149.99 27.48 150.086 27.576C150.182 27.672 150.31 27.7467 150.47 27.8C150.63 27.8427 150.827 27.88 151.062 27.912L150.854 29.16ZM160.077 24.84C160.077 25.5013 159.981 26.0987 159.789 26.632C159.597 27.1653 159.325 27.624 158.973 28.008C158.632 28.392 158.221 28.6907 157.741 28.904C157.261 29.1067 156.738 29.208 156.173 29.208C155.608 29.208 155.085 29.1067 154.605 28.904C154.125 28.6907 153.709 28.392 153.357 28.008C153.016 27.624 152.749 27.1653 152.557 26.632C152.365 26.0987 152.269 25.5013 152.269 24.84C152.269 24.1893 152.365 23.5973 152.557 23.064C152.749 22.52 153.016 22.056 153.357 21.672C153.709 21.288 154.125 20.9947 154.605 20.792C155.085 20.5787 155.608 20.472 156.173 20.472C156.738 20.472 157.261 20.5787 157.741 20.792C158.221 20.9947 158.632 21.288 158.973 21.672C159.325 22.056 159.597 22.52 159.789 23.064C159.981 23.5973 160.077 24.1893 160.077 24.84ZM158.525 24.84C158.525 23.9013 158.312 23.16 157.885 22.616C157.469 22.0613 156.898 21.784 156.173 21.784C155.448 21.784 154.872 22.0613 154.445 22.616C154.029 23.16 153.821 23.9013 153.821 24.84C153.821 25.7787 154.029 26.5253 154.445 27.08C154.872 27.624 155.448 27.896 156.173 27.896C156.898 27.896 157.469 27.624 157.885 27.08C158.312 26.5253 158.525 25.7787 158.525 24.84ZM164.987 27.928C165.339 27.928 165.648 27.9227 165.915 27.912C166.192 27.8907 166.421 27.8587 166.603 27.816V25.336C166.496 25.2827 166.32 25.24 166.075 25.208C165.84 25.1653 165.552 25.144 165.211 25.144C164.987 25.144 164.747 25.16 164.491 25.192C164.245 25.224 164.016 25.2933 163.803 25.4C163.6 25.496 163.429 25.6347 163.291 25.816C163.152 25.9867 163.083 26.216 163.083 26.504C163.083 27.0373 163.253 27.4107 163.595 27.624C163.936 27.8267 164.4 27.928 164.987 27.928ZM164.859 20.472C165.456 20.472 165.957 20.552 166.363 20.712C166.779 20.8613 167.109 21.08 167.355 21.368C167.611 21.6453 167.792 21.9813 167.899 22.376C168.005 22.76 168.059 23.1867 168.059 23.656V28.856C167.931 28.8773 167.749 28.9093 167.515 28.952C167.291 28.984 167.035 29.016 166.747 29.048C166.459 29.08 166.144 29.1067 165.803 29.128C165.472 29.16 165.141 29.176 164.811 29.176C164.341 29.176 163.909 29.128 163.515 29.032C163.12 28.936 162.779 28.7867 162.491 28.584C162.203 28.3707 161.979 28.0933 161.819 27.752C161.659 27.4107 161.579 27 161.579 26.52C161.579 26.0613 161.669 25.6667 161.851 25.336C162.043 25.0053 162.299 24.7387 162.619 24.536C162.939 24.3333 163.312 24.184 163.739 24.088C164.165 23.992 164.613 23.944 165.083 23.944C165.232 23.944 165.387 23.9547 165.547 23.976C165.707 23.9867 165.856 24.008 165.995 24.04C166.144 24.0613 166.272 24.0827 166.379 24.104C166.485 24.1253 166.56 24.1413 166.603 24.152V23.736C166.603 23.4907 166.576 23.2507 166.523 23.016C166.469 22.7707 166.373 22.5573 166.235 22.376C166.096 22.184 165.904 22.0347 165.659 21.928C165.424 21.8107 165.115 21.752 164.731 21.752C164.24 21.752 163.808 21.7893 163.435 21.864C163.072 21.928 162.8 21.9973 162.619 22.072L162.443 20.84C162.635 20.7547 162.955 20.6747 163.403 20.6C163.851 20.5147 164.336 20.472 164.859 20.472ZM175.906 22.44C175.725 22.2907 175.463 22.1467 175.122 22.008C174.781 21.8693 174.407 21.8 174.002 21.8C173.575 21.8 173.207 21.88 172.898 22.04C172.599 22.1893 172.354 22.4027 172.162 22.68C171.97 22.9467 171.831 23.2667 171.746 23.64C171.661 24.0133 171.618 24.4133 171.618 24.84C171.618 25.8107 171.858 26.5627 172.338 27.096C172.818 27.6187 173.458 27.88 174.258 27.88C174.663 27.88 174.999 27.864 175.266 27.832C175.543 27.7893 175.757 27.7467 175.906 27.704V22.44ZM175.906 16.84L177.394 16.584V28.76C177.053 28.856 176.615 28.952 176.082 29.048C175.549 29.144 174.935 29.192 174.242 29.192C173.602 29.192 173.026 29.0907 172.514 28.888C172.002 28.6853 171.565 28.3973 171.202 28.024C170.839 27.6507 170.557 27.1973 170.354 26.664C170.162 26.12 170.066 25.512 170.066 24.84C170.066 24.2 170.146 23.6133 170.306 23.08C170.477 22.5467 170.722 22.088 171.042 21.704C171.362 21.32 171.751 21.0213 172.21 20.808C172.679 20.5947 173.213 20.488 173.81 20.488C174.29 20.488 174.711 20.552 175.074 20.68C175.447 20.808 175.725 20.9307 175.906 21.048V16.84Z" fill="#4F0DA3"/>
</svg>
