<svg width="89" height="31" viewBox="0 0 89 31" fill="none" xmlns="http://www.w3.org/2000/svg">
<rect x="0.00976562" y="0.5" width="88.9906" height="30" rx="15" fill="#4F0DA3"/>
<path d="M33.264 19.278C33.8533 19.278 34.2823 19.1783 34.551 18.979C34.8196 18.7797 34.954 18.498 34.954 18.134C34.954 17.9173 34.9063 17.731 34.811 17.575C34.7243 17.419 34.5943 17.2803 34.421 17.159C34.2563 17.029 34.0526 16.912 33.81 16.808C33.5673 16.6953 33.29 16.587 32.978 16.483C32.666 16.3703 32.3626 16.249 32.068 16.119C31.782 15.9803 31.5263 15.8113 31.301 15.612C31.0843 15.4127 30.9066 15.1743 30.768 14.897C30.638 14.6197 30.573 14.286 30.573 13.896C30.573 13.0813 30.8546 12.4443 31.418 11.985C31.9813 11.517 32.7483 11.283 33.719 11.283C34.2823 11.283 34.7806 11.348 35.214 11.478C35.656 11.5993 36.0026 11.7337 36.254 11.881L35.747 13.207C35.4523 13.0423 35.1273 12.9167 34.772 12.83C34.4253 12.7433 34.0656 12.7 33.693 12.7C33.251 12.7 32.9043 12.791 32.653 12.973C32.4103 13.155 32.289 13.4107 32.289 13.74C32.289 13.9393 32.328 14.1127 32.406 14.26C32.4926 14.3987 32.6096 14.5243 32.757 14.637C32.913 14.7497 33.0906 14.8537 33.29 14.949C33.498 15.0443 33.7233 15.1353 33.966 15.222C34.3906 15.378 34.7676 15.5383 35.097 15.703C35.435 15.859 35.7166 16.0497 35.942 16.275C36.176 16.4917 36.3536 16.7517 36.475 17.055C36.5963 17.3497 36.657 17.7093 36.657 18.134C36.657 18.9487 36.3666 19.5813 35.786 20.032C35.214 20.474 34.3733 20.695 33.264 20.695C32.8913 20.695 32.549 20.669 32.237 20.617C31.9336 20.5737 31.6606 20.5173 31.418 20.448C31.184 20.3787 30.9803 20.3093 30.807 20.24C30.6336 20.162 30.495 20.0927 30.391 20.032L30.872 18.693C31.106 18.823 31.4223 18.953 31.821 19.083C32.2196 19.213 32.7006 19.278 33.264 19.278ZM37.9445 11.907L39.5175 11.647V13.701H41.9355V15.014H39.5175V17.783C39.5175 18.329 39.6042 18.719 39.7775 18.953C39.9508 19.187 40.2455 19.304 40.6615 19.304C40.9475 19.304 41.1988 19.2737 41.4155 19.213C41.6408 19.1523 41.8185 19.096 41.9485 19.044L42.2085 20.292C42.0265 20.37 41.7882 20.448 41.4935 20.526C41.1988 20.6127 40.8522 20.656 40.4535 20.656C39.9682 20.656 39.5608 20.591 39.2315 20.461C38.9108 20.331 38.6552 20.1447 38.4645 19.902C38.2738 19.6507 38.1395 19.3517 38.0615 19.005C37.9835 18.6497 37.9445 18.2467 37.9445 17.796V11.907ZM45.0421 20.5H43.4691V13.701H45.0421V20.5ZM45.2111 11.712C45.2111 12.0067 45.1157 12.2407 44.9251 12.414C44.7344 12.5873 44.5091 12.674 44.2491 12.674C43.9804 12.674 43.7507 12.5873 43.5601 12.414C43.3694 12.2407 43.2741 12.0067 43.2741 11.712C43.2741 11.4087 43.3694 11.1703 43.5601 10.997C43.7507 10.8237 43.9804 10.737 44.2491 10.737C44.5091 10.737 44.7344 10.8237 44.9251 10.997C45.1157 11.1703 45.2111 11.4087 45.2111 11.712ZM46.6719 17.107C46.6719 16.6043 46.7499 16.1363 46.9059 15.703C47.0619 15.261 47.2829 14.8797 47.5689 14.559C47.8635 14.2383 48.2189 13.987 48.6349 13.805C49.0509 13.623 49.5189 13.532 50.0389 13.532C50.6802 13.532 51.2869 13.649 51.8589 13.883L51.5209 15.17C51.3389 15.092 51.1309 15.027 50.8969 14.975C50.6715 14.923 50.4289 14.897 50.1689 14.897C49.5535 14.897 49.0855 15.092 48.7649 15.482C48.4442 15.8633 48.2839 16.405 48.2839 17.107C48.2839 17.783 48.4355 18.3203 48.7389 18.719C49.0422 19.109 49.5535 19.304 50.2729 19.304C50.5415 19.304 50.8059 19.278 51.0659 19.226C51.3259 19.174 51.5512 19.109 51.7419 19.031L51.9629 20.331C51.7895 20.4177 51.5252 20.4957 51.1699 20.565C50.8232 20.6343 50.4635 20.669 50.0909 20.669C49.5102 20.669 49.0032 20.5823 48.5699 20.409C48.1452 20.227 47.7899 19.98 47.5039 19.668C47.2265 19.3473 47.0185 18.9703 46.8799 18.537C46.7412 18.095 46.6719 17.6183 46.6719 17.107ZM54.7537 16.353C54.953 16.145 55.1654 15.924 55.3907 15.69C55.616 15.4473 55.837 15.209 56.0537 14.975C56.2704 14.7323 56.474 14.5027 56.6647 14.286C56.864 14.0607 57.033 13.8657 57.1717 13.701H59.0307C58.5974 14.1863 58.138 14.689 57.6527 15.209C57.176 15.729 56.695 16.236 56.2097 16.73C56.4697 16.9467 56.7427 17.211 57.0287 17.523C57.3147 17.8263 57.592 18.1513 57.8607 18.498C58.1294 18.8447 58.3807 19.1913 58.6147 19.538C58.8487 19.8847 59.0437 20.2053 59.1997 20.5H57.3797C57.2237 20.2313 57.0417 19.9497 56.8337 19.655C56.6344 19.3603 56.4177 19.0743 56.1837 18.797C55.9497 18.5197 55.7114 18.2597 55.4687 18.017C55.226 17.7657 54.9877 17.5533 54.7537 17.38V20.5H53.1807V10.672L54.7537 10.412V16.353Z" fill="white"/>
</svg>
