<svg width="89" height="31" viewBox="0 0 89 31" fill="none" xmlns="http://www.w3.org/2000/svg">
<rect x="0.00976562" y="0.5" width="88.9906" height="30" rx="15" fill="#4F0DA3"/>
<path d="M26.55 20.195C25.9347 20.195 25.406 20.1083 24.964 19.935C24.522 19.753 24.1537 19.5017 23.859 19.181C23.573 18.8603 23.3607 18.4833 23.222 18.05C23.0833 17.6167 23.014 17.14 23.014 16.62V10.991H24.665V16.464C24.665 16.8713 24.7083 17.2223 24.795 17.517C24.8903 17.803 25.0203 18.037 25.185 18.219C25.3583 18.401 25.5577 18.5353 25.783 18.622C26.017 18.7087 26.277 18.752 26.563 18.752C26.849 18.752 27.109 18.7087 27.343 18.622C27.577 18.5353 27.7763 18.401 27.941 18.219C28.1143 18.037 28.2443 17.803 28.331 17.517C28.4263 17.2223 28.474 16.8713 28.474 16.464V10.991H30.125V16.62C30.125 17.14 30.0513 17.6167 29.904 18.05C29.7653 18.4833 29.5487 18.8603 29.254 19.181C28.968 19.5017 28.5997 19.753 28.149 19.935C27.6983 20.1083 27.1653 20.195 26.55 20.195ZM32.1416 13.422C32.445 13.3353 32.8393 13.253 33.3246 13.175C33.81 13.097 34.3473 13.058 34.9366 13.058C35.4913 13.058 35.955 13.136 36.3276 13.292C36.7003 13.4393 36.995 13.6517 37.2116 13.929C37.437 14.1977 37.593 14.527 37.6796 14.917C37.775 15.2983 37.8226 15.7187 37.8226 16.178V20H36.2496V16.425C36.2496 16.061 36.2236 15.7533 36.1716 15.502C36.1283 15.242 36.0503 15.034 35.9376 14.878C35.8336 14.7133 35.6863 14.5963 35.4956 14.527C35.3136 14.449 35.0883 14.41 34.8196 14.41C34.6203 14.41 34.4123 14.423 34.1956 14.449C33.979 14.475 33.8186 14.4967 33.7146 14.514V20H32.1416V13.422ZM41.4491 18.869C41.8651 18.869 42.1685 18.8213 42.3591 18.726C42.5498 18.622 42.6451 18.4487 42.6451 18.206C42.6451 17.9807 42.5411 17.7943 42.3331 17.647C42.1338 17.4997 41.8001 17.3393 41.3321 17.166C41.0461 17.062 40.7818 16.9537 40.5391 16.841C40.3051 16.7197 40.1015 16.581 39.9281 16.425C39.7548 16.269 39.6161 16.0827 39.5121 15.866C39.4168 15.6407 39.3691 15.3677 39.3691 15.047C39.3691 14.423 39.5988 13.9333 40.0581 13.578C40.5175 13.214 41.1415 13.032 41.9301 13.032C42.3288 13.032 42.7101 13.071 43.0741 13.149C43.4381 13.2183 43.7111 13.2877 43.8931 13.357L43.6071 14.631C43.4338 14.553 43.2128 14.4837 42.9441 14.423C42.6755 14.3537 42.3635 14.319 42.0081 14.319C41.6875 14.319 41.4275 14.3753 41.2281 14.488C41.0288 14.592 40.9291 14.7567 40.9291 14.982C40.9291 15.0947 40.9465 15.1943 40.9811 15.281C41.0245 15.3677 41.0938 15.45 41.1891 15.528C41.2845 15.5973 41.4101 15.671 41.5661 15.749C41.7221 15.8183 41.9128 15.892 42.1381 15.97C42.5108 16.1087 42.8271 16.2473 43.0871 16.386C43.3471 16.516 43.5595 16.6677 43.7241 16.841C43.8975 17.0057 44.0231 17.1963 44.1011 17.413C44.1791 17.6297 44.2181 17.8897 44.2181 18.193C44.2181 18.843 43.9755 19.337 43.4901 19.675C43.0135 20.0043 42.3288 20.169 41.4361 20.169C40.8381 20.169 40.3571 20.117 39.9931 20.013C39.6291 19.9177 39.3735 19.8397 39.2261 19.779L39.4991 18.466C39.7331 18.5613 40.0105 18.6523 40.3311 18.739C40.6605 18.8257 41.0331 18.869 41.4491 18.869ZM45.6095 11.407L47.1825 11.147V13.201H49.6005V14.514H47.1825V17.283C47.1825 17.829 47.2692 18.219 47.4425 18.453C47.6159 18.687 47.9105 18.804 48.3265 18.804C48.6125 18.804 48.8639 18.7737 49.0805 18.713C49.3059 18.6523 49.4835 18.596 49.6135 18.544L49.8735 19.792C49.6915 19.87 49.4532 19.948 49.1585 20.026C48.8639 20.1127 48.5172 20.156 48.1185 20.156C47.6332 20.156 47.2259 20.091 46.8965 19.961C46.5759 19.831 46.3202 19.6447 46.1295 19.402C45.9389 19.1507 45.8045 18.8517 45.7265 18.505C45.6485 18.1497 45.6095 17.7467 45.6095 17.296V11.407ZM52.7071 20H51.1341V13.201H52.7071V20ZM52.8761 11.212C52.8761 11.5067 52.7808 11.7407 52.5901 11.914C52.3995 12.0873 52.1741 12.174 51.9141 12.174C51.6455 12.174 51.4158 12.0873 51.2251 11.914C51.0345 11.7407 50.9391 11.5067 50.9391 11.212C50.9391 10.9087 51.0345 10.6703 51.2251 10.497C51.4158 10.3237 51.6455 10.237 51.9141 10.237C52.1741 10.237 52.3995 10.3237 52.5901 10.497C52.7808 10.6703 52.8761 10.9087 52.8761 11.212ZM54.3369 16.607C54.3369 16.1043 54.4149 15.6363 54.5709 15.203C54.7269 14.761 54.9479 14.3797 55.2339 14.059C55.5286 13.7383 55.8839 13.487 56.2999 13.305C56.7159 13.123 57.1839 13.032 57.7039 13.032C58.3452 13.032 58.9519 13.149 59.5239 13.383L59.1859 14.67C59.0039 14.592 58.7959 14.527 58.5619 14.475C58.3366 14.423 58.0939 14.397 57.8339 14.397C57.2186 14.397 56.7506 14.592 56.4299 14.982C56.1092 15.3633 55.9489 15.905 55.9489 16.607C55.9489 17.283 56.1006 17.8203 56.4039 18.219C56.7072 18.609 57.2186 18.804 57.9379 18.804C58.2066 18.804 58.4709 18.778 58.7309 18.726C58.9909 18.674 59.2162 18.609 59.4069 18.531L59.6279 19.831C59.4546 19.9177 59.1902 19.9957 58.8349 20.065C58.4882 20.1343 58.1286 20.169 57.7559 20.169C57.1752 20.169 56.6682 20.0823 56.2349 19.909C55.8102 19.727 55.4549 19.48 55.1689 19.168C54.8916 18.8473 54.6836 18.4703 54.5449 18.037C54.4062 17.595 54.3369 17.1183 54.3369 16.607ZM62.4187 15.853C62.6181 15.645 62.8304 15.424 63.0557 15.19C63.2811 14.9473 63.5021 14.709 63.7187 14.475C63.9354 14.2323 64.1391 14.0027 64.3297 13.786C64.5291 13.5607 64.6981 13.3657 64.8367 13.201H66.6957C66.2624 13.6863 65.8031 14.189 65.3177 14.709C64.8411 15.229 64.3601 15.736 63.8747 16.23C64.1347 16.4467 64.4077 16.711 64.6937 17.023C64.9797 17.3263 65.2571 17.6513 65.5257 17.998C65.7944 18.3447 66.0457 18.6913 66.2797 19.038C66.5137 19.3847 66.7087 19.7053 66.8647 20H65.0447C64.8887 19.7313 64.7067 19.4497 64.4987 19.155C64.2994 18.8603 64.0827 18.5743 63.8487 18.297C63.6147 18.0197 63.3764 17.7597 63.1337 17.517C62.8911 17.2657 62.6527 17.0533 62.4187 16.88V20H60.8457V10.172L62.4187 9.912V15.853Z" fill="white"/>
</svg>
