<svg width="218" height="46" viewBox="0 0 218 46" fill="none" xmlns="http://www.w3.org/2000/svg">
<rect width="218" height="46" rx="5" fill="#4F0DA3"/>
<path d="M90.816 28.21C90.1813 28.21 89.6307 28.112 89.164 27.916C88.6973 27.72 88.3147 27.454 88.016 27.118C87.7173 26.7727 87.4933 26.3667 87.344 25.9C87.204 25.4333 87.134 24.9293 87.134 24.388V18.298H88.492V24.234C88.492 25.2047 88.7067 25.9093 89.136 26.348C89.5653 26.7867 90.1253 27.006 90.816 27.006C91.1613 27.006 91.474 26.9547 91.754 26.852C92.0433 26.74 92.2907 26.572 92.496 26.348C92.7013 26.124 92.86 25.8393 92.972 25.494C93.084 25.1393 93.14 24.7193 93.14 24.234V18.298H94.498V24.388C94.498 24.9293 94.4233 25.4333 94.274 25.9C94.134 26.3667 93.91 26.7727 93.602 27.118C93.3033 27.454 92.9207 27.72 92.454 27.916C91.9967 28.112 91.4507 28.21 90.816 28.21ZM101.813 24.374C101.813 23.5247 101.603 22.8713 101.183 22.414C100.763 21.9567 100.203 21.728 99.5027 21.728C99.1107 21.728 98.8027 21.742 98.5787 21.77C98.364 21.798 98.1913 21.8307 98.0607 21.868V26.46C98.2193 26.5907 98.448 26.7167 98.7467 26.838C99.0453 26.9593 99.372 27.02 99.7267 27.02C100.1 27.02 100.417 26.9547 100.679 26.824C100.949 26.684 101.169 26.4973 101.337 26.264C101.505 26.0213 101.626 25.7413 101.701 25.424C101.775 25.0973 101.813 24.7473 101.813 24.374ZM103.171 24.374C103.171 24.9247 103.096 25.4333 102.947 25.9C102.807 26.3667 102.597 26.768 102.317 27.104C102.037 27.44 101.691 27.7013 101.281 27.888C100.879 28.0747 100.417 28.168 99.8947 28.168C99.4747 28.168 99.1013 28.112 98.7747 28C98.4573 27.888 98.2193 27.7807 98.0607 27.678V30.59H96.7587V20.944C97.0667 20.8693 97.4493 20.79 97.9067 20.706C98.3733 20.6127 98.91 20.566 99.5167 20.566C100.077 20.566 100.581 20.6547 101.029 20.832C101.477 21.0093 101.859 21.2613 102.177 21.588C102.494 21.9147 102.737 22.316 102.905 22.792C103.082 23.2587 103.171 23.786 103.171 24.374ZM107.187 28.14C106.384 28.1213 105.815 27.9487 105.479 27.622C105.143 27.2953 104.975 26.7867 104.975 26.096V17.36L106.277 17.136V25.886C106.277 26.1007 106.295 26.278 106.333 26.418C106.37 26.558 106.431 26.67 106.515 26.754C106.599 26.838 106.711 26.9033 106.851 26.95C106.991 26.9873 107.163 27.02 107.369 27.048L107.187 28.14ZM115.257 24.36C115.257 24.9387 115.173 25.4613 115.005 25.928C114.837 26.3947 114.599 26.796 114.291 27.132C113.992 27.468 113.633 27.7293 113.213 27.916C112.793 28.0933 112.336 28.182 111.841 28.182C111.346 28.182 110.889 28.0933 110.469 27.916C110.049 27.7293 109.685 27.468 109.377 27.132C109.078 26.796 108.845 26.3947 108.677 25.928C108.509 25.4613 108.425 24.9387 108.425 24.36C108.425 23.7907 108.509 23.2727 108.677 22.806C108.845 22.33 109.078 21.924 109.377 21.588C109.685 21.252 110.049 20.9953 110.469 20.818C110.889 20.6313 111.346 20.538 111.841 20.538C112.336 20.538 112.793 20.6313 113.213 20.818C113.633 20.9953 113.992 21.252 114.291 21.588C114.599 21.924 114.837 22.33 115.005 22.806C115.173 23.2727 115.257 23.7907 115.257 24.36ZM113.899 24.36C113.899 23.5387 113.712 22.89 113.339 22.414C112.975 21.9287 112.476 21.686 111.841 21.686C111.206 21.686 110.702 21.9287 110.329 22.414C109.965 22.89 109.783 23.5387 109.783 24.36C109.783 25.1813 109.965 25.8347 110.329 26.32C110.702 26.796 111.206 27.034 111.841 27.034C112.476 27.034 112.975 26.796 113.339 26.32C113.712 25.8347 113.899 25.1813 113.899 24.36ZM119.553 27.062C119.861 27.062 120.131 27.0573 120.365 27.048C120.607 27.0293 120.808 27.0013 120.967 26.964V24.794C120.873 24.7473 120.719 24.71 120.505 24.682C120.299 24.6447 120.047 24.626 119.749 24.626C119.553 24.626 119.343 24.64 119.119 24.668C118.904 24.696 118.703 24.7567 118.517 24.85C118.339 24.934 118.19 25.0553 118.069 25.214C117.947 25.3633 117.887 25.564 117.887 25.816C117.887 26.2827 118.036 26.6093 118.335 26.796C118.633 26.9733 119.039 27.062 119.553 27.062ZM119.441 20.538C119.963 20.538 120.402 20.608 120.757 20.748C121.121 20.8787 121.41 21.07 121.625 21.322C121.849 21.5647 122.007 21.8587 122.101 22.204C122.194 22.54 122.241 22.9133 122.241 23.324V27.874C122.129 27.8927 121.97 27.9207 121.765 27.958C121.569 27.986 121.345 28.014 121.093 28.042C120.841 28.07 120.565 28.0933 120.267 28.112C119.977 28.14 119.688 28.154 119.399 28.154C118.988 28.154 118.61 28.112 118.265 28.028C117.919 27.944 117.621 27.8133 117.369 27.636C117.117 27.4493 116.921 27.2067 116.781 26.908C116.641 26.6093 116.571 26.25 116.571 25.83C116.571 25.4287 116.65 25.0833 116.809 24.794C116.977 24.5047 117.201 24.2713 117.481 24.094C117.761 23.9167 118.087 23.786 118.461 23.702C118.834 23.618 119.226 23.576 119.637 23.576C119.767 23.576 119.903 23.5853 120.043 23.604C120.183 23.6133 120.313 23.632 120.435 23.66C120.565 23.6787 120.677 23.6973 120.771 23.716C120.864 23.7347 120.929 23.7487 120.967 23.758V23.394C120.967 23.1793 120.943 22.9693 120.897 22.764C120.85 22.5493 120.766 22.3627 120.645 22.204C120.523 22.036 120.355 21.9053 120.141 21.812C119.935 21.7093 119.665 21.658 119.329 21.658C118.899 21.658 118.521 21.6907 118.195 21.756C117.877 21.812 117.639 21.8727 117.481 21.938L117.327 20.86C117.495 20.7853 117.775 20.7153 118.167 20.65C118.559 20.5753 118.983 20.538 119.441 20.538ZM129.107 22.26C128.949 22.1293 128.72 22.0033 128.421 21.882C128.123 21.7607 127.796 21.7 127.441 21.7C127.068 21.7 126.746 21.77 126.475 21.91C126.214 22.0407 125.999 22.2273 125.831 22.47C125.663 22.7033 125.542 22.9833 125.467 23.31C125.393 23.6367 125.355 23.9867 125.355 24.36C125.355 25.2093 125.565 25.8673 125.985 26.334C126.405 26.7913 126.965 27.02 127.665 27.02C128.02 27.02 128.314 27.006 128.547 26.978C128.79 26.9407 128.977 26.9033 129.107 26.866V22.26ZM129.107 17.36L130.409 17.136V27.79C130.111 27.874 129.728 27.958 129.261 28.042C128.795 28.126 128.258 28.168 127.651 28.168C127.091 28.168 126.587 28.0793 126.139 27.902C125.691 27.7247 125.309 27.4727 124.991 27.146C124.674 26.8193 124.427 26.4227 124.249 25.956C124.081 25.48 123.997 24.948 123.997 24.36C123.997 23.8 124.067 23.2867 124.207 22.82C124.357 22.3533 124.571 21.952 124.851 21.616C125.131 21.28 125.472 21.0187 125.873 20.832C126.284 20.6453 126.751 20.552 127.273 20.552C127.693 20.552 128.062 20.608 128.379 20.72C128.706 20.832 128.949 20.9393 129.107 21.042V17.36Z" fill="#F5F5F5"/>
</svg>
