<svg width="241" height="46" viewBox="0 0 241 46" fill="none" xmlns="http://www.w3.org/2000/svg">
<rect width="241" height="46" rx="10" fill="#4F0DA3"/>
<path d="M71.516 29V24.552C70.78 23.4107 70.0867 22.2853 69.436 21.176C68.7853 20.0667 68.172 18.9787 67.596 17.912H69.42C69.8253 18.7867 70.2787 19.6773 70.78 20.584C71.2813 21.48 71.7987 22.344 72.332 23.176C72.8547 22.344 73.3667 21.48 73.868 20.584C74.3693 19.6773 74.828 18.7867 75.244 17.912H76.972C76.396 18.9787 75.7827 20.0667 75.132 21.176C74.4813 22.2747 73.7933 23.3893 73.068 24.52V29H71.516ZM77.0973 24.856C77.0973 24.12 77.2039 23.48 77.4173 22.936C77.6306 22.3813 77.9133 21.9227 78.2653 21.56C78.6173 21.1973 79.0226 20.9253 79.4813 20.744C79.9399 20.5627 80.4093 20.472 80.8893 20.472C82.0093 20.472 82.8679 20.824 83.4653 21.528C84.0626 22.2213 84.3612 23.2827 84.3612 24.712C84.3612 24.776 84.3612 24.8613 84.3612 24.968C84.3612 25.064 84.3559 25.1547 84.3453 25.24H78.6493C78.7133 26.104 78.9639 26.76 79.4013 27.208C79.8386 27.656 80.5213 27.88 81.4493 27.88C81.9719 27.88 82.4093 27.8373 82.7613 27.752C83.1239 27.656 83.3959 27.5653 83.5773 27.48L83.7853 28.728C83.6039 28.824 83.2839 28.9253 82.8253 29.032C82.3773 29.1387 81.8653 29.192 81.2893 29.192C80.5639 29.192 79.9346 29.0853 79.4013 28.872C78.8786 28.648 78.4466 28.344 78.1053 27.96C77.7639 27.576 77.5079 27.1227 77.3372 26.6C77.1773 26.0667 77.0973 25.4853 77.0973 24.856ZM82.8093 24.04C82.8199 23.368 82.6493 22.8187 82.2973 22.392C81.9559 21.9547 81.4813 21.736 80.8733 21.736C80.5319 21.736 80.2279 21.8053 79.9613 21.944C79.7053 22.072 79.4866 22.2427 79.3053 22.456C79.1239 22.6693 78.9799 22.9147 78.8733 23.192C78.7773 23.4693 78.7133 23.752 78.6813 24.04H82.8093ZM88.4348 27.928C89.0428 27.928 89.4908 27.848 89.7788 27.688C90.0774 27.528 90.2268 27.272 90.2268 26.92C90.2268 26.5573 90.0828 26.2693 89.7948 26.056C89.5068 25.8427 89.0321 25.6027 88.3708 25.336C88.0508 25.208 87.7414 25.08 87.4428 24.952C87.1548 24.8133 86.9041 24.6533 86.6908 24.472C86.4774 24.2907 86.3068 24.072 86.1788 23.816C86.0508 23.56 85.9868 23.2453 85.9868 22.872C85.9868 22.136 86.2588 21.5547 86.8028 21.128C87.3468 20.6907 88.0881 20.472 89.0268 20.472C89.2614 20.472 89.4961 20.488 89.7308 20.52C89.9654 20.5413 90.1841 20.5733 90.3868 20.616C90.5894 20.648 90.7654 20.6853 90.9148 20.728C91.0748 20.7707 91.1974 20.808 91.2828 20.84L91.0108 22.12C90.8508 22.0347 90.6001 21.9493 90.2588 21.864C89.9174 21.768 89.5068 21.72 89.0268 21.72C88.6108 21.72 88.2481 21.8053 87.9388 21.976C87.6294 22.136 87.4748 22.392 87.4748 22.744C87.4748 22.9253 87.5068 23.0853 87.5707 23.224C87.6454 23.3627 87.7521 23.4907 87.8908 23.608C88.0401 23.7147 88.2214 23.816 88.4348 23.912C88.6481 24.008 88.9041 24.1093 89.2028 24.216C89.5974 24.3653 89.9494 24.5147 90.2588 24.664C90.5681 24.8027 90.8294 24.968 91.0428 25.16C91.2668 25.352 91.4374 25.5867 91.5548 25.864C91.6721 26.1307 91.7308 26.4613 91.7308 26.856C91.7308 27.624 91.4428 28.2053 90.8668 28.6C90.3014 28.9947 89.4908 29.192 88.4348 29.192C87.6988 29.192 87.1228 29.128 86.7068 29C86.2908 28.8827 86.0081 28.792 85.8588 28.728L86.1308 27.448C86.3014 27.512 86.5734 27.608 86.9468 27.736C87.3201 27.864 87.8161 27.928 88.4348 27.928ZM95.2074 27.176C95.218 27.2613 95.2234 27.3467 95.2234 27.432C95.2234 27.5067 95.2234 27.5867 95.2234 27.672C95.2234 28.344 95.122 29.0053 94.9194 29.656C94.7274 30.3173 94.4607 30.9467 94.1194 31.544L92.9674 31.176C93.234 30.632 93.41 30.0773 93.4954 29.512C93.5807 28.9573 93.6234 28.4347 93.6234 27.944C93.6234 27.8053 93.618 27.672 93.6074 27.544C93.6074 27.416 93.602 27.2933 93.5914 27.176H95.2074ZM104.096 27.928C104.448 27.928 104.757 27.9227 105.024 27.912C105.301 27.8907 105.531 27.8587 105.712 27.816V25.336C105.605 25.2827 105.429 25.24 105.184 25.208C104.949 25.1653 104.661 25.144 104.32 25.144C104.096 25.144 103.856 25.16 103.6 25.192C103.355 25.224 103.125 25.2933 102.912 25.4C102.709 25.496 102.539 25.6347 102.4 25.816C102.261 25.9867 102.192 26.216 102.192 26.504C102.192 27.0373 102.363 27.4107 102.704 27.624C103.045 27.8267 103.509 27.928 104.096 27.928ZM103.968 20.472C104.565 20.472 105.067 20.552 105.472 20.712C105.888 20.8613 106.219 21.08 106.464 21.368C106.72 21.6453 106.901 21.9813 107.008 22.376C107.115 22.76 107.168 23.1867 107.168 23.656V28.856C107.04 28.8773 106.859 28.9093 106.624 28.952C106.4 28.984 106.144 29.016 105.856 29.048C105.568 29.08 105.253 29.1067 104.912 29.128C104.581 29.16 104.251 29.176 103.92 29.176C103.451 29.176 103.019 29.128 102.624 29.032C102.229 28.936 101.888 28.7867 101.6 28.584C101.312 28.3707 101.088 28.0933 100.928 27.752C100.768 27.4107 100.688 27 100.688 26.52C100.688 26.0613 100.779 25.6667 100.96 25.336C101.152 25.0053 101.408 24.7387 101.728 24.536C102.048 24.3333 102.421 24.184 102.848 24.088C103.275 23.992 103.723 23.944 104.192 23.944C104.341 23.944 104.496 23.9547 104.656 23.976C104.816 23.9867 104.965 24.008 105.104 24.04C105.253 24.0613 105.381 24.0827 105.488 24.104C105.595 24.1253 105.669 24.1413 105.712 24.152V23.736C105.712 23.4907 105.685 23.2507 105.632 23.016C105.579 22.7707 105.483 22.5573 105.344 22.376C105.205 22.184 105.013 22.0347 104.768 21.928C104.533 21.8107 104.224 21.752 103.84 21.752C103.349 21.752 102.917 21.7893 102.544 21.864C102.181 21.928 101.909 21.9973 101.728 22.072L101.552 20.84C101.744 20.7547 102.064 20.6747 102.512 20.6C102.96 20.5147 103.445 20.472 103.968 20.472ZM115.015 22.44C114.834 22.2907 114.573 22.1467 114.231 22.008C113.89 21.8693 113.517 21.8 113.111 21.8C112.685 21.8 112.317 21.88 112.007 22.04C111.709 22.1893 111.463 22.4027 111.271 22.68C111.079 22.9467 110.941 23.2667 110.855 23.64C110.77 24.0133 110.727 24.4133 110.727 24.84C110.727 25.8107 110.967 26.5627 111.447 27.096C111.927 27.6187 112.567 27.88 113.367 27.88C113.773 27.88 114.109 27.864 114.375 27.832C114.653 27.7893 114.866 27.7467 115.015 27.704V22.44ZM115.015 16.84L116.503 16.584V28.76C116.162 28.856 115.725 28.952 115.191 29.048C114.658 29.144 114.045 29.192 113.351 29.192C112.711 29.192 112.135 29.0907 111.623 28.888C111.111 28.6853 110.674 28.3973 110.311 28.024C109.949 27.6507 109.666 27.1973 109.463 26.664C109.271 26.12 109.175 25.512 109.175 24.84C109.175 24.2 109.255 23.6133 109.415 23.08C109.586 22.5467 109.831 22.088 110.151 21.704C110.471 21.32 110.861 21.0213 111.319 20.808C111.789 20.5947 112.322 20.488 112.919 20.488C113.399 20.488 113.821 20.552 114.183 20.68C114.557 20.808 114.834 20.9307 115.015 21.048V16.84ZM124.437 22.44C124.256 22.2907 123.995 22.1467 123.653 22.008C123.312 21.8693 122.939 21.8 122.533 21.8C122.107 21.8 121.739 21.88 121.429 22.04C121.131 22.1893 120.885 22.4027 120.693 22.68C120.501 22.9467 120.363 23.2667 120.277 23.64C120.192 24.0133 120.149 24.4133 120.149 24.84C120.149 25.8107 120.389 26.5627 120.869 27.096C121.349 27.6187 121.989 27.88 122.789 27.88C123.195 27.88 123.531 27.864 123.797 27.832C124.075 27.7893 124.288 27.7467 124.437 27.704V22.44ZM124.437 16.84L125.925 16.584V28.76C125.584 28.856 125.147 28.952 124.613 29.048C124.08 29.144 123.467 29.192 122.773 29.192C122.133 29.192 121.557 29.0907 121.045 28.888C120.533 28.6853 120.096 28.3973 119.733 28.024C119.371 27.6507 119.088 27.1973 118.885 26.664C118.693 26.12 118.597 25.512 118.597 24.84C118.597 24.2 118.677 23.6133 118.837 23.08C119.008 22.5467 119.253 22.088 119.573 21.704C119.893 21.32 120.283 21.0213 120.741 20.808C121.211 20.5947 121.744 20.488 122.341 20.488C122.821 20.488 123.243 20.552 123.605 20.68C123.979 20.808 124.256 20.9307 124.437 21.048V16.84ZM134.122 27.928C134.73 27.928 135.178 27.848 135.466 27.688C135.765 27.528 135.914 27.272 135.914 26.92C135.914 26.5573 135.77 26.2693 135.482 26.056C135.194 25.8427 134.72 25.6027 134.058 25.336C133.738 25.208 133.429 25.08 133.13 24.952C132.842 24.8133 132.592 24.6533 132.378 24.472C132.165 24.2907 131.994 24.072 131.866 23.816C131.738 23.56 131.674 23.2453 131.674 22.872C131.674 22.136 131.946 21.5547 132.49 21.128C133.034 20.6907 133.776 20.472 134.714 20.472C134.949 20.472 135.184 20.488 135.418 20.52C135.653 20.5413 135.872 20.5733 136.074 20.616C136.277 20.648 136.453 20.6853 136.602 20.728C136.762 20.7707 136.885 20.808 136.97 20.84L136.698 22.12C136.538 22.0347 136.288 21.9493 135.946 21.864C135.605 21.768 135.194 21.72 134.714 21.72C134.298 21.72 133.936 21.8053 133.626 21.976C133.317 22.136 133.162 22.392 133.162 22.744C133.162 22.9253 133.194 23.0853 133.258 23.224C133.333 23.3627 133.44 23.4907 133.578 23.608C133.728 23.7147 133.909 23.816 134.122 23.912C134.336 24.008 134.592 24.1093 134.89 24.216C135.285 24.3653 135.637 24.5147 135.946 24.664C136.256 24.8027 136.517 24.968 136.73 25.16C136.954 25.352 137.125 25.5867 137.242 25.864C137.36 26.1307 137.418 26.4613 137.418 26.856C137.418 27.624 137.13 28.2053 136.554 28.6C135.989 28.9947 135.178 29.192 134.122 29.192C133.386 29.192 132.81 29.128 132.394 29C131.978 28.8827 131.696 28.792 131.546 28.728L131.818 27.448C131.989 27.512 132.261 27.608 132.634 27.736C133.008 27.864 133.504 27.928 134.122 27.928ZM146.671 24.84C146.671 25.5013 146.575 26.0987 146.383 26.632C146.191 27.1653 145.919 27.624 145.567 28.008C145.226 28.392 144.815 28.6907 144.335 28.904C143.855 29.1067 143.332 29.208 142.767 29.208C142.202 29.208 141.679 29.1067 141.199 28.904C140.719 28.6907 140.303 28.392 139.951 28.008C139.61 27.624 139.343 27.1653 139.151 26.632C138.959 26.0987 138.863 25.5013 138.863 24.84C138.863 24.1893 138.959 23.5973 139.151 23.064C139.343 22.52 139.61 22.056 139.951 21.672C140.303 21.288 140.719 20.9947 141.199 20.792C141.679 20.5787 142.202 20.472 142.767 20.472C143.332 20.472 143.855 20.5787 144.335 20.792C144.815 20.9947 145.226 21.288 145.567 21.672C145.919 22.056 146.191 22.52 146.383 23.064C146.575 23.5973 146.671 24.1893 146.671 24.84ZM145.119 24.84C145.119 23.9013 144.906 23.16 144.479 22.616C144.063 22.0613 143.492 21.784 142.767 21.784C142.042 21.784 141.466 22.0613 141.039 22.616C140.623 23.16 140.415 23.9013 140.415 24.84C140.415 25.7787 140.623 26.5253 141.039 27.08C141.466 27.624 142.042 27.896 142.767 27.896C143.492 27.896 144.063 27.624 144.479 27.08C144.906 26.5253 145.119 25.7787 145.119 24.84ZM148.764 20.92C149.106 20.8347 149.559 20.744 150.124 20.648C150.69 20.552 151.34 20.504 152.076 20.504C152.738 20.504 153.287 20.6 153.724 20.792C154.162 20.9733 154.508 21.2347 154.764 21.576C155.031 21.9067 155.218 22.3067 155.324 22.776C155.431 23.2453 155.484 23.7627 155.484 24.328V29H153.996V24.648C153.996 24.136 153.959 23.6987 153.884 23.336C153.82 22.9733 153.708 22.68 153.548 22.456C153.388 22.232 153.175 22.072 152.908 21.976C152.642 21.8693 152.311 21.816 151.916 21.816C151.756 21.816 151.591 21.8213 151.42 21.832C151.25 21.8427 151.084 21.8587 150.924 21.88C150.775 21.8907 150.636 21.9067 150.508 21.928C150.391 21.9493 150.306 21.9653 150.252 21.976V29H148.764V20.92ZM163.168 28.168C163.04 28.2533 162.789 28.3653 162.416 28.504C162.053 28.632 161.627 28.696 161.136 28.696C160.635 28.696 160.16 28.616 159.712 28.456C159.275 28.296 158.891 28.0507 158.56 27.72C158.229 27.3787 157.968 26.9573 157.776 26.456C157.584 25.9547 157.488 25.3573 157.488 24.664C157.488 24.056 157.579 23.5013 157.76 23C157.941 22.488 158.203 22.0507 158.544 21.688C158.896 21.3147 159.323 21.0267 159.824 20.824C160.325 20.6107 160.891 20.504 161.52 20.504C162.213 20.504 162.816 20.5573 163.328 20.664C163.851 20.76 164.288 20.8507 164.64 20.936V28.36C164.64 29.64 164.309 30.568 163.648 31.144C162.987 31.72 161.984 32.008 160.64 32.008C160.117 32.008 159.621 31.9653 159.152 31.88C158.693 31.7947 158.293 31.6933 157.952 31.576L158.224 30.28C158.523 30.3973 158.885 30.4987 159.312 30.584C159.749 30.68 160.203 30.728 160.672 30.728C161.557 30.728 162.192 30.552 162.576 30.2C162.971 29.848 163.168 29.288 163.168 28.52V28.168ZM163.152 21.992C163.003 21.9493 162.8 21.912 162.544 21.88C162.299 21.8373 161.963 21.816 161.536 21.816C160.736 21.816 160.117 22.0773 159.68 22.6C159.253 23.1227 159.04 23.816 159.04 24.68C159.04 25.16 159.099 25.5707 159.216 25.912C159.344 26.2533 159.509 26.536 159.712 26.76C159.925 26.984 160.165 27.1493 160.432 27.256C160.709 27.3627 160.992 27.416 161.28 27.416C161.675 27.416 162.037 27.3627 162.368 27.256C162.699 27.1387 162.96 27.0053 163.152 26.856V21.992ZM169.138 27.928C169.746 27.928 170.194 27.848 170.482 27.688C170.781 27.528 170.93 27.272 170.93 26.92C170.93 26.5573 170.786 26.2693 170.498 26.056C170.21 25.8427 169.735 25.6027 169.074 25.336C168.754 25.208 168.445 25.08 168.146 24.952C167.858 24.8133 167.607 24.6533 167.394 24.472C167.181 24.2907 167.01 24.072 166.882 23.816C166.754 23.56 166.69 23.2453 166.69 22.872C166.69 22.136 166.962 21.5547 167.506 21.128C168.05 20.6907 168.791 20.472 169.73 20.472C169.965 20.472 170.199 20.488 170.434 20.52C170.669 20.5413 170.887 20.5733 171.09 20.616C171.293 20.648 171.469 20.6853 171.618 20.728C171.778 20.7707 171.901 20.808 171.986 20.84L171.714 22.12C171.554 22.0347 171.303 21.9493 170.962 21.864C170.621 21.768 170.21 21.72 169.73 21.72C169.314 21.72 168.951 21.8053 168.642 21.976C168.333 22.136 168.178 22.392 168.178 22.744C168.178 22.9253 168.21 23.0853 168.274 23.224C168.349 23.3627 168.455 23.4907 168.594 23.608C168.743 23.7147 168.925 23.816 169.138 23.912C169.351 24.008 169.607 24.1093 169.906 24.216C170.301 24.3653 170.653 24.5147 170.962 24.664C171.271 24.8027 171.533 24.968 171.746 25.16C171.97 25.352 172.141 25.5867 172.258 25.864C172.375 26.1307 172.434 26.4613 172.434 26.856C172.434 27.624 172.146 28.2053 171.57 28.6C171.005 28.9947 170.194 29.192 169.138 29.192C168.402 29.192 167.826 29.128 167.41 29C166.994 28.8827 166.711 28.792 166.562 28.728L166.834 27.448C167.005 27.512 167.277 27.608 167.65 27.736C168.023 27.864 168.519 27.928 169.138 27.928Z" fill="white"/>
</svg>
