<svg width="45" height="40" viewBox="0 0 45 40" fill="none" xmlns="http://www.w3.org/2000/svg">
<path d="M33.4884 24.4192C33.2861 24.0779 33.2153 23.6745 33.2894 23.2847C33.3634 22.8949 33.5772 22.5456 33.8906 22.3022C34.204 22.0589 34.5954 21.9383 34.9914 21.9632C35.3873 21.988 35.7606 22.1565 36.0412 22.437C36.3217 22.7176 36.4902 23.0909 36.515 23.4868C36.5398 23.8828 36.4193 24.2742 36.176 24.5876C35.9326 24.901 35.5833 25.1148 35.1935 25.1888C34.8037 25.2629 34.4003 25.1921 34.059 24.9898V24.9898L33.4952 25.1495C33.4721 25.1562 33.4476 25.1566 33.4242 25.1507C33.4009 25.1447 33.3796 25.1326 33.3626 25.1156C33.3456 25.0985 33.3335 25.0773 33.3275 25.0539C33.3215 25.0306 33.322 25.0061 33.3287 24.983L33.4884 24.4192Z" stroke="#4F0DA3" stroke-width="0.326087" stroke-linecap="round" stroke-linejoin="round"/>
<path d="M18.38 36.1548C18.1777 35.8135 18.1069 35.4101 18.181 35.0204C18.255 34.6306 18.4688 34.2812 18.7822 34.0379C19.0956 33.7946 19.487 33.674 19.883 33.6988C20.2789 33.7237 20.6522 33.8922 20.9328 34.1727C21.2133 34.4532 21.3818 34.8265 21.4066 35.2225C21.4314 35.6185 21.3109 36.0099 21.0676 36.3233C20.8242 36.6367 20.4749 36.8504 20.0851 36.9245C19.6953 36.9986 19.2919 36.9278 18.9506 36.7255V36.7255L18.3868 36.8851C18.3637 36.8919 18.3392 36.8923 18.3159 36.8864C18.2925 36.8804 18.2712 36.8683 18.2542 36.8512C18.2372 36.8342 18.2251 36.8129 18.2191 36.7896C18.2132 36.7663 18.2136 36.7418 18.2203 36.7187L18.38 36.1548Z" stroke="#4F0DA3" stroke-width="0.326087" stroke-linecap="round" stroke-linejoin="round"/>
<path d="M7.14746 22.6359H4.15833C4.08329 22.6359 4.02246 22.6967 4.02246 22.7718V24.9457C4.02246 25.0207 4.08329 25.0815 4.15833 25.0815H7.14746C7.2225 25.0815 7.28333 25.0207 7.28333 24.9457V22.7718C7.28333 22.6967 7.2225 22.6359 7.14746 22.6359Z" stroke="#4F0DA3" stroke-width="0.326087" stroke-linecap="round" stroke-linejoin="round"/>
<path d="M6.33135 25.0815V22.3641C6.33135 22.2921 6.30272 22.223 6.25176 22.172C6.2008 22.121 6.13168 22.0924 6.05961 22.0924H5.2444C5.17233 22.0924 5.10321 22.121 5.05225 22.172C5.00129 22.223 4.97266 22.2921 4.97266 22.3641V25.0815" stroke="#4F0DA3" stroke-width="0.326087" stroke-linecap="round" stroke-linejoin="round"/>
<path d="M36.3867 16.4402H33.3976C33.3225 16.4402 33.2617 16.501 33.2617 16.5761V18.75C33.2617 18.825 33.3225 18.8859 33.3976 18.8859H36.3867C36.4618 18.8859 36.5226 18.825 36.5226 18.75V16.5761C36.5226 16.501 36.4618 16.4402 36.3867 16.4402Z" stroke="#4F0DA3" stroke-width="0.326087" stroke-linecap="round" stroke-linejoin="round"/>
<path d="M35.5706 18.8859V16.1685C35.5706 16.0964 35.542 16.0273 35.491 15.9763C35.4401 15.9254 35.3709 15.8967 35.2989 15.8967H34.4837C34.4116 15.8967 34.3425 15.9254 34.2915 15.9763C34.2405 16.0273 34.2119 16.0964 34.2119 16.1685V18.8859" stroke="#4F0DA3" stroke-width="0.326087" stroke-linecap="round" stroke-linejoin="round"/>
<path d="M28.3285 5.24457H25.584C25.5505 5.24472 25.5183 5.25705 25.4933 5.27924C25.4683 5.30144 25.4522 5.33197 25.4481 5.36515L25.2069 7.53907C25.2048 7.55801 25.2066 7.57719 25.2124 7.59536C25.2181 7.61353 25.2277 7.63029 25.2403 7.64455C25.253 7.6588 25.2685 7.67024 25.2858 7.67811C25.3032 7.68598 25.322 7.6901 25.3411 7.69022H28.5714C28.5904 7.6901 28.6093 7.68598 28.6266 7.67811C28.644 7.67024 28.6595 7.6588 28.6722 7.64455C28.6848 7.63029 28.6943 7.61353 28.7001 7.59536C28.7058 7.57719 28.7077 7.55801 28.7056 7.53907L28.4644 5.36515C28.4603 5.33197 28.4442 5.30144 28.4192 5.27924C28.3942 5.25705 28.362 5.24472 28.3285 5.24457V5.24457Z" stroke="#4F0DA3" stroke-width="0.326087" stroke-linecap="round" stroke-linejoin="round"/>
<path d="M26.2764 5.78804V5.24456C26.2764 5.06439 26.3479 4.89159 26.4753 4.76419C26.6027 4.63679 26.7755 4.56522 26.9557 4.56522C27.1359 4.56522 27.3087 4.63679 27.4361 4.76419C27.5635 4.89159 27.6351 5.06439 27.6351 5.24456V5.78804" stroke="#4F0DA3" stroke-width="0.326087" stroke-linecap="round" stroke-linejoin="round"/>
<path d="M34.335 28.4116C34.2894 28.3603 34.2334 28.3192 34.1707 28.291C34.1079 28.2628 34.0398 28.2483 33.971 28.2483H33.0695V28.0414C33.0693 27.8402 32.9889 27.6473 32.8459 27.5051C32.7029 27.3628 32.509 27.2828 32.3068 27.2826C32.2682 27.2826 32.2303 27.2933 32.1975 27.3135C32.1646 27.3337 32.1381 27.3626 32.1208 27.3969L31.4847 28.6622H30.7813C30.6893 28.6622 30.6011 28.6985 30.5361 28.7632C30.4711 28.8279 30.4346 28.9156 30.4346 29.0071V30.5246C30.4346 30.6161 30.4711 30.7038 30.5361 30.7685C30.6011 30.8332 30.6893 30.8695 30.7813 30.8695H33.7629C33.8812 30.8695 33.9955 30.8265 34.0841 30.7486C34.1728 30.6707 34.2299 30.5633 34.2445 30.4465L34.4525 28.791C34.4611 28.7231 34.455 28.6542 34.4348 28.5887C34.4145 28.5233 34.3805 28.463 34.335 28.4116ZM30.8506 29.0761H31.4053V30.4557H30.8506V29.0761ZM34.0403 28.7398L33.8323 30.3953C33.8302 30.4121 33.8219 30.4275 33.8091 30.4386C33.7964 30.4497 33.7799 30.4558 33.7629 30.4557H31.8214V28.9179L32.425 27.7172C32.4919 27.7413 32.5498 27.7854 32.5907 27.8434C32.6315 27.9014 32.6535 27.9705 32.6535 28.0414V28.4553C32.6535 28.5101 32.6754 28.5628 32.7144 28.6016C32.7534 28.6404 32.8063 28.6622 32.8615 28.6622H33.971C33.9808 28.6621 33.9906 28.6641 33.9997 28.6681C34.0087 28.6721 34.0168 28.678 34.0233 28.6853C34.0299 28.6927 34.0348 28.7014 34.0377 28.7107C34.0407 28.7201 34.0415 28.73 34.0403 28.7398Z" fill="#4F0DA3"/>
<path d="M18.6416 4.76221V5.92389C18.6416 5.95993 18.6559 5.99449 18.6814 6.01997C18.7069 6.04545 18.7414 6.05976 18.7775 6.05976H21.2231C21.2592 6.05976 21.2937 6.04545 21.3192 6.01997C21.3447 5.99449 21.359 5.95993 21.359 5.92389V4.76221" stroke="#4F0DA3" stroke-width="0.326087" stroke-linecap="round" stroke-linejoin="round"/>
<path d="M18.7438 3.07065H21.2573C21.2868 3.07089 21.3154 3.08059 21.339 3.09833C21.3625 3.11606 21.3798 3.14089 21.3881 3.16915L21.631 4.02174H18.3701L18.613 3.16915C18.6214 3.14089 18.6386 3.11606 18.6621 3.09833C18.6857 3.08059 18.7143 3.07089 18.7438 3.07065V3.07065Z" stroke="#4F0DA3" stroke-width="0.326087" stroke-linecap="round" stroke-linejoin="round"/>
<path d="M19.4571 4.02173V4.29347C19.4571 4.43761 19.3998 4.57584 19.2979 4.67776C19.196 4.77969 19.0577 4.83695 18.9136 4.83695C18.7695 4.83695 18.6312 4.77969 18.5293 4.67776C18.4274 4.57584 18.3701 4.43761 18.3701 4.29347V4.02173" stroke="#4F0DA3" stroke-width="0.326087" stroke-linecap="round" stroke-linejoin="round"/>
<path d="M20.544 4.02173V4.29347C20.544 4.43761 20.4867 4.57584 20.3848 4.67776C20.2829 4.77969 20.1446 4.83695 20.0005 4.83695C19.8564 4.83695 19.7181 4.77969 19.6162 4.67776C19.5143 4.57584 19.457 4.43761 19.457 4.29347V4.02173" stroke="#4F0DA3" stroke-width="0.326087" stroke-linecap="round" stroke-linejoin="round"/>
<path d="M21.6309 4.02173V4.29347C21.6309 4.43761 21.5736 4.57584 21.4717 4.67776C21.3698 4.77969 21.2316 4.83695 21.0874 4.83695C20.9433 4.83695 20.805 4.77969 20.7031 4.67776C20.6012 4.57584 20.5439 4.43761 20.5439 4.29347V4.02173" stroke="#4F0DA3" stroke-width="0.326087" stroke-linecap="round" stroke-linejoin="round"/>
<path d="M26.7398 33.7229C27.0399 33.7229 27.2832 33.4795 27.2832 33.1794C27.2832 32.8792 27.0399 32.6359 26.7398 32.6359C26.4396 32.6359 26.1963 32.8792 26.1963 33.1794C26.1963 33.4795 26.4396 33.7229 26.7398 33.7229Z" stroke="#4F0DA3" stroke-width="0.326087" stroke-linecap="round" stroke-linejoin="round"/>
<path d="M28.0983 33.1794C28.0983 34.4022 26.7396 35.3533 26.7396 35.3533C26.7396 35.3533 25.3809 34.4022 25.3809 33.1794C25.3809 32.819 25.524 32.4734 25.7788 32.2186C26.0336 31.9638 26.3792 31.8207 26.7396 31.8207C27.0999 31.8207 27.4455 31.9638 27.7003 32.2186C27.9551 32.4734 28.0983 32.819 28.0983 33.1794V33.1794Z" stroke="#4F0DA3" stroke-width="0.326087" stroke-linecap="round" stroke-linejoin="round"/>
<path d="M4.02917 16.0505L5.02441 18.9258C5.06687 19.0498 5.2435 19.0464 5.28257 18.9207L5.68338 17.6198C5.68943 17.5985 5.70091 17.5792 5.71669 17.5637C5.73248 17.5482 5.75202 17.5371 5.7734 17.5315L7.07265 17.1307C7.19833 17.0916 7.20172 16.915 7.07774 16.8725L4.2024 15.8773C4.17825 15.8688 4.15218 15.8673 4.12721 15.873C4.10224 15.8786 4.07939 15.8913 4.06128 15.9094C4.04317 15.9275 4.03055 15.9503 4.02487 15.9753C4.01919 16.0003 4.02068 16.0263 4.02917 16.0505V16.0505Z" stroke="#4F0DA3" stroke-width="0.326087" stroke-linecap="round" stroke-linejoin="round"/>
<path d="M13.6413 31.7663H10.924C10.8489 31.7663 10.7881 31.8271 10.7881 31.9022V34.6196C10.7881 34.6946 10.8489 34.7554 10.924 34.7554H13.6413C13.7164 34.7554 13.7772 34.6946 13.7772 34.6196V31.9022C13.7772 31.8271 13.7164 31.7663 13.6413 31.7663Z" stroke="#4F0DA3" stroke-width="0.326087" stroke-linecap="round" stroke-linejoin="round"/>
<path d="M13.7772 33.8043L13.0588 33.0859C13.0462 33.0731 13.0311 33.0629 13.0145 33.0559C12.9979 33.049 12.98 33.0454 12.962 33.0454C12.944 33.0454 12.9261 33.049 12.9095 33.0559C12.8929 33.0629 12.8778 33.0731 12.8652 33.0859L12.1077 33.8434C12.0951 33.8562 12.08 33.8664 12.0634 33.8734C12.0468 33.8803 12.0289 33.8839 12.0109 33.8839C11.9929 33.8839 11.9751 33.8803 11.9584 33.8734C11.9418 33.8664 11.9267 33.8562 11.9141 33.8434L11.5642 33.4935C11.5516 33.4807 11.5365 33.4705 11.5199 33.4635C11.5033 33.4566 11.4855 33.453 11.4674 33.453C11.4494 33.453 11.4316 33.4566 11.415 33.4635C11.3983 33.4705 11.3833 33.4807 11.3706 33.4935L10.7881 34.0761" stroke="#4F0DA3" stroke-width="0.326087" stroke-linecap="round" stroke-linejoin="round"/>
<path d="M9.98735 10.2595C9.94179 10.2081 9.88576 10.167 9.82299 10.1388C9.76023 10.1107 9.69216 10.0961 9.62331 10.0962H8.72188V9.88921C8.72165 9.68804 8.64121 9.49517 8.49822 9.35293C8.35522 9.21068 8.16135 9.13066 7.95912 9.13043C7.92051 9.13044 7.88265 9.14113 7.8498 9.16133C7.81695 9.18152 7.7904 9.21041 7.77312 9.24477L7.13708 10.51H6.43362C6.34167 10.51 6.25348 10.5464 6.18846 10.611C6.12344 10.6757 6.08691 10.7635 6.08691 10.8549V12.3725C6.08691 12.464 6.12344 12.5517 6.18846 12.6164C6.25348 12.6811 6.34167 12.7174 6.43362 12.7174H9.41529C9.53359 12.7174 9.64781 12.6744 9.73649 12.5965C9.82517 12.5186 9.8822 12.4111 9.89686 12.2944L10.1049 10.6389C10.1134 10.5709 10.1074 10.502 10.0871 10.4366C10.0669 10.3712 10.0329 10.3108 9.98735 10.2595ZM6.50296 10.9239H7.05769V12.3035H6.50296V10.9239ZM9.69265 10.5876L9.48463 12.2432C9.48251 12.2599 9.47427 12.2753 9.46149 12.2864C9.44871 12.2976 9.43227 12.3036 9.41529 12.3035H7.47374V10.7658L8.07735 9.56501C8.14429 9.58916 8.20214 9.63324 8.24301 9.69124C8.28389 9.74925 8.30582 9.81837 8.30583 9.88921V10.3031C8.30583 10.358 8.32775 10.4106 8.36676 10.4494C8.40577 10.4882 8.45868 10.51 8.51385 10.51H9.62331C9.63319 10.51 9.64298 10.512 9.65201 10.516C9.66104 10.52 9.66911 10.5258 9.67568 10.5332C9.68225 10.5405 9.68716 10.5492 9.69008 10.5586C9.69301 10.568 9.69389 10.5779 9.69265 10.5876Z" fill="#4F0DA3"/>
<path d="M32.066 13.0435C32.9664 13.0435 33.6964 12.3135 33.6964 11.4131C33.6964 10.5126 32.9664 9.78262 32.066 9.78262C31.1655 9.78262 30.4355 10.5126 30.4355 11.4131C30.4355 12.3135 31.1655 13.0435 32.066 13.0435Z" stroke="#4F0DA3" stroke-width="0.326087" stroke-linecap="round" stroke-linejoin="round"/>
<path d="M32.4727 11.0734H32.8803" stroke="#4F0DA3" stroke-width="0.326087" stroke-linecap="round" stroke-linejoin="round"/>
<path d="M32.7724 11.8206C32.7006 11.9444 32.5975 12.0471 32.4735 12.1185C32.3495 12.1899 32.209 12.2275 32.0659 12.2275C31.9228 12.2275 31.7823 12.1899 31.6583 12.1185C31.5343 12.0471 31.4312 11.9444 31.3594 11.8206" stroke="#4F0DA3" stroke-width="0.326087" stroke-linecap="round" stroke-linejoin="round"/>
<circle cx="20" cy="20" r="11.087" fill="#4F0DA3"/>
<path d="M14.4485 21.6202V22.2826H11.8601V21.7221L13.0524 20.4687C13.1577 20.3481 13.2426 20.2403 13.3072 20.1452C13.3717 20.0484 13.4184 19.9609 13.4473 19.8828C13.4778 19.8047 13.4931 19.7342 13.4931 19.6713C13.4931 19.5644 13.477 19.4752 13.4447 19.4039C13.4141 19.3308 13.3683 19.2756 13.3072 19.2383C13.2477 19.2009 13.1738 19.1822 13.0855 19.1822C12.9972 19.1822 12.9199 19.2077 12.8537 19.2586C12.7874 19.3096 12.7356 19.3792 12.6983 19.4675C12.6626 19.5559 12.6448 19.6552 12.6448 19.7656H11.7837C11.7837 19.538 11.8389 19.33 11.9493 19.1415C12.0614 18.9529 12.2168 18.8026 12.4155 18.6905C12.6142 18.5768 12.8443 18.5199 13.1059 18.5199C13.3793 18.5199 13.6086 18.5623 13.7937 18.6472C13.9789 18.7322 14.1181 18.8553 14.2115 19.0166C14.3066 19.1763 14.3542 19.369 14.3542 19.5949C14.3542 19.724 14.3338 19.848 14.2931 19.9669C14.2523 20.0858 14.1937 20.2038 14.1173 20.321C14.0408 20.4365 13.9474 20.5554 13.837 20.6776C13.7283 20.7999 13.6044 20.9298 13.4651 21.0674L12.9862 21.6202H14.4485ZM17.9743 20.3006V21.824C17.9114 21.8937 17.8146 21.9684 17.6838 22.0482C17.5548 22.1263 17.3917 22.1934 17.1947 22.2495C16.9977 22.3055 16.7659 22.3335 16.4992 22.3335C16.253 22.3335 16.0296 22.2945 15.8292 22.2164C15.6288 22.1365 15.4564 22.0202 15.3121 21.8673C15.1694 21.7128 15.059 21.5243 14.9809 21.3018C14.9045 21.0776 14.8663 20.8211 14.8663 20.5324V20.3261C14.8663 20.0373 14.9053 19.7809 14.9834 19.5567C15.0616 19.3325 15.1711 19.144 15.3121 18.9912C15.4547 18.8366 15.622 18.7194 15.8139 18.6396C16.0076 18.5598 16.2199 18.5199 16.4508 18.5199C16.7922 18.5199 17.0699 18.5742 17.2839 18.6829C17.4979 18.7899 17.6601 18.9385 17.7705 19.1287C17.8809 19.3172 17.9479 19.5355 17.9717 19.7834H17.1132C17.0962 19.6612 17.0639 19.5576 17.0164 19.4726C16.9705 19.386 16.9043 19.3206 16.8177 19.2765C16.7311 19.2306 16.619 19.2077 16.4814 19.2077C16.3744 19.2077 16.2767 19.2306 16.1884 19.2765C16.1018 19.3223 16.0279 19.392 15.9668 19.4854C15.9057 19.5771 15.8581 19.6926 15.8241 19.8318C15.7919 19.9711 15.7757 20.1342 15.7757 20.321V20.5324C15.7757 20.7175 15.791 20.8797 15.8216 21.019C15.8539 21.1583 15.9014 21.2746 15.9642 21.368C16.0288 21.4597 16.1103 21.5294 16.2088 21.5769C16.309 21.6228 16.4271 21.6457 16.5629 21.6457C16.658 21.6457 16.7396 21.6381 16.8075 21.6228C16.8754 21.6058 16.9315 21.5854 16.9756 21.5616C17.0215 21.5362 17.0563 21.5124 17.0801 21.4903V20.9146H16.4585V20.3006H17.9743ZM21.0492 21.5948V22.2826H19.0723V21.5948H21.0492ZM19.3907 18.5734V22.2826H18.4965V18.5734H19.3907ZM20.7944 20.0458V20.7108H19.0723V20.0458H20.7944ZM21.0568 18.5734V19.2637H19.0723V18.5734H21.0568ZM22.621 22.2826H21.7981L21.8032 21.5948H22.621C22.7908 21.5948 22.9344 21.554 23.0515 21.4725C23.1704 21.3909 23.2604 21.2695 23.3216 21.1082C23.3844 20.9451 23.4158 20.7447 23.4158 20.5069V20.3465C23.4158 20.1681 23.398 20.0119 23.3623 19.8777C23.3284 19.7418 23.2774 19.6289 23.2095 19.5389C23.1416 19.4472 23.0566 19.3784 22.9547 19.3325C22.8545 19.2867 22.739 19.2637 22.6083 19.2637H21.7829V18.5734H22.6083C22.8596 18.5734 23.0898 18.6167 23.2987 18.7033C23.5093 18.7882 23.691 18.9105 23.8438 19.0701C23.9984 19.2281 24.1173 19.4157 24.2005 19.6331C24.2854 19.8488 24.3279 20.0883 24.3279 20.3515V20.5069C24.3279 20.7685 24.2854 21.008 24.2005 21.2254C24.1173 21.4427 23.9992 21.6304 23.8464 21.7884C23.6935 21.9463 23.5127 22.0686 23.3038 22.1552C23.0966 22.2401 22.869 22.2826 22.621 22.2826ZM22.3102 18.5734V22.2826H21.416V18.5734H22.3102ZM26.3099 19.3529L25.4055 22.2826H24.4451L25.808 18.5734H26.4169L26.3099 19.3529ZM27.0588 22.2826L26.1519 19.3529L26.0347 18.5734H26.6512L28.0218 22.2826H27.0588ZM27.0232 20.8993V21.5897H25.1202V20.8993H27.0232Z" fill="white"/>
<circle cx="20" cy="20" r="19.5652" stroke="#4F0DA3" stroke-width="0.869565"/>
<path d="M8.1411 27.6087C7.8399 27.6087 7.57258 27.7294 7.39147 27.9368C7.21036 27.7294 6.94305 27.6087 6.64185 27.6087C6.37951 27.609 6.12801 27.7149 5.94251 27.9032C5.75701 28.0915 5.65266 28.3468 5.65234 28.613C5.65234 29.7138 7.2387 30.5934 7.30617 30.6303C7.33238 30.6447 7.3617 30.6522 7.39147 30.6522C7.42125 30.6522 7.45056 30.6447 7.47678 30.6303C7.54425 30.5934 9.1306 29.7138 9.1306 28.613C9.13029 28.3468 9.02593 28.0915 8.84043 27.9032C8.65494 27.7149 8.40343 27.609 8.1411 27.6087ZM8.05879 29.775C7.84999 29.9548 7.62677 30.1167 7.39147 30.2589C7.15617 30.1167 6.93296 29.9548 6.72416 29.775C6.39927 29.4921 6.01216 29.0607 6.01216 28.613C6.01216 28.4435 6.07851 28.281 6.19659 28.1611C6.31468 28.0412 6.47485 27.9739 6.64185 27.9739C6.90872 27.9739 7.1321 28.117 7.22491 28.3473C7.23841 28.3809 7.26147 28.4097 7.29114 28.4299C7.3208 28.4501 7.35573 28.4609 7.39147 28.4609C7.42721 28.4609 7.46214 28.4501 7.49181 28.4299C7.52148 28.4097 7.54453 28.3809 7.55804 28.3473C7.65084 28.117 7.87423 27.9739 8.1411 27.9739C8.3081 27.9739 8.46827 28.0412 8.58635 28.1611C8.70444 28.281 8.77078 28.4435 8.77078 28.613C8.77078 29.0607 8.38368 29.4921 8.05879 29.775Z" fill="#4F0DA3"/>
<g clip-path="url(#clip0_5649_10295)">
<path d="M14.1186 4.67392C13.8174 4.67392 13.5501 4.79459 13.369 5.002C13.1879 4.79459 12.9206 4.67392 12.6194 4.67392C12.3571 4.67424 12.1056 4.78016 11.9201 4.96844C11.7346 5.15671 11.6302 5.41198 11.6299 5.67824C11.6299 6.77904 13.2162 7.65859 13.2837 7.69556C13.3099 7.7099 13.3392 7.7174 13.369 7.7174C13.3988 7.7174 13.4281 7.7099 13.4543 7.69556C13.5218 7.65859 15.1081 6.77904 15.1081 5.67824C15.1078 5.41198 15.0035 5.15671 14.818 4.96844C14.6325 4.78016 14.381 4.67424 14.1186 4.67392ZM14.0363 6.84022C13.8275 7.02006 13.6043 7.18192 13.369 7.32412C13.1337 7.18192 12.9105 7.02006 12.7017 6.84022C12.3768 6.55733 11.9897 6.12593 11.9897 5.67824C11.9897 5.50874 12.056 5.34618 12.1741 5.22632C12.2922 5.10646 12.4524 5.03913 12.6194 5.03913C12.8863 5.03913 13.1096 5.18217 13.2024 5.41255C13.216 5.44614 13.239 5.47488 13.2687 5.49511C13.2983 5.51534 13.3333 5.52615 13.369 5.52615C13.4048 5.52615 13.4397 5.51534 13.4693 5.49511C13.499 5.47488 13.5221 5.44614 13.5356 5.41255C13.6284 5.18217 13.8518 5.03913 14.1186 5.03913C14.2856 5.03913 14.4458 5.10646 14.5639 5.22632C14.682 5.34618 14.7483 5.50874 14.7483 5.67824C14.7483 6.12593 14.3612 6.55733 14.0363 6.84022Z" fill="#4F0DA3"/>
</g>
<defs>
<clipPath id="clip0_5649_10295">
<rect width="3.69565" height="3.69565" fill="white" transform="translate(11.5215 4.34784)"/>
</clipPath>
</defs>
</svg>
