<svg width="4" height="4" viewBox="0 0 4 4" fill="none" xmlns="http://www.w3.org/2000/svg">
<path d="M3.63936 0.196701H0.360637C0.270097 0.196701 0.196701 0.270097 0.196701 0.360637V3.63936C0.196701 3.7299 0.270097 3.80329 0.360637 3.80329H3.63936C3.7299 3.80329 3.80329 3.7299 3.80329 3.63936V0.360637C3.80329 0.270097 3.7299 0.196701 3.63936 0.196701Z" stroke="#4F0DA3" stroke-width="0.326087" stroke-linecap="round" stroke-linejoin="round"/>
<path d="M3.80329 2.65576L2.93648 1.78895C2.92123 1.77346 2.90304 1.76116 2.88299 1.75276C2.86294 1.74436 2.84142 1.74004 2.81968 1.74004C2.79794 1.74004 2.77641 1.74436 2.75636 1.75276C2.73631 1.76116 2.71813 1.77346 2.70287 1.78895L1.78893 2.70289C1.77368 2.71838 1.75549 2.73068 1.73544 2.73908C1.71539 2.74747 1.69386 2.7518 1.67212 2.7518C1.65039 2.7518 1.62886 2.74747 1.60881 2.73908C1.58876 2.73068 1.57057 2.71838 1.55532 2.70289L1.13319 2.28075C1.11793 2.26526 1.09975 2.25296 1.0797 2.24457C1.05964 2.23617 1.03812 2.23185 1.01638 2.23185C0.994641 2.23185 0.973119 2.23617 0.953066 2.24457C0.933013 2.25296 0.914831 2.26526 0.899576 2.28075L0.196701 2.98363" stroke="#4F0DA3" stroke-width="0.326087" stroke-linecap="round" stroke-linejoin="round"/>
</svg>
