<svg width="38" height="38" viewBox="0 0 38 38" fill="none" xmlns="http://www.w3.org/2000/svg">
<path d="M36.6641 1.60469C35.5547 2.23035 34.4697 2.90953 33.4229 3.77388L33.9661 6.63479C35.0255 6.95133 35.8909 7.07008 36.6641 7.0775V1.60469ZM29.3177 3.42394C28.1835 3.41763 26.9071 3.61661 25.3224 3.93115L25.3061 3.93434L25.2897 3.93679C24.1935 4.09836 22.2621 4.83224 20.3568 6.82145L23.6425 7.69471C23.7146 7.5839 24.083 7.02644 24.1531 6.91133C24.5334 7.14311 24.9137 7.37475 25.294 7.60639C24.3681 9.12602 23.3092 10.2453 22.0332 11.6529C21.8757 12.0031 22.1058 12.2615 22.3568 12.4055C22.7443 12.6231 23.4033 12.6349 23.5768 12.5615C25.353 11.3912 26.6063 9.895 27.7303 8.38516L28.1362 8.45671C28.9898 8.60745 30.1007 8.53523 31.009 8.24497C31.8326 7.98164 32.4393 7.5505 32.6909 7.08062L32.1026 3.98184C31.2087 3.59486 30.3184 3.4295 29.3177 3.42394H29.3177ZM16.9168 7.32666L14.7321 15.935L15.4478 15.957H23.1021L23.1689 15.9415L23.6739 13.9308C23.0163 14.0718 22.3159 13.9147 21.7028 13.5705C21.3178 13.3543 20.9589 13.0331 20.7661 12.5734C20.1874 11.0936 21.943 9.80527 22.898 8.65836L16.9167 7.32666H16.9168ZM5.1628 14.918L3.45577 18.332H34.5442L32.8371 14.918H24.8035L24.5425 15.957H26.125V17.293H11.875V15.957H13.3484L13.612 14.918H5.16288H5.1628ZM3.04297 19.668V36.1445H34.957V19.668H3.04297ZM4.08203 20.707H33.918V35.1055H4.08203V20.707ZM5.41797 22.043V30.8185L7.97866 25.2525L13.4234 27.6098L18.3702 24.2076L21.1543 28.4584L24.8734 28.1173L27.1965 25.1982L32.582 29.2887V22.043H5.41797ZM18.0012 26.0827L11.2748 30.7088L13.2794 33.7695H20.3752L21.8348 31.9356L18.0012 26.0827ZM8.64634 26.9975L5.53086 33.7695H11.6825L9.44159 30.3482L12.1242 28.5033L8.64634 26.9974V26.9975ZM27.4285 27.0518L22.0825 33.7695H32.5132L32.582 33.683V30.9664L27.4285 27.0518ZM23.7217 29.5645L21.9831 29.7239L22.7108 30.8349L23.7217 29.5645Z" fill="#403F3F"/>
</svg>
