<svg width="16" height="16" viewBox="0 0 16 16" fill="none" xmlns="http://www.w3.org/2000/svg">
<path d="M13.5154 10.8433L13.9854 8.12334C14.013 7.96392 14.0054 7.80039 13.9632 7.64421C13.921 7.48802 13.8452 7.34294 13.741 7.21912C13.6369 7.0953 13.507 6.99573 13.3603 6.92736C13.2137 6.859 13.0539 6.8235 12.8921 6.82334H9.43809C9.35748 6.82336 9.27783 6.80582 9.20468 6.77196C9.13153 6.7381 9.06663 6.68872 9.01448 6.62725C8.96234 6.56578 8.9242 6.49369 8.90272 6.416C8.88124 6.3383 8.87693 6.25687 8.89009 6.17734L9.33209 3.48067C9.40382 3.04283 9.38338 2.59483 9.27209 2.16534C9.22447 1.98787 9.13276 1.82533 9.00548 1.6928C8.8782 1.56028 8.71949 1.46208 8.54409 1.40734L8.44742 1.37601C8.22887 1.3058 7.99171 1.32202 7.78475 1.42134C7.55809 1.53067 7.39276 1.73001 7.33142 1.96667L7.01409 3.18934C6.91306 3.57842 6.76626 3.95416 6.57675 4.30867C6.30009 4.82667 5.87209 5.24201 5.42675 5.62534L4.46742 6.45201C4.33433 6.56701 4.23039 6.71192 4.16411 6.87484C4.09782 7.03777 4.07109 7.21409 4.08609 7.38934L4.62742 13.6513C4.65128 13.9283 4.77812 14.1862 4.98288 14.3742C5.18765 14.5622 5.45546 14.6665 5.73342 14.6667H8.83209C11.1534 14.6667 13.1341 13.0493 13.5154 10.8433Z" fill="#4F0DA3"/>
<path fill-rule="evenodd" clip-rule="evenodd" d="M1.97872 6.32335C2.10756 6.31772 2.23359 6.36209 2.33049 6.44719C2.42739 6.53228 2.48766 6.65153 2.49872 6.78002L3.14539 14.2707C3.15634 14.3822 3.14444 14.4948 3.11041 14.6016C3.07639 14.7084 3.02095 14.8072 2.94748 14.8918C2.87401 14.9765 2.78406 15.0453 2.68312 15.094C2.58218 15.1427 2.47237 15.1703 2.36039 15.1752C2.24841 15.18 2.13661 15.162 2.03183 15.1222C1.92706 15.0824 1.83149 15.0217 1.75097 14.9437C1.67045 14.8657 1.60668 14.7722 1.56354 14.6687C1.52039 14.5653 1.49879 14.4541 1.50005 14.342V6.82269C1.50011 6.69381 1.54992 6.56993 1.63911 6.47689C1.72829 6.38386 1.84996 6.32885 1.97872 6.32335Z" fill="#4F0DA3"/>
</svg>
