<svg width="17" height="17" viewBox="0 0 17 17" fill="none" xmlns="http://www.w3.org/2000/svg">
<path d="M16.9341 0.0658915H0.0658915V16.9341H16.9341V0.0658915Z" stroke="#161313" stroke-width="0.125"/>
<path d="M3.22868 9.26444V13.7714C3.22868 13.9112 3.28422 14.0453 3.38308 14.1442C3.48193 14.243 3.61601 14.2986 3.75581 14.2986H13.2442C13.384 14.2986 13.5181 14.243 13.6169 14.1442C13.7158 14.0453 13.7713 13.9112 13.7713 13.7714V9.26444" stroke="#161313" stroke-width="2" stroke-linecap="round" stroke-linejoin="round"/>
<path d="M3.62403 2.70155H13.376C13.4903 2.70249 13.6014 2.74014 13.6927 2.80894C13.784 2.87775 13.8509 2.97407 13.8833 3.08372L14.8256 6.39147H2.17442L3.11667 3.08372C3.14913 2.97407 3.21596 2.87775 3.30731 2.80894C3.39865 2.74014 3.50968 2.70249 3.62403 2.70155V2.70155Z" stroke="#161313" stroke-width="2" stroke-linecap="round" stroke-linejoin="round"/>
<path d="M6.39147 6.39147V7.44574C6.39147 8.00495 6.16933 8.54126 5.7739 8.93669C5.37847 9.33212 4.84216 9.55426 4.28295 9.55426C3.72373 9.55426 3.18742 9.33212 2.79199 8.93669C2.39657 8.54126 2.17442 8.00495 2.17442 7.44574V6.39147" stroke="#161313" stroke-width="2" stroke-linecap="round" stroke-linejoin="round"/>
<path d="M10.6085 6.39147V7.44574C10.6085 8.00495 10.3864 8.54126 9.99095 8.93669C9.59553 9.33212 9.05922 9.55426 8.5 9.55426C7.94078 9.55426 7.40447 9.33212 7.00905 8.93669C6.61362 8.54126 6.39147 8.00495 6.39147 7.44574V6.39147" stroke="#161313" stroke-width="2" stroke-linecap="round" stroke-linejoin="round"/>
<path d="M14.8256 6.39147V7.44574C14.8256 8.00495 14.6034 8.54126 14.208 8.93669C13.8126 9.33212 13.2763 9.55426 12.7171 9.55426C12.1578 9.55426 11.6215 9.33212 11.2261 8.93669C10.8307 8.54126 10.6085 8.00495 10.6085 7.44574V6.39147" stroke="#161313" stroke-width="2" stroke-linecap="round" stroke-linejoin="round"/>
</svg>
