<svg width="20" height="20" viewBox="0 0 20 20" fill="none" xmlns="http://www.w3.org/2000/svg">
<g clip-path="url(#clip0_2_3551)">
<path opacity="0.15" d="M5.55005 18.9583C5.55005 19.1241 5.9504 19.2831 6.66304 19.4003C7.37568 19.5175 8.34223 19.5833 9.35005 19.5833C10.3579 19.5833 11.3244 19.5175 12.0371 19.4003C12.7497 19.2831 13.15 19.1241 13.15 18.9583C13.15 18.7926 12.7497 18.6336 12.0371 18.5164C11.3244 18.3992 10.3579 18.3333 9.35005 18.3333C8.34223 18.3333 7.37568 18.3992 6.66304 18.5164C5.9504 18.6336 5.55005 18.7926 5.55005 18.9583Z" fill="#161313"/>
<path d="M10.1209 8.74999C10.1209 8.74999 8.58755 7.49999 7.75421 8.66249C6.92088 9.82499 7.40838 10.1708 6.70005 10.875C5.99171 11.5792 4.70421 11.3917 3.45838 13.125C2.21255 14.8583 3.45838 16.6375 4.98755 17.7375C6.43755 18.7833 8.73755 19.2583 9.98755 17.5583C11.2375 15.8583 10.2334 14.5958 10.9209 13.6417C11.6084 12.6875 12.0292 12.8542 12.3 12.4792C12.4464 12.1497 12.49 11.7838 12.425 11.4292C12.4222 11.3994 12.4105 11.3712 12.3915 11.3481C12.3725 11.325 12.3471 11.3081 12.3184 11.2996C12.2898 11.2911 12.2592 11.2914 12.2307 11.3003C12.2022 11.3093 12.177 11.3266 12.1584 11.35C11.9292 11.6333 11.5584 11.9667 11.2334 11.7083C10.9084 11.45 10.8167 10.7958 11.2917 10.1292L11.55 9.77499L10.1209 8.74999Z" fill="#161313"/>
<path d="M3.68329 14.5C4.93329 12.7667 6.23746 12.9292 6.92496 12.25C7.61246 11.5708 7.14579 11.1958 7.97912 10.0417C8.81246 8.88749 10.3458 10.1292 10.3458 10.1292L11.0208 10.6125C11.0843 10.4356 11.1727 10.2686 11.2833 10.1167L11.5416 9.76249L10.1208 8.74999C10.1208 8.74999 8.58746 7.49999 7.75412 8.66249C6.92079 9.82499 7.40829 10.1708 6.69996 10.875C5.99162 11.5792 4.70412 11.3917 3.45829 13.125C3.18453 13.486 3.01624 13.9158 2.9721 14.3667C2.92797 14.8176 3.00973 15.2719 3.20829 15.6792C3.26237 15.2517 3.426 14.8456 3.68329 14.5Z" fill="#FFCC99"/>
<path d="M10.1209 8.74999C10.1209 8.74999 8.58755 7.49999 7.75421 8.66249C6.92088 9.82499 7.40838 10.1708 6.70005 10.875C5.99171 11.5792 4.70421 11.3917 3.45838 13.125C2.21255 14.8583 3.45838 16.6375 4.98755 17.7375C6.43755 18.7833 8.73755 19.2583 9.98755 17.5583C11.2375 15.8583 10.2334 14.5958 10.9209 13.6417C11.6084 12.6875 12.0292 12.8542 12.3 12.4792C12.4464 12.1497 12.49 11.7838 12.425 11.4292C12.4222 11.3994 12.4105 11.3712 12.3915 11.3481C12.3725 11.325 12.3471 11.3081 12.3184 11.2996C12.2898 11.2911 12.2592 11.2914 12.2307 11.3003C12.2022 11.3093 12.177 11.3266 12.1584 11.35C11.9292 11.6333 11.5584 11.9667 11.2334 11.7083C10.9084 11.45 10.8167 10.7958 11.2917 10.1292L11.55 9.77499L10.1209 8.74999Z" stroke="#161313" stroke-width="0.416667" stroke-linecap="round" stroke-linejoin="round"/>
<path d="M13.6292 4.25L6.27917 14.0667L7.87501 15.2167L14.8708 5.14583L13.6292 4.25Z" fill="#F0D5A8"/>
<path d="M14.25 4.7L13.6292 4.25L6.27917 14.0667L7.07501 14.6417L14.25 4.7Z" fill="#F7E5C6"/>
<path d="M13.6292 4.25L6.27917 14.0667L7.87501 15.2167L14.8708 5.14583L13.6292 4.25Z" stroke="#161313" stroke-width="0.416667" stroke-linecap="round" stroke-linejoin="round"/>
<path d="M17.9583 1.86249C18.0266 2.02084 18.0415 2.19705 18.0009 2.36462C17.9603 2.53219 17.8664 2.68205 17.7334 2.79166L14.8708 5.14582L13.6208 4.24999L13.9167 2.83749C13.9605 2.62905 14.0618 2.43703 14.2091 2.28314C14.3563 2.12925 14.5437 2.01962 14.75 1.96666L17.0167 1.40416C17.2025 1.35369 17.4004 1.37232 17.5735 1.4566C17.7467 1.54088 17.8834 1.68509 17.9583 1.86249Z" fill="#161313"/>
<path d="M17.9583 1.86251C17.8837 1.68864 17.7497 1.54701 17.5802 1.46302C17.4107 1.37903 17.2168 1.35817 17.0333 1.40418L14.7666 1.96668C14.5603 2.01964 14.3729 2.12927 14.2257 2.28316C14.0784 2.43705 13.9771 2.62907 13.9333 2.83751L13.6375 4.25001L13.95 4.47501L14.0916 3.80418C14.135 3.59554 14.2361 3.40328 14.3835 3.24931C14.5308 3.09535 14.7184 2.98587 14.925 2.93334L17.1916 2.37084C17.3186 2.34094 17.451 2.34239 17.5773 2.37505C17.7036 2.40772 17.82 2.47063 17.9166 2.55834C17.9756 2.45302 18.01 2.33571 18.0172 2.2152C18.0244 2.0947 18.0043 1.97412 17.9583 1.86251Z" fill="#FFCC99"/>
<path d="M17.9583 1.86251C17.8837 1.68864 17.7497 1.54701 17.5802 1.46302C17.4107 1.37903 17.2168 1.35817 17.0333 1.40418L14.7666 1.96668C14.5603 2.01964 14.3729 2.12927 14.2257 2.28316C14.0784 2.43705 13.9771 2.62907 13.9333 2.83751L13.6375 4.25001L14.8875 5.14584L17.7333 2.79168C17.8664 2.68207 17.9603 2.53221 18.0009 2.36464C18.0414 2.19707 18.0265 2.02086 17.9583 1.86251Z" stroke="#161313" stroke-width="0.416667" stroke-linecap="round" stroke-linejoin="round"/>
<path d="M6.27832 14.0663L7.87666 15.2192L7.23499 16.1079L5.63707 14.9546L6.27832 14.0663ZM7.41249 16.25L5.63749 14.9708C5.59098 14.9372 5.5383 14.913 5.48245 14.8997C5.4266 14.8864 5.36868 14.8843 5.312 14.8934C5.25532 14.9025 5.20098 14.9226 5.15209 14.9527C5.10321 14.9828 5.06072 15.0222 5.02707 15.0688C4.99342 15.1153 4.96926 15.1679 4.95597 15.2238C4.94268 15.2796 4.94052 15.3376 4.94961 15.3942C4.9587 15.4509 4.97887 15.5053 5.00896 15.5541C5.03905 15.603 5.07848 15.6455 5.12499 15.6792L6.89999 16.9625C6.94677 16.9962 6.99973 17.0203 7.05583 17.0334C7.11193 17.0466 7.17007 17.0486 7.22695 17.0394C7.28383 17.0301 7.33832 17.0097 7.38731 16.9793C7.4363 16.949 7.47884 16.9093 7.51249 16.8625C7.54614 16.8157 7.57025 16.7628 7.58343 16.7067C7.59662 16.6506 7.59863 16.5924 7.58934 16.5355C7.58006 16.4787 7.55966 16.4242 7.52932 16.3752C7.49897 16.3262 7.45927 16.2837 7.41249 16.25Z" fill="#161313" stroke="#161313" stroke-width="0.416667" stroke-linecap="round" stroke-linejoin="round"/>
<path d="M15.1792 3.41251L6.4375 15.5292" stroke="#161313" stroke-width="0.416667" stroke-linecap="round" stroke-linejoin="round"/>
<path d="M10.2625 11.5375L9.01247 10.6417C8.91799 10.5737 8.80038 10.5461 8.68551 10.5648C8.57065 10.5836 8.46793 10.6472 8.39997 10.7417C8.33201 10.8362 8.30437 10.9538 8.32312 11.0686C8.34187 11.1835 8.40549 11.2862 8.49997 11.3542L9.74997 12.25C9.84446 12.318 9.96207 12.3456 10.0769 12.3269C10.1918 12.3081 10.2945 12.2445 10.3625 12.15C10.4304 12.0555 10.4581 11.9379 10.4393 11.823C10.4206 11.7082 10.357 11.6055 10.2625 11.5375Z" fill="#161313" stroke="#161313" stroke-width="0.416667" stroke-linecap="round" stroke-linejoin="round"/>
<path d="M15.0083 3.08334L15.9166 4.82084M16.1833 2.58334L16.9791 4.10001" stroke="#161313" stroke-width="0.416667" stroke-linecap="round" stroke-linejoin="round"/>
<path d="M16.1833 9.94166C16.1716 10.0734 16.111 10.1959 16.0134 10.2852C15.9159 10.3744 15.7885 10.4239 15.6562 10.4239C15.524 10.4239 15.3966 10.3744 15.299 10.2852C15.2015 10.1959 15.1409 10.0734 15.1292 9.94166C15.1226 9.86851 15.1314 9.7948 15.155 9.72522C15.1785 9.65565 15.2163 9.59173 15.2658 9.53755C15.3154 9.48336 15.3757 9.44009 15.4429 9.41048C15.5102 9.38088 15.5828 9.36559 15.6562 9.36559C15.7297 9.36559 15.8023 9.38088 15.8695 9.41048C15.9368 9.44009 15.9971 9.48336 16.0467 9.53755C16.0962 9.59173 16.134 9.65565 16.1575 9.72522C16.181 9.7948 16.1898 9.86851 16.1833 9.94166ZM18.825 9.4125C18.825 9.51716 18.794 9.61947 18.7358 9.70649C18.6777 9.79351 18.595 9.86133 18.4983 9.90138C18.4016 9.94144 18.2952 9.95192 18.1926 9.9315C18.0899 9.91108 17.9957 9.86068 17.9216 9.78668C17.8476 9.71267 17.7972 9.61838 17.7768 9.51573C17.7564 9.41309 17.7669 9.30669 17.8069 9.20999C17.847 9.1133 17.9148 9.03066 18.0018 8.97251C18.0889 8.91437 18.1912 8.88333 18.2958 8.88333C18.4362 8.88333 18.5708 8.93908 18.67 9.03832C18.7692 9.13756 18.825 9.27215 18.825 9.4125Z" stroke="#48CF3E" stroke-width="0.416667" stroke-linecap="round" stroke-linejoin="round"/>
<path d="M16.1833 9.94166V7.56666L18.825 6.50833V9.4125" stroke="#48CF3E" stroke-width="0.416667" stroke-linecap="round" stroke-linejoin="round"/>
<path d="M15.2584 18.4917C15.2591 18.6313 15.2181 18.768 15.1405 18.8842C15.0629 19.0003 14.9524 19.0906 14.8231 19.1434C14.6938 19.1962 14.5516 19.2092 14.4149 19.1805C14.2782 19.1519 14.1532 19.083 14.056 18.9828C13.9587 18.8825 13.8937 18.7555 13.8692 18.618C13.8448 18.4805 13.862 18.3388 13.9187 18.2111C13.9754 18.0835 14.069 17.9758 14.1875 17.9017C14.3059 17.8277 14.4438 17.7909 14.5834 17.7958C14.764 17.8023 14.935 17.8783 15.0608 18.008C15.1866 18.1377 15.2574 18.311 15.2584 18.4917ZM15.2584 18.4917V15.3583L16.3042 16.0542" stroke="#FF4064" stroke-width="0.416667" stroke-linecap="round" stroke-linejoin="round"/>
<path d="M4.22914 5.95001C4.22832 6.07427 4.19072 6.1955 4.12109 6.29842C4.05146 6.40133 3.95291 6.48133 3.83788 6.52831C3.72284 6.57529 3.59647 6.58716 3.4747 6.56241C3.35293 6.53767 3.24121 6.47742 3.15364 6.38926C3.06606 6.30111 3.00655 6.189 2.98261 6.06707C2.95867 5.94514 2.97137 5.81885 3.01911 5.70412C3.06685 5.5894 3.1475 5.49138 3.25087 5.42243C3.35424 5.35348 3.47572 5.31668 3.59998 5.31668C3.68295 5.31668 3.76511 5.33309 3.84172 5.36497C3.91832 5.39685 3.98787 5.44356 4.04635 5.50243C4.10482 5.5613 4.15108 5.63115 4.18245 5.70796C4.21383 5.78478 4.22969 5.86704 4.22914 5.95001Z" stroke="#FFB700" stroke-width="0.416667" stroke-linecap="round" stroke-linejoin="round"/>
<path d="M4.22913 5.95V3.10834L5.17496 3.74167" stroke="#FFB700" stroke-width="0.416667" stroke-linecap="round" stroke-linejoin="round"/>
<path d="M10.025 2.36667V2.11667M10.5541 2.58334L10.7291 2.40834M10.7708 3.10834H11.0166M10.5541 3.6375L10.7291 3.8125M10.025 3.85417V4.1M9.49995 3.6375L9.32495 3.8125M9.28328 3.10834H9.03328M9.49995 2.58334L9.32495 2.40834M1.92495 9.75417V8.42917M1.26245 9.09167H2.58745M18.2958 13.4542V12.1333M17.6375 12.7917H18.9583M13.8625 14.4625V13.8042M13.5333 14.1333H14.1958M8.68745 6.50834V5.84584M8.35828 6.17917H9.02078M1.59578 17.2542V16.5958M1.26245 16.925H1.92495" stroke="#00AED9" stroke-width="0.416667" stroke-linecap="round" stroke-linejoin="round"/>
</g>
<defs>
<clipPath id="clip0_2_3551">
<rect width="20" height="20" fill="white"/>
</clipPath>
</defs>
</svg>
