<svg width="29" height="30" viewBox="0 0 29 30" fill="none" xmlns="http://www.w3.org/2000/svg">
<path d="M18.6159 7.15909H23.9779C25.5704 7.15909 26.8614 8.4946 26.8614 10.142V24.7159C26.8614 26.3633 25.5704 27.6989 23.9779 27.6989H18.6159C17.0234 27.6989 15.7324 26.3633 15.7324 24.7159V10.142C15.7324 8.4946 17.0234 7.15909 18.6159 7.15909Z" fill="#1C7287"/>
<path d="M17.7066 7.15909H21.2687V27.6989H17.7066C16.6163 27.6989 15.7324 26.7845 15.7324 25.6566V9.20139C15.7324 8.07349 16.6163 7.15909 17.7066 7.15909Z" fill="#165C6C"/>
<path d="M25.9222 23.0016H21.2687H16.6715V10.3393H21.2687H25.9222V23.0016Z" fill="#32A5B9"/>
<path d="M21.2687 10.3393H16.6715V23.0016H21.2687V10.3393Z" fill="#2B8A9A"/>
<path d="M5.02219 0H15.5099C17.1024 0 18.3934 1.33551 18.3934 2.98295V27.017C18.3934 28.6645 17.1024 30 15.5099 30H5.02219C3.42967 30 2.13867 28.6645 2.13867 27.017V2.98295C2.13867 1.33551 3.42967 0 5.02219 0Z" fill="#E45527"/>
<path d="M5.02219 0H10.2249V30H5.02219C3.42967 30 2.13867 28.6645 2.13867 27.017V2.98295C2.13867 1.33551 3.42967 0 5.02219 0Z" fill="#B7461D"/>
<path d="M11.5018 25.8239H8.94785C8.60661 25.8239 8.32996 26.11 8.32996 26.4631C8.32996 26.8161 8.60661 27.1023 8.94785 27.1023H11.5018C11.8431 27.1023 12.1197 26.8161 12.1197 26.4631C12.1197 26.11 11.8431 25.8239 11.5018 25.8239Z" fill="#E6E6E6"/>
<path d="M17.0217 23.1392H10.2249H3.51038V4.6449H10.2249H17.0217V23.1392Z" fill="#32A5B9"/>
<path d="M10.2249 4.6449H3.51038V23.1392H10.2249V4.6449Z" fill="#2B8A9A"/>
</svg>
