<svg width="30" height="30" viewBox="0 0 30 30" fill="none" xmlns="http://www.w3.org/2000/svg">
<path d="M21.3131 4.94952H20.7489C20.3639 6.71962 18.8058 7.97983 16.9214 7.97983H13.2467C11.3624 7.97983 9.80421 6.71962 9.41926 4.94952H8.78784V25.3536H21.3131V4.94952ZM15.0505 22.2223H9.99996V20.7071H15.0505V22.2223ZM15.0505 17.3738H9.99996V15.8586H15.0505V17.3738ZM15.0505 12.5253H9.99996V11.0101H15.0505V12.5253ZM17.8694 22.9237L16.1375 21.5127L17.0946 20.338L17.7198 20.8474L19.156 19.2852L20.2715 20.3106L17.8694 22.9237ZM17.8694 18.0752L16.1375 16.6642L17.0946 15.4895L17.7198 15.9989L19.156 14.4367L20.2715 15.4622L17.8694 18.0752ZM17.8694 13.2267L16.1375 11.8157L17.0946 10.641L17.7198 11.1504L19.156 9.58821L20.2715 10.6137L17.8694 13.2267Z" fill="white"/>
<path d="M23.9731 4.94952H22.9293V26.9697H7.17177V4.94952H6.0943C5.98289 4.94952 5.85864 5.04013 5.85864 5.15154V28.1818C5.85864 28.2933 5.98289 28.3839 6.0943 28.3839H23.9731C24.0845 28.3839 24.1415 28.2933 24.1415 28.1818V5.15154C24.1415 5.04013 24.0845 4.94952 23.9731 4.94952Z" fill="#FF8200"/>
<path d="M23.973 3.33333H22.9629H18.9084C18.65 1.45323 17.034 0 15.0841 0C13.1342 0 11.5182 1.45323 11.2599 3.33333H7.20536H6.09425C5.09172 3.33333 4.24243 4.14899 4.24243 5.15152V28.1818C4.24243 29.1843 5.09172 30 6.09425 30H23.973C24.9756 30 25.7576 29.1843 25.7576 28.1818V5.15152C25.7576 4.14899 24.9756 3.33333 23.973 3.33333ZM19.0496 4.94949C18.7045 5.85859 17.8856 6.36364 16.9215 6.36364H13.2469C12.2828 6.36364 11.4639 5.85859 11.1188 4.94949H19.0496ZM8.78789 4.94949H9.4194C9.80435 6.7196 11.3624 7.9798 13.2469 7.9798H16.9215C18.8059 7.9798 20.364 6.7196 20.749 4.94949H21.3131V25.3535H8.78789V4.94949ZM15.0841 1.61616C16.1403 1.61616 17.0278 2.34939 17.2661 3.33333H12.9023C13.1405 2.34939 14.028 1.61616 15.0841 1.61616ZM24.1414 28.1818C24.1414 28.2932 24.0845 28.3838 23.973 28.3838H6.09425C5.98284 28.3838 5.85859 28.2932 5.85859 28.1818V5.15152C5.85859 5.0401 5.98284 4.94949 6.09425 4.94949H7.17172V26.9697H22.9293V4.94949H23.973C24.0845 4.94949 24.1414 5.0401 24.1414 5.15152V28.1818Z" fill="black"/>
<path d="M13.2468 6.36367H16.9215C17.8855 6.36367 18.7044 5.85862 19.0495 4.94952H11.1187C11.4639 5.85862 12.2829 6.36367 13.2468 6.36367Z" fill="#FFBE00"/>
<path d="M15.0505 11.0101H10V12.5252H15.0505V11.0101Z" fill="black"/>
<path d="M17.7199 11.1505L17.0947 10.6411L16.1377 11.8157L17.8694 13.2266L20.2716 10.6137L19.1561 9.58826L17.7199 11.1505Z" fill="black"/>
<path d="M15.0505 15.8586H10V17.3737H15.0505V15.8586Z" fill="black"/>
<path d="M17.7199 15.9987L17.0947 15.4894L16.1377 16.664L17.8694 18.0749L20.2716 15.462L19.1561 14.4365L17.7199 15.9987Z" fill="black"/>
<path d="M15.0505 20.7071H10V22.2222H15.0505V20.7071Z" fill="black"/>
<path d="M17.7199 20.8475L17.0947 20.3381L16.1377 21.5128L17.8694 22.9237L20.2716 20.3107L19.1561 19.2853L17.7199 20.8475Z" fill="black"/>
</svg>
