<svg width="24" height="21" viewBox="0 0 24 21" fill="none" xmlns="http://www.w3.org/2000/svg">
<path d="M11.8283 20.241C11.8283 20.241 0.759036 14.0422 0.759036 6.51507C0.759036 5.18442 1.22007 3.89486 2.06368 2.86581C2.9073 1.83676 4.0814 1.13179 5.38621 0.870823C6.69102 0.609861 8.04595 0.809035 9.22046 1.43446C10.395 2.05988 11.3165 3.07292 11.8283 4.30121V4.30121C12.3401 3.07292 13.2616 2.05988 14.4362 1.43446C15.6107 0.809035 16.9656 0.609861 18.2704 0.870823C19.5752 1.13179 20.7493 1.83676 21.5929 2.86581C22.4366 3.89486 22.8976 5.18442 22.8976 6.51507C22.8976 14.0422 11.8283 20.241 11.8283 20.241Z" stroke="black" stroke-opacity="0.8" stroke-width="1.5" stroke-linecap="round" stroke-linejoin="round"/>
</svg>
