<svg width="16" height="16" viewBox="0 0 16 16" fill="none" xmlns="http://www.w3.org/2000/svg">
<path d="M10.623 5.45001L5.90799 8.39701C5.99067 8.66023 6.01791 8.93773 5.98799 9.21201L10.362 10.852C10.6414 10.4534 11.0566 10.1704 11.5298 10.056C12.003 9.94159 12.5016 10.0037 12.9323 10.2307C13.3629 10.4577 13.696 10.8339 13.8691 11.2889C14.0421 11.7439 14.0433 12.2464 13.8724 12.7022C13.7015 13.158 13.3702 13.5358 12.9406 13.7649C12.511 13.9939 12.0127 14.0583 11.539 13.9462C11.0652 13.834 10.6487 13.5529 10.3674 13.1556C10.0861 12.7583 9.9594 12.2721 10.011 11.788L5.63799 10.148C5.40366 10.4823 5.07265 10.7368 4.68944 10.8774C4.30622 11.0181 3.88914 11.0381 3.49422 10.9348C3.0993 10.8315 2.74545 10.6098 2.48019 10.2995C2.21492 9.98925 2.05096 9.60523 2.01031 9.19905C1.96966 8.79287 2.05427 8.38398 2.25279 8.02729C2.4513 7.6706 2.75421 7.38319 3.12082 7.20367C3.48744 7.02415 3.90021 6.96111 4.3037 7.02303C4.70718 7.08494 5.08207 7.26883 5.37799 7.55001L10.092 4.60301C9.94539 4.13883 9.97311 3.63711 10.17 3.1919C10.3668 2.74669 10.7193 2.38856 11.1613 2.18463C11.6033 1.9807 12.1045 1.94498 12.571 2.08417C13.0374 2.22335 13.4371 2.52788 13.6951 2.94067C13.9531 3.35347 14.0517 3.84619 13.9724 4.32647C13.8931 4.80676 13.6414 5.24163 13.2644 5.54959C12.8874 5.85754 12.411 6.01743 11.9246 5.99928C11.4381 5.98114 10.975 5.7862 10.622 5.45101L10.623 5.45001Z" fill="white"/>
</svg>
