<svg width="4" height="4" viewBox="0 0 4 4" fill="none" xmlns="http://www.w3.org/2000/svg">
<path d="M0.436067 2.92695C0.210263 2.54599 0.13128 2.0957 0.213945 1.66063C0.29661 1.22555 0.535238 0.835616 0.88503 0.564016C1.23482 0.292416 1.67172 0.157832 2.11371 0.185532C2.5557 0.213231 2.97238 0.401308 3.28553 0.714455C3.59868 1.0276 3.78675 1.44428 3.81445 1.88627C3.84215 2.32826 3.70757 2.76516 3.43597 3.11495C3.16437 3.46475 2.77443 3.70338 2.33936 3.78604C1.90428 3.86871 1.454 3.78972 1.07303 3.56392V3.56392L0.44365 3.74212C0.417863 3.74966 0.390523 3.75013 0.364495 3.74347C0.338466 3.73681 0.314708 3.72327 0.29571 3.70427C0.276713 3.68528 0.263176 3.66152 0.256518 3.63549C0.249859 3.60946 0.250326 3.58212 0.257868 3.55634L0.436067 2.92695Z" stroke="#4F0DA3" stroke-width="0.326087" stroke-linecap="round" stroke-linejoin="round"/>
</svg>
