<svg width="36" height="36" viewBox="0 0 36 36" fill="none" xmlns="http://www.w3.org/2000/svg">
<path d="M31.7143 10.2857H12.8571M9.42856 10.2857H4.28571M31.7143 27.4285H12.8571M9.42856 27.4285H4.28571M23.1428 18.8571H4.28571M31.7143 18.8571H26.5714M11.1428 6.85712C11.5975 6.85712 12.0335 7.03773 12.355 7.35922C12.6765 7.68071 12.8571 8.11675 12.8571 8.5714V12C12.8571 12.4546 12.6765 12.8907 12.355 13.2122C12.0335 13.5336 11.5975 13.7143 11.1428 13.7143C10.6882 13.7143 10.2522 13.5336 9.93067 13.2122C9.60918 12.8907 9.42856 12.4546 9.42856 12V8.5714C9.42856 8.11675 9.60918 7.68071 9.93067 7.35922C10.2522 7.03773 10.6882 6.85712 11.1428 6.85712ZM11.1428 24C11.5975 24 12.0335 24.1806 12.355 24.5021C12.6765 24.8236 12.8571 25.2596 12.8571 25.7143V29.1428C12.8571 29.5975 12.6765 30.0335 12.355 30.355C12.0335 30.6765 11.5975 30.8571 11.1428 30.8571C10.6882 30.8571 10.2522 30.6765 9.93067 30.355C9.60918 30.0335 9.42856 29.5975 9.42856 29.1428V25.7143C9.42856 25.2596 9.60918 24.8236 9.93067 24.5021C10.2522 24.1806 10.6882 24 11.1428 24ZM24.8571 15.4285C25.3118 15.4285 25.7478 15.6092 26.0693 15.9306C26.3908 16.2521 26.5714 16.6882 26.5714 17.1428V20.5714C26.5714 21.0261 26.3908 21.4621 26.0693 21.7836C25.7478 22.1051 25.3118 22.2857 24.8571 22.2857C24.4025 22.2857 23.9664 22.1051 23.645 21.7836C23.3235 21.4621 23.1428 21.0261 23.1428 20.5714V17.1428C23.1428 16.6882 23.3235 16.2521 23.645 15.9306C23.9664 15.6092 24.4025 15.4285 24.8571 15.4285Z" stroke="black" stroke-width="0.761905" stroke-linecap="round" stroke-linejoin="round"/>
</svg>
