<svg width="21" height="20" viewBox="0 0 21 20" fill="none" xmlns="http://www.w3.org/2000/svg">
<path d="M11.4508 9.97076L19.7745 1.65958C19.9344 1.46472 20.0161 1.21736 20.0038 0.965585C19.9914 0.713815 19.8858 0.475646 19.7076 0.297403C19.5293 0.11916 19.2912 0.0135887 19.0394 0.00122334C18.7876 -0.011142 18.5403 0.0705828 18.3454 0.230502L10.0342 8.55423L1.72304 0.230502C1.52819 0.0705828 1.28082 -0.011142 1.02905 0.00122334C0.777277 0.0135887 0.539107 0.11916 0.360864 0.297403C0.182621 0.475646 0.07705 0.713815 0.0646847 0.965585C0.0523194 1.21736 0.134044 1.46472 0.293963 1.65958L8.61769 9.97076L0.293963 18.282C0.105645 18.4721 0 18.7289 0 18.9965C0 19.2641 0.105645 19.5209 0.293963 19.711C0.48565 19.8964 0.741858 20 1.0085 20C1.27514 20 1.53135 19.8964 1.72304 19.711L10.0342 11.3873L18.3454 19.711C18.5371 19.8964 18.7933 20 19.06 20C19.3266 20 19.5828 19.8964 19.7745 19.711C19.9628 19.5209 20.0685 19.2641 20.0685 18.9965C20.0685 18.7289 19.9628 18.4721 19.7745 18.282L11.4508 9.97076Z" fill="black" fill-opacity="0.4"/>
</svg>
