<svg width="25" height="24" viewBox="0 0 25 24" fill="none" xmlns="http://www.w3.org/2000/svg">
<path d="M22.2933 0H2.02667C1.48916 0 0.973671 0.210714 0.593597 0.585786C0.213523 0.960859 0 1.46957 0 2V22C0 22.5304 0.213523 23.0391 0.593597 23.4142C0.973671 23.7893 1.48916 24 2.02667 24H22.2933C22.8308 24 23.3463 23.7893 23.7264 23.4142C24.1065 23.0391 24.32 22.5304 24.32 22V2C24.32 1.46957 24.1065 0.960859 23.7264 0.585786C23.3463 0.210714 22.8308 0 22.2933 0ZM18.43 9.725L11.0073 16.725C10.8154 16.9031 10.5615 17.0016 10.298 17C10.0384 17.001 9.78862 16.9024 9.60133 16.725L5.89 13.225C5.78706 13.1364 5.70334 13.0281 5.64388 12.9067C5.58442 12.7854 5.55044 12.6534 5.54398 12.5187C5.53753 12.3841 5.55873 12.2495 5.60631 12.1231C5.6539 11.9968 5.72688 11.8812 5.82088 11.7834C5.91488 11.6856 6.02796 11.6075 6.15331 11.5539C6.27865 11.5003 6.41369 11.4723 6.5503 11.4715C6.6869 11.4707 6.82226 11.4972 6.94823 11.5493C7.0742 11.6015 7.18819 11.6783 7.28333 11.775L10.298 14.6125L17.0367 8.275C17.2337 8.10536 17.4896 8.01745 17.7507 8.02964C18.0119 8.04184 18.2582 8.1532 18.4381 8.34044C18.6181 8.52767 18.7177 8.7763 18.7162 9.03433C18.7146 9.29237 18.6121 9.53984 18.43 9.725Z" fill="#4F0DA3"/>
</svg>
