<svg width="30" height="30" viewBox="0 0 30 30" fill="none" xmlns="http://www.w3.org/2000/svg">
<path d="M22.5416 16.3268L1.48477 18.1524L0 18.2813V6.74316C0 6.74316 0.563555 6.51301 1.48477 6.40976C3.15246 6.22414 5.99109 6.45769 8.77365 9.24031C13.093 13.5597 15.4552 11.0625 19.2346 12.3448C21.4348 13.0913 22.194 14.3182 22.4444 15.2132C22.624 15.8557 22.5416 16.3268 22.5416 16.3268Z" fill="#8DE0A8"/>
<path d="M2.15965 10.0839C1.93928 10.0839 1.73953 9.93474 1.67584 9.72438C1.61566 9.52557 1.6851 9.30661 1.84875 9.17882C2.20676 8.89921 2.73504 9.21837 2.6584 9.66409C2.61721 9.90374 2.40252 10.0839 2.15965 10.0839Z" fill="#81CC96"/>
<path d="M2.15962 12.446C1.93925 12.446 1.7395 12.2969 1.67581 12.0865C1.61575 11.8879 1.68489 11.6683 1.84872 11.5407C2.20696 11.2617 2.73501 11.5805 2.65837 12.0262C2.61718 12.2659 2.40249 12.446 2.15962 12.446Z" fill="#81CC96"/>
<path d="M2.15962 14.8082C1.93925 14.8082 1.7395 14.659 1.67581 14.4486C1.61575 14.25 1.68489 14.0304 1.84872 13.9028C2.20696 13.6238 2.73501 13.9427 2.65837 14.3883C2.61718 14.628 2.40249 14.8082 2.15962 14.8082Z" fill="#81CC96"/>
<path d="M5.41266 10.0839C4.96606 10.0839 4.73966 9.51754 5.06385 9.21098C5.2278 9.056 5.47911 9.02823 5.67294 9.14348C5.84356 9.24491 5.93837 9.44325 5.91487 9.63959C5.88487 9.88985 5.66456 10.0839 5.41266 10.0839Z" fill="#81CC96"/>
<path d="M5.41277 12.4461C4.95586 12.4461 4.7332 11.855 5.08236 11.5567C5.25275 11.411 5.50717 11.3935 5.6942 11.5188C5.87027 11.6367 5.95558 11.8588 5.9032 12.0642C5.84672 12.2857 5.64222 12.4461 5.41277 12.4461Z" fill="#81CC96"/>
<path d="M5.41268 14.8081C4.96162 14.8081 4.73551 14.2299 5.07277 13.9268C5.23373 13.7822 5.47356 13.756 5.66211 13.8616C5.84656 13.9648 5.94711 14.1803 5.91143 14.3883C5.87024 14.6278 5.65567 14.8081 5.41268 14.8081Z" fill="#81CC96"/>
<path d="M8.66573 12.4461C8.21503 12.4461 7.98792 11.8673 8.32612 11.5647C8.48743 11.4204 8.7262 11.3937 8.91516 11.4995C9.09961 11.6027 9.20016 11.8183 9.16448 12.0262C9.12329 12.2658 8.90872 12.4461 8.66573 12.4461Z" fill="#81CC96"/>
<path d="M8.66566 14.8082C8.21461 14.8082 7.99254 14.2351 8.32242 13.9304C8.65834 13.6202 9.21281 13.9 9.16939 14.3515C9.14484 14.6071 8.92225 14.8082 8.66566 14.8082Z" fill="#81CC96"/>
<path d="M11.9187 14.8081C11.7074 14.8081 11.5134 14.6709 11.4427 14.4722C11.3688 14.2647 11.4403 14.0267 11.6174 13.8953C11.9811 13.6258 12.5037 13.9548 12.4154 14.4004C12.369 14.6346 12.1569 14.8081 11.9187 14.8081Z" fill="#81CC96"/>
<path d="M18.4247 14.8081C17.987 14.8081 17.7516 14.2548 18.067 13.9436C18.2274 13.7853 18.4776 13.7515 18.6742 13.8616C18.87 13.9713 18.9705 14.2073 18.9159 14.4247C18.8599 14.6474 18.6542 14.8081 18.4247 14.8081Z" fill="#81CC96"/>
<path d="M15.1717 14.8081C14.7113 14.8081 14.4922 14.2125 14.8448 13.9153C15.0084 13.7775 15.247 13.7584 15.4309 13.867C15.6117 13.9738 15.7079 14.1896 15.6689 14.3955C15.6243 14.6318 15.4124 14.8081 15.1717 14.8081Z" fill="#81CC96"/>
<path d="M4.23861 21.0171V23.6384H2.16468L2.52978 23.0566C2.76398 22.6841 2.70052 22.186 2.35968 21.9072C2.10257 21.696 1.93787 21.3761 1.93787 21.017" fill="#EAC36E"/>
<path d="M28.0623 21.0171C28.0623 21.3762 27.8976 21.696 27.6405 21.9073C27.2996 22.186 27.2362 22.6841 27.4704 23.0567L27.8355 23.6385H25.7615V21.0171" fill="#EAC36E"/>
<path d="M22.4445 15.1119C22.4445 15.1119 8.81174 15.1251 3.53531 15.1498C2.40416 15.1551 1.48494 14.2396 1.48494 13.1085V6.40961C0.56373 6.51285 0.000175781 6.74301 0.000175781 6.74301V17.0586C0.000175781 17.0612 0 17.0638 0 17.0664V18.18H0.000175781V18.2811L1.48494 18.1522V18.051L22.5416 16.2254C22.5416 16.2255 22.624 15.7544 22.4445 15.1119Z" fill="#81CC96"/>
<path d="M1.95493 16.2253H28.0453C29.1249 16.2253 30 17.1005 30 18.18V19.3998C30 20.4794 29.1249 21.3545 28.0453 21.3545H1.95493C0.875342 21.3545 0.000244144 20.4794 0.000244144 19.3998V18.18C0.00018555 17.1005 0.875342 16.2253 1.95493 16.2253Z" fill="#8DE0A8"/>
<path d="M2.15989 19.3999V18.1801C2.15989 17.1005 3.03505 16.2254 4.11458 16.2254H1.95493C0.875342 16.2254 0.000244141 17.1006 0.000244141 18.1801V19.3999C0.000244141 20.4795 0.875401 21.3546 1.95493 21.3546H4.11458C3.03505 21.3545 2.15989 20.4794 2.15989 19.3999Z" fill="#81CC96"/>
</svg>
