<svg width="16" height="16" viewBox="0 0 16 16" fill="none" xmlns="http://www.w3.org/2000/svg">
<g clip-path="url(#clip0_2_5532)">
<path d="M7.99813 15.4923C11.958 15.4923 15.1681 12.2822 15.1681 8.32234C15.1681 4.36246 11.958 1.15234 7.99813 1.15234C4.03824 1.15234 0.828125 4.36246 0.828125 8.32234C0.828125 12.2822 4.03824 15.4923 7.99813 15.4923Z" fill="#D68F30"/>
<path d="M1.31641 10.1848V10.9173C1.39141 11.1111 1.47516 11.3023 1.56641 11.4873V10.1848H1.31641ZM2.13391 11.5636V12.4436C2.23391 12.5848 2.33766 12.7236 2.44641 12.8573V11.5636H2.13391ZM3.21641 12.7136V13.6623C3.33766 13.7711 3.46266 13.8748 3.59141 13.9748V12.7136H3.21641ZM4.54891 13.5873V14.6073C4.67141 14.6748 4.79641 14.7386 4.92391 14.7998V13.5873H4.54891ZM6.06016 14.1436V15.2236C6.18391 15.2586 6.30891 15.2898 6.43516 15.3186V14.1436H6.06016ZM7.82891 14.3361V15.4873C7.88516 15.4886 7.94141 15.4911 7.99891 15.4911C8.06766 15.4911 8.13641 15.4873 8.20391 15.4861V14.3361H7.82891ZM9.59766 14.1348V15.3098C9.72391 15.2811 9.84891 15.2486 9.97266 15.2136V14.1348H9.59766ZM11.1052 13.5711V14.7848C11.2327 14.7236 11.3577 14.6573 11.4802 14.5886V13.5711H11.1052ZM12.4339 12.6898V13.9523C12.5626 13.8518 12.6877 13.7467 12.8089 13.6373V12.6898H12.4339ZM13.8852 11.5361H13.5727V12.8298C13.6814 12.6948 13.7864 12.5561 13.8852 12.4136V11.5361ZM14.6977 10.1523H14.4477V11.4573C14.5389 11.2686 14.6227 11.0748 14.6977 10.8786V10.1523Z" fill="#BC6F00"/>
<path d="M7.99813 14.8473C11.958 14.8473 15.1681 11.6372 15.1681 7.67732C15.1681 3.71744 11.958 0.507324 7.99813 0.507324C4.03824 0.507324 0.828125 3.71744 0.828125 7.67732C0.828125 11.6372 4.03824 14.8473 7.99813 14.8473Z" fill="#FFF176"/>
<path d="M8 14.2088C11.6071 14.2088 14.5312 11.2846 14.5312 7.67751C14.5312 4.0704 11.6071 1.14626 8 1.14626C4.39289 1.14626 1.46875 4.0704 1.46875 7.67751C1.46875 11.2846 4.39289 14.2088 8 14.2088Z" fill="#F2BC1A"/>
<path d="M1.45752 7.92754C1.41127 7.06754 1.56002 6.19504 1.86002 5.37754C2.17252 4.56254 2.65127 3.80879 3.25502 3.16879C4.46752 1.88629 6.22752 1.14254 8.00127 1.13379C9.77502 1.14379 11.5363 1.88629 12.7463 3.17004C13.3513 3.80879 13.8288 4.56379 14.1413 5.37754C14.4425 6.19629 14.5913 7.06754 14.5438 7.92754H14.5188C14.5163 7.06961 14.3465 6.22041 14.0188 5.42754C13.6905 4.63556 13.2112 3.91507 12.6075 3.30629C12.0035 2.69811 11.2857 2.21475 10.495 1.88379C9.7046 1.55377 8.85657 1.38384 8.00002 1.38384C7.14347 1.38384 6.29544 1.55377 5.50502 1.88379C4.71434 2.21475 3.99653 2.69811 3.39252 3.30629C2.78847 3.91474 2.30908 4.63531 1.98127 5.42754C1.65357 6.22041 1.48373 7.06961 1.48127 7.92754H1.45752Z" fill="#E08F00"/>
<path d="M7.99813 0.508789C4.03813 0.508789 0.828125 3.71879 0.828125 7.67879C0.828125 11.6388 4.03813 14.8488 7.99813 14.8488C11.9581 14.8488 15.1681 11.6388 15.1681 7.67879C15.1681 3.71879 11.9581 0.508789 7.99813 0.508789ZM7.99813 14.21C4.39062 14.21 1.46688 11.2863 1.46688 7.67879C1.46688 4.07004 4.39062 1.14629 7.99813 1.14629C11.6056 1.14629 14.5294 4.07004 14.5294 7.67754C14.5294 11.285 11.6056 14.21 7.99813 14.21Z" fill="#FFF176"/>
<path d="M4.74813 2.66895L4.90687 3.1602L5.42438 2.9627V3.1602L5.00563 3.46395L5.16563 3.75645V3.9552L4.74813 3.65145L4.32938 3.9552V3.75645L4.48937 3.46395L4.07188 3.1602V2.9627L4.58812 3.1602L4.74813 2.66895ZM2.75063 5.48895L2.91063 5.9802L3.42688 5.7827V5.9802L3.00938 6.28395L3.16938 6.5777V6.7752L2.75063 6.47145L2.33313 6.7752V6.5777L2.49313 6.28395L2.07438 5.9802V5.7827L2.59188 5.9802L2.75063 5.48895ZM2.69188 8.9652L2.85188 9.45645L3.36813 9.25895V9.45645L2.95063 9.7602L3.11063 10.0539V10.2514L2.69188 9.9477L2.27438 10.2514V10.0539L2.43438 9.7602L2.01562 9.45645V9.25895L2.53313 9.45645L2.69188 8.9652ZM4.82437 11.7252L4.98438 12.2164L5.50062 12.0189V12.2164L5.08312 12.5202L5.24313 12.8127V13.0114L4.82437 12.7077L4.40687 13.0114V12.8127L4.56688 12.5202L4.14812 12.2164V12.0189L4.66563 12.2164L4.82437 11.7252ZM11.2506 2.66895L11.0919 3.1602L10.5744 2.9627V3.1602L10.9931 3.46395L10.8331 3.75645V3.9552L11.2506 3.65145L11.6694 3.9552V3.75645L11.5094 3.46395L11.9269 3.1602V2.9627L11.4106 3.1602L11.2506 2.66895ZM13.2481 5.48895L13.0881 5.9802L12.5719 5.7827V5.9802L12.9894 6.28395L12.8294 6.5777V6.7752L13.2481 6.47145L13.6656 6.7752V6.5777L13.5056 6.28395L13.9244 5.9802V5.7827L13.4069 5.9802L13.2481 5.48895ZM13.3069 8.9652L13.1469 9.45645L12.6306 9.25895V9.45645L13.0481 9.7602L12.8881 10.0539V10.2514L13.3069 9.9477L13.7244 10.2514V10.0539L13.5644 9.7602L13.9831 9.45645V9.25895L13.4656 9.45645L13.3069 8.9652ZM11.1744 11.7252L11.0144 12.2164L10.4981 12.0189V12.2164L10.9156 12.5202L10.7556 12.8127V13.0114L11.1744 12.7077L11.5919 13.0114V12.8127L11.4319 12.5202L11.8506 12.2164V12.0189L11.3331 12.2164L11.1744 11.7252Z" fill="#D38200"/>
<path d="M11.1763 11.5265L11.335 12.0177H11.8525L11.4338 12.3215L11.5938 12.8127L11.1763 12.509L10.7575 12.8127L10.9175 12.3215L10.5 12.0177H11.0163L11.1763 11.5265ZM13.3088 8.76771L13.4675 9.25896H13.985L13.5662 9.56271L13.7263 10.054L13.3088 9.75021L12.89 10.054L13.05 9.56271L12.6325 9.25896H13.1488L13.3088 8.76771ZM13.25 5.29147L13.4088 5.78271H13.9263L13.5075 6.08646L13.6675 6.57771L13.25 6.27396L12.8313 6.57771L12.9913 6.08646L12.5738 5.78271H13.09L13.25 5.29147ZM11.2525 2.47021L11.4125 2.96146H11.9288L11.5113 3.26521L11.6713 3.75646L11.2525 3.45271L10.835 3.75646L10.995 3.26521L10.5763 2.96146H11.0938L11.2525 2.47021Z" fill="#FFF176"/>
<path d="M8.00438 12.8125L8.16438 13.3038L8.68062 13.1062V13.3038L8.26313 13.6075L8.42313 13.9012V14.0988L8.00438 13.795L7.58687 14.0988V13.9012L7.74688 13.6075L7.32812 13.3038V13.1062L7.84562 13.3038L8.00438 12.8125Z" fill="#D38200"/>
<path d="M8.00438 12.5498L8.16438 13.0411H8.68062L8.26313 13.3448L8.42313 13.8361L8.00438 13.5323L7.58687 13.8361L7.74688 13.3448L7.32812 13.0411H7.84562L8.00438 12.5498Z" fill="#FFF176"/>
<path d="M8.00438 1.61133L8.16438 2.10258L8.68062 1.90508V2.10258L8.26313 2.40633L8.42313 2.70008V2.89758L8.00438 2.59383L7.58687 2.89758V2.70008L7.74688 2.40633L7.32812 2.10258V1.90508L7.84562 2.10258L8.00438 1.61133Z" fill="#D38200"/>
<path d="M8.00563 1.41357L8.16563 1.90482H8.68188L8.26438 2.20857L8.42438 2.69982L8.00563 2.39607L7.58813 2.69982L7.74813 2.20857L7.32938 1.90482H7.84688L8.00563 1.41357ZM4.82437 11.5261L4.66563 12.0173H4.14812L4.56688 12.3211L4.40687 12.8123L4.82437 12.5086L5.24313 12.8123L5.08312 12.3211L5.50062 12.0173H4.98438L4.82437 11.5261ZM2.69188 8.76732L2.53313 9.25857H2.01562L2.43438 9.56232L2.27438 10.0536L2.69188 9.74982L3.11063 10.0536L2.95063 9.56232L3.36813 9.25857H2.85188L2.69188 8.76732ZM2.75063 5.29107L2.59188 5.78232H2.07438L2.49313 6.08607L2.33313 6.57732L2.75063 6.27357L3.16938 6.57732L3.00938 6.08607L3.42688 5.78232H2.91063L2.75063 5.29107ZM4.74813 2.46982L4.58812 2.96107H4.07188L4.48937 3.26482L4.32938 3.75607L4.74813 3.45232L5.16563 3.75607L5.00563 3.26482L5.42438 2.96107H4.90687L4.74813 2.46982Z" fill="#FFF176"/>
<path d="M11.9022 6.02482C11.9022 5.98107 4.10469 6.02482 4.10469 6.02482L4.03469 6.23482V6.59357C4.03469 6.65857 4.08719 6.71107 4.15219 6.71107H11.8472C11.9122 6.71107 11.9647 6.65857 11.9647 6.59357V6.24482L11.9022 6.02482ZM11.9134 10.6873H4.13719L3.61719 10.9486L3.62344 11.2848C3.62469 11.3211 3.65469 11.3511 3.69219 11.3511H12.3084C12.3447 11.3511 12.3759 11.3223 12.3772 11.2848L12.3834 10.9548L11.9134 10.6873Z" fill="#D38200"/>
<path d="M5.39313 9.6652H4.94562C4.87187 9.6652 4.81187 9.4327 4.81187 9.35895L5.52562 9.33645C5.52562 9.4102 5.46563 9.6652 5.39313 9.6652ZM5.54562 7.25145H4.79187C4.73562 7.25145 4.68687 7.21395 4.67062 7.1602L4.61188 6.66895H5.71562L5.66563 7.1602C5.65063 7.21395 5.60187 7.25145 5.54562 7.25145ZM4.79187 9.81395H5.54562C5.60187 9.81395 5.71313 9.84895 5.72813 9.9027C5.72813 9.9027 5.72437 10.1364 5.72437 10.2289C5.72437 10.3214 5.68688 10.3889 5.60313 10.3889H4.73438C4.65062 10.3889 4.61312 10.3139 4.61312 10.2289C4.61312 10.1439 4.60938 9.9052 4.60938 9.9052C4.62562 9.85145 4.73562 9.81395 4.79187 9.81395ZM11.2056 9.6652H10.7581C10.6844 9.6652 10.6244 9.4327 10.6244 9.35895L11.3381 9.33645C11.3381 9.4102 11.2794 9.6652 11.2056 9.6652ZM11.3581 7.25145H10.6044C10.5481 7.25145 10.4994 7.21395 10.4831 7.1602L10.4244 6.66895H11.5281L11.4781 7.1602C11.4631 7.21395 11.4144 7.25145 11.3581 7.25145ZM10.6044 9.81395H11.3581C11.4144 9.81395 11.5256 9.84895 11.5406 9.9027C11.5406 9.9027 11.5369 10.1364 11.5369 10.2289C11.5369 10.3214 11.4994 10.3889 11.4156 10.3889H10.5469C10.4631 10.3889 10.4256 10.3139 10.4256 10.2289C10.4256 10.1439 10.4219 9.9052 10.4219 9.9052C10.4381 9.85145 10.5481 9.81395 10.6044 9.81395ZM9.26812 9.6652H8.82063C8.74688 9.6652 8.68688 9.4327 8.68688 9.35895L9.40063 9.33645C9.40063 9.4102 9.34187 9.6652 9.26812 9.6652ZM9.42062 7.25145H8.66687C8.61062 7.25145 8.56187 7.21395 8.54562 7.1602L8.48687 6.66895H9.59062L9.54062 7.1602C9.52562 7.21395 9.47687 7.25145 9.42062 7.25145ZM8.66687 9.81395H9.42062C9.47687 9.81395 9.58812 9.84895 9.60312 9.9027C9.60312 9.9027 9.59937 10.1364 9.59937 10.2289C9.59937 10.3214 9.56187 10.3889 9.47812 10.3889H8.60938C8.52562 10.3889 8.48812 10.3139 8.48812 10.2289C8.48812 10.1439 8.48438 9.9052 8.48438 9.9052C8.50062 9.85145 8.61062 9.81395 8.66687 9.81395ZM7.33063 9.6652H6.88312C6.80937 9.6652 6.74937 9.4327 6.74937 9.35895L7.46312 9.33645C7.46312 9.4102 7.40438 9.6652 7.33063 9.6652ZM7.48312 7.25145H6.72937C6.67312 7.25145 6.62437 7.21395 6.60812 7.1602L6.54938 6.66895H7.65312L7.60313 7.1602C7.58812 7.21395 7.53937 7.25145 7.48312 7.25145ZM6.72937 9.81395H7.48312C7.53937 9.81395 7.65062 9.84895 7.66563 9.9027C7.66563 9.9027 7.66187 10.1364 7.66187 10.2289C7.66187 10.3214 7.62438 10.3889 7.54063 10.3889H6.67188C6.58812 10.3889 6.55062 10.3139 6.55062 10.2289C6.55062 10.1439 6.54688 9.9052 6.54688 9.9052C6.56313 9.85145 6.67312 9.81395 6.72937 9.81395Z" fill="#D38200"/>
<path d="M11.9589 5.69C11.9589 5.64625 11.9364 5.605 11.9027 5.585L8.00516 3.3725L4.10266 5.5825C4.06516 5.605 4.04141 5.64625 4.04141 5.69L4.03516 6.23625C4.03516 6.305 4.09141 6.36125 4.16016 6.36125H11.8389C11.9077 6.36125 11.9639 6.305 11.9639 6.23625L11.9589 5.69Z" fill="#FFF176"/>
<path d="M10.9795 5.54135L7.99953 3.8501L5.01953 5.54135H10.9795Z" fill="#F2BC1A"/>
<path d="M9.88534 5.33514L8.00159 4.26514L6.11784 5.33514H9.88534ZM11.6753 10.2526H4.32784C4.25534 10.2526 4.18659 10.2839 4.13784 10.3376L3.63284 10.9014C3.59784 10.9401 3.62534 11.0014 3.67784 11.0014H12.3253C12.3766 11.0014 12.4041 10.9401 12.3703 10.9014L11.8641 10.3376C11.8166 10.2839 11.7466 10.2526 11.6753 10.2526ZM11.2053 9.43889H10.7578C10.6841 9.43889 10.6241 9.37889 10.6241 9.30514V7.30764C10.6241 7.23389 10.6841 7.17389 10.7578 7.17389H11.2053C11.2791 7.17389 11.3391 7.23389 11.3391 7.30764V9.30639C11.3391 9.38014 11.2791 9.43889 11.2053 9.43889ZM11.3591 7.02514H10.6053C10.5491 7.02514 10.5003 6.98764 10.4841 6.93389L10.4266 6.73514C10.4028 6.65514 10.4641 6.57514 10.5478 6.57514H11.4166C11.5003 6.57514 11.5603 6.65514 11.5378 6.73514L11.4803 6.93389C11.4641 6.98764 11.4141 7.02514 11.3591 7.02514ZM10.6041 9.58889H11.3578C11.4141 9.58889 11.4628 9.62639 11.4791 9.68014L11.5366 9.87889C11.5603 9.95889 11.4991 10.0389 11.4153 10.0389H10.5466C10.4628 10.0389 10.4028 9.95889 10.4253 9.87889L10.4828 9.68014C10.4991 9.62514 10.5491 9.58889 10.6041 9.58889ZM5.39284 9.43889H4.94534C4.87159 9.43889 4.81159 9.37889 4.81159 9.30514V7.30764C4.81159 7.23389 4.87159 7.17389 4.94534 7.17389H5.39284C5.46659 7.17389 5.52659 7.23389 5.52659 7.30764V9.30639C5.52534 9.38014 5.46534 9.43889 5.39284 9.43889ZM5.54534 7.02514H4.79159C4.73534 7.02514 4.68659 6.98764 4.67034 6.93389L4.61284 6.73514C4.58909 6.65514 4.65034 6.57514 4.73409 6.57514H5.60284C5.68659 6.57514 5.74659 6.65514 5.72409 6.73514L5.66659 6.93389C5.65034 6.98764 5.60159 7.02514 5.54534 7.02514ZM4.79159 9.58889H5.54534C5.60159 9.58889 5.65034 9.62639 5.66659 9.68014L5.72409 9.87889C5.74784 9.95889 5.68659 10.0389 5.60284 10.0389H4.73409C4.65034 10.0389 4.59034 9.95889 4.61284 9.87889L4.67034 9.68014C4.68659 9.62514 4.73534 9.58889 4.79159 9.58889ZM7.33034 9.43889H6.88284C6.80909 9.43889 6.74909 9.37889 6.74909 9.30514V7.30764C6.74909 7.23389 6.80909 7.17389 6.88284 7.17389H7.33034C7.40409 7.17389 7.46409 7.23389 7.46409 7.30764V9.30639C7.46376 9.34164 7.44952 9.37534 7.42447 9.40016C7.39943 9.42497 7.36559 9.43889 7.33034 9.43889ZM7.48284 7.02514H6.72909C6.67284 7.02514 6.62409 6.98764 6.60784 6.93389L6.55034 6.73514C6.52659 6.65514 6.58784 6.57514 6.67159 6.57514H7.54034C7.62409 6.57514 7.68409 6.65514 7.66159 6.73514L7.60409 6.93389C7.58784 6.98764 7.53909 7.02514 7.48284 7.02514ZM6.72909 9.58889H7.48284C7.53909 9.58889 7.58784 9.62639 7.60409 9.68014L7.66159 9.87889C7.68534 9.95889 7.62409 10.0389 7.54034 10.0389H6.67159C6.58784 10.0389 6.52784 9.95889 6.55034 9.87889L6.60784 9.68014C6.62409 9.62514 6.67284 9.58889 6.72909 9.58889ZM9.26784 9.43889H8.82034C8.74659 9.43889 8.68659 9.37889 8.68659 9.30514V7.30764C8.68659 7.23389 8.74659 7.17389 8.82034 7.17389H9.26784C9.34159 7.17389 9.40159 7.23389 9.40159 7.30764V9.30639C9.40126 9.34164 9.38702 9.37534 9.36197 9.40016C9.33693 9.42497 9.30309 9.43889 9.26784 9.43889ZM9.42034 7.02514H8.66659C8.61034 7.02514 8.56159 6.98764 8.54534 6.93389L8.48784 6.73514C8.46409 6.65514 8.52534 6.57514 8.60909 6.57514H9.47784C9.56159 6.57514 9.62159 6.65514 9.59909 6.73514L9.54159 6.93389C9.52534 6.98764 9.47659 7.02514 9.42034 7.02514ZM8.66659 9.58889H9.42034C9.47659 9.58889 9.52534 9.62639 9.54159 9.68014L9.59909 9.87889C9.62284 9.95889 9.56159 10.0389 9.47784 10.0389H8.60909C8.52534 10.0389 8.46534 9.95889 8.48784 9.87889L8.54534 9.68014C8.56159 9.62514 8.61159 9.58889 8.66659 9.58889Z" fill="#FFF176"/>
</g>
<defs>
<clipPath id="clip0_2_5532">
<rect width="16" height="16" fill="white"/>
</clipPath>
</defs>
</svg>
