<svg width="27" height="26" viewBox="0 0 27 26" fill="none" xmlns="http://www.w3.org/2000/svg">
<path d="M26.8562 24.1779C24.9373 20.8723 21.8659 18.3913 18.2307 17.2106C19.9731 16.1744 21.3272 14.5949 22.0848 12.7146C22.8425 10.8342 22.9618 8.75716 22.4246 6.80243C21.8873 4.84769 20.7231 3.12342 19.1108 1.8945C17.4985 0.665583 15.5274 0 13.5001 0C11.4729 0 9.50173 0.665583 7.88945 1.8945C6.27717 3.12342 5.11297 4.84769 4.57568 6.80243C4.0384 8.75716 4.15775 10.8342 4.91542 12.7146C5.67308 14.5949 7.02714 16.1744 8.76957 17.2106C5.13437 18.3913 2.06291 20.8723 0.144036 24.1779C0.0498253 24.3328 0 24.5107 0 24.6921C0 24.8734 0.0498253 25.0513 0.144036 25.2062C0.231933 25.3638 0.360727 25.4948 0.516836 25.5853C0.672944 25.6758 0.850582 25.7225 1.03101 25.7204H25.9692C26.1497 25.7225 26.3273 25.6758 26.4834 25.5853C26.6395 25.4948 26.7683 25.3638 26.8562 25.2062C26.9504 25.0513 27.0002 24.8734 27.0002 24.6921C27.0002 24.5107 26.9504 24.3328 26.8562 24.1779Z" fill="white"/>
</svg>
