<svg width="18" height="18" viewBox="0 0 18 18" fill="none" xmlns="http://www.w3.org/2000/svg">
<g clip-path="url(#clip0_2_319)">
<path d="M16.5002 8.30993V8.99993C16.4992 10.6172 15.9755 12.1909 15.0072 13.4863C14.0388 14.7816 12.6776 15.7293 11.1267 16.1878C9.57575 16.6464 7.91813 16.5913 6.40104 16.0308C4.88396 15.4704 3.58869 14.4345 2.70843 13.0777C1.82816 11.7209 1.41005 10.116 1.51647 8.50216C1.62288 6.88836 2.24811 5.35219 3.29891 4.12275C4.34971 2.89331 5.76978 2.03649 7.34733 1.68006C8.92488 1.32364 10.5754 1.48671 12.0527 2.14495" stroke="white" stroke-width="3" stroke-linecap="round" stroke-linejoin="round"/>
<path d="M16.5002 3.00004L9.00018 10.5075L6.75019 8.25752" stroke="white" stroke-width="3" stroke-linecap="round" stroke-linejoin="round"/>
</g>
<defs>
<clipPath id="clip0_2_319">
<rect width="17.394" height="17.394" fill="white" transform="scale(1.03484)"/>
</clipPath>
</defs>
</svg>
