<svg width="32" height="30" viewBox="0 0 32 30" fill="none" xmlns="http://www.w3.org/2000/svg">
<g clip-path="url(#clip0_2_2799)">
<path d="M25.5284 12.1693V7.57257C25.5284 5.44354 23.5762 3.94354 21.3737 3.94354H9.66072C7.45827 3.94354 5.5061 5.44354 5.5061 7.57257V12.1693H25.5284Z" fill="#6965A8"/>
<path d="M4.0044 16.5242H2.45268C1.3014 16.5242 0.350342 15.7016 0.350342 14.5887C0.350342 13.4758 1.3014 12.6532 2.45268 12.6532H4.50496" fill="#8989CC"/>
<path d="M27.03 16.5242H28.5817C29.733 16.5242 30.684 15.7016 30.684 14.5887C30.684 13.4758 29.733 12.6532 28.5817 12.6532H26.5294" fill="#8989CC"/>
<path d="M27.6808 19.4274H3.35376L4.80537 7.81451H26.2292L27.6808 19.4274Z" fill="#6965A8"/>
<path d="M26.4794 19.4274H4.55505L6.00667 7.81451H25.0278L26.4794 19.4274Z" fill="white"/>
<path d="M24.9778 7.81451L26.4794 19.4274H4.505" fill="#EAEAEA"/>
<path d="M25.5284 22.8145V17.879C25.5284 15.75 23.5762 14.1048 21.3737 14.1048H9.66072C7.45827 14.1048 5.5061 15.7984 5.5061 17.879V22.8145H25.5284Z" fill="#8989CC"/>
<path d="M31.0345 28.1371V21.2177C31.0345 18.6532 28.8821 16.5242 26.2792 16.5242H4.75528C2.15239 16.5242 0 18.6532 0 21.2177V28.0403V28.1371H31.0345Z" fill="#6965A8"/>
<path d="M5.75642 22.8629C4.70525 23.879 3.00336 23.879 1.95219 22.8629C0.901027 21.8468 0.901027 20.2016 1.95219 19.1855C3.00336 18.1694 4.70525 18.1694 5.75642 19.1855C6.80759 20.2016 6.80759 21.8468 5.75642 22.8629Z" fill="#FFC114"/>
<path d="M5.75637 19.1855C6.80754 20.2016 6.80754 21.8468 5.75637 22.8629C4.7052 23.879 3.00332 23.879 1.95215 22.8629" fill="#FF8A15"/>
<path d="M27.1802 23.6371C28.673 23.6371 29.8832 22.4673 29.8832 21.0242C29.8832 19.5811 28.673 18.4113 27.1802 18.4113C25.6873 18.4113 24.4772 19.5811 24.4772 21.0242C24.4772 22.4673 25.6873 23.6371 27.1802 23.6371Z" fill="#FFC114"/>
<path d="M29.0823 19.1855C30.1335 20.2016 30.1335 21.8468 29.0823 22.8629C28.0311 23.879 26.3292 23.879 25.2781 22.8629" fill="#FF8A15"/>
<path d="M23.5261 24.75V20.8307C23.5261 19.0887 22.1746 17.4919 20.3726 17.4919H10.7119C8.90986 17.4919 7.5083 19.0887 7.5083 20.8307V24.75H23.5261Z" fill="#C4C4C4"/>
<path d="M10.5117 24.75H23.5262V20.8307C23.5262 19.0887 22.1747 17.4919 20.3727 17.4919" fill="#A8A8A8"/>
<path d="M9.51062 23.7823V19.8145C9.51062 19.5242 9.71084 19.2823 10.0112 19.2823C10.3115 19.2823 10.5117 19.5242 10.5117 19.8145V23.7823" fill="#6965A8"/>
<path d="M11.5128 23.7823V19.8145C11.5128 19.5242 11.713 19.2823 12.0134 19.2823C12.3137 19.2823 12.5139 19.5242 12.5139 19.8145V23.7823" fill="#6965A8"/>
<path d="M14.0156 23.7823V19.8145C14.0156 19.5242 14.2158 19.2823 14.5162 19.2823C14.8165 19.2823 15.0167 19.5242 15.0167 19.8145V23.7823" fill="#6965A8"/>
<path d="M16.0178 23.7823V19.8145C16.0178 19.5242 16.218 19.2823 16.5184 19.2823C16.8187 19.2823 17.0189 19.5242 17.0189 19.8145V23.7823" fill="#6965A8"/>
<path d="M18.5206 23.7823V19.8145C18.5206 19.5242 18.7209 19.2823 19.0212 19.2823C19.3215 19.2823 19.5217 19.5242 19.5217 19.8145V23.7823" fill="#6965A8"/>
<path d="M20.5228 23.7823V19.8145C20.5228 19.5242 20.723 19.2823 21.0234 19.2823C21.3237 19.2823 21.5239 19.5242 21.5239 19.8145V23.7823" fill="#6965A8"/>
<path d="M0 28.1371C0 27.121 0.850946 26.2016 1.90211 26.2016H29.1324C30.1835 26.2016 31.0345 27.0726 31.0345 28.0887" fill="#8989CC"/>
<path d="M4.8053 8.05645C4.8053 7.33064 5.40597 6.84677 6.10674 6.84677H24.9277C25.6785 6.84677 26.2291 7.37903 26.2291 8.10484" fill="#8989CC"/>
<path d="M10.0111 3.94356V2.6855C10.0111 2.25001 10.3114 1.86292 10.7619 1.86292C11.2124 1.86292 11.5128 2.25001 11.5128 2.6855V3.94356" fill="#FF8A15"/>
<path d="M19.5217 3.94356V2.6855C19.5217 2.25001 19.8221 1.86292 20.2726 1.86292C20.7231 1.86292 21.0234 2.25001 21.0234 2.6855V3.94356" fill="#FF8A15"/>
</g>
<defs>
<clipPath id="clip0_2_2799">
<rect width="31.0345" height="30" fill="white"/>
</clipPath>
</defs>
</svg>
