<svg width="4" height="4" viewBox="0 0 4 4" fill="none" xmlns="http://www.w3.org/2000/svg">
<path d="M0.19659 0.396084L1.34271 3.7073C1.3916 3.85008 1.59501 3.84617 1.63999 3.70144L2.10157 2.20327C2.10853 2.17878 2.12175 2.15652 2.13993 2.13869C2.1581 2.12086 2.18061 2.10807 2.20523 2.10157L3.70144 1.63999C3.84617 1.59501 3.85008 1.3916 3.7073 1.34271L0.396084 0.19659C0.368263 0.186812 0.338246 0.185095 0.309492 0.191638C0.280738 0.19818 0.254418 0.212714 0.233566 0.233566C0.212714 0.254418 0.19818 0.280738 0.191638 0.309492C0.185095 0.338246 0.186812 0.368263 0.19659 0.396084V0.396084Z" stroke="#4F0DA3" stroke-width="0.326087" stroke-linecap="round" stroke-linejoin="round"/>
</svg>
