<svg width="21" height="19" viewBox="0 0 21 19" fill="none" xmlns="http://www.w3.org/2000/svg">
<path d="M18.4066 17.616H2.59337C2.17398 17.616 1.77176 17.4494 1.47521 17.1528C1.17865 16.8562 1.01205 16.454 1.01205 16.0346V4.96536C1.01205 4.54597 1.17865 4.14375 1.47521 3.8472C1.77176 3.55064 2.17398 3.38404 2.59337 3.38404H5.75602L7.33735 1.01205H13.6627L15.244 3.38404H18.4066C18.826 3.38404 19.2282 3.55064 19.5248 3.8472C19.8213 4.14375 19.988 4.54597 19.988 4.96536V16.0346C19.988 16.454 19.8213 16.8562 19.5248 17.1528C19.2282 17.4494 18.826 17.616 18.4066 17.616Z" stroke="white" stroke-width="2" stroke-linecap="round" stroke-linejoin="round"/>
<path d="M10.5 13.6627C12.465 13.6627 14.058 12.0697 14.058 10.1047C14.058 8.13965 12.465 6.54669 10.5 6.54669C8.53498 6.54669 6.94202 8.13965 6.94202 10.1047C6.94202 12.0697 8.53498 13.6627 10.5 13.6627Z" stroke="white" stroke-width="2" stroke-linecap="round" stroke-linejoin="round"/>
</svg>
