<svg width="4" height="4" viewBox="0 0 4 4" fill="none" xmlns="http://www.w3.org/2000/svg">
<path d="M3.66669 0.787912H0.333317C0.249636 0.787912 0.1818 0.855748 0.1818 0.939429V3.3637C0.1818 3.44738 0.249636 3.51522 0.333317 3.51522H3.66669C3.75037 3.51522 3.81821 3.44738 3.81821 3.3637V0.939429C3.81821 0.855748 3.75037 0.787912 3.66669 0.787912Z" stroke="#4F0DA3" stroke-width="0.326087" stroke-linecap="round" stroke-linejoin="round"/>
<path d="M2.75761 3.51517V0.484834C2.75761 0.404464 2.72569 0.327386 2.66886 0.270556C2.61203 0.213726 2.53495 0.1818 2.45458 0.1818H1.54548C1.46511 0.1818 1.38803 0.213726 1.3312 0.270556C1.27437 0.327386 1.24244 0.404464 1.24244 0.484834V3.51517" stroke="#4F0DA3" stroke-width="0.326087" stroke-linecap="round" stroke-linejoin="round"/>
</svg>
