<svg width="25" height="24" viewBox="0 0 25 24" fill="none" xmlns="http://www.w3.org/2000/svg">
<g clip-path="url(#clip0_2_301)">
<path d="M12.4998 4.5C7.2915 4.5 2.84359 7.61 1.0415 12C2.84359 16.39 7.2915 19.5 12.4998 19.5C17.7082 19.5 22.1561 16.39 23.9582 12C22.1561 7.61 17.7082 4.5 12.4998 4.5ZM12.4998 17C9.62484 17 7.2915 14.76 7.2915 12C7.2915 9.24 9.62484 7 12.4998 7C15.3748 7 17.7082 9.24 17.7082 12C17.7082 14.76 15.3748 17 12.4998 17ZM12.4998 9C10.7707 9 9.37484 10.34 9.37484 12C9.37484 13.66 10.7707 15 12.4998 15C14.229 15 15.6248 13.66 15.6248 12C15.6248 10.34 14.229 9 12.4998 9Z" fill="black" fill-opacity="0.2"/>
</g>
<defs>
<clipPath id="clip0_2_301">
<rect width="25" height="24" fill="white"/>
</clipPath>
</defs>
</svg>
