<svg width="16" height="16" viewBox="0 0 16 16" fill="none" xmlns="http://www.w3.org/2000/svg">
<mask id="mask0_2_5478" style="mask-type:luminance" maskUnits="userSpaceOnUse" x="2" y="0" width="13" height="16">
<path d="M10.0026 10.0002C11.0026 10.0002 11.6693 10.6268 11.6693 11.3335H13.6693V1.3335H11.6693C11.6693 2.00016 11.0026 2.66683 10.0026 2.66683C9.0026 2.66683 8.33594 2.00016 8.33594 1.3335H6.33594V6.00016" stroke="white" stroke-width="1.33333" stroke-linecap="round" stroke-linejoin="round"/>
<path d="M10.0013 14.6668H8.0013C8.0013 13.9602 7.33464 13.3335 6.33464 13.3335C5.33464 13.3335 4.66797 13.9602 4.66797 14.6668H2.66797V4.66683H4.66797C4.66797 5.3335 5.33464 6.00016 6.33464 6.00016C7.33464 6.00016 8.0013 5.3335 8.0013 4.66683H10.0013V14.6668Z" fill="white" stroke="white" stroke-width="1.33333" stroke-linecap="round" stroke-linejoin="round"/>
<path d="M4.66667 8.66683C5.03486 8.66683 5.33333 8.36835 5.33333 8.00016C5.33333 7.63197 5.03486 7.3335 4.66667 7.3335C4.29848 7.3335 4 7.63197 4 8.00016C4 8.36835 4.29848 8.66683 4.66667 8.66683Z" fill="black"/>
<path d="M6.33464 8.66683C6.70283 8.66683 7.0013 8.36835 7.0013 8.00016C7.0013 7.63197 6.70283 7.3335 6.33464 7.3335C5.96645 7.3335 5.66797 7.63197 5.66797 8.00016C5.66797 8.36835 5.96645 8.66683 6.33464 8.66683Z" fill="black"/>
<path d="M8.0026 8.66683C8.37079 8.66683 8.66927 8.36835 8.66927 8.00016C8.66927 7.63197 8.37079 7.3335 8.0026 7.3335C7.63441 7.3335 7.33594 7.63197 7.33594 8.00016C7.33594 8.36835 7.63441 8.66683 8.0026 8.66683Z" fill="black"/>
</mask>
<g mask="url(#mask0_2_5478)">
<path d="M0 0H16V16H0V0Z" fill="black"/>
</g>
</svg>
