<svg width="94" height="85" viewBox="0 0 94 85" fill="none" xmlns="http://www.w3.org/2000/svg">
<path d="M12.6562 77.4957H11.9596L10.444 75.4382V74.0804C10.444 74.0804 9.36844 74.017 9.49473 75.7851C9.62103 77.5532 9.48454 77.1033 9.48454 77.1033C9.48454 77.1033 7.20304 77.1033 7.01359 77.3015C6.87507 77.4402 6.80989 79.6464 6.78952 80.8417C6.77451 81.1303 6.85921 81.4156 7.03014 81.6519C7.20107 81.8883 7.44838 82.0622 7.73267 82.146C7.81234 82.1671 7.89455 82.1777 7.97712 82.1777C8.5475 82.1777 11.4544 81.7277 11.4544 81.7277H12.6562V77.4957Z" fill="#E0E0E0"/>
<path d="M14.6484 77.1251L14.2207 81.7515H13.029V77.2182L14.6484 77.1251Z" fill="#E0E0E0"/>
<path d="M48.207 7.92286L45.2126 12.0855C45.1357 12.1893 45.0342 12.2736 44.9167 12.331C44.7991 12.3884 44.669 12.4173 44.5375 12.4151C44.406 12.413 44.277 12.3799 44.1615 12.3187C44.046 12.2575 43.9474 12.17 43.8742 12.0637L40.9755 7.73059L48.207 7.92286Z" fill="#E0E0E0"/>
<path d="M40.6132 0.947266H49.0202C50.3207 0.947266 51.375 1.97317 51.375 3.23868V7.93845C51.375 9.20397 50.3207 10.2299 49.0202 10.2299H40.6132C39.3127 10.2299 38.2584 9.20397 38.2584 7.93845V3.23868C38.2584 1.97317 39.3127 0.947266 40.6132 0.947266Z" fill="#E0E0E0"/>
<path d="M46.5664 5.07532H46.1431L45.2223 3.82521V3.00023C45.2223 3.00023 44.5688 2.9617 44.6455 4.03597C44.7223 5.11025 44.6393 4.83686 44.6393 4.83686C44.6393 4.83686 43.2531 4.83686 43.138 4.95729C43.0539 5.0416 43.0143 6.38203 43.0019 7.10825C42.9928 7.28364 43.0442 7.45694 43.1481 7.60056C43.2519 7.74418 43.4022 7.84984 43.5749 7.90071C43.6233 7.91354 43.6733 7.92003 43.7234 7.91998C44.07 7.91998 45.8362 7.64659 45.8362 7.64659H46.5664V5.07532Z" fill="#4F0DA3"/>
<path d="M47.7773 4.8501L47.5174 7.66104H46.7934V4.9067L47.7773 4.8501Z" fill="#4F0DA3"/>
<path d="M81.0866 72.8734H74.1789C73.4415 72.8734 72.7342 73.1585 72.2128 73.6659C71.6913 74.1733 71.3983 74.8615 71.3983 75.5791V78.9924C71.3983 79.71 71.6913 80.3982 72.2128 80.9056C72.7342 81.4131 73.4415 81.6981 74.1789 81.6981H75.9838L77.2549 83.4662C77.3269 83.5666 77.423 83.6481 77.535 83.7038C77.6469 83.7595 77.7712 83.7876 77.8969 83.7857C78.0226 83.7837 78.1459 83.7518 78.2559 83.6926C78.366 83.6335 78.4594 83.5489 78.5281 83.4464L79.6973 81.6981H81.0866C81.8241 81.6981 82.5313 81.4131 83.0528 80.9056C83.5742 80.3982 83.8672 79.71 83.8672 78.9924V75.5791C83.8672 74.8615 83.5742 74.1733 83.0528 73.6659C82.5313 73.1585 81.8241 72.8734 81.0866 72.8734Z" fill="#E0E0E0"/>
<path d="M77.8769 75.585V79.0657L80.4375 77.3254L77.8769 75.585Z" fill="#4F0DA3"/>
<path d="M74.4514 79.3391C74.4514 79.3391 74.6205 76.8673 76.6535 76.8297H77.9531V77.8921L76.6718 77.9099C76.6718 77.9099 75.3416 77.8802 74.4514 79.3391Z" fill="#4F0DA3"/>
<path d="M76.924 36.4315C76.6908 35.4738 77.2996 34.5136 78.2837 34.2866C79.2679 34.0597 80.2547 34.6521 80.4879 35.6098C80.7211 36.5674 80.1123 37.5277 79.1282 37.7546C78.144 37.9815 77.1572 37.3891 76.924 36.4315Z" fill="#E0E0E0"/>
<path d="M78.7011 37.5924C79.5315 37.5924 80.3278 37.9134 80.915 38.4847C81.5022 39.0561 81.832 39.831 81.832 40.639H75.5701C75.5701 39.831 75.9 39.0561 76.4871 38.4847C77.0743 37.9134 77.8707 37.5924 78.7011 37.5924Z" fill="#E0E0E0"/>
<path d="M27.4185 2.54673C27.4185 2.79176 27.4932 3.03128 27.6331 3.23501C27.773 3.43874 27.9718 3.59753 28.2045 3.6913C28.4371 3.78507 28.6931 3.8096 28.9401 3.7618C29.187 3.714 29.4139 3.596 29.5919 3.42275C29.77 3.24949 29.8913 3.02874 29.9404 2.78842C29.9895 2.54811 29.9643 2.29901 29.8679 2.07264C29.7716 1.84626 29.6084 1.65278 29.399 1.51665C29.1896 1.38052 28.9435 1.30786 28.6917 1.30786C28.5244 1.3076 28.3587 1.33947 28.2041 1.40163C28.0496 1.4638 27.9091 1.55505 27.7908 1.67014C27.6725 1.78523 27.5788 1.9219 27.5149 2.07233C27.451 2.22275 27.4182 2.38397 27.4185 2.54673Z" fill="#E0E0E0"/>
<path d="M23.8873 5.44682C23.8873 5.69184 23.9619 5.93136 24.1018 6.1351C24.2417 6.33883 24.4406 6.49762 24.6732 6.59138C24.9058 6.68515 25.1618 6.70968 25.4088 6.66188C25.6558 6.61408 25.8826 6.49609 26.0607 6.32283C26.2387 6.14957 26.36 5.92882 26.4091 5.68851C26.4583 5.44819 26.433 5.19909 26.3367 4.97272C26.2403 4.74635 26.0771 4.55286 25.8678 4.41673C25.6584 4.28061 25.4122 4.20795 25.1604 4.20795C24.8228 4.20795 24.4989 4.33847 24.2602 4.5708C24.0214 4.80314 23.8873 5.11825 23.8873 5.44682Z" fill="#E0E0E0"/>
<path d="M27.399 8.40421C27.399 8.64924 27.4737 8.88876 27.6136 9.09249C27.7534 9.29622 27.9523 9.45501 28.1849 9.54878C28.4176 9.64255 28.6736 9.66708 28.9205 9.61928C29.1675 9.57148 29.3944 9.45349 29.5724 9.28023C29.7505 9.10697 29.8717 8.88622 29.9208 8.64591C29.97 8.40559 29.9448 8.15649 29.8484 7.93012C29.752 7.70375 29.5889 7.51026 29.3795 7.37413C29.1701 7.238 28.924 7.16534 28.6721 7.16534C28.3345 7.16534 28.0107 7.29587 27.7719 7.5282C27.5331 7.76053 27.399 8.07564 27.399 8.40421Z" fill="#E0E0E0"/>
<path d="M28.605 8.47982L28.7395 8.32918L25.3172 5.44905L28.7578 2.62443L28.6274 2.4718L25.0035 5.44707L28.605 8.47982Z" fill="#E0E0E0"/>
<path d="M10.6562 32.4957H9.95957L8.44401 30.4382V29.0804C8.44401 29.0804 7.36844 29.017 7.49473 30.7851C7.62103 32.5532 7.48454 32.1033 7.48454 32.1033C7.48454 32.1033 5.20304 32.1033 5.01359 32.3015C4.87507 32.4402 4.80989 34.6464 4.78952 35.8417C4.77451 36.1303 4.85921 36.4156 5.03014 36.6519C5.20107 36.8883 5.44838 37.0622 5.73267 37.146C5.81234 37.1671 5.89455 37.1777 5.97712 37.1777C6.5475 37.1777 9.45439 36.7277 9.45439 36.7277H10.6562V32.4957Z" fill="#E0E0E0"/>
<path d="M12.6484 32.1251L12.2207 36.7515H11.029V32.2182L12.6484 32.1251Z" fill="#E0E0E0"/>
<path d="M12.8398 41.6535H12.5026L11.7689 40.6575V40.0002C11.7689 40.0002 11.2483 39.9695 11.3094 40.8254C11.3705 41.6813 11.3045 41.4635 11.3045 41.4635C11.3045 41.4635 10.2 41.4635 10.1083 41.5595C10.0412 41.6266 10.0097 42.6946 9.99983 43.2732C9.99256 43.413 10.0336 43.5511 10.1163 43.6655C10.1991 43.7799 10.3188 43.8641 10.4564 43.9046C10.495 43.9149 10.5348 43.92 10.5747 43.92C10.8508 43.92 12.258 43.7022 12.258 43.7022H12.8398V41.6535Z" fill="#E0E0E0"/>
<path d="M13.8047 41.4741L13.5976 43.7137H13.0207V41.5192L13.8047 41.4741Z" fill="#E0E0E0"/>
<path d="M7.14999 7.35004H20.7331C21.5329 7.35004 22.2999 7.65905 22.8657 8.20916C23.4314 8.75927 23.7495 9.50545 23.75 10.2837V18.2957C23.75 18.6811 23.672 19.0628 23.5203 19.4188C23.3687 19.7749 23.1464 20.0984 22.8663 20.3708C22.5861 20.6432 22.2535 20.8593 21.8875 21.0066C21.5215 21.1539 21.1292 21.2296 20.7331 21.2293H16.5347L14.1819 24.5059C14.1073 24.609 14.0078 24.6927 13.8923 24.7498C13.7767 24.8069 13.6486 24.8356 13.519 24.8334C13.3895 24.8313 13.2624 24.7983 13.1489 24.7374C13.0355 24.6766 12.939 24.5896 12.868 24.4841L10.6924 21.2293H7.14999C6.754 21.2296 6.36184 21.1539 5.99594 21.0066C5.63004 20.8592 5.29758 20.6431 5.01758 20.3707C4.73757 20.0982 4.51551 19.7747 4.36409 19.4187C4.21268 19.0626 4.13488 18.681 4.13515 18.2957V10.2837C4.13515 9.89843 4.21312 9.51695 4.36463 9.16102C4.51614 8.8051 4.73822 8.4817 5.01817 8.20928C5.29813 7.93687 5.63048 7.72078 5.99626 7.57335C6.36204 7.42592 6.75408 7.35004 7.14999 7.35004Z" fill="white"/>
<path d="M7.14935 7.34984H7.0475C6.94736 7.35048 6.84736 7.3571 6.74805 7.36967C6.35959 7.41317 5.98447 7.53394 5.646 7.72448C5.19861 7.97119 4.82307 8.32461 4.55473 8.75147C4.28639 9.17834 4.13407 9.66462 4.1121 10.1646C4.09987 10.5749 4.1121 11.007 4.1121 11.4629C4.1121 13.2905 4.1121 15.4947 4.09987 18.0041C4.08743 18.3251 4.11341 18.6464 4.17728 18.9615C4.25206 19.2862 4.38367 19.596 4.56636 19.8773C4.9476 20.4677 5.52808 20.9106 6.20823 21.13C6.5596 21.236 6.92621 21.2862 7.29399 21.2787H10.6918L10.6511 21.2569L11.8957 23.1202L12.5374 24.0815C12.6494 24.2441 12.7411 24.4046 12.8694 24.5691C13.0029 24.7354 13.1969 24.8454 13.4113 24.8764C13.6267 24.9048 13.8452 24.8524 14.0224 24.7297C14.1094 24.6676 14.1846 24.5911 14.2444 24.5037L14.4196 24.2579L15.1285 23.2668L16.5769 21.2549L16.5321 21.2767H20.543C20.8286 21.2843 21.1142 21.2611 21.3945 21.2073C21.6729 21.1452 21.942 21.0486 22.1951 20.9199C22.6887 20.6587 23.0996 20.2711 23.3832 19.7992C23.6668 19.3272 23.8125 18.7887 23.8044 18.242C23.8044 16.1389 23.8044 14.1111 23.8044 12.1785C23.8044 11.6948 23.8044 11.2191 23.8044 10.7473C23.8044 10.5114 23.8044 10.2795 23.7921 10.0436C23.7821 9.9266 23.7658 9.81015 23.7433 9.69478C23.7147 9.57981 23.6883 9.46683 23.6516 9.35582C23.5013 8.92066 23.2528 8.52376 22.9244 8.19426C22.5988 7.87328 22.2024 7.62858 21.7653 7.47869C21.6609 7.44075 21.5541 7.40963 21.4454 7.38552C21.3384 7.35871 21.2294 7.3395 21.1195 7.32804C20.9038 7.30508 20.6867 7.29581 20.4697 7.30029H16.8763L9.7629 7.31813H7.82973H7.32658H7.15547C7.15547 7.31813 7.2125 7.31813 7.32658 7.31813H7.82973H9.7629L16.8763 7.38552H19.2332H20.486C20.6989 7.38087 20.9119 7.39014 21.1236 7.41327C21.2309 7.42456 21.3371 7.44378 21.4414 7.47076C21.5465 7.49447 21.65 7.52493 21.751 7.56194C22.1682 7.70928 22.5461 7.94566 22.8571 8.25372C23.1759 8.5732 23.4162 8.9588 23.5599 9.38159C23.5966 9.48863 23.621 9.59963 23.6495 9.71063C23.6781 9.82164 23.6923 9.93462 23.6964 10.0476C23.7127 10.2756 23.7066 10.5114 23.7066 10.7453V12.1765C23.7066 14.1091 23.7066 16.1409 23.7066 18.24C23.7139 18.7682 23.5728 19.2883 23.2985 19.7442C23.0242 20.2001 22.6272 20.5744 22.1503 20.8268C21.9066 20.9518 21.647 21.0451 21.3782 21.1043C21.1055 21.1578 20.8272 21.1804 20.5491 21.1717H16.5178L16.5015 21.1935L15.0552 23.2054L14.3463 24.1965L14.1711 24.4403C14.116 24.5178 14.047 24.5849 13.9674 24.6385C13.8125 24.749 13.6194 24.7963 13.4292 24.7704C13.239 24.7445 13.0666 24.6474 12.9489 24.4998C12.8389 24.3491 12.7309 24.1786 12.6229 24.0201C12.4043 23.6976 12.1897 23.3772 11.9792 23.0587L10.7305 21.1954L10.7163 21.1736H7.2838C6.92584 21.1836 6.56864 21.136 6.22657 21.0329C5.56547 20.8225 5.00108 20.3932 4.63155 19.8198C4.4524 19.5476 4.32348 19.2471 4.25062 18.9318C4.18629 18.6227 4.16031 18.3073 4.17321 17.9922C4.17321 15.4848 4.17321 13.2806 4.16098 11.451C4.16098 10.9951 4.16098 10.561 4.16098 10.1546C4.17775 9.77736 4.27049 9.40695 4.43396 9.06444C4.69146 8.51313 5.11853 8.05324 5.65619 7.74827C5.99042 7.55595 6.36109 7.43122 6.74602 7.38156C6.84459 7.36726 6.94386 7.358 7.04343 7.35381L7.14935 7.34984Z" fill="#263238"/>
<path d="M13.5547 11.6135V17.0883L9.52742 14.3509L13.5547 11.6135Z" fill="#4F0DA3"/>
<path d="M18.9453 17.5206C18.9453 17.5206 18.6785 13.6315 15.4823 13.5721H13.4452V15.2451L15.4599 15.2728C15.4599 15.2728 17.5601 15.2252 18.9453 17.5206Z" fill="#4F0DA3"/>
<path d="M25.5086 69.6874H2.36963C1.08033 69.6874 0.0351563 68.6704 0.0351563 67.4159L0.0351563 49.9884C0.0351563 48.7339 1.08033 47.7168 2.36963 47.7168H25.5086C26.7979 47.7168 27.8431 48.7339 27.8431 49.9884L27.8431 67.4159C27.8431 68.6704 26.7979 69.6874 25.5086 69.6874Z" fill="white"/>
<path d="M15.0599 69.0153C15.3451 69.6873 20.8594 74.732 20.8594 74.732V69.0153H15.0599Z" fill="#455A64"/>
<path d="M17.1917 64.4146C17.1917 63.7208 17.1917 63.142 17.1917 63.0707C17.1917 63.0707 19.6016 62.8487 19.7747 60.5275C19.8583 59.4056 19.8379 57.0785 19.7931 54.9774C19.7699 53.8878 19.3259 52.8467 18.5494 52.0613C17.7729 51.276 16.7209 50.804 15.6028 50.7395L15.3727 50.7256C12.8773 50.7256 11.4819 52.7811 11.5471 55.2073L11.6346 64.3115L15.668 67.4652L15.9614 67.4394L17.1917 64.4146Z" fill="#FFBF9D"/>
<path d="M17.1953 63.071C16.092 63.0037 15.0316 62.6302 14.1397 61.9946C14.1397 61.9946 14.7936 63.737 17.1953 63.6676V63.071Z" fill="#FF9A6C"/>
<path d="M15.7362 55.9786C15.6893 56.0262 15.4123 55.8141 15.013 55.8082C14.6137 55.8022 14.3163 55.9965 14.2735 55.9469C14.2308 55.8974 14.3021 55.8399 14.4304 55.7487C14.6037 55.632 14.8105 55.5716 15.0212 55.5762C15.2303 55.5799 15.4325 55.6495 15.5976 55.7745C15.7199 55.8696 15.7586 55.9568 15.7362 55.9786Z" fill="#263238"/>
<path d="M15.4375 57.0333C15.4338 57.1151 15.397 57.1922 15.3353 57.2479C15.2735 57.3036 15.1916 57.3333 15.1075 57.3306C15.0662 57.3317 15.0252 57.3246 14.9868 57.3099C14.9484 57.2953 14.9134 57.2732 14.884 57.2451C14.8545 57.217 14.8312 57.1834 14.8153 57.1463C14.7995 57.1092 14.7915 57.0694 14.7917 57.0293C14.796 56.9474 14.8328 56.8704 14.8944 56.8145C14.956 56.7587 15.0375 56.7283 15.1217 56.73C15.1631 56.7292 15.2042 56.7365 15.2426 56.7514C15.281 56.7663 15.316 56.7885 15.3454 56.8168C15.3748 56.8451 15.3981 56.8788 15.4139 56.916C15.4298 56.9531 15.4378 56.993 15.4375 57.0333Z" fill="#263238"/>
<path d="M16.7706 58.6684C16.9705 58.6205 17.1759 58.5972 17.3817 58.599C17.4755 58.599 17.5651 58.5832 17.5855 58.5217C17.5989 58.4274 17.5826 58.3313 17.5386 58.2462C17.4653 58.0222 17.3879 57.7844 17.3043 57.5366C16.9804 56.5257 16.7523 55.6951 16.7951 55.6832C16.8379 55.6713 17.1332 56.4761 17.4571 57.493C17.5345 57.7408 17.6099 57.9786 17.6792 58.2066C17.7314 58.32 17.7408 58.4478 17.7056 58.5673C17.6904 58.5987 17.6679 58.6262 17.64 58.6479C17.6121 58.6695 17.5795 58.6847 17.5447 58.6922C17.4918 58.7025 17.4377 58.7065 17.3838 58.7041C17.1787 58.7195 16.9724 58.7075 16.7706 58.6684Z" fill="#263238"/>
<path d="M15.5367 54.73C15.498 54.8172 15.1781 54.7557 14.7952 54.7815C14.4122 54.8073 14.0985 54.8905 14.0537 54.8073C14.0333 54.7696 14.0924 54.6883 14.2207 54.609C14.3909 54.5138 14.5817 54.4588 14.7777 54.4484C14.9737 54.4381 15.1695 54.4728 15.3493 54.5496C15.4857 54.615 15.553 54.6903 15.5367 54.73Z" fill="#263238"/>
<path d="M19.282 54.952C19.2412 55.0233 18.9275 54.952 18.5507 54.9421C18.1738 54.9322 17.8601 54.9857 17.8194 54.9123C17.801 54.8786 17.8621 54.8152 17.9925 54.7577C18.1691 54.6864 18.3596 54.6533 18.5507 54.6606C18.7439 54.6635 18.9343 54.7067 19.1088 54.7875C19.2392 54.8529 19.3003 54.9183 19.282 54.952Z" fill="#263238"/>
<path d="M11.6406 56.9379C11.6019 56.918 10.0293 56.369 9.98246 57.9607C9.93561 59.5524 11.5897 59.2689 11.5938 59.2233C11.5979 59.1777 11.6406 56.9379 11.6406 56.9379Z" fill="#FFBF9D"/>
<path d="M11.1117 58.6069C11.1117 58.6069 11.0832 58.6267 11.0343 58.6465C10.9657 58.6735 10.889 58.6735 10.8204 58.6465C10.6493 58.5791 10.5128 58.3096 10.5128 58.0221C10.5121 57.8852 10.5427 57.7497 10.6024 57.6257C10.6195 57.5762 10.6487 57.5315 10.6873 57.4952C10.726 57.459 10.773 57.4324 10.8245 57.4176C10.8574 57.4098 10.8921 57.4138 10.9223 57.4287C10.9526 57.4435 10.9764 57.4684 10.9895 57.4988C11.0098 57.5444 10.9895 57.5742 11.0078 57.5781C11.0261 57.5821 11.0445 57.5524 11.0322 57.487C11.024 57.447 11.0025 57.4108 10.9711 57.3839C10.9495 57.3665 10.9244 57.3536 10.8974 57.3461C10.8704 57.3386 10.8421 57.3366 10.8143 57.3403C10.7469 57.3518 10.6836 57.3796 10.6302 57.4212C10.5768 57.4627 10.535 57.5167 10.5087 57.5781C10.4363 57.7148 10.3986 57.8664 10.3987 58.0202C10.3987 58.3413 10.5597 58.6446 10.7939 58.7179C10.8375 58.7318 10.8838 58.736 10.9293 58.7302C10.9747 58.7244 11.0183 58.7086 11.0567 58.6842C11.1076 58.6445 11.1178 58.6188 11.1117 58.6069Z" fill="#FF9A6C"/>
<path d="M16.2649 60.0223C16.2832 59.9827 15.9614 59.8935 15.7312 59.6021C15.6353 59.4753 15.5572 59.3367 15.4989 59.1898C15.45 59.0749 15.4134 59.0035 15.3951 59.0094C15.3767 59.0154 15.3849 59.0927 15.4113 59.2077C15.4487 59.3758 15.523 59.534 15.6293 59.6715C15.7389 59.8085 15.8846 59.914 16.051 59.9767C16.1773 60.0342 16.2649 60.0362 16.2649 60.0223Z" fill="#263238"/>
<path d="M9.43361 54.389C9.76769 53.8221 9.84103 53.1521 10.0162 52.5237C10.1914 51.8954 10.5438 51.2413 11.1712 51.0153H11.1855C11.7497 50.7854 12.4485 50.7735 12.919 51.1521C13.0229 50.3235 13.7583 49.6575 14.5853 49.4355C15.4124 49.2135 16.7446 49.3245 17.5452 49.6337C18.1563 49.8656 18.7674 50.3532 19.4967 51.0688C19.8057 51.3705 20.0891 51.6959 20.3441 52.0421L21.0938 54.1987L20.4826 55.3424C20.446 55.4217 20.4093 55.499 20.3645 55.5763L19.8389 57.9787C19.7941 57.3266 19.8124 55.053 19.7697 54.4009C19.2646 54.3924 18.7664 54.2847 18.3051 54.0845C17.8438 53.8842 17.4287 53.5954 17.0848 53.2353C16.7141 52.8389 16.4187 52.3533 15.9257 52.1233C15.2881 51.826 14.5385 52.0579 13.8744 52.2898L13.9029 52.2661C13.5571 52.4265 13.2465 52.6507 12.9883 52.9261C13.1554 54.2151 13.0352 55.5239 12.6359 56.7637C12.5748 56.95 12.4098 57.3345 12.2285 57.4059C11.8618 57.5486 11.7579 57.1859 11.5359 56.9956C11.3388 56.8675 11.1005 56.8139 10.8657 56.8449C10.6743 56.3057 10.5172 55.7556 10.3951 55.1977C10.1738 55.2677 9.93859 55.2861 9.70861 55.2512L9.91232 54.7577C9.82576 54.8211 9.72655 54.8664 9.62102 54.8905C9.56801 54.9011 9.51293 54.8958 9.46308 54.8753C9.41324 54.8547 9.37099 54.8199 9.34195 54.7755C9.28083 54.6546 9.36435 54.5059 9.43361 54.389Z" fill="#263238"/>
<path d="M13.6719 51.4138C13.5872 51.4794 13.5082 51.5517 13.4356 51.6298C13.2502 51.854 13.1274 52.121 13.0791 52.4049C13.0404 52.6008 13.0226 52.8 13.0261 52.9995C13.0261 53.2136 13.0485 53.4415 13.0689 53.6834C13.0942 53.9363 13.1037 54.1905 13.0974 54.4445C13.0898 54.5776 13.0735 54.71 13.0485 54.841C13.0299 54.9845 12.9738 55.121 12.8856 55.2374C12.8443 55.2829 12.7918 55.3174 12.7329 55.3376C12.6741 55.3577 12.6109 55.3628 12.5495 55.3524C12.4322 55.332 12.3249 55.2749 12.2439 55.1898C12.1119 55.0158 12.0303 54.8104 12.0076 54.5952H12.0565C11.9871 54.7709 11.8918 54.9359 11.7733 55.0848C11.6592 55.2236 11.4941 55.3138 11.313 55.3365C11.2288 55.3464 11.1435 55.3333 11.0665 55.2989C10.9953 55.2633 10.9365 55.2081 10.8974 55.1403C10.8622 55.0799 10.8439 55.0115 10.8444 54.9421C10.8457 54.8747 10.8717 54.81 10.9178 54.7597L10.9443 54.7815C10.8039 54.941 10.6312 55.0706 10.437 55.1621C10.3854 55.1857 10.3324 55.2063 10.2781 55.2235C10.26 55.2312 10.2408 55.2359 10.2211 55.2374L10.2741 55.2156C10.3107 55.1997 10.3617 55.1799 10.4289 55.1462C10.6163 55.0498 10.7824 54.9185 10.9178 54.7597L10.9422 54.7815C10.9041 54.8309 10.8827 54.8906 10.8809 54.9524C10.8791 55.0141 10.8969 55.0749 10.932 55.1264C10.9669 55.1874 11.0203 55.2366 11.0848 55.2671C11.1549 55.2981 11.2326 55.3091 11.3089 55.2989C11.4768 55.2752 11.629 55.1901 11.7346 55.061C11.8489 54.9144 11.9415 54.7529 12.0096 54.5813L12.0422 54.506L12.0585 54.5853C12.0828 54.7887 12.1607 54.9826 12.2846 55.1482C12.3571 55.2239 12.4529 55.2747 12.5576 55.2929C12.6097 55.3026 12.6635 55.2987 12.7136 55.2816C12.7637 55.2646 12.8082 55.235 12.8428 55.1958C12.925 55.0884 12.977 54.962 12.9935 54.8291C13.0199 54.6983 13.0363 54.5658 13.0424 54.4326C13.0489 54.1807 13.0407 53.9285 13.018 53.6774C12.9996 53.4356 12.9793 53.2057 12.9793 52.9896C12.9789 52.7899 12.9994 52.5906 13.0404 52.3949C13.0926 52.1063 13.2234 51.8366 13.4193 51.614C13.4916 51.5342 13.577 51.4666 13.6719 51.4138Z" fill="#455A64"/>
<path d="M21.0781 53.5801C21.0781 53.5801 21.0781 53.5801 21.0598 53.5959L21.0007 53.6395C20.969 53.6629 20.9357 53.6841 20.9009 53.703C20.8546 53.7314 20.8062 53.7565 20.7563 53.7783C20.4389 53.9256 20.0889 53.9937 19.7377 53.9765C19.2162 53.9494 18.7139 53.7759 18.2914 53.477C17.7819 53.1073 17.3549 52.6406 17.0366 52.1053C16.8594 51.8278 16.7147 51.5404 16.5558 51.2768C16.4093 51.0198 16.2262 50.7842 16.012 50.577C15.8187 50.3907 15.5806 50.2544 15.3194 50.1806C15.2011 50.1503 15.0788 50.1383 14.9568 50.1449C14.8441 50.1526 14.7331 50.1753 14.6268 50.2123C14.4425 50.276 14.2744 50.3774 14.1338 50.5097C14.0263 50.6087 13.9368 50.7246 13.869 50.8526C13.8167 50.9645 13.7764 51.0814 13.7488 51.2014C13.7483 51.1935 13.7483 51.1856 13.7488 51.1777C13.7488 51.1578 13.7488 51.134 13.7488 51.1063C13.7685 51.0157 13.7979 50.9274 13.8364 50.8427C13.9031 50.711 13.9919 50.5911 14.0992 50.4879C14.323 50.2644 14.6228 50.1277 14.9425 50.1033C15.0693 50.0948 15.1966 50.1068 15.3194 50.139C15.5887 50.2106 15.8353 50.3469 16.0364 50.5354C16.2552 50.744 16.4419 50.9824 16.5905 51.2431C16.7514 51.5107 16.896 51.7961 17.0733 52.0716C17.3876 52.601 17.8081 53.0634 18.3098 53.4314C18.726 53.7278 19.2209 53.9019 19.7357 53.9329C20.0811 53.9545 20.4269 53.8954 20.744 53.7604C20.9702 53.6633 21.0741 53.5721 21.0781 53.5801Z" fill="#455A64"/>
<path d="M19.3769 56.0779C19.3301 56.1255 19.051 55.9134 18.6517 55.9094C18.2525 55.9054 17.9571 56.0977 17.9143 56.0482C17.8715 55.9986 17.9408 55.9391 18.0712 55.8499C18.2445 55.7332 18.4512 55.6729 18.6619 55.6775C18.8709 55.6819 19.073 55.7514 19.2384 55.8757C19.3586 55.9689 19.3993 56.0581 19.3769 56.0779Z" fill="#263238"/>
<path d="M18.7695 57.0869C18.7653 57.1688 18.7285 57.2458 18.6669 57.3017C18.6053 57.3576 18.5237 57.3879 18.4395 57.3862C18.3982 57.387 18.3571 57.3798 18.3187 57.3649C18.2803 57.3499 18.2453 57.3277 18.2159 57.2994C18.1865 57.2712 18.1631 57.2374 18.1473 57.2003C18.1315 57.1631 18.1235 57.1232 18.1238 57.083C18.128 57.0013 18.1649 56.9245 18.2266 56.8689C18.2882 56.8133 18.3698 56.7835 18.4538 56.7856C18.495 56.7846 18.5361 56.7916 18.5745 56.8063C18.6129 56.821 18.6478 56.843 18.6773 56.8711C18.7068 56.8992 18.7301 56.9328 18.746 56.9699C18.7618 57.007 18.7698 57.0468 18.7695 57.0869Z" fill="#263238"/>
<path d="M20.1352 51.7742C20.3389 52.0359 20.6506 52.2737 20.9846 52.2381C21.1059 52.2132 21.2251 52.1794 21.3411 52.137C21.4572 52.2063 21.4308 52.5949 21.3411 52.7019C21.2654 52.7928 21.1815 52.877 21.0906 52.9536C21.4837 53.1519 21.8402 53.0587 22.2578 52.91C22.2158 53.2574 22.0808 53.588 21.8663 53.8687C21.6518 54.1495 21.3654 54.3705 21.0356 54.5097C20.9347 54.5623 20.8225 54.5908 20.7081 54.5929C20.5937 54.595 20.4804 54.5705 20.3776 54.5215C20.2198 54.3963 20.1158 54.2181 20.0863 54.022C19.8992 53.3254 19.8007 52.6091 19.793 51.8892L20.1352 51.7742Z" fill="#263238"/>
<path d="M22.6541 67.0352L22.6113 66.9817C20.7006 65.0133 17.1826 64.3552 17.1826 64.3552C17.1826 64.3552 16.9666 65.6437 14.9948 65.7884C13.0229 65.9331 11.5807 63.9707 11.5807 63.9707L8.93248 64.3354C8.93248 64.3354 7.60839 64.4881 6.78541 64.9598C4.92761 66.0223 3.93353 69.6873 3.93353 69.6873L24.2227 69.7686L22.6541 67.0352Z" fill="#455A64"/>
<path d="M24.5083 47.7169L24.6509 47.7268L24.8261 47.7387C24.8953 47.7387 24.9748 47.7605 25.0664 47.7744C25.6033 47.8634 26.1089 48.0814 26.5372 48.4087C26.8494 48.6457 27.1157 48.935 27.3235 49.263C27.574 49.6564 27.7339 50.098 27.792 50.5574C27.8192 50.8155 27.8288 51.0751 27.8206 51.3344C27.8206 51.602 27.8206 51.8815 27.8206 52.1669C27.8206 52.7418 27.8206 53.3562 27.8206 53.9945C27.8206 56.5713 27.8206 59.6794 27.8104 63.2295C27.8104 64.1175 27.8104 65.032 27.8104 65.9729C27.8104 66.2068 27.8104 66.4446 27.7961 66.6785C27.778 66.9149 27.7343 67.1488 27.6657 67.3763C27.5185 67.8392 27.2649 68.2636 26.9242 68.6171C26.5799 68.9835 26.1503 69.2642 25.6715 69.4358L25.4902 69.4992L25.3027 69.5468C25.1767 69.5772 25.0488 69.5997 24.9198 69.6142C24.6578 69.6385 24.3946 69.6477 24.1314 69.6419H20.8192V69.6875C20.8192 71.2832 20.8192 72.9859 20.8192 74.7322L20.9027 74.6965C20.0444 73.9036 19.1732 73.0909 18.2892 72.2584C17.4091 71.418 16.5088 70.5656 15.6512 69.6538L15.6349 69.6379H3.75268C3.53472 69.6379 3.31879 69.6379 3.10694 69.6261C2.47235 69.574 1.86706 69.3433 1.36497 68.9621C0.862875 68.5809 0.485701 68.0656 0.279495 67.4793C0.148703 67.0961 0.0873604 66.6937 0.0981998 66.29V65.0611C0.0981998 61.8202 0.0981998 58.6923 0.0981998 55.7131C0.0981998 54.2251 0.0981998 52.7715 0.0981998 51.3522C0.0838604 51.0048 0.105696 50.6568 0.163382 50.3136C0.236404 49.9805 0.361437 49.6603 0.534128 49.3641C0.704746 49.0722 0.922821 48.8091 1.17988 48.5851C1.4293 48.3618 1.71406 48.1791 2.02322 48.044C2.32647 47.9085 2.64943 47.8196 2.98064 47.7803C3.30918 47.7532 3.63902 47.7439 3.96862 47.7526H5.90178H9.5359L20.5014 47.7367L23.4837 47.7268H20.5014L9.5359 47.711H5.90178H3.96862C3.63495 47.7025 3.30105 47.7118 2.96842 47.7387C2.62877 47.7786 2.29755 47.8696 1.98656 48.0083C1.66845 48.1466 1.3754 48.334 1.11876 48.5633C0.855186 48.7913 0.630972 49.059 0.454685 49.3562C0.277737 49.6606 0.149294 49.9894 0.0737495 50.3314C0.0130615 50.6803 -0.010149 51.0344 0.0044899 51.3879C0.0044899 52.7992 0.0044899 54.2528 0.0044899 55.7487C0.0044899 58.722 0.0044899 61.8559 0.0044899 65.0967V66.3178C-0.00712204 66.7348 0.0555973 67.1506 0.189863 67.5467C0.408251 68.1407 0.797316 68.6612 1.31081 69.0463C1.82431 69.4314 2.44065 69.665 3.08657 69.7192C3.30861 69.7351 3.52657 69.7351 3.7425 69.7331H15.6002L15.5615 69.7172C16.4252 70.631 17.3256 71.4834 18.2097 72.3238C19.0938 73.1643 19.9697 73.975 20.8273 74.7619L20.9129 74.8392V74.7262C20.9129 72.9799 20.9129 71.2772 20.9129 69.6816L20.864 69.7291H24.1233C24.3905 69.7367 24.6579 69.7274 24.9239 69.7014C25.0559 69.6876 25.1867 69.6637 25.315 69.63L25.5085 69.5824L25.6959 69.517C26.1876 69.3394 26.6288 69.0507 26.9833 68.6746C27.3309 68.3096 27.5898 67.8734 27.7411 67.3981C27.8115 67.1649 27.8559 66.925 27.8735 66.6825C27.8919 66.4407 27.8857 66.2048 27.8857 65.9709C27.8857 65.03 27.8857 64.1156 27.8857 63.2275C27.8857 59.6774 27.8857 56.5654 27.8756 53.9925C27.8756 53.3483 27.8756 52.7398 27.8756 52.1649C27.8756 51.8795 27.8756 51.6 27.8756 51.3324C27.883 51.0711 27.8728 50.8095 27.845 50.5494C27.7885 50.124 27.6462 49.7137 27.4263 49.3419C27.2064 48.9701 26.9133 48.6442 26.5637 48.3829C26.1301 48.0556 25.6186 47.8402 25.0766 47.7565C24.985 47.7447 24.9055 47.7288 24.8342 47.7248H24.659L24.5083 47.7169Z" fill="#263238"/>
<path d="M87.5145 26.6487L59.4906 26.6487C57.9145 26.6487 56.6367 25.4054 56.6367 23.8716V2.77716C56.6367 1.24344 57.9145 0.000106812 59.4906 0.000106812L87.5145 0.000106812C89.0907 0.000106812 90.3684 1.24344 90.3684 2.77716V23.8716C90.3684 25.4054 89.0907 26.6487 87.5145 26.6487Z" fill="white"/>
<path d="M74.8585 25.8336C75.2048 26.6482 81.8945 32.7712 81.8945 32.7712V25.8336H74.8585Z" fill="#455A64"/>
<path d="M66.6753 11.6949C66.659 10.3074 66.4329 8.91984 66.4879 7.5323C66.5429 6.14477 66.9198 4.69579 67.9138 3.70073C68.9079 2.70567 70.6394 2.31319 71.8046 3.12787L72.043 4.31719C71.584 9.67836 71.1249 15.0389 70.6659 20.3987C70.6068 21.1024 70.5417 21.8279 70.2117 22.4562C69.8816 23.0846 69.2216 23.6059 68.4964 23.5623C67.5492 23.5068 66.9259 22.5712 66.6325 21.6931C65.5631 18.4958 66.7181 15.0468 66.6753 11.6949Z" fill="#263238"/>
<path d="M70.1104 4.48792C70.3007 4.13479 70.5452 3.81195 70.8355 3.53052C70.9826 3.39115 71.1601 3.28581 71.3548 3.22232C71.5494 3.15884 71.7563 3.13884 71.96 3.16382C72.0559 3.17539 72.1473 3.2106 72.2253 3.26609C72.3034 3.32159 72.3656 3.39555 72.4061 3.48097C72.4693 3.65936 72.3348 3.89524 72.1413 3.8774L72.1006 3.9111C71.6728 4.27979 71.2389 4.64055 70.7948 4.9914C70.6898 5.08693 70.5666 5.16166 70.4322 5.21142C70.3632 5.23676 70.2882 5.24238 70.216 5.22763C70.1438 5.21288 70.0775 5.17837 70.0248 5.12817C69.8741 4.9577 69.9902 4.68812 70.1104 4.48792Z" fill="#F5F5F5"/>
<path d="M69.305 5.85314C70.7309 4.15836 72.6397 3.18511 74.8886 3.14745C76.1556 3.12762 76.6812 3.38333 77.5938 3.62317C78.5095 3.83927 79.3179 4.36205 79.8773 5.0999C80.5231 5.99387 81.067 6.99488 81.1892 8.0831C81.3114 9.17132 81.4418 10.315 81.3542 11.4429C81.2666 12.5708 80.9468 13.6907 80.2786 14.6005L77.3493 15.0941C75.7319 15.1476 74.0901 15.1992 72.5174 14.8404C70.9448 14.4816 69.4089 13.6511 68.5655 12.3131C67.3963 10.4379 67.8811 7.54593 69.305 5.85314Z" fill="#263238"/>
<path d="M77.3586 20.1452C77.3382 19.1541 77.3036 17.8914 77.3036 17.8974C77.3036 17.9033 79.6911 17.6417 80.3592 14.6624C80.6872 13.1817 80.7483 10.7278 80.732 8.71587C80.7177 6.90811 79.1349 4.44425 76.8392 4.43632L75.8206 4.32135L71.9176 5.83178C71.6455 5.84549 71.3885 5.9579 71.1973 6.14686C71.0061 6.33582 70.8947 6.58762 70.8848 6.85261L70.7382 19.9489L73.2397 24.0144L77.7212 20.6447L77.3586 20.1452Z" fill="#B56760"/>
<path d="M75.7656 13.9667C75.7871 13.812 75.8669 13.6707 75.9896 13.5702C76.1014 13.4764 76.242 13.4212 76.3894 13.4133C76.5368 13.4054 76.6828 13.4453 76.8045 13.5266C76.9304 13.6208 77.0281 13.7459 77.0876 13.8892C77.147 14.0324 77.166 14.1885 77.1426 14.3413C77.0752 14.4328 76.9886 14.5093 76.8885 14.5657C76.7884 14.6221 76.6771 14.6571 76.562 14.6684H76.4541C76.2707 14.6644 76.0956 14.5936 75.9632 14.4702C75.894 14.4057 75.8404 14.3271 75.8063 14.24C75.7721 14.1529 75.7582 14.0596 75.7656 13.9667Z" fill="#8A4A43"/>
<path d="M79.4922 11.0467C79.4879 11.1478 79.4427 11.2432 79.3663 11.3119C79.29 11.3806 79.1887 11.4171 79.0848 11.4134C79.0347 11.4141 78.9849 11.4053 78.9384 11.3872C78.8918 11.3692 78.8494 11.3423 78.8136 11.3082C78.7778 11.2741 78.7493 11.2334 78.7298 11.1885C78.7102 11.1436 78.7 11.0954 78.6998 11.0467C78.707 10.9464 78.7531 10.8525 78.8287 10.7841C78.9044 10.7157 79.0039 10.6777 79.1072 10.678C79.1575 10.6772 79.2074 10.6861 79.2541 10.7043C79.3007 10.7225 79.3432 10.7495 79.3791 10.7838C79.4149 10.8181 79.4434 10.8591 79.4628 10.9042C79.4822 10.9493 79.4922 10.9977 79.4922 11.0467Z" fill="#263238"/>
<path d="M80.0233 9.7228C79.9704 9.77037 79.6831 9.53846 79.2574 9.52458C78.8316 9.51071 78.5057 9.69307 78.4629 9.64153C78.4202 9.58999 78.4976 9.52855 78.6381 9.44331C78.8297 9.32841 79.0532 9.27437 79.2778 9.2887C79.501 9.2989 79.715 9.37805 79.8889 9.51467C80.0111 9.60783 80.0498 9.701 80.0233 9.7228Z" fill="#263238"/>
<path d="M77.2875 12.9755C77.5163 12.918 77.7518 12.8893 77.9882 12.8903C78.0982 12.8903 78.2021 12.8685 78.2245 12.7991C78.2407 12.6897 78.2215 12.5782 78.1695 12.48L77.8945 11.6574C77.5115 10.4859 77.2406 9.52453 77.2834 9.51065C77.3262 9.49678 77.6908 10.4324 78.0636 11.6058L78.3304 12.4344C78.3919 12.5656 78.4034 12.7139 78.363 12.8526C78.3455 12.8893 78.3195 12.9214 78.2869 12.9466C78.2544 12.9717 78.2163 12.9891 78.1756 12.9973C78.1148 13.0107 78.0525 13.016 77.9902 13.0132C77.7553 13.0295 77.5191 13.0169 77.2875 12.9755Z" fill="#263238"/>
<path d="M77.304 17.897C75.8492 17.8399 74.439 17.3919 73.2299 16.6027C73.2299 16.6027 74.2138 18.7434 77.3203 18.6285L77.304 17.897Z" fill="#8A4A43"/>
<path d="M76.0169 13.1936C76.0862 13.1936 76.0617 13.6436 76.4386 13.9865C76.8155 14.3294 77.3125 14.3037 77.3125 14.3671C77.3125 14.3968 77.1984 14.4484 76.9886 14.4444C76.7179 14.4321 76.46 14.3284 76.2593 14.151C76.0681 13.9796 75.9515 13.7434 75.9334 13.491C75.9273 13.2987 75.9843 13.1897 76.0169 13.1936Z" fill="#263238"/>
<path d="M79.8799 8.27191C79.8025 8.36904 79.4725 8.28381 79.0977 8.29372C78.7229 8.30363 78.3929 8.3849 78.3154 8.29372C78.2808 8.24614 78.3277 8.151 78.4642 8.05585C78.6532 7.94155 78.8708 7.87966 79.0934 7.87687C79.3159 7.87407 79.5351 7.93048 79.7271 8.04C79.8657 8.1292 79.9145 8.22434 79.8799 8.27191Z" fill="#263238"/>
<path d="M74.6433 10.9398C74.64 11.0405 74.6774 11.1385 74.7475 11.2126C74.8176 11.2867 74.9148 11.3311 75.0182 11.3363C75.0679 11.3401 75.118 11.3342 75.1655 11.3191C75.2129 11.304 75.2569 11.2799 75.2947 11.2482C75.3326 11.2166 75.3636 11.1779 75.3861 11.1345C75.4086 11.0911 75.422 11.0438 75.4256 10.9953C75.4289 10.8947 75.3915 10.7967 75.3214 10.7226C75.2513 10.6485 75.1541 10.604 75.0508 10.5989C75.001 10.5951 74.9509 10.6009 74.9034 10.6161C74.856 10.6312 74.8121 10.6552 74.7742 10.6869C74.7363 10.7186 74.7053 10.7573 74.6828 10.8007C74.6604 10.8441 74.647 10.8914 74.6433 10.9398Z" fill="#263238"/>
<path d="M74.2625 9.56232C74.3113 9.61386 74.6149 9.40176 75.0406 9.41167C75.4664 9.42158 75.776 9.6317 75.8249 9.58214C75.8738 9.53259 75.7984 9.46916 75.664 9.37005C75.4814 9.24288 75.263 9.17365 75.0386 9.17183C74.8167 9.16831 74.5994 9.23281 74.4173 9.35617C74.2849 9.44934 74.238 9.54052 74.2625 9.56232Z" fill="#263238"/>
<path d="M74.524 8.2341C74.6055 8.32925 74.9314 8.2341 75.3388 8.2341C75.7462 8.2341 76.0681 8.30942 76.1536 8.2123C76.1882 8.16472 76.1373 8.06958 75.9927 7.9784C75.794 7.86728 75.5684 7.80979 75.3392 7.81188C75.11 7.81397 74.8855 7.87556 74.689 7.99029C74.524 8.09138 74.4792 8.18653 74.524 8.2341Z" fill="#263238"/>
<path d="M71.4058 11.9032C71.418 11.6793 71.1838 11.1361 70.9576 11.0905C70.3465 10.9657 69.2608 10.9558 69.1671 12.4523C69.0367 14.4999 71.1756 14.2046 71.1838 14.1471C71.1919 14.0896 71.3651 12.6743 71.4058 11.9032Z" fill="#B56760"/>
<path d="M70.6562 13.3642C70.6562 13.3642 70.6175 13.386 70.5544 13.4098C70.4661 13.4441 70.3677 13.4441 70.2794 13.4098C70.0635 13.3166 69.8985 12.9618 69.9107 12.5931C69.9142 12.4135 69.9602 12.2372 70.0451 12.0777C70.0688 12.0148 70.1079 11.9585 70.159 11.9136C70.2101 11.8687 70.2717 11.8366 70.3385 11.82C70.3803 11.8134 70.4233 11.8207 70.4603 11.8409C70.4973 11.8611 70.5261 11.8928 70.5422 11.931C70.5666 11.9905 70.5422 12.0301 70.5625 12.0341C70.5829 12.0381 70.6094 12.0024 70.5972 11.9172C70.5894 11.8659 70.5635 11.8189 70.5238 11.7844C70.4673 11.7376 70.3942 11.7141 70.3201 11.7189C70.232 11.7303 70.1483 11.7634 70.077 11.8151C70.0057 11.8668 69.9491 11.9353 69.9127 12.0143C69.8111 12.1858 69.7551 12.3793 69.7498 12.5772C69.7375 12.9915 69.929 13.3899 70.2285 13.493C70.2837 13.5129 70.3429 13.5203 70.4016 13.5144C70.4602 13.5086 70.5167 13.4897 70.5666 13.4593C70.6461 13.4137 70.6562 13.3681 70.6562 13.3642Z" fill="#8A4A43"/>
<path d="M70.871 11.096L71.4047 11.6411C73.7086 9.48449 78.2268 4.10879 77.9742 4.42197C76.9223 4.03867 75.7882 3.91871 74.6762 4.07311C72.959 4.35854 69.7037 5.19305 69.7526 7.16334C69.8015 9.13364 70.871 11.096 70.871 11.096Z" fill="#263238"/>
<path d="M67.8159 10.65C67.8219 10.6093 67.8328 10.5694 67.8485 10.5311C67.8861 10.4195 67.9338 10.3114 67.991 10.208C68.2085 9.82814 68.5089 9.4993 68.8711 9.24466C69.408 8.8718 70.0068 8.59153 70.6413 8.41611C71.3461 8.1941 72.1385 8.01967 72.9167 7.69459C73.6522 7.396 74.35 7.01623 74.9965 6.56276C75.5234 6.19072 76.0143 5.77274 76.4632 5.31398C76.7655 5.00313 77.0492 4.67552 77.3126 4.33279L77.5163 4.05132C77.5395 4.01767 77.5654 3.98585 77.5938 3.95618C77.5797 3.99452 77.5597 4.0306 77.5347 4.06322C77.4899 4.13061 77.4267 4.2317 77.331 4.35658C77.0797 4.71057 76.8034 5.04704 76.5039 5.36353C76.059 5.83383 75.5685 6.26131 75.0393 6.64006C74.39 7.10359 73.6864 7.49019 72.9431 7.79172C72.1938 8.06895 71.4302 8.30845 70.6555 8.50927C70.029 8.67671 69.4355 8.94468 68.8996 9.30215C68.5414 9.54733 68.239 9.86179 68.0114 10.2258C67.8729 10.4835 67.826 10.65 67.8159 10.65Z" fill="#455A64"/>
<path d="M68.4286 10.9655C68.4221 10.8129 68.4499 10.6606 68.5101 10.5195C68.6675 10.1276 68.9431 9.79109 69.3005 9.5542C69.7385 9.23507 70.3659 9.03883 71.0564 8.88422C71.8072 8.73932 72.539 8.51328 73.2381 8.21028C73.9341 7.9016 74.5877 7.50939 75.1835 7.04277C75.6703 6.66096 76.1172 6.23338 76.5178 5.76623C76.7863 5.45102 77.0346 5.12003 77.2613 4.77514L77.4386 4.48574C77.4574 4.4507 77.4807 4.41807 77.5078 4.38861C77.4964 4.42621 77.4799 4.4622 77.4589 4.49565L77.296 4.79298C77.0826 5.15014 76.8423 5.49136 76.5769 5.81381C76.1801 6.29132 75.7344 6.72832 75.2467 7.11809C74.6463 7.59362 73.9865 7.99324 73.2829 8.3074C72.577 8.61247 71.8375 8.83793 71.0788 8.97937C70.3903 9.12605 69.7751 9.31237 69.3433 9.61565C68.9933 9.84086 68.7174 10.1595 68.5488 10.5334C68.4954 10.6736 68.4551 10.8182 68.4286 10.9655Z" fill="#455A64"/>
<path d="M70.9414 14.5634C70.9414 14.5495 70.7621 14.5257 70.4505 14.4464C70.0133 14.3224 69.6107 14.1035 69.2731 13.8062C68.7801 13.3565 68.405 12.7985 68.1792 12.1788C67.8926 11.4215 67.7384 10.6229 67.7228 9.81602C67.7139 9.39947 67.748 8.9831 67.8247 8.57319C67.9046 8.19374 68.022 7.82268 68.1751 7.46514C68.4406 6.85858 68.809 6.29975 69.2649 5.81199C69.6958 5.37305 70.1685 4.97483 70.6766 4.62268C70.6353 4.63639 70.5962 4.65574 70.5605 4.68016C70.4871 4.72575 70.3751 4.78522 70.2427 4.87838C69.8604 5.13365 69.508 5.42877 69.1916 5.75848C68.7175 6.24639 68.3336 6.81037 68.0569 7.4255C67.8966 7.79059 67.7745 8.17044 67.6923 8.55931C67.6105 8.97731 67.5744 9.40253 67.5843 9.82791C67.5991 10.6502 67.7604 11.4637 68.061 12.2323C68.2989 12.8678 68.6934 13.4368 69.2099 13.8894C69.5604 14.1881 69.9796 14.4002 70.4321 14.5079C70.5547 14.5363 70.6793 14.5556 70.8049 14.5654C70.8503 14.571 70.8962 14.5703 70.9414 14.5634Z" fill="#455A64"/>
<path d="M84.0709 23.4316L84.0179 23.3662C81.6998 20.9876 77.4321 20.1808 77.4321 20.1808C77.4321 20.1808 77.1714 21.7428 74.7839 21.9172C72.3965 22.0916 70.6344 19.7209 70.6344 19.7209L67.4424 20.157C67.4424 20.157 65.8372 20.3414 64.837 20.9122C62.584 22.2027 61.3882 26.6487 61.3882 26.6487L86 26.7458L84.0709 23.4316Z" fill="#455A64"/>
<path d="M86.3216 0L86.4927 0.0118934L86.6964 0.0237861C86.7799 0.0237861 86.8777 0.051537 86.9877 0.0673945C87.6431 0.174041 88.2608 0.438418 88.7844 0.836485C89.6274 1.47553 90.176 2.41344 90.3102 3.44505C90.3408 3.75795 90.3517 4.07239 90.3428 4.38659C90.3428 4.71365 90.3428 5.05062 90.3428 5.39949C90.3428 6.09524 90.3428 6.83459 90.3428 7.6136C90.3428 10.7355 90.3428 14.5116 90.3305 18.8169C90.3305 19.8939 90.3305 21.0033 90.3305 22.145C90.3305 22.4285 90.3305 22.7179 90.3142 23.0013C90.2917 23.2887 90.2385 23.5731 90.1554 23.8497C89.9763 24.4129 89.6685 24.9293 89.255 25.3602C89.0462 25.5787 88.8133 25.7742 88.5603 25.9429C88.301 26.11 88.0228 26.2477 87.7313 26.3532L87.5113 26.4325L87.2831 26.488C87.1304 26.5263 86.9752 26.5548 86.8187 26.5733C86.6618 26.597 86.5029 26.5931 86.344 26.603H81.8462V26.6506C81.8462 28.5832 81.8462 30.6486 81.8462 32.7676L81.9297 32.7319C80.8894 31.7765 79.8322 30.7907 78.758 29.7745C77.6906 28.7556 76.5987 27.7209 75.5578 26.6149L75.5415 26.599H61.1334C60.8685 26.599 60.6058 26.599 60.3491 26.5812C59.5768 26.5187 58.8401 26.2385 58.229 25.7749C57.6179 25.3112 57.159 24.6842 56.9085 23.9706C56.7497 23.5023 56.6759 23.0106 56.6905 22.5177V21.037C56.6905 17.1043 56.6905 13.3064 56.6905 9.69688C56.6905 7.89176 56.6905 6.13158 56.6905 4.41632C56.6734 3.99449 56.7007 3.57207 56.772 3.15565C56.8573 2.75178 57.0049 2.36282 57.21 2.00201C57.6275 1.29624 58.2604 0.734405 59.0209 0.394456C59.3894 0.230262 59.7818 0.122608 60.1841 0.0753235C60.5831 0.0422846 60.9836 0.0310341 61.3839 0.0416258H63.7286H68.1368L81.451 0.0198216L68.149 0.00396447H63.7408H61.3961C60.9925 -0.00642289 60.5885 0.00482619 60.1861 0.0376614C59.7745 0.0847813 59.3731 0.194476 58.9965 0.362741C58.2196 0.710182 57.5726 1.28363 57.1448 2.004C56.9287 2.37512 56.772 2.77618 56.6803 3.19331C56.6095 3.61578 56.5822 4.04408 56.5989 4.47182C56.5989 6.18972 56.5989 7.94991 56.5989 9.75238C56.5989 13.3659 56.5989 17.1598 56.5989 21.0925V22.5732C56.5838 23.0777 56.6596 23.5808 56.8229 24.0598C57.0797 24.7922 57.5505 25.4358 58.1775 25.9118C58.8045 26.3878 59.5606 26.6756 60.3532 26.7398C60.62 26.7576 60.8828 26.7576 61.1456 26.7556H75.517L75.4783 26.7398C76.5233 27.8478 77.6152 28.8825 78.6847 29.9113C79.7541 30.94 80.8175 31.8479 81.8584 32.8033L81.944 32.8826V32.7676C81.944 30.6486 81.944 28.5832 81.944 26.6506L81.8951 26.6961H86.3399C86.5029 26.6843 86.6659 26.6961 86.8248 26.6644C86.9848 26.6455 87.1433 26.6164 87.2994 26.5772L87.5337 26.5197L87.7659 26.4365C88.0631 26.328 88.3468 26.1871 88.6113 26.0163C88.8702 25.8435 89.1092 25.6442 89.3242 25.4216C89.7445 24.98 90.0578 24.4524 90.2409 23.8775C90.3251 23.5948 90.3797 23.3046 90.4039 23.0113C90.4141 22.7159 90.4141 22.4305 90.4141 22.147C90.4141 21.0053 90.4141 19.8959 90.4141 18.8189C90.4141 14.5136 90.4141 10.7375 90.4018 7.61558C90.4018 6.83658 90.4018 6.09722 90.4018 5.40147C90.4018 5.0526 90.4018 4.71563 90.4018 4.38857C90.4093 4.07231 90.3971 3.7559 90.3652 3.44108C90.2255 2.40017 89.6673 1.45564 88.8129 0.814681C88.287 0.418037 87.6671 0.156307 87.0101 0.0535192C86.9001 0.0396439 86.8064 0.0218037 86.7168 0.0158571L86.5131 0.00594633L86.3216 0Z" fill="#263238"/>
<path d="M71.5894 45.6411H91.2226C92.5063 45.6411 93.5469 46.6536 93.5469 47.9027V62.563C93.5469 63.8121 92.5063 64.8247 91.2226 64.8247H71.5894C70.3057 64.8247 69.2651 63.8121 69.2651 62.563V47.9027C69.2651 46.6536 70.3057 45.6411 71.5894 45.6411Z" fill="white"/>
<path d="M80.4336 64.238C80.1851 64.8326 75.3674 69.2291 75.3674 69.2291V64.238H80.4336Z" fill="#F5F5F5"/>
<path d="M77.0451 49.8968C77.1641 49.522 77.3587 49.1739 77.6176 48.8731C77.8764 48.5722 78.1942 48.3246 78.5525 48.1446C79.3613 47.7781 80.2759 47.6968 81.1396 47.9146C81.9952 48.1349 82.8084 48.4891 83.5474 48.9632C83.9824 49.1974 84.3686 49.5086 84.6861 49.881C85.23 50.5846 85.7515 51.7323 85.78 52.6124C85.8044 53.324 85.4724 55.0941 85.1444 55.7304C84.9702 55.9933 84.7201 56.2002 84.4253 56.3251C84.0738 56.9556 83.6096 57.5201 83.0544 57.9921C82.8996 57.5111 82.7441 57.0294 82.5879 56.5471L77.0451 49.8968Z" fill="#263238"/>
<path d="M77.4912 49.0368L78.9375 48.8267C78.0982 50.6265 77.7621 54.7891 77.2549 56.7039C76.7477 55.9407 75.5825 53.6255 75.6741 52.7197C75.7658 51.8138 75.7862 48.8346 77.4912 49.0368Z" fill="#263238"/>
<path d="M84.2239 52.26C84.2135 51.7479 84.0345 51.2526 83.7133 50.847C83.3921 50.4413 82.9456 50.1466 82.4394 50.0062L79.1495 49.0924C77.7236 48.8942 76.7173 50.589 76.5808 51.9845C76.4321 53.5345 76.3201 55.1738 76.4728 56.3453C76.7784 58.6882 78.6056 59.0411 78.6056 59.0411C78.6056 59.0411 78.573 60.1491 78.5547 60.825L79.0905 63.8756L83.4274 60.272L84.2422 52.2877C84.234 52.2481 84.2259 52.3135 84.2239 52.26Z" fill="#FFBF9D"/>
<path d="M77.3067 53.9251C77.3028 54.0028 77.3305 54.0789 77.3839 54.1368C77.4373 54.1947 77.512 54.2297 77.5918 54.2343C77.6309 54.2387 77.6704 54.2354 77.7081 54.2246C77.7458 54.2139 77.7809 54.1958 77.8113 54.1716C77.8417 54.1474 77.8668 54.1175 77.8851 54.0837C77.9034 54.0498 77.9145 54.0128 77.9178 53.9747C77.9206 53.897 77.8926 53.8213 77.8394 53.7633C77.7863 53.7053 77.7122 53.6695 77.6326 53.6635C77.5934 53.6594 77.5539 53.6629 77.5161 53.6739C77.4784 53.6849 77.4434 53.7031 77.413 53.7275C77.3826 53.7519 77.3576 53.7819 77.3393 53.8159C77.3211 53.8498 77.31 53.8869 77.3067 53.9251Z" fill="#263238"/>
<path d="M76.9163 52.908C76.953 52.9476 77.1913 52.7871 77.5274 52.799C77.8635 52.8109 78.0958 52.9774 78.1385 52.9377C78.1813 52.8981 78.1202 52.8505 78.0163 52.7712C77.876 52.6709 77.7075 52.6149 77.5335 52.6107C77.3618 52.6056 77.1928 52.6535 77.0508 52.7474C76.9346 52.8208 76.898 52.8901 76.9163 52.908Z" fill="#263238"/>
<path d="M80.2832 53.9251C80.2793 54.0028 80.3071 54.0789 80.3605 54.1368C80.4139 54.1947 80.4886 54.2297 80.5684 54.2343C80.6074 54.2387 80.647 54.2354 80.6847 54.2246C80.7224 54.2139 80.7575 54.1958 80.7879 54.1716C80.8183 54.1474 80.8433 54.1175 80.8616 54.0836C80.8799 54.0498 80.891 54.0128 80.8943 53.9747C80.8972 53.8967 80.8688 53.8207 80.8153 53.7626C80.7617 53.7046 80.6871 53.669 80.6071 53.6634C80.5681 53.6594 80.5286 53.6629 80.491 53.6739C80.4534 53.685 80.4185 53.7032 80.3883 53.7276C80.3581 53.752 80.3332 53.7821 80.3152 53.816C80.2971 53.8499 80.2863 53.887 80.2832 53.9251Z" fill="#263238"/>
<path d="M80.0561 52.9951C80.0948 53.0348 80.3311 52.8742 80.6672 52.8861C81.0033 52.898 81.2335 53.0645 81.2783 53.0249C81.3232 52.9852 81.26 52.9377 81.1561 52.8584C81.0158 52.7581 80.8474 52.7021 80.6733 52.6978C80.5016 52.6927 80.3326 52.7406 80.1906 52.8346C80.0765 52.9079 80.0276 52.9773 80.0561 52.9951Z" fill="#263238"/>
<path d="M78.9499 55.493C78.7765 55.436 78.5966 55.3994 78.4142 55.384C78.3307 55.3721 78.2512 55.3542 78.239 55.2968C78.2347 55.2118 78.2567 55.1276 78.3022 55.0549C78.3877 54.8567 78.4773 54.6585 78.5731 54.4365C78.9479 53.5564 79.2209 52.8309 79.1842 52.817C79.1475 52.8032 78.8155 53.5049 78.4407 54.3849L78.1799 55.0074C78.1244 55.1051 78.1057 55.2187 78.127 55.3285C78.1383 55.3578 78.1562 55.3842 78.1795 55.4059C78.2028 55.4275 78.2308 55.4437 78.2614 55.4533C78.3078 55.4669 78.3557 55.4749 78.404 55.4771C78.5845 55.5051 78.768 55.5105 78.9499 55.493Z" fill="#263238"/>
<path d="M81.8086 58.2916C81.8086 58.2916 80.9815 59.8773 78.5921 59.58L78.6002 59.0329C79.7197 59.0803 80.8305 58.8236 81.8086 58.2916Z" fill="#FF9A6C"/>
<path d="M80.1941 51.8359C80.2247 51.9231 80.5547 51.8934 80.9417 51.9489C81.3288 52.0044 81.6384 52.1194 81.6934 52.042C81.7178 52.0044 81.6649 51.9211 81.5406 51.8319C81.3751 51.7234 81.1864 51.6528 80.9888 51.6257C80.7912 51.5986 80.5898 51.6156 80.3999 51.6753C80.2552 51.7269 80.1819 51.7943 80.1941 51.8359Z" fill="#263238"/>
<path d="M77.0518 51.9267C77.1068 52.0021 77.337 51.9267 77.612 51.9366C77.887 51.9466 78.1151 52.0021 78.1722 51.9267C78.1966 51.8891 78.162 51.8157 78.0622 51.7444C77.929 51.6566 77.7718 51.6097 77.6109 51.6097C77.4501 51.6097 77.2929 51.6566 77.1597 51.7444C77.062 51.8157 77.0273 51.891 77.0518 51.9267Z" fill="#263238"/>
<path d="M77.2946 49.8734C77.3841 49.7046 77.5201 49.5632 77.6873 49.4652C77.8546 49.3672 78.0466 49.3164 78.2418 49.3184C78.6336 49.3284 79.0141 49.4481 79.3378 49.6633C80.7413 50.5057 81.4176 52.4641 82.8008 53.3343C83.1409 53.5464 83.5993 53.372 83.8865 53.6515C84.1737 53.931 84.351 54.367 84.1778 54.7238C84.3867 54.4846 84.5596 54.2176 84.6912 53.931C84.7555 53.7871 84.7875 53.6315 84.785 53.4746C84.7826 53.3176 84.7457 53.1631 84.6769 53.0211C84.5608 52.811 84.351 52.6485 84.298 52.4265C84.245 52.2045 84.3408 52.0122 84.3367 51.8041C84.3175 51.5931 84.2478 51.3894 84.133 51.2094C83.6312 50.2254 82.8636 49.3929 81.9126 48.8011C81.2849 48.4223 80.5631 48.2168 79.8246 48.2064C79.0839 48.2028 78.3663 48.4573 77.8018 48.924C77.4779 49.2015 77.1377 49.4889 77.2905 49.8814" fill="#263238"/>
<path d="M83.8439 53.9391C83.8724 53.8737 85.1354 53.4693 85.113 54.7617C85.0926 56.0184 83.797 55.735 83.797 55.6993C83.797 55.6636 83.8439 53.9391 83.8439 53.9391Z" fill="#FFBF9D"/>
<path d="M84.2074 55.2311C84.2074 55.2311 84.2298 55.2469 84.2665 55.2628C84.3208 55.2837 84.3813 55.2837 84.4356 55.2628C84.5195 55.2122 84.5883 55.1411 84.6351 55.0566C84.6819 54.9721 84.7051 54.8771 84.7024 54.7811C84.7065 54.6733 84.6871 54.5659 84.6454 54.466C84.6335 54.4267 84.6121 54.3907 84.5831 54.3611C84.554 54.3314 84.5181 54.3089 84.4784 54.2955C84.4529 54.2882 84.4256 54.29 84.4013 54.3006C84.3771 54.3111 84.3574 54.3297 84.346 54.353C84.3276 54.3887 84.3358 54.4124 84.3276 54.4144C84.3195 54.4164 84.3011 54.3946 84.3113 54.3411C84.3199 54.3104 84.3385 54.2833 84.3643 54.2638C84.4002 54.2386 84.4447 54.2279 84.4886 54.234C84.5413 54.2453 84.5903 54.2694 84.6309 54.3041C84.6715 54.3387 84.7024 54.3828 84.7208 54.4323C84.7736 54.5418 84.7981 54.6622 84.7921 54.7831C84.7962 54.8953 84.7661 55.0062 84.7055 55.1018C84.645 55.1974 84.5567 55.2734 84.4519 55.3203C84.4172 55.3288 84.3809 55.3298 84.3458 55.3233C84.3106 55.3168 84.2773 55.3029 84.2482 55.2826C84.2095 55.2608 84.2013 55.2331 84.2074 55.2311Z" fill="#FF9A6C"/>
<path d="M84.3789 53.3083C84.3523 53.2972 84.327 53.2832 84.3035 53.2667C84.2546 53.235 84.1813 53.1933 84.0998 53.1279C83.8513 52.9397 83.6239 52.7264 83.4215 52.4916C83.1286 52.1403 82.8565 51.773 82.6067 51.3915C82.3054 50.9247 81.9647 50.4832 81.5881 50.0714C81.3852 49.8651 81.1598 49.681 80.9159 49.5223C80.687 49.3779 80.4407 49.2614 80.1826 49.1754C79.7454 49.0255 79.2829 48.9583 78.8198 48.9772C78.5075 48.9873 78.1979 49.0373 77.899 49.1259C77.7931 49.1556 77.7136 49.1873 77.6586 49.2052L77.5731 49.2329L77.6546 49.1952C77.7322 49.1611 77.8118 49.1314 77.8929 49.1061C78.1919 49.0066 78.5041 48.9499 78.8198 48.9376C79.289 48.9163 79.758 48.9836 80.2009 49.1358C80.4635 49.2229 80.7139 49.3414 80.9465 49.4886C81.1953 49.6481 81.4249 49.8342 81.6309 50.0436C82.0092 50.4576 82.35 50.9026 82.6494 51.3737C82.9016 51.7549 83.1736 52.1234 83.4643 52.4778C83.6556 52.706 83.8683 52.9164 84.0998 53.1061C84.1854 53.1735 84.2587 53.2191 84.3035 53.2548L84.3789 53.3083Z" fill="white"/>
<path d="M84.0446 53.6634C84.0859 54.0006 84.0353 54.3424 83.898 54.6545C83.7248 54.9558 83.3093 55.152 83.0078 54.9717C82.7613 54.827 82.6961 54.5118 82.6615 54.2343C82.5617 53.4315 82.5311 52.6208 82.4252 51.818L84.0446 53.6634Z" fill="#263238"/>
<path d="M77.6296 49.2843C77.6296 49.2843 77.7437 49.2665 77.9515 49.2665C78.2436 49.2698 78.5323 49.3291 78.8009 49.4409C78.9864 49.5174 79.1632 49.6124 79.3285 49.7244C79.5174 49.8553 79.6977 49.9976 79.8683 50.1506C80.2642 50.496 80.6158 50.8866 80.9154 51.3141C81.0722 51.542 81.2108 51.7759 81.3635 51.994C81.5043 52.206 81.6705 52.4009 81.8585 52.5748C82.1855 52.8603 82.545 53.1083 82.93 53.3141C83.2539 53.4945 83.5269 53.6214 83.7143 53.7106L83.9323 53.8077C83.9574 53.8207 83.9841 53.8307 84.0117 53.8374C83.9891 53.8207 83.9645 53.8068 83.9384 53.7958L83.7347 53.6848C83.5513 53.5897 83.2825 53.4568 82.9626 53.2745C82.5861 53.0639 82.2344 52.814 81.9135 52.5292C81.7287 52.3583 81.5652 52.1666 81.4267 51.9583C81.278 51.7423 81.1395 51.5084 80.9806 51.2764C80.6758 50.8416 80.3173 50.4448 79.9132 50.0951C79.7386 49.9432 79.555 49.8015 79.3631 49.6709C79.1938 49.5578 79.0121 49.4634 78.8213 49.3894C78.5456 49.2791 78.2494 49.2257 77.9515 49.2328C77.8708 49.2356 77.7904 49.2442 77.7111 49.2586C77.683 49.264 77.6556 49.2727 77.6296 49.2843Z" fill="#455A64"/>
<path d="M84.0982 52.88C84.1323 52.9099 84.1699 52.9359 84.2103 52.9573L84.5321 53.1555L84.6401 53.2189C84.6826 53.2454 84.7306 53.2623 84.7806 53.2685C84.8108 53.2737 84.842 53.2681 84.8682 53.2526C84.8824 53.2432 84.8943 53.2308 84.9031 53.2165C84.9119 53.2021 84.9174 53.186 84.9191 53.1694C84.9175 53.1114 84.8975 53.0554 84.8621 53.0088L84.4995 52.4142L84.4466 52.4597C84.5696 52.5515 84.7072 52.6232 84.854 52.6718C85.0023 52.7195 85.1581 52.7417 85.3143 52.7372C85.3543 52.7376 85.3941 52.7323 85.4325 52.7214C85.4549 52.716 85.4757 52.7057 85.4934 52.6913C85.511 52.6769 85.525 52.6587 85.5343 52.6381C85.5421 52.6172 85.5447 52.5949 85.5419 52.5728C85.539 52.5508 85.5309 52.5297 85.518 52.5113C85.4963 52.4826 85.4725 52.4554 85.4467 52.43C85.2817 52.2658 85.1405 52.0804 85.0271 51.879C84.9244 51.6874 84.8365 51.4886 84.7643 51.2843C84.7679 51.3417 84.7795 51.3984 84.799 51.4528C84.8444 51.6049 84.9051 51.7523 84.9803 51.8928C85.0918 52.1049 85.2337 52.3005 85.4019 52.4736C85.4488 52.5192 85.4956 52.5727 85.4753 52.6104C85.4549 52.648 85.3836 52.6679 85.3164 52.6659C85.1684 52.67 85.0208 52.6485 84.8804 52.6025C84.7407 52.5585 84.6098 52.4914 84.4934 52.4042L84.3427 52.2913L84.4404 52.4498L84.8112 53.0445C84.84 53.0805 84.8577 53.1239 84.8621 53.1694C84.8621 53.205 84.8275 53.2249 84.7867 53.2209C84.7043 53.2013 84.6262 53.167 84.5566 53.1198L84.2245 52.9434C84.1858 52.9164 84.1433 52.895 84.0982 52.88Z" fill="white"/>
<path d="M80.1858 56.1213C80.1648 56.0251 80.1096 55.9391 80.0298 55.8786C79.9501 55.818 79.851 55.7868 79.7499 55.7903C79.6759 55.7974 79.6049 55.822 79.5431 55.8621C79.4813 55.9022 79.4306 55.9565 79.3954 56.0202C79.3618 56.0848 79.3418 56.1552 79.3366 56.2274C79.3313 56.2995 79.341 56.372 79.3649 56.4405V56.4702C79.4311 56.5444 79.5194 56.5969 79.6175 56.6203C79.7156 56.6437 79.8188 56.637 79.9128 56.601C80.0067 56.5621 80.0846 56.4937 80.134 56.4068C80.1835 56.3199 80.2017 56.2195 80.1858 56.1213Z" fill="#FF9A6C"/>
<path d="M79.1334 56.4702C79.1334 56.4226 79.4674 56.4464 79.7282 56.1867C79.9889 55.9271 79.9787 55.5782 80.0256 55.5782C80.0724 55.5782 80.0826 55.6614 80.0765 55.8081C80.0628 55.9982 79.9814 56.1776 79.8463 56.3156C79.7162 56.4486 79.5379 56.5268 79.3493 56.5336C79.2128 56.5356 79.1293 56.492 79.1334 56.4702Z" fill="#263238"/>
<path d="M73.7978 62.51L73.8345 62.4624C75.5048 60.7439 78.5767 60.169 78.5767 60.169C78.5767 60.169 78.7641 61.2929 80.4855 61.4198C82.2068 61.5467 83.4738 59.834 83.4738 59.834L85.7696 60.1472C85.7696 60.1472 86.9266 60.28 87.6478 60.6923C89.2774 61.62 90.1289 64.8212 90.1289 64.8212L72.4065 64.8906L73.7978 62.51Z" fill="#F5F5F5"/>
<path d="M72.1748 45.6416C72.1748 45.6416 72.1341 45.6416 72.0526 45.6416C71.9297 45.6424 71.807 45.653 71.6859 45.6733C71.2127 45.7478 70.7661 45.9358 70.3863 46.2204C69.7708 46.6828 69.3681 47.3632 69.2659 48.1133C69.2425 48.3405 69.2337 48.5689 69.2394 48.7972C69.2394 49.0311 69.2394 49.2749 69.2394 49.5247C69.2394 50.0262 69.2394 50.5594 69.2394 51.1203C69.2394 53.3662 69.2394 56.0857 69.2272 59.1839C69.2272 59.9583 69.2272 60.7571 69.2272 61.5803C69.2272 61.7786 69.2272 61.9907 69.2272 62.2028C69.2432 62.4151 69.2829 62.6251 69.3453 62.8291C69.4761 63.2452 69.7025 63.6268 70.0074 63.9451C70.3171 64.2748 70.7033 64.5276 71.1339 64.6825L71.2968 64.74L71.4659 64.7816C71.5785 64.8096 71.6928 64.8308 71.8081 64.845C72.0404 64.8657 72.2737 64.8737 72.5068 64.8688H75.3587L75.3119 64.8212C75.3119 66.2088 75.3119 67.7014 75.3119 69.2257V69.3386L75.3974 69.2613C76.1471 68.5768 76.9089 67.8705 77.683 67.1424C78.453 66.409 79.2393 65.6637 79.993 64.8648L79.9543 64.8827H90.3087C90.4982 64.8827 90.6876 64.8827 90.8811 64.8708C91.4545 64.8242 92.0014 64.616 92.4551 64.2717C92.9088 63.9274 93.2495 63.462 93.4356 62.9322C93.553 62.5859 93.6081 62.2224 93.5986 61.8579V60.7914C93.5986 57.9589 93.5986 55.2294 93.5986 52.6268C93.5986 51.3265 93.5986 50.0599 93.5986 48.8269C93.6098 48.5178 93.5893 48.2084 93.5375 47.9032C93.4714 47.6036 93.3588 47.3155 93.2034 47.0489C92.8937 46.5272 92.4254 46.1116 91.863 45.8596C91.5905 45.7391 91.3006 45.6602 91.0034 45.6257C90.7135 45.6011 90.4223 45.5931 90.1315 45.6019H85.2629L75.6887 45.6178L73.0854 45.6277L75.6887 45.6376L85.2629 45.6534H88.4367H90.1254C90.4129 45.6471 90.7005 45.6557 90.9871 45.6792C91.4284 45.734 91.8507 45.8878 92.2205 46.1286C92.5903 46.3694 92.8975 46.6906 93.1178 47.0667C93.2698 47.3317 93.3791 47.6178 93.4417 47.9151C93.4927 48.2144 93.5118 48.5179 93.4988 48.821C93.4988 50.0513 93.4988 51.3179 93.4988 52.6208C93.4988 55.2235 93.4988 57.9529 93.4988 60.7855V61.8519C93.5102 62.2051 93.4571 62.5574 93.3419 62.8926C93.1024 63.5743 92.5998 64.1387 91.9404 64.4664C91.6083 64.6331 91.2455 64.7342 90.873 64.7637C90.6896 64.7756 90.5002 64.7776 90.3087 64.7756H79.9319L79.9156 64.7935C79.166 65.5864 78.3797 66.3336 77.6117 67.067C76.8437 67.8005 76.0778 68.5081 75.3282 69.1959L75.4137 69.2316C75.4137 67.7073 75.4137 66.2187 75.4137 64.8272V64.7796H72.513C72.2839 64.7863 72.0546 64.779 71.8265 64.7578C71.7144 64.7454 71.6034 64.7248 71.4944 64.6964L71.3294 64.6567L71.1726 64.6012C70.7545 64.4519 70.3794 64.2072 70.0787 63.8876C69.7831 63.5794 69.563 63.2101 69.435 62.8073C69.3743 62.609 69.3354 62.405 69.3188 62.1988C69.3046 62.0006 69.3087 61.7865 69.3087 61.5823C69.3087 60.7604 69.3087 59.9616 69.3087 59.1859C69.3087 56.0877 69.3087 53.3681 69.2964 51.1223C69.2964 50.5613 69.2964 50.0281 69.2964 49.5266V48.7992C69.2893 48.573 69.2968 48.3466 69.3188 48.1213C69.3965 47.522 69.6695 46.9627 70.0977 46.5253C70.5258 46.088 71.0867 45.7956 71.6981 45.6911C71.8176 45.6679 71.9389 45.6547 72.0607 45.6515L72.1748 45.6416Z" fill="#263238"/>
<path d="M34.3967 85L59.8111 84.9822C62.8667 84.9822 65.3438 82.6828 65.3438 79.8483L65.3315 20.7592C65.3315 17.9227 62.8504 15.6233 59.7907 15.6253L34.3743 15.6392C31.3187 15.6392 28.8417 17.9385 28.8417 20.7731L28.8539 79.8602C28.8559 82.7046 31.3411 85.002 34.3967 85Z" fill="#263238"/>
<path d="M34.3942 17.7364H39.328C39.4847 17.7361 39.64 17.7659 39.7849 17.824C39.9299 17.8822 40.0616 17.9675 40.1727 18.0752C40.2837 18.1829 40.3718 18.3108 40.4321 18.4516C40.4923 18.5924 40.5235 18.7434 40.5237 18.8959V19.7245C40.524 19.8772 40.5552 20.0284 40.6156 20.1693C40.6759 20.3103 40.7643 20.4383 40.8755 20.546C40.9868 20.6537 41.1188 20.739 41.2639 20.797C41.4091 20.855 41.5646 20.8846 41.7215 20.8841H51.3263C51.483 20.8843 51.6383 20.8546 51.7832 20.7964C51.9282 20.7383 52.0599 20.6529 52.1709 20.5453C52.282 20.4376 52.3701 20.3097 52.4304 20.1689C52.4906 20.028 52.5217 19.877 52.522 19.7245V18.894C52.5223 18.7413 52.5535 18.5901 52.6139 18.4491C52.6742 18.3082 52.7625 18.1802 52.8738 18.0725C52.9851 17.9648 53.117 17.8795 53.2622 17.8215C53.4074 17.7635 53.5629 17.7339 53.7198 17.7344H59.7658C61.9068 17.7344 63.6362 19.3439 63.6362 21.3301L63.6484 79.0118C63.6484 80.994 61.9149 82.6075 59.778 82.6075L34.4125 82.6214C32.2696 82.6214 30.5421 81.0138 30.5319 79.0277L30.5197 21.3459C30.5238 19.3479 32.2594 17.7383 34.3942 17.7364Z" fill="white"/>
<path d="M47.9351 32.1135C47.5765 32.0885 47.2403 31.9345 46.992 31.6814C46.7438 31.4283 46.6014 31.0943 46.5925 30.7446C46.5836 30.3949 46.7088 30.0544 46.9439 29.7897C47.1789 29.525 47.5069 29.3549 47.8638 29.3127C47.6902 29.0561 47.604 28.7528 47.6174 28.4459C47.6309 28.139 47.7433 27.8439 47.9387 27.6027C48.1341 27.3614 48.4027 27.1861 48.7062 27.1017C49.0098 27.0172 49.333 27.0279 49.6299 27.1323C49.7011 26.8375 49.8496 26.5657 50.0609 26.3434C50.2722 26.1211 50.5391 25.9558 50.8356 25.8638C51.1321 25.7717 51.448 25.756 51.7526 25.8182C52.0572 25.8804 52.34 26.0183 52.5735 26.2185C52.9719 26.0118 53.4295 25.9397 53.8746 26.0137C54.3196 26.0876 54.7268 26.3032 55.0322 26.6268C55.3432 26.6259 55.6461 26.723 55.8956 26.9036C56.1452 27.0841 56.328 27.3384 56.4167 27.6284C56.5054 27.9184 56.4953 28.2285 56.3878 28.5125C56.2804 28.7964 56.0814 29.0389 55.8206 29.2037" fill="#263238"/>
<path d="M47.6906 32.2681C48.1005 30.8196 49.0563 29.5745 50.3674 28.781C51.6786 27.9875 53.2488 27.7038 54.7653 27.9866L55.077 28.044C58.4055 28.8607 59.5585 32.0659 58.6255 35.283L56.2951 46.9581L49.4363 52.1118L47.6621 47.8124L48.3608 43.9273C48.3608 43.9273 45.2196 42.8371 45.7961 39.6815C46.0671 38.1532 46.9022 35.059 47.6906 32.2681Z" fill="#C17560"/>
<path d="M48.3271 43.9135C49.8316 44.1933 51.3871 44.0467 52.8086 43.4913C52.8086 43.4913 51.4051 45.6419 48.2313 44.7599L48.3271 43.9135Z" fill="#7C4236"/>
<path d="M47.9804 35.2889C47.9561 35.406 47.9797 35.5278 48.0463 35.6281C48.1129 35.7285 48.2172 35.7995 48.3369 35.8261C48.3948 35.8416 48.4553 35.8456 48.5149 35.838C48.5744 35.8303 48.6318 35.8112 48.6836 35.7816C48.7355 35.752 48.7807 35.7127 48.8166 35.6659C48.8526 35.6191 48.8786 35.5657 48.893 35.509C48.9173 35.3919 48.8937 35.2702 48.8271 35.1698C48.7605 35.0694 48.6562 34.9984 48.5365 34.9718C48.4786 34.9563 48.4181 34.9523 48.3585 34.9599C48.299 34.9676 48.2416 34.9867 48.1898 35.0163C48.1379 35.0459 48.0927 35.0852 48.0568 35.132C48.0208 35.1789 47.9948 35.2322 47.9804 35.2889Z" fill="#263238"/>
<path d="M48.0852 33.9391C48.1301 34.0065 48.5293 33.8201 49.0264 33.9133C49.5234 34.0065 49.8412 34.3097 49.9064 34.2681C49.939 34.2463 49.9064 34.1294 49.7638 33.9866C49.5767 33.8019 49.3355 33.6779 49.0732 33.6318C48.8149 33.582 48.547 33.6147 48.3093 33.725C48.1341 33.8102 48.0608 33.9074 48.0852 33.9391Z" fill="#263238"/>
<path d="M52.4922 36.2205C52.4685 36.3376 52.4927 36.459 52.5597 36.559C52.6266 36.659 52.731 36.7295 52.8507 36.7557C52.9085 36.7712 52.9689 36.7752 53.0283 36.7675C53.0877 36.7598 53.1449 36.7406 53.1966 36.7111C53.2483 36.6815 53.2933 36.6422 53.3291 36.5953C53.3648 36.5485 53.3906 36.4952 53.4048 36.4386C53.4291 36.3217 53.4053 36.2003 53.3387 36.1002C53.2721 36.0002 53.1678 35.9295 53.0483 35.9034C52.9903 35.8879 52.9298 35.8839 52.8703 35.8915C52.8107 35.8992 52.7533 35.9183 52.7015 35.9479C52.6497 35.9774 52.6045 36.0168 52.5685 36.0636C52.5326 36.1104 52.5066 36.1638 52.4922 36.2205Z" fill="#263238"/>
<path d="M52.9572 34.9338C53.002 35.0032 53.4012 34.8149 53.8983 34.908C54.3953 35.0012 54.7131 35.3045 54.7783 35.2628C54.8089 35.241 54.7783 35.1241 54.6357 34.9834C54.4494 34.8019 54.2106 34.6802 53.9513 34.6345C53.6929 34.5861 53.4254 34.6187 53.1874 34.7277C53.0061 34.805 52.9327 34.9021 52.9572 34.9338Z" fill="#263238"/>
<path d="M50.4492 38.1886C50.4492 38.1609 50.1579 38.0518 49.669 37.8953C49.5447 37.8596 49.4286 37.814 49.4246 37.7248C49.4391 37.5951 49.4938 37.4727 49.5814 37.3739L50.1396 36.5038C50.9238 35.2609 51.5166 34.2282 51.4657 34.1985C51.4148 34.1687 50.7364 35.1519 49.9522 36.3947L49.4083 37.2728C49.2994 37.4076 49.2424 37.5752 49.2473 37.7466C49.2573 37.7936 49.2781 37.8378 49.3081 37.8758C49.3381 37.9139 49.3765 37.945 49.4205 37.9666C49.4854 37.997 49.5538 38.0196 49.6242 38.034C50.1294 38.1549 50.4411 38.2144 50.4492 38.1886Z" fill="#263238"/>
<path d="M53.1349 33.2593C53.1757 33.3941 53.6279 33.3405 54.1534 33.4198C54.679 33.4991 55.1068 33.6676 55.172 33.5487C55.2046 33.4912 55.1333 33.3643 54.9683 33.2315C54.748 33.0671 54.4876 32.9612 54.2125 32.9243C53.9419 32.8834 53.6651 32.9128 53.4099 33.0095C53.2083 33.0928 53.1084 33.1958 53.1349 33.2593Z" fill="#263238"/>
<path d="M48.3594 32.2142C48.4429 32.343 48.8748 32.3054 49.378 32.3906C49.8811 32.4758 50.2743 32.6344 50.3965 32.5373C50.4494 32.4877 50.4067 32.3668 50.2437 32.228C50.0172 32.0518 49.7465 31.9375 49.4594 31.897C49.1756 31.8452 48.8825 31.8699 48.612 31.9684C48.4022 32.0576 48.3228 32.1507 48.3594 32.2142Z" fill="#263238"/>
<path d="M57.4968 38.2502C57.5233 38.1352 57.5735 38.0267 57.6444 37.9313C57.7153 37.8358 57.8054 37.7553 57.9092 37.6947C58.013 37.6341 58.1284 37.5946 58.2483 37.5787C58.3682 37.5627 58.4903 37.5707 58.607 37.602C59.1997 37.7705 59.8068 38.2283 59.5277 39.4335C59.0368 41.5723 56.9305 40.6506 56.9406 40.5891C56.9508 40.5277 57.2829 39.1441 57.4968 38.2502Z" fill="#C17560"/>
<path d="M57.6054 39.8872C57.6156 39.8872 57.638 39.9229 57.695 39.9645C57.7771 40.023 57.8795 40.0479 57.9802 40.0339C58.2328 40.0002 58.5098 39.685 58.6096 39.3024C58.6579 39.1203 58.6627 38.9298 58.6239 38.7455C58.619 38.6741 58.5962 38.605 58.5575 38.5442C58.5188 38.4833 58.4653 38.4327 58.4019 38.3966C58.3606 38.3765 58.3135 38.3707 58.2683 38.38C58.2232 38.3894 58.1826 38.4134 58.1533 38.4481C58.1106 38.5016 58.1146 38.5472 58.1004 38.5492C58.0861 38.5512 58.0617 38.5036 58.1004 38.4184C58.1252 38.3681 58.1669 38.3276 58.2185 38.3034C58.254 38.289 58.2921 38.2816 58.3306 38.2816C58.369 38.2816 58.4071 38.289 58.4426 38.3034C58.5289 38.3403 58.604 38.3981 58.6607 38.4714C58.7174 38.5446 58.7539 38.6308 58.7665 38.7217C58.8174 38.9268 58.8174 39.1409 58.7665 39.3461C58.6524 39.7742 58.3326 40.1389 57.9945 40.1488C57.9315 40.1527 57.8684 40.1428 57.8099 40.1198C57.7513 40.0969 57.6989 40.0614 57.6563 40.016C57.5972 39.9407 57.5972 39.8912 57.6054 39.8872Z" fill="#7C4236"/>
<path d="M50.4052 28.1308C50.4358 28.0808 50.472 28.0343 50.5131 27.992C50.6705 27.8367 50.8628 27.719 51.075 27.6485C51.2871 27.578 51.5132 27.5565 51.7354 27.5857C52.0094 27.5066 52.2893 27.4482 52.5726 27.4113C52.7877 27.1631 53.0644 26.9726 53.3764 26.8576C53.6885 26.7427 54.0255 26.7071 54.3555 26.7544C54.6856 26.8016 54.9978 26.9301 55.2626 27.1276C55.5274 27.3251 55.736 27.5851 55.8686 27.883C55.9582 27.9128 56.0458 27.9445 56.1334 27.9782C56.4093 27.8494 56.712 27.7839 57.0181 27.7868C57.3241 27.7898 57.6254 27.861 57.8987 27.995C58.172 28.129 58.4101 28.3223 58.5946 28.5599C58.7791 28.7976 58.9051 29.0732 58.9629 29.3657C59.2481 29.3444 59.5335 29.4056 59.7831 29.5416C60.0328 29.6776 60.2356 29.8822 60.3662 30.13C60.4967 30.3777 60.5492 30.6574 60.517 30.934C60.4848 31.2107 60.3693 31.4719 60.1851 31.6849C60.5395 31.9802 60.7962 32.4282 60.727 32.8742C60.6577 33.3202 60.1769 33.6334 59.7716 33.5065C59.6473 34.5531 59.2969 35.7464 59.0321 36.8068C58.8447 37.5541 57.7712 37.8197 57.6062 38.3193C56.7506 40.8664 56.1558 39.2608 56.8769 33.7919C56.8301 33.7384 56.7812 33.6829 56.7343 33.6234C56.666 33.4954 56.6067 33.363 56.5571 33.227C56.4634 33.0665 56.2312 33.0684 56.0417 33.0526C55.7138 33.0168 55.4086 32.8723 55.1772 32.6435C54.9457 32.4147 54.8022 32.1154 54.7706 31.7959C54.5669 31.9941 54.1778 31.9227 53.9558 31.7205C53.761 31.4981 53.5998 31.2498 53.4771 30.9832C53.3243 30.7295 53.09 30.4856 52.7906 30.4718C52.6239 30.4951 52.4551 30.4998 52.2874 30.4856C52.0022 30.4083 51.9248 30.0496 51.937 29.7621C51.9734 29.5191 51.941 29.2711 51.8433 29.0446C51.684 28.927 51.5038 28.839 51.3117 28.7849C51.1996 28.7849 51.0835 28.7849 50.9735 28.773C50.9208 28.7702 50.8684 28.7636 50.8167 28.7532C50.7439 28.7629 50.6718 28.7768 50.6007 28.7948C49.5333 29.0743 48.2948 30.888 48.2948 30.888C48.4496 29.6194 49.3622 28.7076 50.4052 28.1308Z" fill="#263238"/>
<path d="M60.4414 31.8421C60.4414 31.8421 60.4414 31.8302 60.4271 31.8064C60.4129 31.7826 60.4007 31.7509 60.3742 31.7093C60.2939 31.591 60.1933 31.487 60.0768 31.402C59.8913 31.2678 59.6754 31.1788 59.4473 31.1424C59.1454 31.0911 58.8345 31.143 58.5673 31.289L58.6243 31.3188C58.6045 31.0742 58.5314 30.8365 58.4099 30.6215C58.2884 30.4065 58.1212 30.2192 57.9195 30.072C57.697 29.9002 57.4434 29.7705 57.1719 29.6894C56.8849 29.6086 56.5862 29.5745 56.2878 29.5883C55.7287 29.6213 55.1808 29.7557 54.6724 29.9848L54.7336 30.0165C54.6336 29.5315 54.3482 29.1014 53.935 28.8133C53.6674 28.6303 53.3565 28.5162 53.0313 28.4815C52.7061 28.4468 52.3772 28.4928 52.0752 28.6151C52.0122 28.6402 51.9509 28.6693 51.8919 28.7023C51.8532 28.7261 51.8328 28.7399 51.8348 28.7419C51.8369 28.7439 51.9204 28.7003 52.0854 28.6408C52.3222 28.5573 52.573 28.5176 52.8248 28.5239C53.2089 28.5315 53.5814 28.6532 53.8923 28.8727C54.2846 29.1535 54.5543 29.5673 54.648 30.0323L54.6582 30.0858L54.7091 30.064C55.2075 29.8391 55.7439 29.7047 56.2919 29.6676C56.5799 29.6552 56.8681 29.688 57.1454 29.7647C57.4068 29.8406 57.6509 29.9644 57.8645 30.1295C58.0588 30.2693 58.2204 30.4476 58.3387 30.6526C58.457 30.8576 58.5294 31.0846 58.551 31.3188V31.3782L58.604 31.3485C58.8554 31.2059 59.1496 31.152 59.4371 31.1959C59.6572 31.2263 59.8666 31.3072 60.0483 31.4318C60.2059 31.5419 60.3395 31.6814 60.4414 31.8421Z" fill="#455A64"/>
<path d="M51.8416 28.8962C51.8464 28.9272 51.8539 28.9577 51.864 28.9874C51.8824 29.0743 51.894 29.1624 51.8986 29.2511C51.8986 29.368 51.8986 29.5107 51.9129 29.6792C51.9078 29.8745 51.946 30.0685 52.0249 30.2481C52.0541 30.301 52.0938 30.3476 52.1417 30.3854C52.1896 30.4232 52.2448 30.4513 52.304 30.4681C52.4288 30.4973 52.5566 30.5126 52.6849 30.5137C52.8148 30.514 52.9425 30.5467 53.0557 30.6089C53.1678 30.6905 53.2614 30.7937 53.3307 30.9121C53.4081 31.033 53.4773 31.1658 53.5527 31.3086C53.6201 31.4528 53.7094 31.5865 53.8175 31.705C53.9453 31.8232 54.1015 31.9083 54.2718 31.9528C54.3596 31.9784 54.4512 31.9891 54.5427 31.9845C54.6432 31.983 54.739 31.9431 54.8096 31.8735L54.7322 31.8457C54.7383 32.1177 54.8388 32.3797 55.0174 32.5891C55.2066 32.8042 55.4534 32.964 55.7303 33.0509C55.8453 33.0865 55.9632 33.1124 56.0827 33.1282C56.1932 33.1247 56.3031 33.145 56.4046 33.1877C56.4971 33.2381 56.569 33.3178 56.6083 33.4137C56.6593 33.5133 56.7186 33.6088 56.7855 33.6991C57.0237 34.0629 57.3938 34.3262 57.8224 34.4365C58.2143 34.4912 58.6133 34.4052 58.9448 34.1946C59.2298 34.0199 59.4541 33.7657 59.5885 33.4652L59.5457 33.481C59.6659 33.5296 59.7955 33.5517 59.9254 33.5459C60.0554 33.5401 60.1824 33.5064 60.2974 33.4473C60.47 33.3575 60.6048 33.2116 60.6783 33.0351C60.7249 32.9266 60.7464 32.8096 60.7415 32.6921C60.7413 32.6621 60.7379 32.6322 60.7313 32.6029C60.7313 32.5831 60.7313 32.5732 60.7313 32.5732C60.7437 32.7271 60.7171 32.8816 60.6539 33.0232C60.5794 33.188 60.4483 33.3225 60.2832 33.4037C60.1746 33.4566 60.0556 33.4859 59.9342 33.4897C59.8129 33.4935 59.6922 33.4716 59.5804 33.4255L59.5498 33.4137L59.5376 33.4414C59.4041 33.7271 59.1864 33.9679 58.9122 34.1332C58.5962 34.3297 58.2178 34.4085 57.8468 34.3552C57.4421 34.2487 57.0928 33.9992 56.867 33.6555C56.8022 33.5691 56.7449 33.4776 56.6959 33.3819C56.648 33.2701 56.5635 33.1767 56.4555 33.1163C56.3999 33.0869 56.3391 33.0681 56.2763 33.0608L56.1031 33.0469C55.9896 33.032 55.8778 33.0067 55.769 32.9716C55.5079 32.8914 55.2751 32.7417 55.0968 32.5395C54.9298 32.3458 54.8357 32.1025 54.8299 31.8497V31.7466L54.7566 31.822C54.6933 31.8682 54.6188 31.8978 54.5403 31.9079C54.4618 31.918 54.3819 31.9082 54.3085 31.8794C54.1521 31.8392 54.0085 31.7615 53.8909 31.6535C53.7818 31.5386 53.6924 31.4074 53.626 31.265C53.5486 31.1302 53.4773 30.9974 53.3959 30.8685C53.3201 30.7418 53.2181 30.6318 53.0964 30.5454C52.972 30.4776 52.8315 30.4428 52.689 30.4443C52.5657 30.444 52.4427 30.4307 52.3223 30.4047C52.2707 30.3909 52.2223 30.3674 52.18 30.3354C52.1377 30.3034 52.1023 30.2637 52.0758 30.2184C51.9966 30.0471 51.9563 29.8611 51.9577 29.6733C51.9475 29.5068 51.9414 29.3621 51.9292 29.2451C51.9207 29.1552 51.9037 29.0663 51.8782 28.9795C51.8695 28.9504 51.8572 28.9224 51.8416 28.8962Z" fill="#455A64"/>
<path d="M51.8337 39.3203C51.9254 39.9149 51.6626 40.4838 51.0881 40.688C50.9763 40.7217 50.8588 40.7336 50.7422 40.723C50.6257 40.7125 50.5124 40.6796 50.4089 40.6264C50.3054 40.5732 50.2137 40.5007 50.139 40.4129C50.0644 40.3252 50.0083 40.224 49.9739 40.1151C49.9082 39.872 49.9033 39.6171 49.9596 39.3718C50.4872 39.3421 51.302 39.35 51.8337 39.3203Z" fill="#7C4236"/>
<path d="M50.0818 40.3555C50.0818 40.3555 50.0818 40.3713 50.1042 40.3971C50.1295 40.435 50.1596 40.4696 50.1938 40.5002C50.319 40.6163 50.4773 40.693 50.6481 40.7202C50.9053 40.7585 51.1681 40.7065 51.3896 40.5735C51.5218 40.488 51.6344 40.3767 51.7203 40.2467C51.8062 40.1167 51.8635 39.9709 51.8886 39.8183C51.9008 39.7383 51.9049 39.6573 51.9009 39.5765C51.9005 39.4918 51.878 39.4086 51.8357 39.3347C51.8092 39.2949 51.7697 39.2648 51.7236 39.2494C51.6829 39.2368 51.6401 39.2314 51.5973 39.2336H51.3814C51.1023 39.2474 50.8518 39.2732 50.642 39.295C50.2244 39.3386 49.9636 39.3505 49.9636 39.3664C50.191 39.3923 50.4207 39.3923 50.6481 39.3664C50.8518 39.3545 51.1084 39.3347 51.3855 39.3267H51.5892C51.6605 39.3267 51.7114 39.3366 51.742 39.3842C51.772 39.4462 51.7873 39.5139 51.7868 39.5824C51.7961 39.7598 51.759 39.9365 51.6788 40.096C51.5986 40.2555 51.4781 40.3926 51.3284 40.4942C51.1274 40.6185 50.8889 40.6723 50.6521 40.6469C50.491 40.6294 50.3384 40.5675 50.2121 40.4685C50.1266 40.4011 50.0818 40.3476 50.0818 40.3555Z" fill="#263238"/>
<path d="M37.7773 33.515C37.7773 33.515 35.1964 33.2018 31.3178 30.1988C27.4393 27.1958 25.337 22.9281 24.9052 22.9915C24.4733 23.055 22.4872 22.3672 19.6088 30.3534C16.7304 38.3396 18.3316 39.9869 19.0486 39.9056C19.7657 39.8243 24.5242 38.0522 27.6043 38.1117C30.6843 38.1712 34.7605 39.3565 34.7605 39.3565L37.7773 33.515Z" fill="#F5F5F5"/>
<path d="M42.4194 39.4771L41.0403 39.1917L41.7879 37.4255L42.9531 37.9924L42.4194 39.4771Z" fill="#455A64"/>
<path d="M42.2598 37.378L41.7505 38.8686L41.4328 39.6178C41.2256 40.1157 40.8296 40.5169 40.3267 40.7383C39.8238 40.9597 39.2527 40.9844 38.7316 40.8072L33.1358 39.2749L35.5395 32.3809L41.1007 34.6624C41.6224 34.8754 42.0366 35.2801 42.2536 35.7885C42.4706 36.2968 42.4728 36.868 42.2598 37.378Z" fill="#263238"/>
<path d="M40.2539 39.6692L38.3798 42.9022L37.5242 42.6346L31.6718 46.8844L30.2193 43.808C30.2193 43.808 33.6253 42.5414 34.2935 41.4056C34.9616 40.2698 34.2568 39.9784 34.2568 39.9784L35.9048 38.3015L40.2539 39.6692Z" fill="#263238"/>
<path d="M19.9163 30.472C18.3946 34.7951 17.9506 38.5633 18.9263 38.8884C19.9021 39.2134 21.9289 35.9745 23.4527 31.6514C24.9764 27.3282 25.4184 23.5601 24.4427 23.233C23.4669 22.906 21.4401 26.1429 19.9163 30.472Z" fill="#263238"/>
<path d="M23.7539 29.1839C23.7539 29.1839 21.4276 28.06 20.5048 31.059C19.582 34.0581 21.9409 34.3217 21.9409 34.3217C22.7901 32.7004 23.4004 30.9708 23.7539 29.1839Z" fill="#4F0DA3"/>
<path d="M25.7556 25.5263C25.7629 25.7139 25.752 25.9017 25.723 26.0873C25.6884 26.446 25.6395 26.9674 25.56 27.6096C25.4962 27.9281 25.4283 28.2743 25.3563 28.6483C25.3176 28.8346 25.2789 29.0288 25.2402 29.2271C25.2198 29.3262 25.1995 29.4273 25.1791 29.5303C25.1547 29.6314 25.1221 29.7285 25.0935 29.8356L24.7167 31.126L24.6189 31.463C24.5863 31.5779 24.5354 31.687 24.4947 31.7999C24.4091 32.0259 24.3215 32.2539 24.2319 32.4858L23.967 33.1716C23.9222 33.2826 23.8856 33.3976 23.8326 33.5046L23.6798 33.8238L23.0911 35.0388C23.0422 35.134 22.9994 35.2371 22.9485 35.3223L22.7896 35.5899L22.4861 36.1033L21.9402 37.0171C21.5674 37.5523 21.2537 37.9745 21.0378 38.2678C20.934 38.4262 20.8153 38.5748 20.6833 38.7118C20.7667 38.5428 20.8648 38.3809 20.9766 38.2282L21.8281 36.9457L22.3496 36.022L22.6409 35.5126C22.6919 35.4234 22.7428 35.3342 22.7957 35.245C22.8487 35.1558 22.8854 35.0567 22.9322 34.9596C23.1156 34.573 23.3091 34.1667 23.5067 33.7484L23.6595 33.4313C23.7104 33.3242 23.7471 33.2113 23.7919 33.1003L24.0526 32.4204C24.1402 32.1904 24.2278 31.9625 24.3154 31.7385C24.3561 31.6275 24.4071 31.5185 24.4376 31.4055C24.4682 31.2925 24.5048 31.1795 24.5395 31.0685L24.9224 29.788C24.951 29.6869 24.9856 29.5898 25.01 29.4867C25.0345 29.3836 25.0548 29.2885 25.0752 29.1874C25.118 28.9892 25.1608 28.791 25.1995 28.6126C25.281 28.2439 25.3584 27.899 25.4276 27.5838C25.5193 26.9535 25.5967 26.4401 25.6497 26.0754C25.6704 25.89 25.7058 25.7064 25.7556 25.5263Z" fill="#263238"/>
<path d="M33.1334 39.2653C33.2139 39.3012 33.2988 39.3272 33.386 39.3426L34.0786 39.521C34.6653 39.6676 35.474 39.8758 36.3662 40.1156C37.2584 40.3555 38.0631 40.5735 38.6518 40.7103C38.9472 40.7816 39.1855 40.8352 39.3525 40.8689C39.4381 40.89 39.5253 40.9039 39.6133 40.9105C39.5322 40.8749 39.4476 40.8477 39.3607 40.8292L38.6722 40.631L36.3927 40.0026C35.5025 39.7628 34.6877 39.5646 34.0969 39.4357C33.8015 39.3703 33.5612 39.3208 33.3941 39.291C33.3082 39.2745 33.2209 39.2659 33.1334 39.2653Z" fill="#455A64"/>
<path d="M36.4341 38.1394C36.6072 38.2341 36.7902 38.3106 36.98 38.3674C37.3243 38.4922 37.7949 38.6508 38.3388 38.8074C38.8827 38.964 39.3675 39.0849 39.724 39.1642C39.9148 39.2173 40.1107 39.2512 40.3086 39.2653C40.1248 39.1932 39.9355 39.1356 39.7423 39.0928C39.3899 38.9957 38.9051 38.8629 38.3693 38.7083C37.8336 38.5537 37.3508 38.405 37.0045 38.298C36.819 38.2304 36.6283 38.1774 36.4341 38.1394Z" fill="#455A64"/>
<path d="M37.3135 36.5654C37.8767 36.7855 38.4528 36.9729 39.0389 37.1263C39.6151 37.314 40.2021 37.4689 40.7969 37.5902C40.2329 37.3696 39.6561 37.1816 39.0694 37.0272C38.4937 36.8405 37.9075 36.6863 37.3135 36.5654Z" fill="#455A64"/>
<path d="M38.1818 35.0492C38.6563 35.3073 39.1476 35.535 39.6526 35.7311C40.1427 35.9607 40.6476 36.1594 41.1641 36.3257C40.6909 36.0658 40.2002 35.8373 39.6953 35.6419C39.2051 35.4114 38.6994 35.2134 38.1818 35.0492Z" fill="#455A64"/>
<path d="M44.4781 52.1075L47.8759 46.5276L56.6617 46.1748V46.9518C56.6617 46.9518 59.0736 49.3146 59.8518 52.5317C60.4405 54.9678 57.9634 64.2643 57.2667 67.4873C56.4112 71.4517 55.2297 76.4627 55.2297 76.4627C55.4069 77.3507 56.5782 78.0702 56.4967 79.2556L36.9694 79.0475L37.9737 75.1961L44.4781 52.1075Z" fill="#F5F5F5"/>
<path d="M37.7008 76.6727C37.7008 76.7025 41.5875 76.7243 46.3807 76.7243C51.1739 76.7243 55.0586 76.7025 55.0586 76.6727C55.0586 76.643 51.1739 76.6212 46.3807 76.6212C41.5875 76.6212 37.7008 76.645 37.7008 76.6727Z" fill="white"/>
<path d="M39.0511 71.8996C39.0511 71.9294 42.9011 71.9531 47.6495 71.9531C52.3979 71.9531 56.25 71.9294 56.25 71.8996C56.25 71.8699 52.4 71.8481 47.6495 71.8481C42.8991 71.8481 39.0511 71.8778 39.0511 71.8996Z" fill="white"/>
<path d="M40.3767 66.7245C40.3767 66.7522 44.1452 66.776 48.7938 66.776C53.4424 66.776 57.2109 66.7463 57.2109 66.7245C57.2109 66.7026 53.4444 66.6729 48.7958 66.6729C44.1473 66.6729 40.3767 66.6947 40.3767 66.7245Z" fill="white"/>
<path d="M41.3032 61.5089C41.3032 61.5367 45.1858 61.5605 49.9729 61.5605C54.76 61.5605 58.6406 61.5367 58.6406 61.5089C58.6406 61.4812 54.76 61.4574 49.9729 61.4574C45.1858 61.4574 41.3032 61.4792 41.3032 61.5089Z" fill="white"/>
<path d="M43.3591 55.0391C43.3591 55.0668 47.0258 55.0906 51.5624 55.0906C56.0989 55.0906 59.7656 55.0668 59.7656 55.0391C59.7656 55.0113 56.0989 54.9855 51.5624 54.9855C47.0258 54.9855 43.3591 55.0093 43.3591 55.0391Z" fill="white"/>
<path d="M46.1531 49.1048C46.1531 49.1325 48.8644 49.1563 52.2113 49.1563C55.5582 49.1563 58.2695 49.1325 58.2695 49.1048C58.2695 49.077 55.5582 49.0532 52.2113 49.0532C48.8644 49.0532 46.1531 49.0849 46.1531 49.1048Z" fill="white"/>
<path opacity="0.3" d="M57.3516 55.5491C56.4966 56.9458 55.4176 58.2005 54.1554 59.2657C52.1937 60.8514 46.2251 63.6939 46.2251 63.6939L45.7261 62.6909L41.273 63.7038L42.0879 61.0358L57.3516 55.5491Z" fill="black"/>
<path d="M36.4005 48.5101L37.9548 56.7243L51.269 50.5657L53.4141 57.872C48.1809 60.3617 37.5881 64.5064 36.2253 64.3875C34.2861 64.217 32.9457 63.0892 32.3427 60.326C31.9679 58.6153 32.139 47.1444 32.139 47.1444L36.4005 48.5101Z" fill="#C17560"/>
<path d="M50.4018 49.4616C50.4018 49.4616 55.3804 46.4685 57.5519 50.2406C59.1041 53.9196 57.3869 56.8572 53.5531 58.6808C51.7055 59.5609 49.1877 60.6471 46.6455 61.6798L42.9401 53.6777L50.4018 49.4616Z" fill="#F5F5F5"/>
<path d="M50.4008 49.4616C50.4008 49.4616 50.3519 49.4834 50.2623 49.533L49.8671 49.7491L48.3638 50.5855L42.9167 53.6421L42.8841 53.6619L42.9004 53.6956L46.5956 61.6997L46.616 61.7453L46.6628 61.7255C47.9665 61.1982 49.311 60.6353 50.6799 60.0406C51.2842 59.7763 51.8811 59.512 52.4705 59.2477C53.0572 58.9801 53.6357 58.7125 54.1918 58.4172C54.4634 58.2652 54.7316 58.106 54.9964 57.9395C55.249 57.7611 55.5098 57.5985 55.74 57.4003C56.2104 57.0327 56.6337 56.6114 57.0009 56.1456L57.2535 55.7928C57.3353 55.6758 57.4094 55.554 57.4755 55.428C57.6145 55.1842 57.7357 54.9312 57.8381 54.6708C57.885 54.542 57.9196 54.4072 57.9604 54.2744L58.0194 54.0762C58.0357 54.0088 58.0439 53.9434 58.0581 53.878C58.0805 53.7471 58.105 53.6143 58.1274 53.4815C58.1498 53.3487 58.1437 53.2199 58.1518 53.0851C58.1665 52.8281 58.1618 52.5704 58.1376 52.314C58.1172 52.0623 58.0622 51.8165 58.0255 51.5747C57.9889 51.3328 57.9013 51.1029 57.8341 50.8749C57.7668 50.647 57.6691 50.4329 57.5896 50.2188C57.3003 49.7069 56.8982 49.2636 56.4122 48.9205C55.9676 48.6276 55.4618 48.434 54.9313 48.3536C54.0787 48.2529 53.2138 48.3348 52.3971 48.5934C51.8796 48.7497 51.3766 48.9487 50.8938 49.1881C50.7288 49.2714 50.6066 49.3388 50.5231 49.3863C50.4395 49.4339 50.4029 49.4616 50.4029 49.4616L50.5292 49.3962C50.6127 49.3526 50.7329 49.2892 50.906 49.2099C51.3908 48.9797 51.8943 48.7888 52.4114 48.639C53.2215 48.3886 54.078 48.3135 54.9211 48.419C55.4409 48.4994 55.9357 48.6918 56.3694 48.982C56.8445 49.3206 57.2368 49.7571 57.5183 50.2605C57.5957 50.4745 57.6772 50.6906 57.7587 50.9126C57.8402 51.1346 57.883 51.3685 57.9441 51.6024C58.0052 51.8363 58.0317 52.0841 58.052 52.3338C58.0745 52.5863 58.0786 52.84 58.0643 53.093C58.0643 53.2199 58.05 53.3507 58.0378 53.4895C58.0255 53.6282 57.993 53.7471 57.9685 53.876C57.9563 53.9414 57.9481 54.0068 57.9318 54.0742L57.8728 54.2724C57.832 54.4013 57.7994 54.5321 57.7505 54.6589C57.6501 54.9147 57.531 55.1631 57.3941 55.4023C57.3281 55.5256 57.2553 55.6453 57.1761 55.761L56.9255 56.1059C56.5625 56.5654 56.1439 56.9807 55.6789 57.3428C55.4431 57.5325 55.1977 57.7105 54.9435 57.876C54.6854 58.0412 54.4193 58.1985 54.1449 58.3478C53.5949 58.6392 53.0164 58.9088 52.4297 59.1744C51.8431 59.44 51.2442 59.7076 50.6392 59.9673C49.2743 60.5619 47.9299 61.1249 46.6282 61.6541L46.6954 61.6799C45.3123 58.7066 44.0472 55.9672 42.9819 53.6837L42.9635 53.7352L48.3923 50.647L49.8773 49.7689L50.2643 49.5429C50.356 49.5013 50.4008 49.4616 50.4008 49.4616Z" fill="#263238"/>
<path d="M36.6021 49.9175L36.3027 46.857C36.3027 46.857 37.5045 44.5022 37.4801 44.2663C37.4557 44.0304 37.3864 42.7321 37.3864 42.7321L34.3817 40.0997C34.3817 40.0997 33.408 40.0997 33.3836 41.0373C33.3836 41.0373 32.4486 40.8391 32.4343 41.9372C32.4343 41.9372 31.4158 41.9729 31.3954 42.7717C31.3954 42.7717 30.7843 42.6924 30.8046 43.5269C30.8209 44.1216 31.0898 46.4229 31.0898 46.4229L32.3467 48.5498L32.4506 50.6767L36.6021 49.9175Z" fill="#C17560"/>
<path d="M36.2898 59.7251C36.3244 59.737 36.5464 58.9937 37.0007 58.1611C37.455 57.3286 37.9826 56.7459 37.9561 56.7241C37.8215 56.8316 37.7017 56.9555 37.5996 57.0927C37.3369 57.4108 37.105 57.7519 36.907 58.1116C36.7109 58.4717 36.5473 58.8478 36.4181 59.2355C36.356 59.3933 36.3129 59.5576 36.2898 59.7251Z" fill="#7C4236"/>
<path d="M53.4161 48.4446C53.4516 48.5415 53.4959 48.635 53.5485 48.7241C53.6402 48.9005 53.7767 49.1523 53.956 49.4615C54.3002 50.0819 54.7911 50.9303 55.3391 51.8619L56.7508 54.2406L57.1786 54.9621C57.2281 55.0527 57.2847 55.1395 57.3477 55.2217C57.3122 55.1249 57.2679 55.0314 57.2152 54.9423C57.1236 54.7678 56.9871 54.5141 56.8078 54.2049C56.4636 53.5845 55.9747 52.7361 55.4247 51.8045C54.8747 50.8728 54.3837 50.0462 54.015 49.4258C53.8398 49.1344 53.6952 48.8906 53.5852 48.7043C53.5366 48.6132 53.4801 48.5263 53.4161 48.4446Z" fill="white"/>
<path d="M49.3541 50.175C49.361 50.206 49.3719 50.2359 49.3867 50.2642L49.4987 50.512C49.5985 50.728 49.7452 51.0353 49.9347 51.4139C50.3095 52.1711 50.8452 53.2077 51.4726 54.3356C52.1 55.4635 52.6949 56.4684 53.143 57.188C53.3671 57.5468 53.5504 57.8362 53.6808 58.0344L53.8315 58.2623C53.8488 58.2892 53.8686 58.3144 53.8906 58.3376C53.8906 58.3376 53.8804 58.3059 53.8499 58.2504L53.7154 58.0146L53.2082 57.1503C52.7784 56.4229 52.1897 55.4119 51.5663 54.2861C50.943 53.1602 50.393 52.1294 50.0019 51.3802L49.5354 50.4961L49.4071 50.2563C49.3933 50.227 49.3755 50.1996 49.3541 50.175Z" fill="white"/>
<path d="M44.8118 52.649C44.8452 52.7614 44.8867 52.8714 44.936 52.9781C45.0195 53.1763 45.1499 53.4855 45.3169 53.8522C45.6531 54.5837 46.1501 55.5827 46.7633 56.6531C47.3764 57.7235 47.9855 58.659 48.452 59.3231C48.6842 59.6541 48.8777 59.9177 49.0162 60.0981C49.0824 60.1951 49.1567 60.2866 49.2383 60.3717C49.1834 60.2684 49.1201 60.1696 49.0488 60.0763L48.5151 59.2834C48.067 58.6115 47.4681 57.6719 46.8549 56.6055C46.2418 55.5391 45.7386 54.546 45.3862 53.8304L44.9788 52.9702C44.9331 52.8585 44.8772 52.751 44.8118 52.649Z" fill="white"/>
<path d="M56.6484 82.9247L56.2247 79.2557L37.5958 79.0555L37.1212 82.9247H56.6484Z" fill="#263238"/>
<path d="M33.5805 82.6034C33.5805 82.6311 39.3189 82.6549 46.3977 82.6549C53.4764 82.6549 59.2148 82.6311 59.2148 82.6034C59.2148 82.5756 53.4764 82.5518 46.3977 82.5518C39.3189 82.5518 33.5805 82.5716 33.5805 82.6034Z" fill="#455A64"/>
<path d="M43.965 18.5811H50.893C51.1225 18.5811 51.3086 18.7621 51.3086 18.9854V19.2768C51.3086 19.5001 51.1225 19.6812 50.893 19.6812H43.965C43.7355 19.6812 43.5494 19.5001 43.5494 19.2768V18.9854C43.5494 18.7621 43.7355 18.5811 43.965 18.5811Z" fill="#455A64"/>
<path d="M41.6643 19.1321C41.6643 19.2411 41.6975 19.3476 41.7597 19.4383C41.8219 19.5289 41.9104 19.5995 42.0139 19.6412C42.1173 19.6829 42.2312 19.6938 42.3411 19.6726C42.4509 19.6513 42.5518 19.5988 42.631 19.5218C42.7102 19.4447 42.7641 19.3465 42.786 19.2396C42.8078 19.1327 42.7966 19.0219 42.7538 18.9212C42.7109 18.8205 42.6383 18.7345 42.5452 18.6739C42.4521 18.6134 42.3426 18.5811 42.2306 18.5811C42.1562 18.5811 42.0826 18.5953 42.0139 18.623C41.9451 18.6507 41.8827 18.6913 41.8301 18.7425C41.7775 18.7936 41.7358 18.8544 41.7074 18.9212C41.6789 18.9881 41.6643 19.0597 41.6643 19.1321Z" fill="#455A64"/>
<path d="M65.1394 27.1203H64.681V36.3177H65.1394C65.4743 36.3177 65.7956 36.1882 66.0324 35.9577C66.2693 35.7272 66.4023 35.4146 66.4023 35.0887V28.3493C66.4023 28.1879 66.3697 28.0281 66.3062 27.879C66.2427 27.7299 66.1497 27.5944 66.0324 27.4803C65.9151 27.3661 65.7759 27.2756 65.6227 27.2139C65.4695 27.1521 65.3052 27.1203 65.1394 27.1203Z" fill="#263238"/>
<path d="M65.2526 40.4841H64.7943V49.6815H65.2526C65.5876 49.6815 65.9089 49.552 66.1457 49.3215C66.3826 49.0911 66.5156 48.7785 66.5156 48.4525V41.7131C66.5156 41.3872 66.3826 41.0746 66.1457 40.8441C65.9089 40.6136 65.5876 40.4841 65.2526 40.4841Z" fill="#263238"/>
<path d="M65.2205 54.1155C65.251 54.1155 65.2734 47.4394 65.2734 39.2054C65.2734 30.9714 65.251 24.2934 65.2205 24.2934C65.1899 24.2934 65.1675 30.9694 65.1675 39.2054C65.1675 47.4414 65.192 54.1155 65.2205 54.1155Z" fill="#455A64"/>
</svg>
