<svg width="30" height="30" viewBox="0 0 30 30" fill="none" xmlns="http://www.w3.org/2000/svg">
<path d="M4.87146 17.4115L5.59493 17.0257L6.31841 17.4115V21.463L5.59493 21.8488L4.87146 21.463V17.4115Z" fill="#207700"/>
<path d="M1.97754 17.4115L2.70101 17.0257L3.42448 17.4115V21.463L2.70101 21.8488L1.97754 21.463V17.4115Z" fill="#207700"/>
<path d="M5.83604 18.4244H2.45984V19.3891H5.83604V18.4244Z" fill="#239B02"/>
<path d="M26.5756 17.4115L27.299 17.0257L28.0225 17.4115V21.463L27.299 21.8488L26.5756 21.463V17.4115Z" fill="#207700"/>
<path d="M23.6816 17.4115L24.4051 17.0257L25.1286 17.4115V21.463L24.4051 21.8488L23.6816 21.463V17.4115Z" fill="#207700"/>
<path d="M27.5403 18.4244H24.1641V19.3891H27.5403V18.4244Z" fill="#239B02"/>
<path d="M1.54346 20.836C3.61741 26.1415 8.82641 30 14.9518 30C21.0772 30 26.2862 26.1415 28.3602 20.836H1.54346Z" fill="#239B02"/>
<path d="M22.717 10.7074H7.28296V20.836H22.717V10.7074Z" fill="#DDDAC3"/>
<path d="M7.28296 10.7074H22.717V20.836" fill="#C9C5AD"/>
<path d="M14.0353 20.3537V13.2637C14.0353 12.926 13.8906 12.6367 13.553 12.6367H9.98386C9.64624 12.6367 9.21216 12.926 9.21216 13.2637V20.3537H14.0353Z" fill="#FCA12A"/>
<path d="M14.0353 16.9775V13.2637C14.0353 12.926 13.8906 12.6367 13.553 12.6367H9.98386C9.64624 12.6367 9.21216 12.926 9.21216 13.2637" fill="#E58613"/>
<path d="M12.9261 17.1704C13.2724 17.1704 13.5531 16.8897 13.5531 16.5434C13.5531 16.1971 13.2724 15.9164 12.9261 15.9164C12.5798 15.9164 12.2991 16.1971 12.2991 16.5434C12.2991 16.8897 12.5798 17.1704 12.9261 17.1704Z" fill="#DB5435"/>
<path d="M13.3601 16.1093C13.6013 16.3505 13.6013 16.7363 13.3601 16.9775C13.119 17.2186 12.7331 17.2186 12.4919 16.9775" fill="#C43D27"/>
<path d="M18.3762 14.5659H20.3055V13.2637C20.3055 12.926 19.9679 12.6367 19.6785 12.6367H18.3762V14.5659Z" fill="#008AAA"/>
<path d="M17.4116 14.5659V12.6367H16.0611C15.7235 12.6367 15.4823 12.926 15.4823 13.2637V14.5659H17.4116Z" fill="#00A1AD"/>
<path d="M17.4116 15.5305H15.4823V16.881C15.4823 17.2186 15.7235 17.4598 16.0611 17.4598H17.4116V15.5305Z" fill="#008AAA"/>
<path d="M18.3762 15.5305V17.4598H19.6785C20.0161 17.4598 20.3055 17.2186 20.3055 16.881V15.5305H18.3762Z" fill="#00A1AD"/>
<path d="M25.2251 10.7074L14.9518 2.65271L4.67847 10.7074H25.2251Z" fill="#C43D27"/>
<path d="M25.2251 10.7074L14.9518 2.65271L9.69458 10.7074H25.2251Z" fill="#AA1E0F"/>
<path d="M26.238 24.5016L22.6206 20.836H7.37942H7.28296L16.3505 29.9518C20.3537 29.5177 23.8746 27.4919 26.238 24.5016Z" fill="#207700"/>
<path d="M7.76526 8.29579H22.1383L21.5112 7.81348H8.39227L7.76526 8.29579Z" fill="#C43D27"/>
<path d="M10.8521 5.88423H19.0514L18.4244 5.40192H11.4791L10.8521 5.88423Z" fill="#C43D27"/>
<path d="M28.4565 5.836C27.2025 6.36655 26.045 5.59484 25.0803 6.7524C24.5016 7.37941 24.6945 8.29581 24.9839 9.30867C25.9967 9.59806 26.8649 9.79098 27.5401 9.2122C28.6495 8.24757 27.926 7.09002 28.4565 5.836Z" fill="#82C60A"/>
<path d="M24.9839 9.30867C25.9967 9.59806 26.9131 9.79098 27.5402 9.2122C28.6495 8.19934 27.926 7.09002 28.4566 5.836" fill="#5EA304"/>
<path d="M26.8167 7.47588L26.5756 6.46301V7.8135H27.7813L26.8167 7.47588Z" fill="#74B208"/>
<path d="M25.8039 8.53694L25.611 7.62054V8.7781H26.6238L25.8039 8.53694Z" fill="#74B208"/>
<path d="M26.3344 8.00641L26.0933 6.94531V8.2958H27.3473L26.3344 8.00641Z" fill="#74B208"/>
<path d="M22.717 0V0.096463V0C21.7524 2.02572 19.7267 2.45981 19.8714 4.87138C19.9678 6.2701 21.2219 7.09003 22.6688 7.90997L22.717 7.8135L22.6688 7.86174C24.1157 7.0418 25.418 6.22186 25.5144 4.82315C25.6591 2.45981 23.6817 2.02572 22.717 0Z" fill="#82C60A"/>
<path d="M22.6688 7.86174L22.6206 7.81351H22.7171L22.6688 7.86174C24.1158 7.0418 25.418 6.22187 25.5145 4.82315C25.6592 2.45981 23.6817 2.02572 22.7171 0V0.096463" fill="#5EA304"/>
<path d="M22.6206 3.47269L21.3666 2.70099L22.6206 3.95501L23.9228 2.70099L22.6206 3.47269Z" fill="#74B208"/>
<path d="M22.6206 6.07719L21.3666 5.30548L22.6206 6.5595L23.9228 5.30548L22.6206 6.07719Z" fill="#74B208"/>
<path d="M22.6206 4.77492L21.2219 3.85852L22.6206 5.30547L24.0676 3.85852L22.6206 4.77492Z" fill="#74B208"/>
</svg>
