<svg width="5" height="4" viewBox="0 0 5 4" fill="none" xmlns="http://www.w3.org/2000/svg">
<path d="M4.34956 1.25903C4.29874 1.20177 4.23627 1.15592 4.16627 1.12452C4.09628 1.09312 4.02038 1.07689 3.9436 1.07692H2.93837V0.846149C2.93811 0.621815 2.84841 0.406741 2.68895 0.248113C2.5295 0.0894839 2.3133 0.000254492 2.08779 0C2.04472 5.02368e-06 2.00251 0.0119345 1.96588 0.0344527C1.92924 0.0569709 1.89963 0.0891889 1.88036 0.127499L1.17109 1.53845H0.386627C0.284087 1.53845 0.185747 1.57898 0.11324 1.6511C0.0407338 1.72323 0 1.82106 0 1.92307V3.61537C0 3.71737 0.0407338 3.8152 0.11324 3.88733C0.185747 3.95946 0.284087 3.99998 0.386627 3.99998H3.71162C3.84355 3.99996 3.97092 3.95201 4.06981 3.86515C4.1687 3.77828 4.2323 3.65848 4.24865 3.52825L4.48062 1.68211C4.49016 1.60637 4.48341 1.52949 4.46082 1.45655C4.43822 1.38361 4.4003 1.31628 4.34956 1.25903ZM0.463953 1.99999H1.08256V3.53844H0.463953V1.99999ZM4.02092 1.62499L3.78895 3.47114C3.78658 3.48983 3.7774 3.50701 3.76315 3.51941C3.74889 3.53182 3.73056 3.53859 3.71162 3.53844H1.54651V1.82364L2.21963 0.484613C2.29428 0.511551 2.35878 0.560703 2.40437 0.625388C2.44995 0.690072 2.47441 0.767152 2.47441 0.846149V1.30769C2.47441 1.36889 2.49885 1.42759 2.54236 1.47086C2.58586 1.51414 2.64487 1.53845 2.70639 1.53845H3.9436C3.95462 1.53837 3.96553 1.54063 3.9756 1.54508C3.98568 1.54953 3.99467 1.55607 4.002 1.56427C4.00932 1.57246 4.0148 1.58212 4.01806 1.59259C4.02132 1.60307 4.0223 1.61411 4.02092 1.62499Z" fill="#4F0DA3"/>
</svg>
