<svg width="4" height="4" viewBox="0 0 4 4" fill="none" xmlns="http://www.w3.org/2000/svg">
<path d="M0.43605 2.92695C0.210246 2.54599 0.131263 2.0957 0.213928 1.66063C0.296592 1.22555 0.535221 0.835616 0.885013 0.564016C1.23481 0.292416 1.67171 0.157832 2.1137 0.185532C2.55569 0.213231 2.97237 0.401308 3.28551 0.714455C3.59866 1.0276 3.78674 1.44428 3.81444 1.88627C3.84214 2.32826 3.70755 2.76516 3.43595 3.11495C3.16435 3.46475 2.77441 3.70338 2.33934 3.78604C1.90427 3.86871 1.45398 3.78972 1.07302 3.56392V3.56392L0.443633 3.74212C0.417846 3.74966 0.390506 3.75013 0.364478 3.74347C0.338449 3.73681 0.314691 3.72327 0.295693 3.70427C0.276696 3.68528 0.263159 3.66152 0.256501 3.63549C0.249842 3.60946 0.250309 3.58212 0.257851 3.55634L0.43605 2.92695Z" stroke="#4F0DA3" stroke-width="0.326087" stroke-linecap="round" stroke-linejoin="round"/>
</svg>
