<svg width="19" height="19" viewBox="0 0 19 19" fill="none" xmlns="http://www.w3.org/2000/svg">
<path d="M9.49995 0C7.62104 0 5.78432 0.557162 4.22206 1.60103C2.65981 2.6449 1.44217 4.12859 0.723145 5.86448C0.00411618 7.60036 -0.184014 9.51049 0.182543 11.3533C0.549101 13.1961 1.45388 14.8888 2.78247 16.2174C4.11107 17.546 5.8038 18.4508 7.6466 18.8174C9.48941 19.1839 11.3995 18.9958 13.1354 18.2768C14.8713 17.5577 16.355 16.3401 17.3989 14.7778C18.4427 13.2156 18.9999 11.3789 18.9999 9.49995C18.9951 6.98189 17.9926 4.56834 16.2121 2.7878C14.4316 1.00726 12.018 0.00482851 9.49995 0ZM14.0216 7.83746L8.66871 12.9528C8.53032 13.083 8.34716 13.1549 8.15717 13.1538C8.06431 13.1551 7.9721 13.138 7.88587 13.1035C7.79964 13.069 7.7211 13.0178 7.65477 12.9528L4.97834 10.3951C4.90411 10.3304 4.84374 10.2513 4.80085 10.1626C4.75797 10.0739 4.73347 9.97743 4.72881 9.87902C4.72416 9.78061 4.73945 9.68228 4.77376 9.58994C4.80808 9.49759 4.86071 9.41314 4.9285 9.34165C4.99629 9.27017 5.07783 9.21312 5.16823 9.17396C5.25862 9.13479 5.356 9.1143 5.45452 9.11373C5.55303 9.11316 5.65064 9.13251 5.74149 9.17063C5.83233 9.20874 5.91453 9.26483 5.98314 9.33553L8.15717 11.4091L13.0168 6.77785C13.1589 6.65388 13.3434 6.58964 13.5317 6.59855C13.7201 6.60746 13.8977 6.68884 14.0274 6.82567C14.1572 6.96249 14.229 7.14418 14.2279 7.33274C14.2268 7.52131 14.1529 7.70215 14.0216 7.83746Z" fill="white"/>
</svg>
