<svg width="19" height="3" viewBox="0 0 19 3" fill="none" xmlns="http://www.w3.org/2000/svg">
<path d="M9.5 3C10.3284 3 11 2.32843 11 1.5C11 0.671573 10.3284 0 9.5 0C8.67157 0 8 0.671573 8 1.5C8 2.32843 8.67157 3 9.5 3Z" fill="black"/>
<path d="M17.5 3C18.3284 3 19 2.32843 19 1.5C19 0.671573 18.3284 0 17.5 0C16.6716 0 16 0.671573 16 1.5C16 2.32843 16.6716 3 17.5 3Z" fill="black"/>
<path d="M1.5 3C2.32843 3 3 2.32843 3 1.5C3 0.671573 2.32843 0 1.5 0C0.671573 0 0 0.671573 0 1.5C0 2.32843 0.671573 3 1.5 3Z" fill="black"/>
</svg>
