<svg width="20" height="20" viewBox="0 0 20 20" fill="none" xmlns="http://www.w3.org/2000/svg">
<path d="M13.6333 11.6667C13.7 11.1167 13.75 10.5667 13.75 9.99999C13.75 9.43332 13.7 8.88332 13.6333 8.33332H16.45C16.5833 8.86666 16.6667 9.42499 16.6667 9.99999C16.6667 10.575 16.5833 11.1333 16.45 11.6667M12.1583 16.3C12.6583 15.375 13.0417 14.375 13.3083 13.3333H15.7667C14.9593 14.7236 13.6784 15.7767 12.1583 16.3ZM11.95 11.6667H8.04999C7.96666 11.1167 7.91666 10.5667 7.91666 9.99999C7.91666 9.43332 7.96666 8.87499 8.04999 8.33332H11.95C12.025 8.87499 12.0833 9.43332 12.0833 9.99999C12.0833 10.5667 12.025 11.1167 11.95 11.6667ZM9.99999 16.6333C9.30832 15.6333 8.74999 14.525 8.40832 13.3333H11.5917C11.25 14.525 10.6917 15.6333 9.99999 16.6333ZM6.66666 6.66666H4.23332C5.03237 5.27267 6.31232 4.2179 7.83332 3.69999C7.33332 4.62499 6.95832 5.62499 6.66666 6.66666ZM4.23332 13.3333H6.66666C6.95832 14.375 7.33332 15.375 7.83332 16.3C6.31551 15.7764 5.03736 14.7231 4.23332 13.3333ZM3.54999 11.6667C3.41666 11.1333 3.33332 10.575 3.33332 9.99999C3.33332 9.42499 3.41666 8.86666 3.54999 8.33332H6.36666C6.29999 8.88332 6.24999 9.43332 6.24999 9.99999C6.24999 10.5667 6.29999 11.1167 6.36666 11.6667M9.99999 3.35832C10.6917 4.35832 11.25 5.47499 11.5917 6.66666H8.40832C8.74999 5.47499 9.30832 4.35832 9.99999 3.35832ZM15.7667 6.66666H13.3083C13.0475 5.63454 12.6613 4.63824 12.1583 3.69999C13.6917 4.22499 14.9667 5.28332 15.7667 6.66666ZM9.99999 1.66666C5.39166 1.66666 1.66666 5.41666 1.66666 9.99999C1.66666 12.2101 2.54463 14.3297 4.10743 15.8925C4.88125 16.6664 5.79991 17.2802 6.81096 17.699C7.82201 18.1178 8.90564 18.3333 9.99999 18.3333C12.2101 18.3333 14.3297 17.4553 15.8925 15.8925C17.4553 14.3297 18.3333 12.2101 18.3333 9.99999C18.3333 8.90564 18.1178 7.82201 17.699 6.81096C17.2802 5.79991 16.6664 4.88125 15.8925 4.10743C15.1187 3.33361 14.2001 2.71978 13.189 2.30099C12.178 1.8822 11.0943 1.66666 9.99999 1.66666Z" fill="#4F0DA3"/>
</svg>
