<svg width="4" height="4" viewBox="0 0 4 4" fill="none" xmlns="http://www.w3.org/2000/svg">
<path d="M1.57741 2.14085C1.88855 2.14085 2.14079 1.88862 2.14079 1.57747C2.14079 1.26633 1.88855 1.01409 1.57741 1.01409C1.26626 1.01409 1.01403 1.26633 1.01403 1.57747C1.01403 1.88862 1.26626 2.14085 1.57741 2.14085Z" stroke="#4F0DA3" stroke-width="0.326087" stroke-linecap="round" stroke-linejoin="round"/>
<path d="M2.98589 1.57744C2.98589 2.84505 1.57744 3.83096 1.57744 3.83096C1.57744 3.83096 0.168994 2.84505 0.168994 1.57744C0.168994 1.2039 0.317384 0.845654 0.581519 0.581519C0.845654 0.317384 1.2039 0.168994 1.57744 0.168994C1.95099 0.168994 2.30923 0.317384 2.57337 0.581519C2.8375 0.845654 2.98589 1.2039 2.98589 1.57744V1.57744Z" stroke="#4F0DA3" stroke-width="0.326087" stroke-linecap="round" stroke-linejoin="round"/>
</svg>
