<svg width="18" height="17" viewBox="0 0 18 17" fill="none" xmlns="http://www.w3.org/2000/svg">
<path d="M16.6154 2.76923H13.1538V2.07692C13.1516 1.52679 12.932 0.99984 12.543 0.610834C12.154 0.221828 11.6271 0.00227801 11.0769 0H6.92308C6.37294 0.00227801 5.84599 0.221828 5.45699 0.610834C5.06798 0.99984 4.84843 1.52679 4.84615 2.07692V2.76923H1.38462C1.01739 2.76923 0.66521 2.91511 0.405544 3.17478C0.145879 3.43444 0 3.78662 0 4.15385V15.2308C0 15.598 0.145879 15.9502 0.405544 16.2098C0.66521 16.4695 1.01739 16.6154 1.38462 16.6154H16.6154C16.9826 16.6154 17.3348 16.4695 17.5945 16.2098C17.8541 15.9502 18 15.598 18 15.2308V4.15385C18 3.78662 17.8541 3.43444 17.5945 3.17478C17.3348 2.91511 16.9826 2.76923 16.6154 2.76923ZM6.23077 2.07692C6.23077 1.89331 6.30371 1.71722 6.43354 1.58739C6.56337 1.45755 6.73947 1.38462 6.92308 1.38462H11.0769C11.2605 1.38462 11.4366 1.45755 11.5665 1.58739C11.6963 1.71722 11.7692 1.89331 11.7692 2.07692V2.76923H6.23077V2.07692ZM16.6154 4.15385V7.75385C14.2793 9.02745 11.6607 9.69399 9 9.69231C6.33927 9.69399 3.72072 9.02745 1.38462 7.75385V4.15385H16.6154ZM7.26923 7.61538C7.26923 7.43177 7.34217 7.25568 7.472 7.12585C7.60184 6.99602 7.77793 6.92308 7.96154 6.92308H10.0385C10.2221 6.92308 10.3982 6.99602 10.528 7.12585C10.6578 7.25568 10.7308 7.43177 10.7308 7.61538C10.7308 7.799 10.6578 7.97509 10.528 8.10492C10.3982 8.23475 10.2221 8.30769 10.0385 8.30769H7.96154C7.77793 8.30769 7.60184 8.23475 7.472 8.10492C7.34217 7.97509 7.26923 7.799 7.26923 7.61538Z" fill="black" fill-opacity="0.2"/>
</svg>
