<svg width="30" height="30" viewBox="0 0 30 30" fill="none" xmlns="http://www.w3.org/2000/svg">
<path d="M21.3 16.3V11.5L22.12 11.22L25.03 15L21.3 16.3ZM17.65 5.55001C17.65 2.97001 15.56 0.880005 12.98 0.880005C10.4 0.880005 8.30997 2.97001 8.30997 5.55001C8.30997 8.13001 10.4 10.22 12.98 10.22C15.56 10.23 17.65 8.13001 17.65 5.55001ZM20.37 13.55C20.13 12.56 19.13 11.95 18.13 12.2L14.62 13.06C14.62 13.06 9.91997 10.22 9.83997 10.18C8.14997 9.41001 6.11997 10.07 5.20997 11.72L1.77997 17.96C1.08997 19.22 1.22997 20.71 2.01997 21.8C2.03997 21.83 5.05997 25.29 5.05997 25.29H2.74997C1.60997 25.29 0.709966 26.26 0.809966 27.42C0.899966 28.44 1.77997 29.2 2.79997 29.2H9.44997C10.02 29.2 10.9 28.94 11.32 28C11.72 27.12 11.38 26.26 10.87 25.7L7.71997 22.09L11.39 15.42L13.37 16.62C13.74 16.84 14.33 16.94 14.77 16.83C15.84 16.58 19.02 15.79 19.02 15.79C20.01 15.55 20.61 14.55 20.37 13.55ZM26.85 22.2L26.09 19.9H21.4L20.64 22.2H26.85ZM27.25 23.4H20.24L19.48 25.7H28.02L27.25 23.4ZM28.41 26.9H19.07L18.31 29.2H29.18L28.41 26.9Z" fill="#0D62B0"/>
</svg>
