<svg width="4" height="4" viewBox="0 0 4 4" fill="none" xmlns="http://www.w3.org/2000/svg">
<path d="M3.4346 0.88075H0.565529C0.530579 0.880914 0.496886 0.8938 0.470746 0.916999C0.444606 0.940198 0.42781 0.972123 0.423495 1.0068L0.171386 3.27934C0.169144 3.29914 0.171093 3.31919 0.177108 3.33819C0.183122 3.35718 0.193066 3.3747 0.206295 3.38961C0.219523 3.40451 0.235739 3.41646 0.253889 3.42469C0.27204 3.43291 0.291717 3.43723 0.311644 3.43735H3.68848C3.70841 3.43723 3.72809 3.43291 3.74624 3.42469C3.76439 3.41646 3.78061 3.40451 3.79383 3.38961C3.80706 3.3747 3.81701 3.35718 3.82302 3.33819C3.82903 3.31919 3.83098 3.29914 3.82874 3.27934L3.57663 1.0068C3.57232 0.972123 3.55552 0.940198 3.52938 0.916999C3.50324 0.8938 3.46955 0.880914 3.4346 0.88075V0.88075Z" stroke="#4F0DA3" stroke-width="0.326087" stroke-linecap="round" stroke-linejoin="round"/>
<path d="M1.28986 1.44878V0.88065C1.28986 0.692303 1.36468 0.511669 1.49786 0.378487C1.63105 0.245305 1.81168 0.170484 2.00003 0.170484C2.18838 0.170484 2.36901 0.245305 2.50219 0.378487C2.63537 0.511669 2.71019 0.692303 2.71019 0.88065V1.44878" stroke="#4F0DA3" stroke-width="0.326087" stroke-linecap="round" stroke-linejoin="round"/>
</svg>
