<svg width="25" height="24" viewBox="0 0 25 24" fill="none" xmlns="http://www.w3.org/2000/svg">
<path d="M22.7586 0H2.06897C1.52024 0 0.993992 0.210714 0.605986 0.585786C0.21798 0.960859 0 1.46957 0 2V22C0 22.5304 0.21798 23.0391 0.605986 23.4142C0.993992 23.7893 1.52024 24 2.06897 24H22.7586C23.3073 24 23.8336 23.7893 24.2216 23.4142C24.6096 23.0391 24.8276 22.5304 24.8276 22V2C24.8276 1.46957 24.6096 0.960859 24.2216 0.585786C23.8336 0.210714 23.3073 0 22.7586 0ZM18.8147 9.725L11.2371 16.725C11.0412 16.9031 10.7819 17.0016 10.5129 17C10.2479 17.001 9.99292 16.9024 9.80173 16.725L6.01293 13.225C5.90784 13.1364 5.82238 13.0281 5.76168 12.9067C5.70097 12.7854 5.66628 12.6534 5.65969 12.5187C5.6531 12.3841 5.67474 12.2495 5.72332 12.1231C5.7719 11.9968 5.84641 11.8812 5.94237 11.7834C6.03833 11.6856 6.15377 11.6075 6.28173 11.5539C6.4097 11.5003 6.54755 11.4723 6.68701 11.4715C6.82647 11.4707 6.96465 11.4972 7.09325 11.5493C7.22185 11.6015 7.33821 11.6783 7.43535 11.775L10.5129 14.6125L17.3922 8.275C17.5934 8.10536 17.8546 8.01745 18.1212 8.02964C18.3879 8.04184 18.6393 8.1532 18.823 8.34044C19.0067 8.52767 19.1083 8.7763 19.1068 9.03433C19.1052 9.29237 19.0006 9.53984 18.8147 9.725Z" fill="#4F0DA3"/>
</svg>
