<svg width="30" height="30" viewBox="0 0 30 30" fill="none" xmlns="http://www.w3.org/2000/svg">
<path d="M15.4669 12.0486L13.5278 13.1681C13.0842 13.4249 12.5166 13.2736 12.2596 12.8301C12.1747 12.6833 12.1344 12.5231 12.1345 12.3649H12.1326V10.1259V7.88699C12.1326 7.37324 12.5489 6.9567 13.0627 6.9567C13.2553 6.9567 13.4342 7.01517 13.5824 7.11537L15.4668 8.20334L15.5145 8.23299L17.4023 9.32283C17.8459 9.57766 17.9988 10.1439 17.7438 10.5874C17.6568 10.7389 17.5335 10.8565 17.3911 10.9355L15.4659 12.0471L15.4669 12.0486ZM27.5 2.18762H2.49989C1.46863 2.18762 0.625 3.0312 0.625 4.06239V18.0626H29.375V4.06239C29.375 3.03114 28.5313 2.18762 27.5 2.18762Z" fill="#ABB8B9"/>
<path d="M13.5279 13.1681L15.4669 12.0486L15.466 12.0471L17.3912 10.9355C17.5335 10.8566 17.6569 10.7389 17.7439 10.5874C17.9989 10.1439 17.846 9.57769 17.4024 9.32286L15.5146 8.23302L15.4669 8.20337L13.5825 7.1154C13.4343 7.0152 13.2553 6.95673 13.0628 6.95673C12.5489 6.95673 12.1327 7.37333 12.1327 7.88702V10.126V12.3649H12.1346C12.1344 12.5231 12.1748 12.6833 12.2597 12.8301C12.5167 13.2736 13.0843 13.4249 13.5279 13.1681Z" fill="#D12D4E"/>
<path d="M29.375 18.0625H0.625V20.3124C0.625 21.3436 1.46863 22.1873 2.49989 22.1873H11.3154H18.6845H27.4999C28.5312 22.1873 29.3749 21.3436 29.3749 20.3124V18.0625H29.375Z" fill="#FCD051"/>
<path d="M18.6846 22.1874H11.3154L10.6904 25.3124H19.3095L18.6846 22.1874Z" fill="#FCD051"/>
<path d="M19.3095 25.3124H10.6904H9.99992C9.31244 25.3124 8.75 25.8749 8.75 26.5624V27.8125H21.2498V26.5624C21.2498 25.8748 20.6873 25.3124 19.9999 25.3124H19.3095V25.3124Z" fill="#FCD051"/>
<path d="M27.5 1.5625H2.49997C1.12143 1.5625 0 2.68393 0 4.06235V20.3124C0 21.6909 1.12143 22.8124 2.49997 22.8124H10.553L10.1781 24.6873H10C8.96621 24.6873 8.12509 25.5284 8.12509 26.5623V27.8124C8.12509 28.1576 8.40494 28.4374 8.75012 28.4374H21.2499C21.5951 28.4374 21.8749 28.1576 21.8749 27.8124V26.5623C21.8749 25.5284 21.0338 24.6873 20 24.6873H19.8219L19.447 22.8124H27.5C28.8785 22.8124 30.0001 21.6909 30.0001 20.3124V4.06235C30.0001 2.68393 28.8785 1.5625 27.5 1.5625ZM2.49997 2.8126H27.5001C28.1893 2.8126 28.75 3.37322 28.75 4.06235V17.4374H1.2501V4.06235C1.2501 3.37322 1.81078 2.8126 2.49997 2.8126ZM20.6249 26.5623V27.1873H9.37514V26.5623C9.37514 26.2177 9.65539 25.9374 9.99998 25.9374H10.6905H19.3095C19.31 25.9373 19.3104 25.9373 19.3107 25.9374H20C20.3445 25.9374 20.6249 26.2177 20.6249 26.5623ZM18.5471 24.6873H11.4529L11.8278 22.8124H18.1721L18.5471 24.6873ZM27.5 21.5623H18.6846H11.3155H2.49997C1.81078 21.5623 1.2501 21.0016 1.2501 20.3125V18.6876H28.75V20.3125C28.75 21.0016 28.1892 21.5623 27.5 21.5623Z" fill="#000003"/>
<path d="M11.7187 13.1433C11.9955 13.6212 12.5109 13.9181 13.0636 13.9181C13.3358 13.9181 13.6046 13.8458 13.8404 13.7093L15.7794 12.5898C15.7935 12.5818 15.807 12.5731 15.8202 12.5642L17.6996 11.4791C17.9435 11.3426 18.1462 11.142 18.2859 10.8989C18.4924 10.5396 18.5466 10.1214 18.4386 9.72138C18.3305 9.3213 18.0731 8.98725 17.7149 8.78147L15.8415 7.69995C15.821 7.6867 15.8002 7.67399 15.7793 7.66198L13.9117 6.58373C13.659 6.41867 13.366 6.3316 13.0628 6.3316C12.2051 6.3316 11.5074 7.02934 11.5074 7.88698V12.3649C11.5074 12.3868 11.5086 12.4085 11.5108 12.4298C11.5213 12.68 11.5926 12.9253 11.7187 13.1433ZM12.7575 7.88698C12.7575 7.71864 12.8944 7.5817 13.0628 7.5817C13.14 7.5817 13.1977 7.60971 13.2325 7.63327C13.2447 7.64153 13.2572 7.64932 13.2699 7.65665L15.1551 8.74503C15.1604 8.74801 15.1653 8.7513 15.1702 8.75452C15.1806 8.76137 15.1912 8.76794 15.2021 8.77421L17.091 9.86476C17.1851 9.91884 17.2195 10.0023 17.2317 10.0473C17.2438 10.0922 17.2561 10.1817 17.2018 10.276C17.1741 10.3243 17.1359 10.3622 17.0881 10.3886C17.0849 10.3904 17.0818 10.3922 17.0787 10.394L15.1535 11.5055C15.1394 11.5136 15.1259 11.5222 15.1127 11.5312L13.2148 12.627C13.1678 12.6541 13.117 12.6679 13.0636 12.6679C12.9538 12.6679 12.8555 12.6114 12.8007 12.5168C12.7733 12.4697 12.7595 12.4187 12.7596 12.3652C12.7596 12.3484 12.7589 12.3316 12.7576 12.3149V7.88692H12.7575V7.88698Z" fill="#000003"/>
<path d="M3.1249 11.761C2.77972 11.761 2.49988 12.0408 2.49988 12.386V15.5626C2.49988 15.9078 2.77978 16.1876 3.1249 16.1876C3.47013 16.1876 3.74992 15.9078 3.74992 15.5626V12.386C3.74998 12.0408 3.47019 11.761 3.1249 11.761Z" fill="#000003"/>
<path d="M3.12478 11.2155C3.47001 11.2155 3.7498 10.9357 3.7498 10.5905V10.5756C3.7498 10.2304 3.46995 9.95062 3.12478 9.95062C2.7796 9.95062 2.49976 10.2305 2.49976 10.5756V10.5905C2.4997 10.9356 2.7796 11.2155 3.12478 11.2155Z" fill="#000003"/>
<path d="M26.8749 8.48909C27.2201 8.48909 27.4999 8.20924 27.4999 7.86407V4.6874C27.4999 4.34216 27.2201 4.06238 26.8749 4.06238C26.5297 4.06238 26.2499 4.34222 26.2499 4.6874V7.86401C26.2498 8.20924 26.5297 8.48909 26.8749 8.48909Z" fill="#000003"/>
<path d="M26.8748 10.2995C27.2201 10.2995 27.4999 10.0197 27.4999 9.67451V9.65951C27.4999 9.31427 27.22 9.03448 26.8748 9.03448C26.5296 9.03448 26.2498 9.31433 26.2498 9.65951V9.67451C26.2498 10.0197 26.5296 10.2995 26.8748 10.2995Z" fill="#000003"/>
</svg>
