<svg width="30" height="30" viewBox="0 0 30 30" fill="none" xmlns="http://www.w3.org/2000/svg">
<path d="M8.03875 1.06751H9.1081C9.41017 1.06751 9.64588 1.30315 9.64588 1.6051V2.68074C9.64588 3.56198 10.3697 4.28788 11.2509 4.28774H12.3265C13.2078 4.28774 13.9316 3.56198 13.9316 2.68074V1.60503C13.9316 1.30296 14.1672 1.06745 14.4694 1.06745H15.545C15.8471 1.06745 16.0744 1.30309 16.0744 1.60503V2.68074C16.0744 3.56198 16.8065 4.28774 17.6878 4.28774H18.7488C19.63 4.28774 20.3538 3.56198 20.3538 2.68074V1.60503C20.3538 1.30296 20.5895 1.06745 20.8916 1.06745H21.9673C22.2693 1.06745 22.505 1.30309 22.505 1.60503V6.96844C22.505 7.27059 22.2693 7.49786 21.9673 7.49786H8.03875C7.73667 7.49786 7.50096 7.27065 7.50096 6.96844V1.60496C7.50096 1.30289 7.73667 1.06738 8.03875 1.06738V1.06751Z" fill="white"/>
<path d="M9.09977 8.57377H20.9001L21.4191 22.5022H8.57872L9.09977 8.57377Z" fill="#29A3EC"/>
<path d="M6.43377 23.5695H23.5724C23.8745 23.5695 24.1102 23.8052 24.1102 24.1073V28.395C24.1101 28.697 23.8745 28.9328 23.5724 28.9328H6.43377C6.1317 28.9328 5.89598 28.6972 5.89598 28.395V24.1073C5.89605 23.8053 6.1317 23.5695 6.43377 23.5695Z" fill="#EE746C"/>
<path d="M9.52521 9.07591H20.4746L20.9561 22H9.04173L9.52521 9.07591Z" fill="#3CDEF6"/>
<path d="M7.31589 23.9744H22.6902C22.9612 23.9744 23.1727 24.1743 23.1727 24.4309V28.0712C23.1727 28.3279 22.9613 28.5277 22.6902 28.5277H7.31589C7.04495 28.5277 6.83348 28.3278 6.83348 28.0712V24.4309C6.83348 24.1742 7.04529 23.9744 7.31589 23.9744Z" fill="#FB9761"/>
<path d="M8.88496 1.45819H9.82433C10.0896 1.45819 10.2968 1.66511 10.2968 1.93048V2.87542C10.2968 3.64972 10.9327 4.28729 11.7068 4.28729H12.6518C13.4259 4.28729 14.0618 3.64972 14.0618 2.87542V1.93048C14.0618 1.66531 14.2687 1.45819 14.5342 1.45819H15.4792C15.7444 1.45819 15.9442 1.66511 15.9442 1.93048V2.87542C15.9442 3.64972 16.5874 4.28729 17.3617 4.28729H18.2937C19.0679 4.28729 19.7037 3.64972 19.7037 2.87542V1.93048C19.7037 1.66531 19.9107 1.45819 20.1762 1.45819H21.1211C21.3863 1.45819 21.5935 1.66511 21.5935 1.93048V6.6424C21.5935 6.90765 21.3866 7.10734 21.1211 7.10734H8.88496C8.61971 7.10734 8.41246 6.90778 8.41246 6.6424V1.93048C8.41246 1.66531 8.61938 1.45819 8.88496 1.45819Z" fill="#EBFEFF"/>
<path d="M8.03879 0.000200313C7.15761 0.000200313 6.4338 0.723952 6.43373 1.6052V3.42574H7.501V1.60513C7.501 1.30305 7.73665 1.06741 8.03879 1.06741H9.10814C9.41021 1.06741 9.64593 1.30312 9.64593 1.60513V2.68077C9.64593 3.56201 10.3697 4.28804 11.251 4.2879H12.3266C13.2078 4.2879 13.9316 3.56201 13.9316 2.68077V1.60513C13.9316 1.30305 14.1673 1.06741 14.4694 1.06741H15.5451C15.8471 1.06741 16.0745 1.30312 16.0745 1.60513V2.68077C16.0745 3.56201 16.8067 4.2879 17.6879 4.2879H18.7489C19.6301 4.2879 20.3539 3.56201 20.3539 2.68077V1.60513C20.3539 1.30305 20.5896 1.06741 20.8917 1.06741H21.9673C22.2694 1.06741 22.5052 1.30312 22.5051 1.60513V6.96854C22.5051 7.27055 22.2694 7.49796 21.9673 7.49796H8.03879C7.73672 7.49796 7.501 7.27061 7.501 6.96854V6.27171H6.43373V6.96854C6.43373 7.8461 7.15199 8.5655 8.02835 8.57153L7.50937 22.5021H6.43373C5.55249 22.5021 4.82037 23.2261 4.8203 24.1072V28.3949C4.8203 29.2762 5.55249 30 6.43373 30H23.5724C24.4536 30 25.1794 29.2761 25.1795 28.3949V24.1072C25.1794 23.2259 24.4536 22.5021 23.5724 22.5021H22.4967L21.9777 8.57153C22.8541 8.57153 23.5723 7.84617 23.5723 6.96854V1.60506C23.5723 0.723813 22.8485 6.95235e-05 21.9672 6.95235e-05H20.8917C20.0104 6.95235e-05 19.2866 0.723813 19.2866 1.60506V2.68064C19.2866 2.98278 19.051 3.21842 18.7488 3.21842H17.6878C17.3858 3.21842 17.1501 2.98271 17.15 2.68064V1.60499C17.15 0.723748 16.4262 4.17998e-08 15.545 4.17998e-08H14.4693C13.5881 -0.00020085 12.8643 0.723748 12.8643 1.60499V2.68064C12.8643 2.98278 12.6286 3.21842 12.3265 3.21842H11.2509C10.9488 3.21842 10.7131 2.98271 10.7131 2.68064V1.60499C10.7131 0.723748 9.98932 4.17998e-08 9.10807 4.17998e-08H8.03872L8.03879 0.000200313ZM6.43373 4.22924V5.46808H7.501V4.22924H6.43373ZM9.09977 8.57353H20.9001L21.4191 22.502H8.57872L9.09977 8.57353ZM6.43373 23.5693H23.5724C23.8744 23.5693 24.1101 23.8049 24.1101 24.1071V28.3949C24.1101 28.697 23.8745 28.9327 23.5724 28.9327H6.43373C6.13166 28.9327 5.89594 28.697 5.89594 28.3949V24.1071C5.89594 23.805 6.13166 23.5693 6.43373 23.5693Z" fill="#5A3392"/>
</svg>
