<svg width="20" height="20" viewBox="0 0 20 20" fill="none" xmlns="http://www.w3.org/2000/svg">
<path d="M9.99996 3.33331C9.22641 3.33331 8.48455 3.6406 7.93756 4.18758C7.39058 4.73457 7.08329 5.47643 7.08329 6.24998H8.74996C8.74996 5.91846 8.88166 5.60052 9.11608 5.3661C9.3505 5.13168 9.66844 4.99998 9.99996 4.99998C10.3315 4.99998 10.6494 5.13168 10.8838 5.3661C11.1183 5.60052 11.25 5.91846 11.25 6.24998C11.25 6.5815 11.1183 6.89944 10.8838 7.13386C10.6494 7.36828 10.3315 7.49998 9.99996 7.49998C9.54163 7.49998 9.16663 7.87498 9.16663 8.33331V9.79165L1.99996 15.1666C1.86004 15.2716 1.75668 15.4179 1.70453 15.5848C1.65238 15.7518 1.65408 15.9309 1.70939 16.0968C1.7647 16.2628 1.87081 16.4071 2.0127 16.5093C2.15459 16.6116 2.32506 16.6666 2.49996 16.6666H17.5C17.6749 16.6666 17.8453 16.6116 17.9872 16.5093C18.1291 16.4071 18.2352 16.2628 18.2905 16.0968C18.3458 15.9309 18.3475 15.7518 18.2954 15.5848C18.2432 15.4179 18.1399 15.2716 18 15.1666L10.8333 9.79165V9.04165C11.4347 8.86235 11.9622 8.49389 12.3375 7.99097C12.7128 7.48806 12.9159 6.8775 12.9166 6.24998C12.9166 5.47643 12.6093 4.73457 12.0624 4.18758C11.5154 3.6406 10.7735 3.33331 9.99996 3.33331ZM9.99996 11.25L15 15H4.99996L9.99996 11.25Z" fill="#161313"/>
</svg>
