<svg width="4" height="4" viewBox="0 0 4 4" fill="none" xmlns="http://www.w3.org/2000/svg">
<g clip-path="url(#clip0_2_563)">
<path d="M2.81128 0.352898C2.48528 0.352898 2.19595 0.483506 1.99993 0.707993C1.80391 0.483506 1.51458 0.352898 1.18857 0.352898C0.904637 0.353247 0.632427 0.467885 0.431653 0.671666C0.230878 0.875447 0.117932 1.15173 0.117589 1.43992C0.117589 2.63137 1.83457 3.58334 1.9076 3.62336C1.93597 3.63887 1.9677 3.64699 1.99993 3.64699C2.03216 3.64699 2.06388 3.63887 2.09226 3.62336C2.16528 3.58334 3.88227 2.63137 3.88227 1.43992C3.88192 1.15173 3.76898 0.875447 3.5682 0.671666C3.36743 0.467885 3.09522 0.353247 2.81128 0.352898ZM2.72219 2.69758C2.4962 2.89223 2.2546 3.06742 1.99993 3.22133C1.74525 3.06742 1.50366 2.89223 1.27766 2.69758C0.926021 2.3914 0.507038 1.92447 0.507038 1.43992C0.507038 1.25646 0.578843 1.08051 0.706656 0.950787C0.834469 0.82106 1.00782 0.74818 1.18857 0.74818C1.47742 0.74818 1.7192 0.902999 1.81965 1.15236C1.83427 1.18871 1.85922 1.21981 1.89133 1.24171C1.92344 1.26361 1.96124 1.2753 1.99993 1.2753C2.03861 1.2753 2.07642 1.26361 2.10853 1.24171C2.14064 1.21981 2.16559 1.18871 2.18021 1.15236C2.28066 0.902999 2.52244 0.74818 2.81128 0.74818C2.99204 0.74818 3.16539 0.82106 3.2932 0.950787C3.42101 1.08051 3.49282 1.25646 3.49282 1.43992C3.49282 1.92447 3.07384 2.3914 2.72219 2.69758Z" fill="#4F0DA3"/>
</g>
<defs>
<clipPath id="clip0_2_563">
<rect width="3.69565" height="3.69565" fill="white" transform="scale(1.08235)"/>
</clipPath>
</defs>
</svg>
