<svg width="30" height="30" viewBox="0 0 30 30" fill="none" xmlns="http://www.w3.org/2000/svg">
<path d="M14.5174 12.6621C14.4557 12.5955 14.3691 12.5576 14.2782 12.5576H2.01763C1.92681 12.5576 1.84009 12.5955 1.77839 12.6621C1.71669 12.7287 1.68552 12.818 1.69249 12.9085L2.96397 29.5567C2.97692 29.7267 3.11866 29.8579 3.28911 29.8579H4.62944H7.40906C7.40953 29.8579 7.41 29.8579 7.41035 29.8579H13.1729V22.951C13.3433 22.951 13.6599 24.9363 13.673 24.7664L14.6034 12.9086C14.6103 12.8179 14.5792 12.7287 14.5174 12.6621ZM4.62938 25.4755C4.3851 25.1148 4.24208 24.6806 4.24208 24.2143C4.24208 23.7466 4.38499 23.3117 4.62938 22.9509V25.4755Z" fill="#FBAE2E"/>
<g opacity="0.15">
<path opacity="0.15" d="M5.73813 25.4755V22.9509C5.49368 23.3117 5.35083 23.7466 5.35083 24.2143C5.35083 24.6806 5.49386 25.1148 5.73813 25.4755Z" fill="#202020"/>
<path opacity="0.15" d="M4.07268 29.5567L2.8012 12.9085C2.79429 12.8179 2.8254 12.7287 2.8871 12.6621C2.9488 12.5955 3.03546 12.5576 3.12634 12.5576H2.01763C1.92681 12.5576 1.84009 12.5955 1.77839 12.6621C1.71669 12.7287 1.68552 12.818 1.69249 12.9085L2.96397 29.5567C2.97698 29.7267 3.11866 29.8579 3.28911 29.8579H4.39782C4.22737 29.858 4.08569 29.7267 4.07268 29.5567Z" fill="#202020"/>
</g>
<path d="M14.0559 0.517133L13.0155 0.159653C12.9337 0.13147 12.8441 0.137036 12.7663 0.175063C12.6886 0.213032 12.6292 0.280239 12.6011 0.362036L10.0662 7.74074C10.032 7.84041 10.0479 7.95039 10.1091 8.03617C10.1703 8.12189 10.2691 8.17281 10.3745 8.17281H11.5378C11.677 8.17281 11.8009 8.08439 11.8462 7.95267L14.2583 0.931508C14.3168 0.761118 14.2262 0.575668 14.0559 0.517133Z" fill="#DCE0E2"/>
<path d="M14.6811 7.97717H1.61465C1.43453 7.97717 1.28857 8.12313 1.28857 8.30325V10.7479C1.28857 10.928 1.43453 11.074 1.61465 11.074H14.6812C14.8613 11.074 15.0073 10.928 15.0073 10.7479V8.30325C15.0073 8.12313 14.8613 7.97717 14.6811 7.97717Z" fill="#F7BF6D"/>
<path opacity="0.15" d="M2.39722 10.7479V8.30325C2.39722 8.12313 2.54318 7.97717 2.7233 7.97717H1.61465C1.43453 7.97717 1.28857 8.12313 1.28857 8.30325V10.7479C1.28857 10.928 1.43453 11.074 1.61465 11.074H2.72336C2.54318 11.074 2.39722 10.9281 2.39722 10.7479Z" fill="#202020"/>
<path d="M1.78635 14.1389H14.5094L14.6301 12.5576H1.66565L1.78635 14.1389Z" fill="#F7BF6D"/>
<path d="M1.78636 14.1389H14.5094L14.749 11.3245H1.55884L1.78636 14.1389Z" fill="#F7BF6D"/>
<path d="M27.7416 21.9562H6.50015C5.25298 21.9562 4.24207 22.9674 4.24207 24.2144C4.24207 25.4612 5.25298 26.4724 6.50015 26.4724H6.81151H27.4305H27.5643H27.7418C28.9888 26.4724 30 25.4612 30 24.2144C29.9999 22.9674 28.9887 21.9562 27.7416 21.9562Z" fill="#E95353"/>
<path d="M16.2958 11.1482C16.2958 10.5646 15.8226 10.0912 15.2389 10.0912H1.05703C0.473202 10.0912 0 10.5646 0 11.1482V11.5005C0 12.0844 0.473202 12.5576 1.05703 12.5576H15.2389C15.8226 12.5576 16.2958 12.0844 16.2958 11.5005V11.1482Z" fill="#8C5549"/>
<path opacity="0.15" d="M1.66565 12.5576L1.78635 14.1389H2.89512L2.77436 12.5576H1.66565Z" fill="#202020"/>
<path opacity="0.15" d="M1.10871 11.5005V11.1482C1.10871 10.5646 1.58191 10.0912 2.16574 10.0912H1.05703C0.473202 10.0912 0 10.5646 0 11.1482V11.5005C0 12.0844 0.473202 12.5576 1.05703 12.5576H2.16574C1.58191 12.5576 1.10871 12.0844 1.10871 11.5005Z" fill="#202020"/>
<path d="M9.8568 21.9562L9.38512 22.4402C9.1965 22.6336 9.20049 22.9433 9.39396 23.1319C9.48906 23.2246 9.61223 23.2707 9.73533 23.2707C9.8626 23.2707 9.98975 23.2213 10.0856 23.123L11.1207 22.0611C11.1519 22.029 11.1773 21.9936 11.198 21.9562H9.8568Z" fill="#F96969"/>
<path d="M13.1483 21.9562L12.6766 22.4402C12.488 22.6336 12.492 22.9433 12.6855 23.1319C12.7806 23.2246 12.9037 23.2707 13.0268 23.2707C13.1541 23.2707 13.2812 23.2213 13.3771 23.123L14.4122 22.061C14.4434 22.029 14.4688 21.9936 14.4895 21.9562H13.1483Z" fill="#F96969"/>
<path d="M16.4398 21.9562L15.9682 22.4402C15.7796 22.6336 15.7836 22.9433 15.9771 23.1319C16.0723 23.2246 16.1954 23.2707 16.3185 23.2707C16.4457 23.2707 16.5729 23.2213 16.6687 23.123L17.7038 22.061C17.735 22.029 17.7603 21.9936 17.7811 21.9562H16.4398Z" fill="#F96969"/>
<path d="M19.7311 21.9562L19.2596 22.4402C19.071 22.6336 19.075 22.9433 19.2684 23.1319C19.3635 23.2246 19.4867 23.2707 19.6098 23.2707C19.7371 23.2707 19.8642 23.2213 19.9601 23.123L20.9952 22.0611C21.0264 22.029 21.0518 21.9936 21.0725 21.9562H19.7311Z" fill="#F96969"/>
<path d="M23.0228 21.9562L22.5512 22.4402C22.3627 22.6336 22.3666 22.9433 22.5601 23.1319C22.6552 23.2246 22.7783 23.2707 22.9014 23.2707C23.0288 23.2707 23.1558 23.2213 23.2518 23.123L24.2868 22.0611C24.318 22.029 24.3434 21.9936 24.3642 21.9562H23.0228Z" fill="#F96969"/>
<g opacity="0.15">
<path opacity="0.15" d="M5.35077 24.2144C5.35077 22.9673 6.36169 21.9562 7.60886 21.9562H6.50015C5.25298 21.9562 4.24207 22.9673 4.24207 24.2144C4.24207 25.4611 5.25298 26.4723 6.50015 26.4723H6.81151C6.81327 26.4249 6.8169 26.3778 6.82153 26.331C5.96267 26.0114 5.35077 25.1843 5.35077 24.2144Z" fill="#202020"/>
</g>
<path d="M25.0848 24.2142H9.15741C7.86056 24.2142 6.80933 25.2654 6.80933 26.5623V26.9785V27.0938V27.5101C6.80933 28.8069 7.86056 29.8581 9.15741 29.8581H22.1311H23.7397H25.0849C26.3816 29.8581 27.433 28.8069 27.433 27.5101V27.0938V26.9785V26.5623C27.4328 25.2654 26.3815 24.2142 25.0848 24.2142Z" fill="#F7BD63"/>
<path opacity="0.15" d="M7.91803 27.51V27.0937V26.9784V26.5623C7.91803 25.2653 8.96926 24.2142 10.2661 24.2142H9.15729C7.86043 24.2142 6.8092 25.2653 6.8092 26.5623V26.9784V27.0937V27.51C6.8092 28.8069 7.86043 29.858 9.15729 29.858H10.2661C8.96926 29.858 7.91803 28.8067 7.91803 27.51Z" fill="#202020"/>
</svg>
