<svg width="16" height="16" viewBox="0 0 16 16" fill="none" xmlns="http://www.w3.org/2000/svg">
<path fill-rule="evenodd" clip-rule="evenodd" d="M7.73741 1.38666C7.82041 1.35108 7.90978 1.33273 8.00008 1.33273C8.09039 1.33273 8.17975 1.35108 8.26275 1.38666L12.5254 3.21399C12.7653 3.31683 12.9697 3.48782 13.1134 3.70575C13.257 3.92369 13.3335 4.17898 13.3334 4.43999V9.01333C13.3333 9.83594 13.1158 10.6439 12.7029 11.3554C12.29 12.0669 11.6963 12.6565 10.9821 13.0647L8.33075 14.5793C8.23004 14.6369 8.11606 14.6671 8.00008 14.6671C7.8841 14.6671 7.77012 14.6369 7.66941 14.5793L5.01808 13.0647C4.30366 12.6564 3.70988 12.0665 3.29694 11.3548C2.88401 10.6431 2.66659 9.83483 2.66675 9.01199V4.43999C2.66678 4.1791 2.74335 3.92394 2.88697 3.70614C3.03059 3.48834 3.23496 3.31745 3.47475 3.21466L7.73741 1.38799V1.38666ZM10.4714 7.13799C10.5929 7.01226 10.66 6.84386 10.6585 6.66906C10.657 6.49426 10.5869 6.32705 10.4633 6.20345C10.3397 6.07984 10.1725 6.00973 9.99768 6.00821C9.82288 6.00669 9.65448 6.07389 9.52875 6.19533L7.33342 8.39066L6.47141 7.52866C6.34568 7.40722 6.17728 7.34002 6.00248 7.34154C5.82768 7.34306 5.66047 7.41318 5.53687 7.53678C5.41326 7.66039 5.34315 7.82759 5.34163 8.00239C5.34011 8.17719 5.40731 8.34559 5.52875 8.47133L6.86208 9.80466C6.9871 9.92964 7.15664 9.99985 7.33342 9.99985C7.51019 9.99985 7.67973 9.92964 7.80475 9.80466L10.4714 7.13799Z" fill="#F5F5F5"/>
</svg>
