<svg width="20" height="19" viewBox="0 0 20 19" fill="none" xmlns="http://www.w3.org/2000/svg">
<path d="M2.5 10.3376V16.7501C2.5 16.9491 2.57902 17.1398 2.71967 17.2805C2.86032 17.4211 3.05109 17.5001 3.25 17.5001H16.75C16.9489 17.5001 17.1397 17.4211 17.2803 17.2805C17.421 17.1398 17.5 16.9491 17.5 16.7501V10.3376" stroke="black" stroke-width="2" stroke-linecap="round" stroke-linejoin="round"/>
<path d="M3.0625 1H16.9375C17.1002 1.00134 17.2582 1.0549 17.3881 1.1528C17.5181 1.25069 17.6132 1.38774 17.6594 1.54375L19 6.25H1L2.34062 1.54375C2.38682 1.38774 2.4819 1.25069 2.61187 1.1528C2.74183 1.0549 2.8998 1.00134 3.0625 1V1Z" stroke="black" stroke-width="2" stroke-linecap="round" stroke-linejoin="round"/>
<path d="M7 6.25V7.75C7 8.54565 6.68393 9.30871 6.12132 9.87132C5.55871 10.4339 4.79565 10.75 4 10.75C3.20435 10.75 2.44129 10.4339 1.87868 9.87132C1.31607 9.30871 1 8.54565 1 7.75V6.25" stroke="black" stroke-width="2" stroke-linecap="round" stroke-linejoin="round"/>
<path d="M13 6.25V7.75C13 8.54565 12.6839 9.30871 12.1213 9.87132C11.5587 10.4339 10.7956 10.75 10 10.75C9.20435 10.75 8.44129 10.4339 7.87868 9.87132C7.31607 9.30871 7 8.54565 7 7.75V6.25" stroke="black" stroke-width="2" stroke-linecap="round" stroke-linejoin="round"/>
<path d="M19 6.25V7.75C19 8.54565 18.6839 9.30871 18.1213 9.87132C17.5587 10.4339 16.7956 10.75 16 10.75C15.2044 10.75 14.4413 10.4339 13.8787 9.87132C13.3161 9.30871 13 8.54565 13 7.75V6.25" stroke="black" stroke-width="2" stroke-linecap="round" stroke-linejoin="round"/>
</svg>
