<svg width="16" height="16" viewBox="0 0 16 16" fill="none" xmlns="http://www.w3.org/2000/svg">
<g clip-path="url(#clip0_0_16)">
<path d="M9 8.75C9.41421 8.75 9.75 8.41421 9.75 8C9.75 7.58579 9.41421 7.25 9 7.25C8.58579 7.25 8.25 7.58579 8.25 8C8.25 8.41421 8.58579 8.75 9 8.75Z" fill="black"/>
<path d="M6 8.75C6.41421 8.75 6.75 8.41421 6.75 8C6.75 7.58579 6.41421 7.25 6 7.25C5.58579 7.25 5.25 7.58579 5.25 8C5.25 8.41421 5.58579 8.75 6 8.75Z" fill="black"/>
<path d="M12 8.75C12.4142 8.75 12.75 8.41421 12.75 8C12.75 7.58579 12.4142 7.25 12 7.25C11.5858 7.25 11.25 7.58579 11.25 8C11.25 8.41421 11.5858 8.75 12 8.75Z" fill="black"/>
<path d="M3.83767 11.0625C3.09322 9.80655 2.83282 8.32202 3.10536 6.88764C3.3779 5.45326 4.16462 4.16768 5.31784 3.27225C6.47107 2.37682 7.91148 1.93312 9.36866 2.02444C10.8258 2.11576 12.1996 2.73583 13.232 3.76823C14.2644 4.80064 14.8845 6.17438 14.9758 7.63156C15.0671 9.08874 14.6234 10.5292 13.728 11.6824C12.8325 12.8356 11.547 13.6223 10.1126 13.8949C8.6782 14.1674 7.19366 13.907 5.93767 13.1625V13.1625L3.86267 13.75C3.77765 13.7749 3.68752 13.7764 3.6017 13.7545C3.51589 13.7325 3.43756 13.6879 3.37493 13.6253C3.3123 13.5627 3.26767 13.4843 3.24572 13.3985C3.22377 13.3127 3.2253 13.2226 3.25017 13.1375L3.83767 11.0625Z" stroke="black" stroke-width="2" stroke-linecap="round" stroke-linejoin="round"/>
</g>
<defs>
<clipPath id="clip0_0_16">
<rect width="16" height="16" fill="white"/>
</clipPath>
</defs>
</svg>
