<svg width="24" height="24" viewBox="0 0 24 24" fill="none" xmlns="http://www.w3.org/2000/svg">
<path d="M13.5 13.125C14.1213 13.125 14.625 12.6213 14.625 12C14.625 11.3787 14.1213 10.875 13.5 10.875C12.8787 10.875 12.375 11.3787 12.375 12C12.375 12.6213 12.8787 13.125 13.5 13.125Z" fill="black"/>
<path d="M9 13.125C9.62132 13.125 10.125 12.6213 10.125 12C10.125 11.3787 9.62132 10.875 9 10.875C8.37868 10.875 7.875 11.3787 7.875 12C7.875 12.6213 8.37868 13.125 9 13.125Z" fill="black"/>
<path d="M18 13.125C18.6213 13.125 19.125 12.6213 19.125 12C19.125 11.3787 18.6213 10.875 18 10.875C17.3787 10.875 16.875 11.3787 16.875 12C16.875 12.6213 17.3787 13.125 18 13.125Z" fill="black"/>
<path d="M5.7565 16.5937C4.63983 14.7097 4.24924 12.4829 4.65804 10.3314C5.06684 8.1798 6.24693 6.25143 7.97677 4.90829C9.7066 3.56514 11.8672 2.89958 14.053 3.03657C16.2388 3.17355 18.2994 4.10365 19.848 5.65226C21.3966 7.20086 22.3267 9.26148 22.4637 11.4472C22.6007 13.633 21.9351 15.7936 20.5919 17.5235C19.2488 19.2533 17.3204 20.4334 15.1689 20.8422C13.0173 21.251 10.7905 20.8604 8.9065 19.7437V19.7437L5.794 20.625C5.66648 20.6623 5.53128 20.6646 5.40256 20.6317C5.27384 20.5987 5.15635 20.5318 5.0624 20.4378C4.96845 20.3439 4.9015 20.2264 4.86858 20.0977C4.83565 19.969 4.83796 19.8338 4.87525 19.7062L5.7565 16.5937Z" stroke="black" stroke-width="2" stroke-linecap="round" stroke-linejoin="round"/>
</svg>
