<svg width="30" height="30" viewBox="0 0 30 30" fill="none" xmlns="http://www.w3.org/2000/svg">
<path d="M26.1472 20.4515C24.8057 15.4374 22.6544 11.6922 19.048 10.1503V12.0834L14.9358 10.208L10.8236 12.0834V10.226C7.28801 11.7962 5.17213 15.5121 3.84486 20.4731C3.0985 23.2628 2.65283 29.217 2.65283 29.217H27.3471C27.3472 29.217 26.8935 23.2412 26.1472 20.4515Z" fill="#DE5E88"/>
<path d="M9.75393 15.1135C9.70302 15.1135 9.65134 15.1087 9.60124 15.0986C9.55114 15.0885 9.50181 15.0735 9.45481 15.054C9.40706 15.0344 9.36165 15.0101 9.31935 14.982C9.27628 14.953 9.23638 14.921 9.20034 14.8841C9.16431 14.8481 9.13144 14.8082 9.10325 14.7651C9.07507 14.7228 9.05081 14.6774 9.03124 14.6303C9.01167 14.5826 8.99679 14.5341 8.98659 14.484C8.9764 14.433 8.97095 14.3821 8.97095 14.3305C8.97095 14.2796 8.97645 14.2286 8.98659 14.1778C8.99679 14.1276 9.01167 14.0783 9.03124 14.0314C9.05081 13.9843 9.07507 13.939 9.10325 13.8959C9.13144 13.8536 9.16431 13.8129 9.20034 13.7769C9.23638 13.7409 9.27628 13.708 9.31935 13.6798C9.36165 13.6516 9.40706 13.6274 9.45481 13.6078C9.50181 13.5882 9.55114 13.5734 9.60124 13.5632C9.70226 13.5428 9.80638 13.5428 9.90739 13.5632C9.95749 13.5734 10.0068 13.5882 10.0538 13.6078C10.1008 13.6274 10.1462 13.6516 10.1893 13.6798C10.2316 13.708 10.2715 13.7409 10.3083 13.7769C10.454 13.9233 10.5369 14.1245 10.5369 14.3305C10.5369 14.3821 10.5322 14.4331 10.522 14.484C10.5118 14.5341 10.497 14.5826 10.4774 14.6303C10.4578 14.6774 10.4336 14.7228 10.4054 14.7651C10.3764 14.8082 10.3443 14.8481 10.3083 14.8841C10.2715 14.921 10.2315 14.953 10.1893 14.982C10.1462 15.0101 10.1008 15.0344 10.0538 15.054C10.0068 15.0735 9.95749 15.0884 9.90739 15.0986C9.85647 15.1088 9.80561 15.1135 9.75393 15.1135Z" fill="black"/>
<path d="M5.66174 26.4764C5.86524 24.6077 6.15575 22.4393 6.49225 21.1813C6.92825 19.5518 7.44071 18.1397 8.02518 16.954C8.09016 16.8222 8.15608 16.693 8.22288 16.5668" fill="#DE5E88"/>
<path d="M5.66269 27.2596C5.63433 27.2596 5.60579 27.258 5.57696 27.2549C5.14712 27.2081 4.83651 26.8217 4.88333 26.3919C5.06978 24.6794 5.36907 22.3502 5.73593 20.979C6.18312 19.3076 6.71702 17.837 7.323 16.608C7.39103 16.47 7.46099 16.333 7.53089 16.2008C7.73316 15.8186 8.20701 15.6727 8.58922 15.8749C8.97142 16.0771 9.11732 16.551 8.91517 16.9332C8.85213 17.0524 8.78902 17.1759 8.72756 17.3004C8.16693 18.4376 7.66935 19.8114 7.24871 21.3838C6.90757 22.6591 6.62064 24.9032 6.44017 26.5613C6.39646 26.9624 6.05708 27.2596 5.66269 27.2596Z" fill="black"/>
<path d="M19.048 6.81909L14.9358 8.6945L10.8236 6.81909V12.0834L14.9358 10.208L19.048 12.0834V6.81909Z" fill="#FECC85"/>
<path d="M18.1697 0.784365C17.0386 0.784365 15.6305 1.50964 15.0061 1.50489C14.3879 1.50003 13.0031 0.782959 11.8294 0.782959C10.1307 0.782959 9.75221 1.81011 10.1575 3.89341C10.2501 4.36907 10.6105 5.67688 10.951 6.87717L14.9358 8.6944L19.0253 6.8293C19.3777 5.64401 19.7457 4.36766 19.8414 3.89675C20.2492 1.89161 19.8683 0.784365 18.1697 0.784365Z" fill="#BBDCE3"/>
<path d="M28.1279 29.1577C28.1092 28.9107 27.6601 23.0767 26.9036 20.2492C25.4306 14.7433 23.1134 11.2701 19.8309 9.65074V6.86672C20.266 5.39801 20.5279 4.45072 20.6088 4.05281C20.9159 2.54203 20.7967 1.51758 20.2338 0.828574C19.7851 0.279551 19.0907 0.00128906 18.1696 0.00128906C17.4013 0.00128906 16.5799 0.265078 15.9198 0.477129C15.598 0.58043 15.1577 0.721875 15.0138 0.721816C15.0133 0.721816 15.0127 0.721816 15.0122 0.721816C14.8739 0.720703 14.4509 0.584473 14.142 0.485039C13.471 0.268945 12.636 0 11.8294 0C10.8995 0 10.2033 0.272578 9.76025 0.810234C9.20062 1.48922 9.08607 2.48625 9.38888 4.04297C9.46172 4.41732 9.68941 5.28527 10.0656 6.62291C10.0493 6.68625 10.0407 6.75205 10.0407 6.81902V9.73377C6.82236 11.3752 4.5447 14.8283 3.08865 20.2705C2.33197 23.0986 1.89052 28.9124 1.87207 29.1586C1.85578 29.3757 1.93078 29.59 2.07896 29.7496C2.22709 29.9092 2.43509 30 2.65289 30H27.3472C27.5651 30 27.7732 29.9092 27.9214 29.7493C28.0695 29.5894 28.1444 29.375 28.1279 29.1577ZM14.6824 9.46746C14.6582 9.47566 14.6343 9.48486 14.6108 9.49547L11.6065 10.8656V10.2258V8.03672L14.6108 9.40688C14.6346 9.41777 14.659 9.42691 14.6835 9.43529C14.6896 9.43734 14.6958 9.4391 14.7019 9.44104C14.7128 9.44438 14.7236 9.4483 14.7345 9.45123C14.7245 9.45387 14.7147 9.45744 14.7047 9.46049C14.6974 9.46277 14.6899 9.465 14.6824 9.46746ZM15.1888 9.4674C15.1819 9.465 15.1747 9.46301 15.1677 9.46084C15.1574 9.45762 15.1472 9.45393 15.1368 9.45123C15.1474 9.44842 15.1578 9.44473 15.1684 9.44145C15.175 9.43939 15.1816 9.43752 15.1882 9.43523C15.2126 9.42691 15.2369 9.41772 15.2606 9.40688L18.265 8.03672V10.1503V10.8657L15.2606 9.49553C15.2371 9.48481 15.2131 9.47572 15.1888 9.4674ZM10.9686 1.80621C11.1 1.64678 11.3896 1.56598 11.8294 1.56598C12.39 1.56598 13.0656 1.78359 13.6618 1.97566C14.1983 2.1484 14.622 2.28486 15 2.28785C15.0039 2.28785 15.0079 2.28785 15.0118 2.28785C15.4031 2.28785 15.8648 2.13955 16.3986 1.96816C16.9836 1.78031 17.6466 1.56732 18.1696 1.56732C18.5979 1.56732 18.8844 1.65223 19.0211 1.81963C19.1538 1.98193 19.3371 2.44752 19.074 3.74104C19.0256 3.97928 18.8638 4.61273 18.3758 6.26496L16.9538 6.91354L14.9356 7.83387L11.6056 6.31518C11.1301 4.62885 10.9727 3.98473 10.9259 3.74396C10.6678 2.41623 10.8419 1.95996 10.9686 1.80621ZM3.50367 28.434C3.65548 26.7063 4.04666 22.7488 4.60136 20.6754C5.81988 16.1212 7.60593 13.1157 10.0407 11.5382V12.0834V12.0835C10.0407 12.3499 10.1762 12.598 10.4002 12.7421C10.4023 12.7434 10.4045 12.7443 10.4067 12.7456C10.4347 12.7633 10.4636 12.7791 10.4933 12.7928C10.5049 12.7982 10.517 12.8023 10.5289 12.8072C10.5496 12.8156 10.5704 12.8239 10.5917 12.8305C10.6055 12.8347 10.6194 12.8379 10.6334 12.8414C10.6535 12.8464 10.6736 12.851 10.6939 12.8545C10.7085 12.8569 10.7231 12.8587 10.7377 12.8603C10.758 12.8626 10.7783 12.864 10.7987 12.8647C10.8071 12.865 10.8153 12.8664 10.8237 12.8664C10.8318 12.8664 10.8398 12.8654 10.8479 12.8651C10.8591 12.8648 10.8701 12.8641 10.8813 12.8634C10.9011 12.8619 10.9207 12.8596 10.9404 12.8566C10.9511 12.855 10.9618 12.8535 10.9724 12.8515C10.9937 12.8474 11.0147 12.842 11.0357 12.8361C11.0443 12.8337 11.053 12.8318 11.0616 12.829C11.091 12.8197 11.1202 12.8088 11.1487 12.7958L14.936 11.0685L18.7233 12.7958C18.9657 12.9064 19.2476 12.886 19.4716 12.742C19.6956 12.5979 19.8311 12.3497 19.8311 12.0834V12.0833V11.44C22.3283 12.9993 24.1538 16.0296 25.3909 20.6538V20.6539C25.9457 22.7275 26.3417 26.7011 26.4956 28.434H3.50367V28.434Z" fill="black"/>
</svg>
