<svg width="21" height="25" viewBox="0 0 21 25" fill="none" xmlns="http://www.w3.org/2000/svg">
<path d="M4.3012 15.8133C6.25749 15.8133 7.84337 14.2274 7.84337 12.2711C7.84337 10.3148 6.25749 8.72892 4.3012 8.72892C2.34492 8.72892 0.759036 10.3148 0.759036 12.2711C0.759036 14.2274 2.34492 15.8133 4.3012 15.8133Z" stroke="black" stroke-opacity="0.8" stroke-width="1.5" stroke-linecap="round" stroke-linejoin="round"/>
<path d="M16.6988 23.7831C18.6551 23.7831 20.241 22.1972 20.241 20.241C20.241 18.2847 18.6551 16.6988 16.6988 16.6988C14.7425 16.6988 13.1566 18.2847 13.1566 20.241C13.1566 22.1972 14.7425 23.7831 16.6988 23.7831Z" stroke="black" stroke-opacity="0.8" stroke-width="1.5" stroke-linecap="round" stroke-linejoin="round"/>
<path d="M16.6988 7.84337C18.6551 7.84337 20.241 6.25749 20.241 4.3012C20.241 2.34492 18.6551 0.759036 16.6988 0.759036C14.7425 0.759036 13.1566 2.34492 13.1566 4.3012C13.1566 6.25749 14.7425 7.84337 16.6988 7.84337Z" stroke="black" stroke-opacity="0.8" stroke-width="1.5" stroke-linecap="round" stroke-linejoin="round"/>
<path d="M13.7204 6.21609L7.27805 10.356" stroke="black" stroke-opacity="0.8" stroke-width="1.5" stroke-linecap="round" stroke-linejoin="round"/>
<path d="M7.27805 14.186L13.7204 18.3259" stroke="black" stroke-opacity="0.8" stroke-width="1.5" stroke-linecap="round" stroke-linejoin="round"/>
</svg>
