<svg width="24" height="24" viewBox="0 0 24 24" fill="none" xmlns="http://www.w3.org/2000/svg">
<path d="M22 5C22 5.79565 21.6839 6.55871 21.1213 7.12132C20.5587 7.68393 19.7956 8 19 8C18.2044 8 17.4413 7.68393 16.8787 7.12132C16.3161 6.55871 16 5.79565 16 5C16 4.20435 16.3161 3.44129 16.8787 2.87868C17.4413 2.31607 18.2044 2 19 2C19.7956 2 20.5587 2.31607 21.1213 2.87868C21.6839 3.44129 22 4.20435 22 5Z" fill="black"/>
<path fill-rule="evenodd" clip-rule="evenodd" d="M6.25 14C6.25 13.8011 6.32902 13.6103 6.46967 13.4697C6.61032 13.329 6.80109 13.25 7 13.25H16C16.1989 13.25 16.3897 13.329 16.5303 13.4697C16.671 13.6103 16.75 13.8011 16.75 14C16.75 14.1989 16.671 14.3897 16.5303 14.5303C16.3897 14.671 16.1989 14.75 16 14.75H7C6.80109 14.75 6.61032 14.671 6.46967 14.5303C6.32902 14.3897 6.25 14.1989 6.25 14Z" fill="black"/>
<path fill-rule="evenodd" clip-rule="evenodd" d="M3.464 20.535C4.93 22 7.286 22 12 22C16.714 22 19.071 22 20.535 20.535C22 19.072 22 16.714 22 12C22 10.601 22 9.41 21.962 8.388C21.1029 9.14022 19.9899 9.5377 18.8486 9.49988C17.7073 9.46206 16.6231 8.99178 15.8157 8.18433C15.0082 7.37688 14.5379 6.29266 14.5001 5.15138C14.4623 4.01011 14.8598 2.89713 15.612 2.038C14.59 2 13.399 2 12 2C7.286 2 4.929 2 3.464 3.464C2 4.93 2 7.286 2 12C2 16.714 2 19.071 3.464 20.535ZM6.25 17.5C6.25 17.3011 6.32902 17.1103 6.46967 16.9697C6.61032 16.829 6.80109 16.75 7 16.75H13C13.1989 16.75 13.3897 16.829 13.5303 16.9697C13.671 17.1103 13.75 17.3011 13.75 17.5C13.75 17.6989 13.671 17.8897 13.5303 18.0303C13.3897 18.171 13.1989 18.25 13 18.25H7C6.80109 18.25 6.61032 18.171 6.46967 18.0303C6.32902 17.8897 6.25 17.6989 6.25 17.5Z" fill="black"/>
</svg>
