<svg width="15" height="14" viewBox="0 0 15 14" fill="none" xmlns="http://www.w3.org/2000/svg">
<path d="M14.4658 5.27593C14.4009 5.07175 14.2758 4.89194 14.107 4.76009C13.9382 4.62824 13.7334 4.55049 13.5196 4.53704L9.67036 4.2713L8.2447 0.674074C8.16685 0.476002 8.03135 0.305864 7.85574 0.185684C7.68012 0.0655046 7.47248 0.000818536 7.2597 0C7.04691 0.000818536 6.83927 0.0655046 6.66366 0.185684C6.48805 0.305864 6.35254 0.476002 6.2747 0.674074L4.82312 4.29074L0.999757 4.53704C0.786235 4.55136 0.581923 4.62943 0.413249 4.76116C0.244576 4.89289 0.119304 5.07221 0.0536374 5.27593C-0.0137959 5.48277 -0.0177358 5.70507 0.0423258 5.91417C0.102387 6.12327 0.223696 6.30958 0.390612 6.44908L3.33265 8.93797L2.45782 12.3796C2.39729 12.6125 2.40818 12.8581 2.48908 13.0847C2.56998 13.3112 2.71714 13.5082 2.91144 13.65C3.10003 13.7854 3.32473 13.8614 3.55677 13.8683C3.78881 13.8753 4.01764 13.8128 4.21397 13.6889L7.25322 11.7639H7.26618L10.5387 13.8315C10.7066 13.9406 10.9023 13.9991 11.1025 14C11.266 13.9987 11.427 13.96 11.5731 13.8867C11.7193 13.8135 11.8467 13.7077 11.9455 13.5775C12.0444 13.4473 12.1121 13.2962 12.1435 13.1357C12.1748 12.9752 12.169 12.8097 12.1264 12.6519L11.1997 8.88611L14.1288 6.44908C14.2957 6.30958 14.417 6.12327 14.4771 5.91417C14.5371 5.70507 14.5332 5.48277 14.4658 5.27593Z" fill="#FF8A15"/>
</svg>
