<svg width="4" height="4" viewBox="0 0 4 4" fill="none" xmlns="http://www.w3.org/2000/svg">
<path d="M2.86206 0C2.51568 0 2.20827 0.138771 1.99999 0.37729C1.79172 0.138771 1.48431 0 1.13793 0C0.836242 0.000370482 0.547018 0.122173 0.333694 0.338692C0.120371 0.55521 0.000365016 0.848766 0 1.15497C0 2.42088 1.8243 3.43236 1.90189 3.47488C1.93204 3.49136 1.96575 3.49999 1.99999 3.49999C2.03424 3.49999 2.06795 3.49136 2.0981 3.47488C2.17568 3.43236 3.99999 2.42088 3.99999 1.15497C3.99962 0.848766 3.87962 0.55521 3.66629 0.338692C3.45297 0.122173 3.16375 0.000370482 2.86206 0ZM2.7674 2.49123C2.52728 2.69805 2.27059 2.88419 1.99999 3.04772C1.7294 2.88419 1.47271 2.69805 1.23258 2.49123C0.858963 2.16592 0.413792 1.6698 0.413792 1.15497C0.413792 0.96004 0.490084 0.773095 0.625886 0.635259C0.761688 0.497424 0.945875 0.419989 1.13793 0.419989C1.44482 0.419989 1.70172 0.584484 1.80844 0.849427C1.82398 0.88805 1.85049 0.921102 1.88461 0.944367C1.91872 0.967633 1.95889 0.980058 1.99999 0.980058C2.0411 0.980058 2.08126 0.967633 2.11538 0.944367C2.1495 0.921102 2.17601 0.88805 2.19154 0.849427C2.29827 0.584484 2.55516 0.419989 2.86206 0.419989C3.05411 0.419989 3.2383 0.497424 3.3741 0.635259C3.5099 0.773095 3.5862 0.96004 3.5862 1.15497C3.5862 1.6698 3.14102 2.16592 2.7674 2.49123Z" fill="#4F0DA3"/>
</svg>
