<svg width="10" height="10" viewBox="0 0 10 10" fill="none" xmlns="http://www.w3.org/2000/svg">
<path d="M1.25054 7.275V8.54166C1.25054 8.65832 1.34221 8.74999 1.45888 8.74999H2.72554C2.7797 8.74999 2.83387 8.72916 2.87137 8.68749L7.42135 4.14168L5.85886 2.57919L1.31304 7.125C1.27138 7.16666 1.25054 7.21666 1.25054 7.275ZM8.62968 2.93335C8.6683 2.8948 8.69895 2.84902 8.71986 2.79861C8.74076 2.74821 8.75153 2.69417 8.75153 2.6396C8.75153 2.58503 8.74076 2.531 8.71986 2.48059C8.69895 2.43019 8.6683 2.3844 8.62968 2.34585L7.65468 1.37086C7.61613 1.33223 7.57035 1.30159 7.51994 1.28068C7.46954 1.25977 7.4155 1.24901 7.36093 1.24901C7.30636 1.24901 7.25233 1.25977 7.20192 1.28068C7.15152 1.30159 7.10573 1.33223 7.06718 1.37086L6.30469 2.13335L7.86718 3.69585L8.62968 2.93335Z" fill="white"/>
</svg>
