<svg width="24" height="24" viewBox="0 0 24 24" fill="none" xmlns="http://www.w3.org/2000/svg">
<g clip-path="url(#clip0_2_2145)">
<path d="M12.0003 0C8.45107 0 5.53876 2.91231 5.53876 6.46154V7.38462H4.61569C3.6003 7.38462 2.76953 8.21538 2.76953 9.23077V20.3077C2.76953 21.3231 3.6003 22.1538 4.61569 22.1538H19.3849C20.4003 22.1538 21.2311 21.3231 21.2311 20.3077V9.23077C21.2311 8.21538 20.4003 7.38462 19.3849 7.38462H18.4618V6.46154C18.4618 2.91231 15.5495 0 12.0003 0ZM12.0003 1.84615C14.5434 1.84615 16.6157 3.91846 16.6157 6.46154V7.38462H7.38492V6.46154C7.38492 3.91846 9.45722 1.84615 12.0003 1.84615ZM12.0003 10.1538C14.5849 10.1538 16.6157 12.1846 16.6157 14.7692C16.6157 17.3538 14.5849 19.3846 12.0003 19.3846C9.41569 19.3846 7.38492 17.3538 7.38492 14.7692C7.38492 12.1846 9.41569 10.1538 12.0003 10.1538ZM12.0003 12C10.4311 12 9.23107 13.2 9.23107 14.7692C9.23107 16.3385 10.4311 17.5385 12.0003 17.5385C13.5695 17.5385 14.7695 16.3385 14.7695 14.7692C14.7695 14.4923 14.6828 14.2098 14.6828 13.9329C14.4058 14.3945 13.9388 14.7692 13.3849 14.7692C12.6465 14.7692 12.0003 14.1231 12.0003 13.3846C12.0003 12.8308 12.3751 12.3637 12.8366 12.0868C12.5597 12.0868 12.2772 12 12.0003 12Z" fill="black"/>
</g>
<defs>
<clipPath id="clip0_2_2145">
<rect width="24" height="24" fill="white"/>
</clipPath>
</defs>
</svg>
