<svg width="30" height="30" viewBox="0 0 30 30" fill="none" xmlns="http://www.w3.org/2000/svg">
<path d="M12.9598 25.2819C18.1381 25.2819 22.336 21.084 22.336 15.9057C22.336 10.7274 18.1381 6.52954 12.9598 6.52954C7.78147 6.52954 3.58362 10.7274 3.58362 15.9057C3.58362 21.084 7.78147 25.2819 12.9598 25.2819Z" fill="#FF9690"/>
<path d="M12.9597 22.7391C16.7337 22.7391 19.7931 19.6797 19.7931 15.9057C19.7931 12.1318 16.7337 9.07239 12.9597 9.07239C9.18574 9.07239 6.12634 12.1318 6.12634 15.9057C6.12634 19.6797 9.18574 22.7391 12.9597 22.7391Z" fill="#FD3B6D"/>
<path d="M3.58362 6.52959H22.336C22.336 -1.3314 3.58362 -1.3314 3.58362 6.52959Z" fill="#FC7576"/>
<path d="M19.5906 29.3699C15.8213 29.3699 12.7572 26.3058 12.7572 22.5366C12.7572 18.7673 15.8213 15.6995 19.5906 15.6995C23.3598 15.6995 26.4239 18.7636 26.4239 22.5328C26.4239 26.302 23.3598 29.3699 19.5906 29.3699Z" fill="#FFD37D"/>
<path d="M9.28427 16.2808C8.94297 16.2808 8.66919 16.5545 8.66919 16.8958C8.66919 17.2371 8.94297 17.5109 9.28427 17.5109C9.62556 17.5109 9.89934 17.2371 9.89934 16.8958C9.90685 16.562 9.62931 16.2808 9.28427 16.2808Z" fill="#000030"/>
<path d="M11.4295 19.1199C11.7692 19.1199 12.0446 18.8445 12.0446 18.5048C12.0446 18.1651 11.7692 17.8897 11.4295 17.8897C11.0898 17.8897 10.8145 18.1651 10.8145 18.5048C10.8145 18.8445 11.0898 19.1199 11.4295 19.1199Z" fill="#000030"/>
<path d="M22.9735 15.8757C22.9623 12.1365 20.892 8.87361 17.8391 7.16339H22.3397C22.6922 7.16339 22.9735 6.87461 22.9735 6.52957C22.9735 4.46681 21.8484 2.74534 19.7143 1.55269C17.9216 0.551319 15.5251 0 12.9598 0C10.3944 0 7.99414 0.551319 6.20142 1.55269C4.0749 2.74159 2.94226 4.46681 2.94226 6.52957C2.94226 6.88211 3.23105 7.16339 3.57609 7.16339H8.07665C5.01627 8.88111 2.94226 12.1515 2.94226 15.9057C2.94226 21.4152 7.42032 25.9045 12.9298 25.9157C14.1674 28.3423 16.6877 30 19.5868 30C23.7048 30 27.0578 26.6471 27.0578 22.5291C27.0578 19.63 25.3926 17.1134 22.9735 15.8757ZM4.26993 5.89574C4.53246 4.27928 5.77011 3.25916 6.82399 2.66658C8.40669 1.78147 10.6457 1.27141 12.9598 1.27141C15.2738 1.27141 17.5128 1.78147 19.0955 2.66658C20.1494 3.25916 21.3871 4.27928 21.6496 5.89574H4.26993ZM4.22117 15.9057C4.22117 11.0901 8.14041 7.16339 12.9635 7.16339C17.5991 7.16339 21.4096 10.7976 21.6908 15.3619C21.2745 15.2382 20.8395 15.1519 20.3969 15.1031C20.2169 13.3742 19.4368 11.7727 18.1767 10.5501C16.7627 9.18865 14.9175 8.43855 12.9598 8.43855C8.84175 8.43855 5.48883 11.7915 5.48883 15.9095C5.48883 17.8597 6.23892 19.7125 7.60409 21.1151C8.83049 22.3753 10.4282 23.1554 12.1572 23.3354C12.2059 23.7817 12.2922 24.213 12.4159 24.6293C7.84787 24.348 4.22117 20.5451 4.22117 15.9057ZM12.1384 22.0453C9.11928 21.6365 6.76399 19.0036 6.76399 15.9057C6.76399 12.4891 9.54308 9.70621 12.9635 9.70621C16.0689 9.70621 18.6942 12.0615 19.103 15.0806C15.3713 15.3244 12.3784 18.3173 12.1384 22.0453ZM19.5906 28.7323C17.0515 28.7323 14.8725 27.2022 13.9124 25.0156C13.9124 25.0081 13.9049 25.0044 13.9049 24.9969C13.5748 24.2393 13.3948 23.4104 13.3948 22.5366C13.3948 19.1199 16.1739 16.337 19.5943 16.337C20.4719 16.337 21.3046 16.5171 22.0621 16.8546C24.2524 17.811 25.7901 19.9975 25.7901 22.5403C25.7864 25.9532 23.0073 28.7323 19.5906 28.7323Z" fill="#000030"/>
</svg>
