<svg width="24" height="24" viewBox="0 0 24 24" fill="none" xmlns="http://www.w3.org/2000/svg">
<path d="M3 6.75C3 6.15326 3.23705 5.58097 3.65901 5.15901C4.08097 4.73705 4.65326 4.5 5.25 4.5H11.2425C11.8392 4.5 12.4115 4.73705 12.8335 5.15901C13.2554 5.58097 13.4925 6.15326 13.4925 6.75V7.5H18.825C19.926 7.539 21 8.3205 21 9.765V14.31C21 14.9067 20.7629 15.479 20.341 15.901C19.919 16.3229 19.3467 16.56 18.75 16.56H16.6695L16.4505 17.679C16.2075 18.921 15.2295 19.503 14.25 19.4985L5.25 19.5C4.65326 19.5 4.08097 19.2629 3.65901 18.841C3.23705 18.419 3 17.8467 3 17.25V6.75ZM13.4925 17.2485C13.4925 18.156 14.8035 18.2835 14.9775 17.391L16.3155 10.521V10.518L16.5405 9.3435L16.5495 9.297L16.5675 9.216L16.5825 9.15L16.6275 9H13.4925V17.2485ZM6.7275 8.985C6.92641 8.985 7.11718 8.90598 7.25783 8.76533C7.39848 8.62468 7.4775 8.43391 7.4775 8.235C7.4775 8.03609 7.39848 7.84532 7.25783 7.70467C7.11718 7.56402 6.92641 7.485 6.7275 7.485C6.52859 7.485 6.33782 7.56402 6.19717 7.70467C6.05652 7.84532 5.9775 8.03609 5.9775 8.235C5.9775 8.43391 6.05652 8.62468 6.19717 8.76533C6.33782 8.90598 6.52859 8.985 6.7275 8.985ZM6.7425 11.235C6.54359 11.235 6.35282 11.314 6.21217 11.4547C6.07152 11.5953 5.9925 11.7861 5.9925 11.985C5.9925 12.1839 6.07152 12.3747 6.21217 12.5153C6.35282 12.656 6.54359 12.735 6.7425 12.735H9.7275C9.82998 12.7415 9.9327 12.7269 10.0293 12.6921C10.126 12.6574 10.2144 12.6032 10.2893 12.5329C10.3642 12.4626 10.4238 12.3778 10.4646 12.2835C10.5054 12.1893 10.5265 12.0877 10.5265 11.985C10.5265 11.8823 10.5054 11.7807 10.4646 11.6865C10.4238 11.5922 10.3642 11.5074 10.2893 11.4371C10.2144 11.3668 10.126 11.3126 10.0293 11.2779C9.9327 11.2431 9.82998 11.2285 9.7275 11.235H6.7425ZM6.7425 15C6.54359 15 6.35282 15.079 6.21217 15.2197C6.07152 15.3603 5.9925 15.5511 5.9925 15.75C5.9925 15.9489 6.07152 16.1397 6.21217 16.2803C6.35282 16.421 6.54359 16.5 6.7425 16.5H9.7275C9.89042 16.4995 10.0488 16.4461 10.1786 16.3476C10.3084 16.2492 10.4026 16.1111 10.447 15.9544C10.4914 15.7976 10.4836 15.6307 10.4247 15.4788C10.3658 15.3269 10.259 15.1983 10.1205 15.1125L10.0875 15.093C10.0269 15.059 9.96172 15.0337 9.894 15.018L9.879 15.015C9.84048 15.0068 9.80135 15.0018 9.762 15H6.7425Z" fill="black"/>
</svg>
