<svg width="20" height="18" viewBox="0 0 20 18" fill="none" xmlns="http://www.w3.org/2000/svg">
<path d="M11.3886 4.96318V15.666C11.3876 15.781 11.4156 15.8945 11.47 15.9958C11.5245 16.0971 11.6036 16.1831 11.7001 16.2457L12.6519 16.8773C12.7441 16.9389 12.8497 16.9774 12.9599 16.9896C13.0701 17.0018 13.1816 16.9874 13.285 16.9476C13.3885 16.9077 13.4809 16.8436 13.5544 16.7606C13.6279 16.6776 13.6804 16.5782 13.7074 16.4707L14.8495 11.885" stroke="white" stroke-width="2" stroke-linecap="round" stroke-linejoin="round"/>
<path d="M14.8497 11.8852C15.7676 11.8852 16.6479 11.5205 17.2969 10.8715C17.946 10.2224 18.3106 9.34215 18.3106 8.42426C18.3106 7.50637 17.946 6.62608 17.2969 5.97704C16.6479 5.32799 15.7676 4.96336 14.8497 4.96336H11.3888C11.3888 4.96336 6.67334 4.96336 2.13956 1.16503C2.03872 1.08158 1.91629 1.02844 1.78646 1.01176C1.65664 0.995085 1.52475 1.01556 1.40609 1.07081C1.28743 1.12607 1.18687 1.21383 1.11608 1.32392C1.04529 1.43402 1.00716 1.56193 1.00612 1.69282V15.1557C1.00716 15.2866 1.04529 15.4145 1.11608 15.5246C1.18687 15.6347 1.28743 15.7225 1.40609 15.7777C1.52475 15.833 1.65664 15.8534 1.78646 15.8368C1.91629 15.8201 2.03872 15.7669 2.13956 15.6835C6.67334 11.8852 11.3888 11.8852 11.3888 11.8852H14.8497Z" stroke="white" stroke-width="2" stroke-linecap="round" stroke-linejoin="round"/>
</svg>
