<svg width="16" height="16" viewBox="0 0 16 16" fill="none" xmlns="http://www.w3.org/2000/svg">
<g clip-path="url(#clip0_2_5333)">
<path fill-rule="evenodd" clip-rule="evenodd" d="M7.33203 2.66683C7.06939 2.66683 6.80932 2.71856 6.56666 2.81907C6.32401 2.91958 6.10353 3.0669 5.91782 3.25262C5.7321 3.43833 5.58478 3.65881 5.48427 3.90146C5.38376 4.14411 5.33203 4.40419 5.33203 4.66683C5.33203 4.92947 5.38376 5.18955 5.48427 5.4322C5.58478 5.67485 5.7321 5.89533 5.91782 6.08104C6.10353 6.26676 6.32401 6.41408 6.56666 6.51459C6.80932 6.6151 7.06939 6.66683 7.33203 6.66683C7.86246 6.66683 8.37117 6.45612 8.74625 6.08104C9.12132 5.70597 9.33203 5.19726 9.33203 4.66683C9.33203 4.1364 9.12132 3.62769 8.74625 3.25262C8.37117 2.87754 7.86246 2.66683 7.33203 2.66683ZM3.9987 4.66683C3.9987 3.78277 4.34989 2.93493 4.97501 2.30981C5.60013 1.68469 6.44798 1.3335 7.33203 1.3335C8.21609 1.3335 9.06393 1.68469 9.68905 2.30981C10.3142 2.93493 10.6654 3.78277 10.6654 4.66683C10.6654 5.55088 10.3142 6.39873 9.68905 7.02385C9.06393 7.64897 8.21609 8.00016 7.33203 8.00016C6.44798 8.00016 5.60013 7.64897 4.97501 7.02385C4.34989 6.39873 3.9987 5.55088 3.9987 4.66683ZM2.9407 11.7342C2.72536 12.0075 2.66536 12.2142 2.66536 12.3335C2.66536 12.4148 2.69003 12.5008 2.83536 12.6175C3.00136 12.7508 3.29003 12.8888 3.73136 13.0055C4.61003 13.2388 5.8727 13.3335 7.33203 13.3335C7.48003 13.3335 7.62603 13.3322 7.7707 13.3302C7.94751 13.3278 8.11803 13.3957 8.24474 13.5191C8.37145 13.6424 8.44398 13.811 8.44636 13.9878C8.44875 14.1646 8.3808 14.3352 8.25747 14.4619C8.13413 14.5886 7.96551 14.6611 7.7887 14.6635C7.63803 14.6655 7.48536 14.6668 7.33203 14.6668C5.84603 14.6668 4.44203 14.5735 3.39003 14.2948C2.8667 14.1562 2.37403 13.9575 2.0007 13.6575C1.60536 13.3402 1.33203 12.8968 1.33203 12.3335C1.33203 11.8088 1.5707 11.3182 1.8947 10.9075C2.22403 10.4908 2.67936 10.1075 3.21336 9.78083C4.28203 9.1295 5.73536 8.66683 7.33203 8.66683C7.63003 8.66683 7.92336 8.68283 8.20936 8.7135C8.3852 8.73215 8.54643 8.81989 8.65758 8.95742C8.76872 9.09494 8.82068 9.27099 8.80203 9.44683C8.78338 9.62267 8.69564 9.78389 8.55811 9.89504C8.42058 10.0062 8.24454 10.0582 8.0687 10.0395C7.8287 10.0135 7.58203 10.0002 7.33203 10.0002C5.98336 10.0002 4.77003 10.3935 3.90803 10.9195C3.4767 11.1822 3.1507 11.4675 2.9407 11.7342ZM14.4707 10.7122C14.5921 10.5864 14.6593 10.418 14.6578 10.2432C14.6563 10.0684 14.5862 9.90122 14.4626 9.77762C14.339 9.65401 14.1718 9.5839 13.997 9.58238C13.8222 9.58086 13.6538 9.64806 13.528 9.7695L11.4067 11.8908L10.464 10.9482C10.3383 10.8267 10.1699 10.7595 9.9951 10.761C9.8203 10.7626 9.65309 10.8327 9.52949 10.9563C9.40588 11.0799 9.33577 11.2471 9.33425 11.4219C9.33273 11.5967 9.39993 11.7651 9.52137 11.8908L10.888 13.2575C10.9561 13.3256 11.037 13.3797 11.126 13.4166C11.215 13.4534 11.3104 13.4724 11.4067 13.4724C11.503 13.4724 11.5984 13.4534 11.6874 13.4166C11.7764 13.3797 11.8573 13.3256 11.9254 13.2575L14.4707 10.7122Z" fill="black"/>
</g>
<defs>
<clipPath id="clip0_2_5333">
<rect width="16" height="16" fill="white"/>
</clipPath>
</defs>
</svg>
