<svg width="4" height="4" viewBox="0 0 4 4" fill="none" xmlns="http://www.w3.org/2000/svg">
<path d="M0.48489 2.06806V3.36353C0.48489 3.40372 0.500853 3.44226 0.529268 3.47067C0.557683 3.49909 0.596222 3.51505 0.636407 3.51505H3.36371C3.4039 3.51505 3.44244 3.49909 3.47085 3.47067C3.49927 3.44226 3.51523 3.40372 3.51523 3.36353V2.06806" stroke="#4F0DA3" stroke-width="0.326087" stroke-linecap="round" stroke-linejoin="round"/>
<path d="M0.598539 0.181868H3.4016C3.43447 0.182138 3.46639 0.192959 3.49264 0.212736C3.5189 0.232513 3.53811 0.2602 3.54744 0.291717L3.81827 1.24249H0.181868L0.452704 0.291717C0.462037 0.2602 0.481246 0.232513 0.507501 0.212736C0.533757 0.192959 0.56567 0.182138 0.598539 0.181868V0.181868Z" stroke="#4F0DA3" stroke-width="0.326087" stroke-linecap="round" stroke-linejoin="round"/>
<path d="M1.394 1.24244V1.54548C1.394 1.70622 1.33015 1.86037 1.21649 1.97403C1.10283 2.08769 0.948675 2.15155 0.787935 2.15155C0.627196 2.15155 0.473041 2.08769 0.359381 1.97403C0.245721 1.86037 0.181868 1.70622 0.181868 1.54548V1.24244" stroke="#4F0DA3" stroke-width="0.326087" stroke-linecap="round" stroke-linejoin="round"/>
<path d="M2.60609 1.24244V1.54548C2.60609 1.70622 2.54224 1.86037 2.42858 1.97403C2.31492 2.08769 2.16076 2.15155 2.00002 2.15155C1.83928 2.15155 1.68513 2.08769 1.57147 1.97403C1.45781 1.86037 1.39396 1.70622 1.39396 1.54548V1.24244" stroke="#4F0DA3" stroke-width="0.326087" stroke-linecap="round" stroke-linejoin="round"/>
<path d="M3.81791 1.24244V1.54548C3.81791 1.70622 3.75405 1.86037 3.64039 1.97403C3.52673 2.08769 3.37258 2.15155 3.21184 2.15155C3.0511 2.15155 2.89694 2.08769 2.78329 1.97403C2.66963 1.86037 2.60577 1.70622 2.60577 1.54548V1.24244" stroke="#4F0DA3" stroke-width="0.326087" stroke-linecap="round" stroke-linejoin="round"/>
</svg>
