<svg width="30" height="30" viewBox="0 0 30 30" fill="none" xmlns="http://www.w3.org/2000/svg">
<path d="M21.1389 1.21918C18.9057 1.21918 16.6992 2.06011 15.0001 3.51768C15 3.51756 15 3.5175 14.9999 3.5175C13.3006 2.05993 11.0942 1.21918 8.86102 1.21918C3.8923 1.21918 0 5.11136 0 10.0803C0 16.0864 4.18181 19.7577 10.5118 25.3147C11.0528 25.7897 11.6112 26.2797 12.1858 26.7879C12.1897 26.7913 12.1937 26.7948 12.1977 26.7982L14.1088 28.449C14.3647 28.6702 14.6824 28.7807 15 28.7809C15.0002 28.7809 15.0003 28.7809 15.0005 28.7809C15.3183 28.7809 15.6361 28.6702 15.8922 28.449L17.803 26.7982C17.807 26.7948 17.8109 26.7913 17.8149 26.7879C21.598 23.442 24.4346 20.8806 26.4867 18.3825C28.8836 15.4648 30.0001 12.8266 30.0001 10.0803C29.9998 5.11136 26.1076 1.21918 21.1389 1.21918Z" fill="#D8143A"/>
<path d="M21.1389 1.21918C18.9057 1.21918 16.6992 2.06011 15.0001 3.51768C15 3.51756 15 3.5175 14.9999 3.5175C13.3006 2.05993 11.0942 1.21918 8.86102 1.21918C3.8923 1.21918 0 5.11136 0 10.0803C0 16.0864 4.18181 19.7577 10.5118 25.3147C11.0528 25.7897 11.6112 26.2797 12.1858 26.7879C12.1897 26.7913 12.1937 26.7948 12.1977 26.7982L14.1088 28.449C14.3647 28.6702 14.6824 28.7807 15 28.7809C15.0002 28.7809 15.0003 28.7809 15.0005 28.7809C15.3183 28.7809 15.6361 28.6702 15.8922 28.449L17.803 26.7982C17.807 26.7948 17.8109 26.7913 17.8149 26.7879C21.598 23.442 24.4346 20.8806 26.4867 18.3825C28.8836 15.4648 30.0001 12.8266 30.0001 10.0803C29.9998 5.11136 26.1076 1.21918 21.1389 1.21918Z" fill="#D8143A"/>
<path d="M16.8184 12.2723V8.63507H14.9999H13.1812V12.2723H9.54419V15.9094H13.1812V19.5465H14.9999H16.8184V15.9094H20.4556V12.2723H16.8184Z" fill="#830018"/>
<path d="M10.5118 25.3147C11.0528 25.7897 11.6112 26.2798 12.1858 26.7879C12.1897 26.7913 12.1937 26.7949 12.1977 26.7983L14.1088 28.4491C14.3647 28.6702 14.6824 28.7807 15 28.7809V19.5466H13.1813V15.9095H9.54428V12.2724H13.1813V8.63512H15V3.51757C13.3007 2.06 11.0944 1.2193 8.86114 1.2193C3.8923 1.21918 0 5.11137 0 10.0804C0 16.0864 4.18181 19.7577 10.5118 25.3147Z" fill="#B8002B"/>
</svg>
