<svg width="24" height="25" viewBox="0 0 24 25" fill="none" xmlns="http://www.w3.org/2000/svg">
<path d="M11.675 3.01202L11.349 2.33702L11.674 3.01202H11.675ZM3 11.114L3.747 11.05C3.72978 10.8579 3.63924 10.6799 3.49416 10.5528C3.34909 10.4257 3.16064 10.3594 2.96796 10.3677C2.77528 10.3759 2.59318 10.458 2.45948 10.597C2.32578 10.736 2.25076 10.9212 2.25 11.114H3ZM20.236 12.937L19.53 17.017L21.009 17.273L21.714 13.193L20.236 12.937ZM13.245 22.13H8.596V23.63H13.245V22.13ZM7.685 21.293L6.873 11.9L5.378 12.029L6.191 21.422L7.685 21.293ZM19.53 17.017C19.023 19.947 16.381 22.13 13.245 22.13V23.63C17.071 23.63 20.371 20.961 21.009 17.273L19.53 17.017ZM13.255 5.98002L12.592 10.025L14.072 10.267L14.735 6.22302L13.255 5.98002ZM7.188 11.126L8.627 9.88602L7.647 8.75002L6.21 9.99002L7.188 11.126ZM11.244 5.85202L11.72 4.01802L10.268 3.64202L9.792 5.47502L11.244 5.85202ZM12.438 3.65802L12.583 3.70502L13.042 2.27702L12.897 2.23002L12.438 3.65802ZM10.523 7.69602C10.8354 7.11201 11.0774 6.49303 11.244 5.85202L9.792 5.47502C9.65528 6.00166 9.45656 6.51021 9.2 6.99002L10.524 7.69602H10.523ZM12.583 3.70502C12.7257 3.74826 12.8551 3.82685 12.9593 3.93349C13.0635 4.04014 13.1391 4.17137 13.179 4.31502L14.631 3.93902C14.5277 3.55053 14.3278 3.19445 14.05 2.90388C13.7722 2.61332 13.4255 2.39768 13.042 2.27702L12.583 3.70502ZM11.72 4.01802C11.7399 3.94599 11.7753 3.87917 11.8237 3.82218C11.872 3.7652 11.9322 3.71942 12 3.68802L11.349 2.33702C10.817 2.59302 10.417 3.06702 10.268 3.64202L11.72 4.01802ZM12 3.68802C12.1369 3.62265 12.2935 3.61192 12.438 3.65802L12.897 2.23002C12.3863 2.06634 11.8323 2.10463 11.349 2.33702L11.999 3.68802H12ZM14.154 11.864H19.334V10.364H14.154V11.864ZM4.719 22.286L3.747 11.05L2.253 11.179L3.223 22.415L4.719 22.286ZM3.75 22.393V11.114H2.25V22.393H3.75ZM3.223 22.415C3.21995 22.3787 3.22549 22.3421 3.23733 22.3076C3.24918 22.2731 3.26807 22.2415 3.2928 22.2147C3.31753 22.1879 3.34757 22.1665 3.381 22.1519C3.41443 22.1374 3.45053 22.1299 3.487 22.13V23.63C4.213 23.63 4.781 23.008 4.719 22.286L3.224 22.416L3.223 22.415ZM14.735 6.22302C14.8597 5.46275 14.8243 4.68481 14.631 3.93902L13.179 4.31602C13.3199 4.85934 13.3458 5.42611 13.255 5.98002L14.735 6.22302ZM8.596 22.13C8.36701 22.1296 8.14648 22.0435 7.97785 21.8885C7.80923 21.7336 7.70475 21.5212 7.685 21.293L6.191 21.422C6.24303 22.0242 6.51888 22.585 6.96411 22.9937C7.40933 23.4025 7.99159 23.6295 8.596 23.63V22.13ZM8.627 9.88602C9.307 9.30002 10.039 8.60302 10.524 7.69602L9.2 6.99002C8.854 7.63902 8.303 8.18602 7.647 8.75002L8.627 9.88602ZM21.714 13.193C21.7742 12.846 21.7578 12.49 21.666 12.15C21.5741 11.81 21.4091 11.4942 21.1823 11.2247C20.9556 10.9552 20.6727 10.7385 20.3534 10.5898C20.0341 10.4412 19.6862 10.3641 19.334 10.364V11.864C19.901 11.864 20.334 12.376 20.236 12.937L21.714 13.193ZM3.487 22.13C3.633 22.13 3.75 22.248 3.75 22.393H2.25C2.25 23.075 2.803 23.63 3.487 23.63V22.13ZM12.592 10.025C12.5547 10.2516 12.5672 10.4836 12.6285 10.7049C12.6899 10.9261 12.7986 11.1314 12.9472 11.3065C13.0958 11.4815 13.2807 11.6222 13.4891 11.7186C13.6975 11.8151 13.9244 11.864 14.154 11.864V10.364C14.1418 10.3641 14.1297 10.3624 14.1187 10.3573C14.1076 10.3522 14.0978 10.3446 14.09 10.3353C14.0821 10.3259 14.0765 10.315 14.0734 10.3032C14.0703 10.2914 14.0698 10.279 14.072 10.267L12.592 10.025ZM6.873 11.9C6.86064 11.7552 6.88184 11.6095 6.93678 11.475C6.99171 11.3404 7.07782 11.2208 7.188 11.126L6.208 9.98902C5.91802 10.2391 5.69156 10.5544 5.54726 10.909C5.40296 11.2637 5.34495 11.6476 5.378 12.029L6.873 11.899V11.9Z" fill="black"/>
</svg>
